<svg width="41" height="35" viewBox="0 0 41 35" fill="none" xmlns="http://www.w3.org/2000/svg">
<path fill-rule="evenodd" clip-rule="evenodd" d="M5.50085 26.8557C5.43894 27.0112 5.37136 27.1872 5.29768 27.3828C5.22356 27.5788 5.14683 27.7845 5.06704 28.0005C4.98682 28.2165 4.90703 28.4357 4.82681 28.6574C4.74702 28.8795 4.67029 29.0935 4.59617 29.3013H6.41425C6.33447 29.071 6.25294 28.8387 6.16966 28.6056C6.08682 28.372 6.0066 28.1491 5.92943 27.936C5.8527 27.7225 5.78076 27.5224 5.71274 27.3354C5.64516 27.148 5.58979 26.988 5.54663 26.8557H5.50085ZM6.62658 30.0444H4.37468L3.92256 31.3668C3.86719 31.3893 3.80877 31.4068 3.74773 31.4187C3.68582 31.4301 3.6117 31.4358 3.52581 31.4358C3.3719 31.4358 3.2459 31.4044 3.1478 31.3407C3.04883 31.2774 3 31.1823 3 31.0553C3 30.992 3.00916 30.93 3.02747 30.8695C3.04578 30.8095 3.07063 30.7417 3.10115 30.6666C3.18137 30.4245 3.29386 30.1126 3.43817 29.7288C3.58292 29.3458 3.73639 28.9412 3.89945 28.5145C4.06251 28.0887 4.22732 27.6694 4.39343 27.257C4.55954 26.8455 4.70386 26.4923 4.82681 26.1991C4.88872 26.1644 4.98376 26.1314 5.11282 26.0991C5.24231 26.0677 5.37441 26.0518 5.51001 26.0518C5.68833 26.0518 5.84834 26.075 5.9896 26.1212C6.13129 26.1669 6.22678 26.2477 6.27561 26.3629C6.4112 26.6915 6.559 27.0643 6.71901 27.482C6.87859 27.9001 7.03859 28.3304 7.19904 28.7738C7.35861 29.2176 7.51252 29.6528 7.65988 30.0791C7.80768 30.5053 7.94023 30.8916 8.05707 31.2366C8.00127 31.2946 7.92889 31.3423 7.83995 31.3799C7.75057 31.417 7.64462 31.4358 7.52211 31.4358C7.35556 31.4358 7.23566 31.406 7.16198 31.3452C7.08786 31.2848 7.02639 31.1823 6.97712 31.0382L6.62658 30.0444Z" fill="#0045E5"/>
<path fill-rule="evenodd" clip-rule="evenodd" d="M12.2463 30.2431C12.2463 30.6293 12.092 30.9314 11.7846 31.1507C11.4768 31.3695 11.0312 31.479 10.4465 31.479C10.2067 31.479 9.98525 31.4614 9.78251 31.4267C9.57934 31.3924 9.40538 31.3434 9.26063 31.2801C9.11588 31.2168 9.00383 31.1417 8.92404 31.0552C8.84382 30.9686 8.80371 30.8739 8.80371 30.7706C8.80371 30.684 8.82682 30.6036 8.87347 30.5285C8.91925 30.4537 8.98247 30.3929 9.06225 30.3468C9.23491 30.4505 9.43154 30.5456 9.65302 30.6322C9.87494 30.7187 10.1326 30.762 10.4282 30.762C10.7051 30.762 10.9174 30.7171 11.0652 30.6273C11.2126 30.5383 11.2867 30.4101 11.2867 30.2431C11.2867 30.0989 11.2361 29.9838 11.1341 29.8973C11.0329 29.8107 10.8834 29.7446 10.6868 29.6988L10.0589 29.5433C9.64038 29.4396 9.33301 29.2987 9.13594 29.1195C8.9393 28.9415 8.84077 28.6961 8.84077 28.385C8.84077 28.218 8.87739 28.0608 8.95151 27.9142C9.02519 27.7676 9.13463 27.6407 9.27938 27.5337C9.42369 27.4275 9.60332 27.3434 9.81913 27.283C10.0345 27.223 10.2804 27.1924 10.5577 27.1924C10.7788 27.1924 10.9806 27.2083 11.162 27.2402C11.3434 27.272 11.4999 27.3148 11.6324 27.3696C11.765 27.4247 11.8679 27.492 11.9415 27.5725C12.0157 27.6533 12.0527 27.7399 12.0527 27.8321C12.0527 27.924 12.0309 28.0036 11.9878 28.0694C11.9446 28.1359 11.8897 28.1894 11.8216 28.2294C11.7109 28.1661 11.5465 28.0971 11.3281 28.0224C11.1097 27.9473 10.8742 27.9097 10.6218 27.9097C10.3637 27.9097 10.1605 27.9518 10.0132 28.0351C9.86535 28.1184 9.79123 28.2355 9.79123 28.385C9.79123 28.5001 9.83309 28.5952 9.91593 28.6699C9.9992 28.7451 10.1422 28.8055 10.3454 28.8516L10.8803 28.9811C11.3477 29.0966 11.6922 29.2522 11.9136 29.4481C12.1356 29.6441 12.2463 29.9091 12.2463 30.2431Z" fill="#0045E5"/>
<path fill-rule="evenodd" clip-rule="evenodd" d="M14.1478 30.6144C14.2768 30.701 14.4582 30.7442 14.6919 30.7442C14.7965 30.7442 14.9073 30.7299 15.0246 30.701C15.141 30.6724 15.2426 30.6377 15.3289 30.5973C15.372 30.6434 15.4104 30.6952 15.4444 30.7528C15.478 30.8104 15.495 30.8794 15.495 30.9602C15.495 31.1101 15.4135 31.2338 15.2504 31.3318C15.0873 31.4297 14.8397 31.4787 14.5075 31.4787C14.0462 31.4787 13.6786 31.3824 13.4048 31.1893C13.131 30.9966 12.9941 30.6781 12.9941 30.2339V26.1988C13.0369 26.187 13.0988 26.1727 13.1786 26.1551C13.2584 26.138 13.3447 26.1294 13.4371 26.1294C13.6154 26.1294 13.7462 26.1612 13.8295 26.2245C13.9123 26.2874 13.9538 26.394 13.9538 26.5438V27.3996H15.3842C15.4091 27.4343 15.4318 27.4829 15.4536 27.5461C15.4749 27.6098 15.4858 27.676 15.4858 27.7454C15.4858 27.9932 15.372 28.1169 15.144 28.1169H13.9538V30.1739C13.9538 30.3813 14.0183 30.5283 14.1478 30.6144Z" fill="#0045E5"/>
<path fill-rule="evenodd" clip-rule="evenodd" d="M17.2018 31.3405C17.1582 31.3577 17.0985 31.3736 17.0217 31.3879C16.9446 31.4022 16.8604 31.4095 16.768 31.4095C16.5897 31.4095 16.4571 31.3777 16.3712 31.3148C16.2849 31.2511 16.2422 31.1446 16.2422 30.9943V28.1604C16.2422 28.0163 16.2727 27.8995 16.3342 27.8105C16.3952 27.7211 16.4942 27.6362 16.6298 27.5553C16.8081 27.4516 17.0353 27.3655 17.3125 27.2961C17.5894 27.2271 17.8937 27.1924 18.226 27.1924C18.7675 27.1924 19.0382 27.3365 19.0382 27.6239C19.0382 27.6933 19.026 27.7587 19.0011 27.8191C18.9763 27.8791 18.9488 27.9326 18.9183 27.9787C18.8564 27.9673 18.7797 27.9559 18.6877 27.9444C18.5952 27.9326 18.4967 27.9269 18.3921 27.9269C18.1462 27.9269 17.9212 27.9514 17.7185 28C17.5157 28.0489 17.3431 28.1114 17.2018 28.1861V31.3405Z" fill="#0045E5"/>
<path fill-rule="evenodd" clip-rule="evenodd" d="M21.4184 30.7787C21.6338 30.7787 21.8217 30.7587 21.9813 30.7187C22.1409 30.6783 22.2551 30.6346 22.3227 30.5885V29.4914L21.3173 29.5861C21.0335 29.6151 20.8216 29.6739 20.6804 29.7633C20.5387 29.8523 20.468 29.9891 20.468 30.1741C20.468 30.3639 20.5448 30.5121 20.6987 30.6187C20.8521 30.7253 21.0923 30.7787 21.4184 30.7787ZM21.4001 27.1924C21.9722 27.1924 22.4273 27.3087 22.7661 27.5423C23.104 27.7758 23.2732 28.1429 23.2732 28.6438V30.6579C23.2732 30.7902 23.2413 30.8922 23.1764 30.9645C23.1118 31.0368 23.0246 31.1041 22.9139 31.1674C22.7535 31.254 22.5472 31.3291 22.2952 31.3924C22.0428 31.4557 21.7511 31.4871 21.4184 31.4871C20.8216 31.4871 20.3555 31.3777 20.0207 31.1589C19.6846 30.94 19.5176 30.6175 19.5176 30.1912C19.5176 29.8107 19.6479 29.52 19.9095 29.3183C20.1711 29.1166 20.5478 28.9929 21.04 28.9468L22.3227 28.8255V28.6352C22.3227 28.3821 22.2351 28.198 22.0598 28.0824C21.8845 27.9673 21.6399 27.9097 21.326 27.9097C21.0801 27.9097 20.8434 27.9416 20.6158 28.0044C20.3882 28.0681 20.185 28.14 20.0067 28.2204C19.9448 28.1747 19.8925 28.1179 19.8493 28.0518C19.8066 27.9857 19.7853 27.9122 19.7853 27.8317C19.7853 27.7337 19.8109 27.6533 19.8637 27.5896C19.916 27.5263 19.9971 27.4716 20.1079 27.4255C20.2801 27.3451 20.4771 27.2859 20.6986 27.2487C20.9201 27.2112 21.1538 27.1924 21.4001 27.1924Z" fill="#0045E5"/>
<path fill-rule="evenodd" clip-rule="evenodd" d="M26.5221 28.7996C26.9468 28.7996 27.2799 28.713 27.5236 28.5403C27.766 28.3676 27.8876 28.1088 27.8876 27.7626C27.8876 27.4167 27.7721 27.1636 27.5419 27.0023C27.3113 26.8411 26.9803 26.7602 26.5496 26.7602C26.4079 26.7602 26.2684 26.7663 26.1302 26.7778C25.9911 26.7892 25.8664 26.8035 25.7556 26.8206V28.7996H26.5221ZM25.7653 29.5517V31.3408C25.716 31.3579 25.6515 31.3738 25.5713 31.3881C25.4914 31.4024 25.4021 31.4098 25.3035 31.4098C25.113 31.4098 24.9761 31.3767 24.8933 31.3102C24.81 31.244 24.7686 31.133 24.7686 30.9774V26.5181C24.7686 26.4201 24.7978 26.3442 24.8562 26.2895C24.9146 26.2348 24.9957 26.1927 25.1003 26.1641C25.2913 26.1008 25.519 26.0576 25.7836 26.0347C26.0478 26.0114 26.2972 26 26.5313 26C27.3305 26 27.923 26.1584 28.3076 26.4752C28.6925 26.7921 28.8844 27.2216 28.8844 27.7626C28.8844 28.3044 28.6925 28.738 28.3076 29.0634C27.923 29.3888 27.3488 29.5517 26.5863 29.5517H25.7653Z" fill="#0045E5"/>
<path fill-rule="evenodd" clip-rule="evenodd" d="M31.2632 30.7787C31.4786 30.7787 31.6661 30.7587 31.8261 30.7187C31.9857 30.6783 32.0999 30.6346 32.1675 30.5885V29.4914L31.1621 29.5861C30.8787 29.6151 30.6664 29.6739 30.5251 29.7633C30.383 29.8523 30.3123 29.9891 30.3123 30.1741C30.3123 30.3639 30.3891 30.5121 30.5434 30.6187C30.6969 30.7253 30.9371 30.7787 31.2632 30.7787ZM31.2449 27.1924C31.8169 27.1924 32.2721 27.3087 32.6109 27.5423C32.9483 27.7758 33.1179 28.1429 33.1179 28.6438V30.6579C33.1179 30.7902 33.0861 30.8922 33.0212 30.9645C32.9566 31.0368 32.869 31.1041 32.7582 31.1674C32.5982 31.254 32.392 31.3291 32.14 31.3924C31.8876 31.4557 31.5955 31.4871 31.2632 31.4871C30.6664 31.4871 30.2003 31.3777 29.865 31.1589C29.5297 30.94 29.3623 30.6175 29.3623 30.1912C29.3623 29.8107 29.4927 29.52 29.7543 29.3183C30.0159 29.1166 30.3921 28.9929 30.8848 28.9468L32.1675 28.8255V28.6352C32.1675 28.3821 32.0798 28.198 31.9046 28.0824C31.7293 27.9673 31.4847 27.9097 31.1708 27.9097C30.9249 27.9097 30.6877 27.9416 30.4601 28.0044C30.233 28.0681 30.0298 28.14 29.8515 28.2204C29.7896 28.1747 29.7373 28.1179 29.6941 28.0518C29.6514 27.9857 29.6296 27.9122 29.6296 27.8317C29.6296 27.7337 29.6557 27.6533 29.708 27.5896C29.7604 27.5263 29.8419 27.4716 29.9526 27.4255C30.1253 27.3451 30.3219 27.2859 30.5434 27.2487C30.7645 27.2112 30.9986 27.1924 31.2449 27.1924Z" fill="#0045E5"/>
<path fill-rule="evenodd" clip-rule="evenodd" d="M35.0752 30.4159C34.9209 30.1338 34.7338 29.7329 34.5119 29.2147C34.2904 28.6958 34.0751 28.1087 33.8662 27.4514C33.9216 27.3881 33.9948 27.335 34.0873 27.2917C34.1797 27.2484 34.2782 27.2268 34.3829 27.2268C34.518 27.2268 34.6292 27.257 34.7151 27.3174C34.801 27.3783 34.872 27.4828 34.9274 27.633C35.0935 28.0997 35.2657 28.559 35.4441 29.0118C35.6224 29.4638 35.8195 29.9313 36.0348 30.4159H36.0715C36.1639 30.2314 36.2576 30.0154 36.3531 29.7676C36.4482 29.5201 36.5419 29.2576 36.6343 28.9808C36.7268 28.7048 36.8126 28.4235 36.8929 28.1385C36.9731 27.8535 37.0437 27.5812 37.1052 27.3223C37.1667 27.2933 37.2295 27.2701 37.2944 27.2529C37.3589 27.2358 37.4344 27.2268 37.5203 27.2268C37.6559 27.2268 37.7696 27.257 37.8621 27.3174C37.9545 27.3783 38.0003 27.4718 38.0003 27.5983C38.0003 27.7482 37.9589 27.9772 37.876 28.2855C37.7928 28.5937 37.6833 28.9338 37.5486 29.305C37.4126 29.6765 37.2591 30.0525 37.0864 30.4331C36.9147 30.8136 36.742 31.1504 36.5698 31.4444C36.2624 31.9515 35.9838 32.3369 35.7349 32.6019C35.4855 32.8673 35.25 33 35.029 33C34.8563 33 34.7199 32.955 34.6179 32.8656C34.5167 32.7762 34.4535 32.6656 34.4291 32.5333C34.5272 32.452 34.6349 32.3545 34.7521 32.2393C34.8686 32.1238 34.9858 32.0001 35.1027 31.8678C35.2195 31.7351 35.3298 31.5983 35.4345 31.457C35.5391 31.3162 35.6289 31.179 35.7022 31.0463C35.5975 31.0177 35.4964 30.9618 35.3979 30.8781C35.2993 30.7948 35.1921 30.6405 35.0752 30.4159Z" fill="#0045E5"/>
<path fill-rule="evenodd" clip-rule="evenodd" d="M25.9221 18.653C24.7573 19.4466 22.8821 19.653 21.5149 18.2258L20.7981 17.4778C20.6565 17.3298 20.4461 17.245 20.2237 17.245C20.0013 17.245 19.7917 17.3298 19.6501 17.4778L18.8125 18.3514C18.1685 19.0234 17.3053 19.393 16.3821 19.393C15.8973 19.393 15.4221 19.2914 14.9685 19.0906C13.6709 18.5138 12.9261 17.2906 13.0245 15.8978C13.0669 15.3138 13.2389 14.7586 13.5357 14.245L16.8925 8.43061C17.5885 7.22581 18.8349 6.50661 20.2245 6.50661C21.6149 6.50661 22.8597 7.22581 23.5549 8.43061L26.9133 14.2466C26.9749 14.3538 27.0301 14.4602 27.0789 14.5674C27.8789 16.2978 27.0741 17.8666 25.9221 18.653ZM31.6301 14.0026L25.2149 2.8914C22.9893 -0.9638 17.4245 -0.9638 15.1981 2.8914L8.78368 14.0026C6.55727 17.8578 9.33967 22.677 13.7925 22.677H26.6213C31.0733 22.677 33.8557 17.8578 31.6301 14.0026Z" fill="#0045E5"/>
<path d="M25.9221 18.653C24.7573 19.4466 22.8821 19.653 21.5149 18.2258L20.7981 17.4778C20.6565 17.3298 20.4461 17.245 20.2237 17.245C20.0013 17.245 19.7917 17.3298 19.6501 17.4778L18.8125 18.3514C18.1685 19.0234 17.3053 19.393 16.3821 19.393C15.8973 19.393 15.4221 19.2914 14.9685 19.0906C13.6709 18.5138 12.9261 17.2906 13.0245 15.8978C13.0669 15.3138 13.2389 14.7586 13.5357 14.245L16.8925 8.43061C17.5885 7.22581 18.8349 6.50661 20.2245 6.50661C21.6149 6.50661 22.8597 7.22581 23.5549 8.43061L26.9133 14.2466C26.9749 14.3538 27.0301 14.4602 27.0789 14.5674C27.8789 16.2978 27.0741 17.8666 25.9221 18.653Z" fill="#EEE809"/>
<path fill-rule="evenodd" clip-rule="evenodd" d="M25.5915 15.2546C25.5619 15.1914 25.5291 15.1274 25.4931 15.0642L22.1371 9.24902C21.7371 8.55862 21.0219 8.14502 20.2243 8.14502C19.4259 8.14502 18.7107 8.55862 18.3115 9.24902L14.9539 15.0658C14.7811 15.3634 14.6819 15.6818 14.6587 16.0138C14.6011 16.833 15.1235 17.3666 15.6331 17.5922C16.3291 17.9026 17.1139 17.7546 17.6299 17.217L18.4667 16.3442C19.3947 15.3778 21.0539 15.3778 21.9803 16.3442L22.6971 17.0906C23.4099 17.8338 24.3659 17.7314 24.9979 17.2994C25.1931 17.1666 26.1403 16.441 25.5915 15.2546Z" fill="#0045E5"/>
</svg>
