<svg width="1166" height="514" viewBox="0 0 1166 514" fill="none" xmlns="http://www.w3.org/2000/svg">
<path d="M258.37 224.101L248.11 221.871L245.78 211.621C245.74 211.444 245.641 211.286 245.499 211.173C245.358 211.06 245.182 210.998 245 210.998C244.819 210.998 244.643 211.06 244.502 211.173C244.36 211.286 244.261 211.444 244.22 211.621L241.88 221.911L231.61 224.351C231.431 224.386 231.269 224.483 231.153 224.624C231.037 224.766 230.974 224.943 230.974 225.126C230.974 225.309 231.037 225.486 231.153 225.627C231.269 225.769 231.431 225.865 231.61 225.901L241.87 228.141L244.2 238.381C244.241 238.557 244.34 238.715 244.482 238.828C244.623 238.941 244.799 239.003 244.98 239.003C245.162 239.003 245.338 238.941 245.479 238.828C245.621 238.715 245.72 238.557 245.76 238.381L248.1 228.091L258.37 225.651C258.55 225.615 258.711 225.519 258.828 225.377C258.944 225.236 259.007 225.059 259.007 224.876C259.007 224.693 258.944 224.516 258.828 224.374C258.711 224.233 258.55 224.136 258.37 224.101ZM886.37 170.101L876.11 167.871L873.78 157.621C873.74 157.444 873.641 157.286 873.499 157.173C873.358 157.06 873.182 156.999 873 156.999C872.819 156.999 872.643 157.06 872.502 157.173C872.36 157.286 872.261 157.444 872.22 157.621L869.88 167.911L859.61 170.351C859.431 170.386 859.269 170.483 859.153 170.624C859.037 170.766 858.974 170.943 858.974 171.126C858.974 171.309 859.037 171.486 859.153 171.627C859.269 171.769 859.431 171.865 859.61 171.901L869.87 174.141L872.2 184.381C872.241 184.557 872.34 184.715 872.482 184.828C872.623 184.941 872.799 185.003 872.98 185.003C873.162 185.003 873.338 184.941 873.479 184.828C873.621 184.715 873.72 184.557 873.76 184.381L876.1 174.091L886.37 171.651C886.55 171.615 886.711 171.519 886.828 171.377C886.944 171.236 887.007 171.059 887.007 170.876C887.007 170.693 886.944 170.516 886.828 170.374C886.711 170.233 886.55 170.136 886.37 170.101ZM513 39.6607L506.3 38.2007L504.78 31.5207C504.749 31.4121 504.684 31.3165 504.594 31.2484C504.503 31.1804 504.393 31.1436 504.28 31.1436C504.167 31.1436 504.058 31.1804 503.967 31.2484C503.877 31.3165 503.811 31.4121 503.78 31.5207L502.25 38.2307L495.55 39.8207C495.435 39.8499 495.333 39.9171 495.26 40.0114C495.188 40.1057 495.149 40.2217 495.15 40.3407C495.15 40.4586 495.191 40.5728 495.266 40.664C495.341 40.7552 495.445 40.8176 495.56 40.8407L502.26 42.3007L503.78 48.9907C503.817 49.0943 503.884 49.184 503.974 49.2474C504.064 49.3109 504.171 49.3449 504.28 49.3449C504.39 49.3449 504.497 49.3109 504.587 49.2474C504.676 49.184 504.744 49.0943 504.78 48.9907L506.3 42.2707L513.01 40.6807C513.125 40.6536 513.227 40.5883 513.3 40.4957C513.372 40.403 513.411 40.2885 513.41 40.1707C513.411 40.0516 513.37 39.936 513.296 39.8432C513.221 39.7503 513.117 39.6859 513 39.6607ZM949 241.661L942.3 240.201L940.78 233.521C940.749 233.412 940.684 233.316 940.594 233.248C940.503 233.18 940.393 233.144 940.28 233.144C940.167 233.144 940.058 233.18 939.967 233.248C939.877 233.316 939.811 233.412 939.78 233.521L938.25 240.231L931.55 241.821C931.435 241.85 931.333 241.917 931.26 242.011C931.188 242.106 931.149 242.222 931.15 242.341C931.15 242.459 931.191 242.573 931.266 242.664C931.341 242.755 931.445 242.818 931.56 242.841L938.26 244.301L939.78 250.991C939.817 251.094 939.884 251.184 939.974 251.247C940.064 251.311 940.171 251.345 940.28 251.345C940.39 251.345 940.497 251.311 940.587 251.247C940.676 251.184 940.744 251.094 940.78 250.991L942.3 244.271L949.01 242.681C949.125 242.654 949.227 242.588 949.3 242.496C949.372 242.403 949.411 242.288 949.41 242.171C949.411 242.052 949.37 241.936 949.296 241.843C949.221 241.75 949.117 241.686 949 241.661Z" fill="#3F3D56"/>
<path d="M432.57 92.2104C432.57 92.2104 422.16 63.5805 394.39 71.3905C394.39 71.3905 390.92 29.7504 345.81 27.1504C300.7 24.5504 286.81 60.1504 286.81 60.1504C286.81 60.1504 248.64 39.3304 222.61 71.4304C222.61 71.4304 193.12 71.4304 187.04 92.2504L432.57 92.2104Z" fill="white"/>
<path d="M436.85 95.2108H183.05L184.17 91.3708C190.06 71.1808 214.84 68.7308 221.17 68.4308C244.17 41.3608 275.77 51.9908 285.37 56.1308C288.475 50.2822 292.53 44.9901 297.37 40.4708C306.11 32.2508 321.64 22.7408 346.02 24.1508C385.35 26.4208 394.8 57.2808 396.87 67.7208C424.54 62.2708 435.31 90.8908 435.41 91.1908L436.85 95.2108ZM191.49 89.2108H427.86C424.01 82.2108 414.04 68.9808 395.21 74.2808L391.71 75.2808L391.4 71.6608C391.27 70.0708 387.53 32.5808 345.64 30.1608C303.19 27.7108 289.75 60.8908 289.64 61.2208L288.4 64.4008L285.4 62.7708C283.94 61.9708 249.08 43.5708 224.97 73.3008L224.07 74.4108H222.64C222.37 74.3908 199.21 74.6208 191.49 89.2108Z" fill="#3F3D56"/>
<path d="M929.37 53.6701C929.37 53.6701 921.37 31.6701 900.03 37.6701C900.03 37.6701 897.36 5.67008 862.67 3.67008C827.98 1.67008 817.32 29.0001 817.32 29.0001C817.32 29.0001 788 13.0001 768 37.6601C768 37.6601 745.32 37.6601 740.65 53.6601L929.37 53.6701Z" fill="white"/>
<path d="M933.66 56.6705H736.66L737.78 52.8304C742.34 37.1704 761.13 35.0004 766.56 34.7104C784.08 14.3304 807.87 21.7104 815.97 25.0504C820.02 17.7304 833.32 -1.05956 862.9 0.650435C892.8 2.37044 900.6 25.2805 902.5 34.0405C919.5 31.1205 929.33 44.6205 932.24 52.6405L933.66 56.6705ZM745.22 50.6705H924.55C921.32 45.2805 913.97 36.8504 900.84 40.5504L897.34 41.5504L897.04 37.9304C896.93 36.7304 894.04 8.48045 862.5 6.66045C830.35 4.79045 820.21 29.8404 820.11 30.1004L818.87 33.2704L815.87 31.6405C814.76 31.0405 788.44 17.1705 770.28 39.5704L769.38 40.6804H768C767.78 40.6604 751.48 40.8305 745.22 50.6705Z" fill="#3F3D56"/>
<path d="M202.69 513.001H371.69C373.83 490.601 356.23 482.871 356.23 482.871C360.5 475.801 358.5 471.271 358.5 471.271C355.83 467.541 353.03 471.271 353.03 471.271C353.16 462.211 348.63 460.611 348.63 460.611C345.43 459.811 344.36 466.071 344.36 466.071C334.77 456.071 325.43 461.541 325.43 461.541C326.239 459.325 326.469 456.94 326.1 454.611C324.37 452.341 322.5 455.271 322.5 455.271C323.03 443.141 318.63 442.611 318.63 442.611C314.23 442.481 315.03 451.811 315.03 451.811C308.64 443.011 301.3 442.611 301.3 442.611C289.84 442.481 284.11 454.471 284.11 454.471C284.91 440.211 279.71 440.211 279.71 440.211C273.84 441.411 277.57 456.871 277.57 456.871C269.31 450.341 262.11 451.941 262.11 451.941C248.24 454.341 244.38 473.811 244.38 473.811C240.51 468.341 237.85 469.671 237.85 469.671C234.11 471.671 235.98 477.401 235.98 477.401C223.71 480.471 233.31 482.871 233.31 482.871C231.629 484.463 230.271 486.364 229.31 488.471C207 488.201 202.69 513.001 202.69 513.001Z" fill="#3F3D56"/>
<path d="M291.39 510.66H28.2696C24.9996 475.8 52.3396 463.77 52.3396 463.77C45.6996 452.77 48.8196 445.71 48.8196 445.71C52.9696 439.9 57.3196 445.71 57.3196 445.71C57.1196 431.6 64.1696 429.11 64.1696 429.11C69.1696 427.87 70.8096 437.62 70.8096 437.62C85.7496 422.06 100.28 430.62 100.28 430.62C98.1996 423.97 99.2796 419.82 99.2796 419.82C101.98 416.3 104.88 420.82 104.88 420.82C104.05 401.94 110.88 401.11 110.88 401.11C117.73 400.9 116.48 415.43 116.48 415.43C126.48 401.73 137.86 401.11 137.86 401.11C155.7 400.9 164.63 419.58 164.63 419.58C163.38 397.37 171.47 397.37 171.47 397.37C180.6 399.24 174.79 423.31 174.79 423.31C187.66 413.14 198.86 415.63 198.86 415.63C220.45 419.37 226.46 449.63 226.46 449.63C232.46 441.12 236.63 443.19 236.63 443.19C242.44 446.31 239.54 455.19 239.54 455.19C258.63 459.96 243.69 463.7 243.69 463.7C247.42 466.81 249.91 472.41 249.91 472.41C284.75 472.07 291.39 510.66 291.39 510.66Z" fill="#FCC548"/>
<path d="M295 513.661H25.5404L25.2904 511.001C22.4604 481.321 41.0004 467.001 48.2704 462.581C42.9304 451.901 45.9304 444.821 46.0704 444.501L46.2004 444.221L46.3704 443.971C48.6104 440.831 51.1004 440.151 52.7904 440.131C53.4047 440.124 54.0171 440.201 54.6104 440.361C56.1204 428.921 62.8504 426.361 63.1704 426.281L63.4404 426.201C64.2869 425.985 65.1693 425.948 66.0306 426.095C66.8919 426.241 67.7129 426.567 68.4404 427.051C70.1827 428.345 71.5129 430.117 72.2704 432.151C81.6104 424.531 90.6104 424.701 96.1504 425.961C95.7901 423.667 95.8375 421.328 96.2904 419.051L96.4404 418.441L96.8204 417.951C97.3499 417.158 98.0713 416.512 98.9176 416.073C99.7638 415.634 100.707 415.417 101.66 415.441H101.78C102.38 399.941 109.01 398.291 110.46 398.111H110.73C111.731 398.069 112.73 398.246 113.655 398.629C114.581 399.013 115.412 399.593 116.09 400.331C117.84 402.181 118.73 404.961 119.16 407.671C128.32 398.741 137.16 398.141 137.63 398.111H137.76C148.94 398.001 156.85 404.321 161.66 409.941C162.19 403.941 163.72 399.621 166.23 396.941C166.878 396.185 167.669 395.566 168.559 395.119C169.448 394.673 170.418 394.408 171.41 394.341H171.72L172.01 394.401C173.089 394.63 174.11 395.077 175.009 395.715C175.909 396.353 176.668 397.168 177.24 398.111C180.16 402.701 179.78 410.891 178.96 416.861C189.68 410.951 198.32 412.451 199.37 412.661C216.86 415.721 224.84 433.961 227.84 443.411C233.28 438.471 237.37 440.251 237.91 440.521C242.97 443.231 243.65 448.801 243.03 453.091C248.03 454.561 252.19 456.571 252.19 460.191C252.19 462.371 250.67 463.901 248.82 464.951C249.9 466.383 250.867 467.898 251.71 469.481C287.06 470.421 294.24 509.731 294.31 510.131L295 513.661ZM31.1104 507.661H287.62C285.13 498.661 276.26 475.481 250.44 475.481H247.93L247.13 473.671C247.13 473.621 244.86 468.671 241.73 466.041L237.19 462.261L242.92 460.831C243.601 460.644 244.269 460.414 244.92 460.141C242.92 459.292 240.849 458.623 238.73 458.141L235.61 457.361L236.61 454.301C236.61 454.251 238.52 447.981 235.37 445.971C234.54 445.891 232.12 446.721 228.84 451.361L224.84 457.061L223.48 450.211C223.42 449.931 217.59 421.891 198.31 418.551H198.17C197.79 418.471 188.08 416.551 176.61 425.661L169.81 431.041L171.81 422.601C173.28 416.481 174.68 405.301 172.17 401.351C171.969 400.997 171.68 400.7 171.33 400.491C170.25 401.131 166.71 404.401 167.55 419.401L168.4 434.581L161.85 420.861C161.77 420.701 153.52 403.981 137.91 404.101C137.1 404.171 127.53 405.231 118.84 417.181L112.5 425.891L113.42 415.161C113.7 411.851 113.35 406.161 111.72 404.441C111.602 404.294 111.441 404.186 111.26 404.131C110.45 404.671 107.26 407.691 107.79 420.681L108.28 431.881L102.28 422.421C102.19 422.278 102.086 422.144 101.97 422.021C101.916 424.617 102.301 427.203 103.11 429.671L105.42 437.071L98.7304 433.151C98.2304 432.871 85.9704 426.151 72.9504 439.701L68.8504 444.001L67.8504 438.131C67.5004 436.131 66.3804 432.851 65.2004 432.131L65.0504 432.061C64.2804 432.491 60.1704 435.221 60.3204 445.731L60.4604 454.951L54.9204 447.571C54.422 446.873 53.6857 446.383 52.8504 446.191C52.4904 446.191 51.9904 446.581 51.4804 447.191C51.1104 448.381 49.8604 453.881 54.9104 462.251L56.6804 465.171L53.5504 466.541C52.5504 467.001 29.5704 477.571 31.0604 507.661H31.1104Z" fill="#3F3D56"/>
<path d="M216.9 491.57C208.78 496.94 204.9 505.5 203.29 510.66H145.06C140.43 496 142 488.25 142 488.25C145.94 495.1 150.3 496.97 150.3 496.97C155.07 488.25 153.2 464.8 153.2 464.8C161.92 472.9 163.2 484.53 163.2 484.53C166.364 475.047 172.916 467.064 181.6 462.11C172.47 477.05 172.06 499.04 172.06 499.04C183.26 481.2 204.63 483.27 204.63 483.27C189.07 488.46 188.45 504.27 188.45 504.27C199.05 492.4 216.9 491.57 216.9 491.57Z" fill="white"/>
<path d="M205.48 513.66H142.86L142.2 511.57C137.39 496.38 139 488 139 487.66L140.57 479.85L144.57 486.76C145.719 488.814 147.172 490.681 148.88 492.3C151.05 484.41 150.61 470.46 150.18 465.04L149.57 457.37L155.21 462.61C159.034 466.24 161.994 470.683 163.87 475.61C167.815 468.825 173.505 463.22 180.35 459.38L189.28 455.29L184.16 463.67C179.16 471.82 176.91 482.37 175.89 489.83C188.12 478.83 204.13 480.21 204.89 480.29L219 481.65L205.6 486.12C200.65 487.685 196.511 491.128 194.07 495.71C200.979 491.608 208.747 489.167 216.76 488.58L227.64 488.07L218.55 494.07C211.06 499.02 207.55 507.16 206.15 511.57L205.48 513.66ZM189.42 507.66H201.16C202.662 503.611 204.766 499.812 207.4 496.39C202.04 497.96 195.5 500.87 190.7 506.23L189.42 507.66ZM170.21 507.66H185.33L185.47 504.11C185.936 497.975 188.394 492.159 192.47 487.55C185.062 489.474 178.669 494.157 174.6 500.64L170.21 507.66ZM147.28 507.66H168.91L169.08 498.99C169.411 489.902 170.982 480.902 173.75 472.24C170.27 476.031 167.653 480.531 166.08 485.43L161.82 498.89L160.24 484.89C159.632 481.119 158.391 477.478 156.57 474.12C156.63 482.01 156.06 492.71 152.92 498.44L151.61 500.83L149.11 499.76C147.623 499.043 146.256 498.098 145.06 496.96C145.506 500.581 146.249 504.16 147.28 507.66Z" fill="#3F3D56"/>
<path d="M973.601 513.001H1142.6C1144.74 490.601 1127.14 482.871 1127.14 482.871C1131.4 475.801 1129.4 471.271 1129.4 471.271C1126.74 467.541 1123.94 471.271 1123.94 471.271C1124.07 462.211 1119.54 460.611 1119.54 460.611C1116.34 459.811 1115.27 466.071 1115.27 466.071C1105.67 456.071 1096.34 461.541 1096.34 461.541C1097.15 459.325 1097.38 456.94 1097.01 454.611C1095.28 452.341 1093.41 455.271 1093.41 455.271C1093.94 443.141 1089.54 442.611 1089.54 442.611C1085.14 442.481 1085.94 451.811 1085.94 451.811C1079.54 443.011 1072.21 442.611 1072.21 442.611C1060.75 442.481 1055.01 454.471 1055.01 454.471C1055.81 440.211 1050.62 440.211 1050.62 440.211C1044.75 441.411 1048.48 456.871 1048.48 456.871C1040.22 450.341 1033.02 451.941 1033.02 451.941C1019.15 454.341 1015.29 473.811 1015.29 473.811C1011.42 468.341 1008.75 469.671 1008.75 469.671C1005.02 471.671 1006.89 477.401 1006.89 477.401C994.621 480.471 1004.22 482.871 1004.22 482.871C1002.54 484.463 1001.18 486.364 1000.22 488.471C977.861 488.201 973.601 513.001 973.601 513.001Z" fill="#3F3D56"/>
<path d="M1062.3 510.661H799.181C795.861 475.801 823.251 463.771 823.251 463.771C816.611 452.771 819.72 445.711 819.72 445.711C823.87 439.901 828.231 445.711 828.231 445.711C828.021 431.601 835.081 429.111 835.081 429.111C840.081 427.871 841.72 437.621 841.72 437.621C856.66 422.061 871.191 430.621 871.191 430.621C869.111 423.971 870.191 419.821 870.191 419.821C872.891 416.301 875.791 420.821 875.791 420.821C874.961 401.941 881.791 401.111 881.791 401.111C888.641 400.901 887.391 415.431 887.391 415.431C897.391 401.731 908.771 401.111 908.771 401.111C926.611 400.901 935.531 419.581 935.531 419.581C934.291 397.371 942.381 397.371 942.381 397.371C951.511 399.241 945.701 423.311 945.701 423.311C958.571 413.141 969.771 415.631 969.771 415.631C991.351 419.371 997.371 449.631 997.371 449.631C1003.37 441.121 1007.54 443.191 1007.54 443.191C1013.35 446.311 1010.44 455.191 1010.44 455.191C1029.54 459.961 1014.6 463.701 1014.6 463.701C1018.33 466.811 1020.82 472.411 1020.82 472.411C1055.66 472.071 1062.3 510.661 1062.3 510.661Z" fill="#FCC548"/>
<path d="M1065.86 513.661H796.45L796.19 510.951C793.37 481.321 811.88 467.021 819.19 462.581C813.85 451.901 816.85 444.821 816.99 444.501L817.11 444.221L817.29 443.971C819.53 440.831 822.02 440.151 823.71 440.131C824.325 440.122 824.937 440.199 825.53 440.361C827.03 428.921 833.77 426.361 834.09 426.281L834.36 426.201C835.207 425.985 836.089 425.948 836.95 426.095C837.812 426.241 838.633 426.567 839.36 427.051C841.103 428.345 842.433 430.117 843.19 432.151C852.53 424.531 861.53 424.701 867.07 425.961C866.71 423.667 866.757 421.328 867.21 419.051L867.36 418.441L867.74 417.951C868.27 417.159 868.992 416.513 869.838 416.075C870.684 415.636 871.627 415.418 872.58 415.441H872.7C873.3 399.941 879.93 398.291 881.38 398.111H881.65C882.651 398.067 883.65 398.244 884.576 398.627C885.502 399.011 886.333 399.592 887.01 400.331C888.76 402.181 889.65 404.961 890.08 407.671C899.24 398.741 908.08 398.141 908.55 398.111H908.68C919.86 398.011 927.77 404.321 932.57 409.941C933.11 403.941 934.64 399.621 937.15 396.941C937.798 396.185 938.589 395.566 939.479 395.119C940.368 394.673 941.337 394.408 942.33 394.341H942.64L942.93 394.401C944.009 394.63 945.03 395.077 945.929 395.715C946.828 396.353 947.588 397.168 948.16 398.111C951.08 402.701 950.7 410.891 949.88 416.861C960.6 410.951 969.24 412.451 970.29 412.661C987.78 415.721 995.76 433.961 998.76 443.421C1004.2 438.421 1008.29 440.251 1008.83 440.521C1013.89 443.231 1014.57 448.801 1013.95 453.091C1018.95 454.561 1023.11 456.571 1023.11 460.191C1023.11 462.371 1021.59 463.901 1019.74 464.951C1020.82 466.383 1021.79 467.898 1022.63 469.481C1057.98 470.421 1065.16 509.731 1065.23 510.131L1065.86 513.661ZM801.97 507.661H1058.53C1056.04 498.661 1047.16 475.481 1021.35 475.481H1018.84L1018.04 473.671C1018.04 473.621 1015.77 468.671 1012.64 466.041L1008.1 462.261L1013.83 460.831C1014.51 460.646 1015.18 460.416 1015.83 460.141C1013.83 459.29 1011.77 458.621 1009.65 458.141L1006.53 457.361L1007.53 454.301C1007.53 454.241 1009.43 447.981 1006.28 445.971C1005.46 445.901 1003.04 446.721 999.76 451.361L995.76 457.061L994.4 450.211C994.34 449.931 988.5 421.891 969.23 418.551H969.09C968.7 418.471 959 416.551 947.53 425.661L940.73 431.041L942.73 422.601C944.2 416.481 945.6 405.301 943.09 401.351C942.889 400.997 942.599 400.7 942.25 400.491C941.17 401.131 937.63 404.401 938.47 419.401L939.32 434.581L932.77 420.861C932.69 420.701 924.5 404.101 908.99 404.101H908.83C908.01 404.171 898.45 405.231 889.76 417.181L883.42 425.891L884.34 415.161C884.62 411.851 884.27 406.161 882.64 404.441C882.522 404.294 882.361 404.186 882.18 404.131C881.37 404.671 878.18 407.691 878.71 420.681L879.2 431.881L873.2 422.421C873.11 422.291 873 422.151 872.89 422.021C872.825 424.618 873.211 427.206 874.03 429.671L876.34 437.071L869.65 433.151C869.15 432.871 856.89 426.151 843.86 439.701L839.76 444.001L838.76 438.131C838.41 436.131 837.29 432.851 836.11 432.131L836 432.001C835.23 432.431 831.12 435.161 831.27 445.671L831.41 454.901L825.87 447.511C825.366 446.819 824.632 446.33 823.8 446.131C823.44 446.131 822.94 446.521 822.43 447.131C822.06 448.321 820.81 453.821 825.86 462.191L827.62 465.111L824.5 466.481C823.46 467.001 800.48 477.571 802 507.661H801.97Z" fill="#3F3D56"/>
<path d="M987.811 491.571C979.681 496.941 975.861 505.501 974.201 510.661H916.001C911.371 496.041 912.931 488.251 912.931 488.251C916.871 495.101 921.231 496.971 921.231 496.971C926.001 488.251 924.131 464.801 924.131 464.801C932.851 472.901 935.831 479.801 935.831 479.801C944.391 457.311 962.371 452.061 962.601 451.961C955.501 465.381 949.751 486.221 949.751 486.221C961.521 475.521 979.751 479.801 979.751 479.801C964.181 484.991 961.541 502.281 961.541 502.281C972.081 490.461 987.811 491.571 987.811 491.571Z" fill="white"/>
<path d="M976.38 513.661H913.77L913.11 511.571C908.3 496.381 909.88 488.011 909.95 487.661L911.52 479.851L915.52 486.761C916.669 488.811 918.118 490.678 919.82 492.301C922.01 484.411 921.56 470.461 921.13 465.041L920.52 457.371L926.16 462.611C929.637 465.799 932.75 469.364 935.44 473.241C944.19 455.851 958.32 450.241 961.44 449.181L969.34 445.561L965.21 453.371C961 461.291 957.28 472.001 955 479.211C966.73 473.781 979.75 476.731 980.41 476.891L990.71 479.311L980.71 482.651C975.295 484.506 970.765 488.309 968 493.321C974.127 489.992 981.03 488.355 988 488.581L996.82 489.201L989.44 494.081C981.95 499.031 978.44 507.171 977.03 511.581L976.38 513.661ZM960.72 507.661H972.07C973.717 503.249 976.083 499.141 979.07 495.501C973.191 496.799 967.852 499.866 963.77 504.291L960.72 507.661ZM918.19 507.661H957.64L958.53 501.841C958.62 501.231 960.53 489.661 969.68 482.001C964.11 482.191 957.1 483.581 951.73 488.451L944.07 495.451L946.83 485.451C949.413 476.272 952.542 467.256 956.2 458.451C950.58 462.071 943.2 468.831 938.6 480.891L935.97 487.791L933 481.001C931.501 478.001 929.626 475.205 927.42 472.681C927.56 480.681 927.12 492.331 923.79 498.411L922.48 500.801L920 499.731C918.532 499.007 917.183 498.062 916 496.931C916.44 500.56 917.173 504.148 918.19 507.661Z" fill="#3F3D56"/>
<path d="M712.859 221.4H769.349V510.33H712.859V221.4ZM393.979 221.4H450.469V510.33H393.979V221.4Z" fill="#3F3D56"/>
<path d="M366.18 301.301H795.53V415.901H366.18V301.301Z" fill="white"/>
<path d="M798.54 418.901H363.18V298.301H798.54V418.901ZM369.18 412.901H792.54V304.301H369.18V412.901Z" fill="#3F3D56"/>
<path d="M444.37 301.301L366.18 374.671V301.301H444.37Z" fill="#49B38D"/>
<path d="M363.18 381.601V298.301H452L363.18 381.601ZM369.18 304.301V367.741L436.79 304.301H369.18Z" fill="#3F3D56"/>
<path d="M599.79 301.301L490.6 415.901H408L521.39 301.301H599.79Z" fill="#49B38D"/>
<path d="M491.88 418.901H400.81L520.14 298.301H606.79L491.88 418.901ZM415.19 412.901H489.31L592.79 304.301H522.65L415.19 412.901Z" fill="#3F3D56"/>
<path d="M756.799 301.301L642.2 415.901H564.52L677.909 301.301H756.799Z" fill="#49B38D"/>
<path d="M643.44 418.901H557.33L676.66 298.301H764L643.44 418.901ZM571.71 412.901H641L749.6 304.301H679.17L571.71 412.901Z" fill="#3F3D56"/>
<path d="M795.53 343.811V415.901H720.59L795.53 343.811Z" fill="#49B38D"/>
<path d="M798.539 418.901H713.149L798.539 336.761V418.901ZM728.039 412.901H792.539V350.901L728.039 412.901Z" fill="#3F3D56"/>
<path d="M366.18 146.341H795.53V260.941H366.18V146.341Z" fill="white"/>
<path d="M798.54 263.941H363.18V143.341H798.54V263.941ZM369.18 257.941H792.54V149.341H369.18V257.941Z" fill="#3F3D56"/>
<path d="M444.37 146.341L366.18 219.721V146.341H444.37Z" fill="#49B38D"/>
<path d="M363.18 226.651V143.341H452L363.18 226.651ZM369.18 149.341V212.791L436.79 149.341H369.18Z" fill="#3F3D56"/>
<path d="M599.79 146.341L490.6 260.941H408L521.39 146.341H599.79Z" fill="#49B38D"/>
<path d="M491.88 263.941H400.81L520.14 143.341H606.79L491.88 263.941ZM415.19 257.941H489.31L592.79 149.341H522.65L415.19 257.941Z" fill="#3F3D56"/>
<path d="M756.799 146.341L642.2 260.941H564.52L677.909 146.341H756.799Z" fill="#49B38D"/>
<path d="M643.44 263.941H557.33L676.66 143.341H764L643.44 263.941ZM571.71 257.941H641L749.6 149.341H679.17L571.71 257.941Z" fill="#3F3D56"/>
<path d="M795.53 188.86V260.94H720.59L795.53 188.86Z" fill="#49B38D"/>
<path d="M798.539 263.941H713.149L798.539 181.811V263.941ZM728.039 257.941H792.539V195.941L728.039 257.941Z" fill="#3F3D56"/>
<path d="M473.159 280.821H690.489C692.874 280.82 695.216 280.188 697.279 278.99C699.341 277.793 701.05 276.071 702.232 274C703.415 271.929 704.029 269.583 704.013 267.198C703.997 264.813 703.35 262.475 702.139 260.421L593.479 76.2207C592.284 74.1929 590.58 72.5121 588.536 71.3444C586.492 70.1767 584.178 69.5625 581.824 69.5625C579.47 69.5625 577.157 70.1767 575.113 71.3444C573.069 72.5121 571.365 74.1929 570.169 76.2207L461.509 260.421C460.295 262.475 459.646 264.813 459.628 267.199C459.61 269.585 460.224 271.933 461.408 274.005C462.591 276.077 464.301 277.799 466.365 278.996C468.429 280.193 470.773 280.823 473.159 280.821Z" fill="#FCC548"/>
<path d="M690.489 283.821H473.159C470.244 283.821 467.381 283.051 464.859 281.588C462.338 280.124 460.248 278.021 458.803 275.489C457.357 272.958 456.606 270.089 456.626 267.174C456.647 264.259 457.438 261.401 458.919 258.891L567.579 74.6906C569.042 72.2152 571.124 70.1639 573.622 68.7389C576.119 67.3139 578.944 66.5645 581.819 66.5645C584.695 66.5645 587.52 67.3139 590.017 68.7389C592.514 70.1639 594.597 72.2152 596.059 74.6906L704.719 258.891C706.2 261.401 706.991 264.257 707.012 267.172C707.033 270.086 706.283 272.954 704.839 275.485C703.394 278.016 701.306 280.12 698.786 281.584C696.266 283.048 693.404 283.819 690.489 283.821ZM581.819 72.5605C579.986 72.5535 578.183 73.0283 576.592 73.9374C575 74.8465 573.675 76.1581 572.749 77.7405L464.089 261.941C463.146 263.54 462.642 265.36 462.629 267.217C462.616 269.074 463.094 270.901 464.015 272.513C464.936 274.125 466.267 275.465 467.873 276.398C469.479 277.33 471.303 277.821 473.159 277.821H690.489C692.346 277.821 694.17 277.33 695.776 276.398C697.382 275.465 698.713 274.125 699.633 272.513C700.554 270.901 701.032 269.074 701.019 267.217C701.006 265.36 700.503 263.54 699.559 261.941L590.889 77.7405C589.966 76.156 588.642 74.8428 587.049 73.9334C585.457 73.0239 583.653 72.5504 581.819 72.5605Z" fill="#3F3D56"/>
<path d="M569.71 240.47C568.19 239.061 566.985 237.346 566.173 235.438C565.362 233.531 564.962 231.473 565 229.4C564.941 227.331 565.335 225.274 566.156 223.374C566.977 221.474 568.203 219.776 569.75 218.4C573.112 215.457 577.475 213.914 581.94 214.09C586.893 214.09 590.93 215.527 594.05 218.4C595.578 219.787 596.788 221.489 597.595 223.387C598.403 225.286 598.79 227.338 598.73 229.4C598.761 231.477 598.353 233.536 597.533 235.444C596.713 237.352 595.498 239.065 593.97 240.47C592.366 241.977 590.48 243.153 588.421 243.93C586.362 244.708 584.17 245.071 581.97 245C579.729 245.092 577.491 244.738 575.387 243.961C573.283 243.183 571.354 241.997 569.71 240.47ZM581.88 139.65C584.018 139.651 586.132 140.095 588.089 140.956C590.046 141.816 591.803 143.073 593.249 144.648C594.694 146.222 595.797 148.08 596.488 150.103C597.178 152.126 597.441 154.27 597.26 156.4L593 205.77H570.6L566.5 156.37C566.323 154.243 566.589 152.102 567.282 150.082C567.974 148.063 569.078 146.209 570.523 144.638C571.969 143.066 573.724 141.812 575.679 140.953C577.633 140.095 579.745 139.651 581.88 139.65Z" fill="white"/>
<path d="M581.899 248C576.625 248.165 571.5 246.238 567.639 242.64C565.824 240.952 564.383 238.901 563.411 236.62C562.44 234.339 561.959 231.879 561.999 229.4C561.938 226.912 562.419 224.44 563.41 222.157C564.402 219.874 565.879 217.834 567.739 216.18C571.649 212.732 576.73 210.911 581.939 211.09C587.639 211.09 592.399 212.81 596.079 216.19C597.915 217.857 599.369 219.9 600.344 222.18C601.319 224.459 601.792 226.922 601.729 229.4C601.758 231.886 601.263 234.35 600.275 236.631C599.288 238.912 597.831 240.96 595.999 242.64C592.194 246.222 587.123 248.15 581.899 248ZM581.899 217.09C578.181 216.914 574.539 218.179 571.729 220.62C570.5 221.72 569.529 223.076 568.884 224.594C568.239 226.112 567.937 227.753 567.999 229.4C567.967 231.069 568.29 232.725 568.949 234.258C569.608 235.791 570.587 237.166 571.819 238.29C573.17 239.546 574.756 240.521 576.487 241.158C578.217 241.795 580.057 242.081 581.899 242C583.729 242.08 585.557 241.793 587.274 241.156C588.992 240.519 590.564 239.545 591.899 238.29C593.136 237.168 594.117 235.794 594.778 234.261C595.438 232.727 595.763 231.07 595.729 229.4C595.788 227.753 595.485 226.112 594.842 224.594C594.199 223.075 593.233 221.716 592.009 220.61C589.399 218.24 586.109 217.09 581.899 217.09ZM595.789 208.77H567.839L563.509 156.61C563.308 154.073 563.634 151.521 564.467 149.116C565.3 146.711 566.623 144.504 568.351 142.636C570.08 140.767 572.177 139.276 574.509 138.258C576.842 137.24 579.361 136.716 581.907 136.72C584.452 136.723 586.969 137.254 589.299 138.278C591.63 139.303 593.722 140.799 595.446 142.673C597.169 144.546 598.485 146.756 599.312 149.163C600.139 151.571 600.458 154.124 600.249 156.66L595.789 208.77ZM573.369 202.77H590.289L594.289 156.14C594.427 154.43 594.209 152.709 593.649 151.087C593.088 149.464 592.198 147.976 591.034 146.714C589.87 145.453 588.458 144.446 586.886 143.758C585.313 143.069 583.616 142.714 581.899 142.714C580.183 142.714 578.485 143.069 576.913 143.758C575.341 144.446 573.929 145.453 572.765 146.714C571.601 147.976 570.711 149.464 570.15 151.087C569.59 152.709 569.372 154.43 569.509 156.14L573.369 202.77Z" fill="#3F3D56"/>
<path d="M0 507.86H1166V513.86H0V507.86Z" fill="#3F3D56"/>
</svg>
