<svg width="256" height="256" viewBox="0 0 256 256" fill="none" xmlns="http://www.w3.org/2000/svg">
<g clip-path="url(#clip0_1950_1319)">
<g clip-path="url(#clip1_1950_1319)">
<path d="M4.39754 117.413L117.415 4.3976C118.802 3.00349 120.452 1.89727 122.269 1.14243C124.085 0.387596 126.033 -0.000976562 128 -0.000976562C129.967 -0.000976563 131.915 0.387596 133.732 1.14243C135.548 1.89727 137.198 3.00349 138.586 4.3976L251.601 117.413C252.995 118.801 254.101 120.45 254.856 122.267C255.611 124.083 255.999 126.031 255.999 127.998C255.999 129.965 255.611 131.913 254.856 133.73C254.101 135.546 252.995 137.196 251.601 138.584L138.586 251.603C137.198 252.997 135.548 254.103 133.731 254.857C131.915 255.612 129.967 256 128 256C126.033 256 124.085 255.612 122.269 254.857C120.452 254.103 118.803 252.997 117.415 251.603L4.39754 138.584C3.00366 137.196 1.89764 135.546 1.14294 133.73C0.388252 131.913 -0.000244141 129.965 -0.000244141 127.998C-0.000244141 126.031 0.388252 124.083 1.14294 122.267C1.89764 120.45 3.00366 118.801 4.39754 117.413Z" fill="#F1CD34"/>
<path d="M128.419 151.799H127.134C124.518 151.799 121.997 150.799 120.067 148.996C118.136 147.194 116.936 144.719 116.702 142.059L110.863 75.4488C110.733 73.9722 110.906 72.4841 111.37 71.0793C111.835 69.6746 112.581 68.384 113.561 67.2898C114.541 66.1956 115.733 65.3218 117.062 64.7239C118.391 64.1261 119.827 63.8173 121.279 63.8174H134.757C136.206 63.8173 137.64 64.1262 138.965 64.7245C140.291 65.3228 141.479 66.1971 142.455 67.2916C143.43 68.386 144.171 69.6764 144.63 71.0801C145.088 72.4839 145.255 73.9699 145.119 75.4432L138.958 142.006C138.71 144.685 137.493 147.173 135.544 148.984C133.595 150.795 131.054 151.799 128.419 151.799ZM127.805 165.575C131.962 165.575 135.292 166.826 137.796 169.326C140.358 171.827 141.64 175.022 141.64 178.917C141.64 182.753 140.358 185.922 137.796 188.422C135.292 190.923 131.96 192.172 127.805 192.172C123.704 192.172 120.374 190.923 117.812 188.422C115.308 185.922 114.055 182.753 114.055 178.917C114.055 175.081 115.308 171.914 117.812 169.413C120.374 166.857 123.706 165.575 127.805 165.575Z" fill="#2F3B41"/>
</g>
</g>
<defs>
<clipPath id="clip0_1950_1319">
<rect width="256" height="256" fill="white"/>
</clipPath>
<clipPath id="clip1_1950_1319">
<rect width="256" height="256" fill="white"/>
</clipPath>
</defs>
</svg>
