<svg width="850" height="650" viewBox="0 0 850 650" fill="none" xmlns="http://www.w3.org/2000/svg">
<path d="M544.559 66.9999L536.449 65.2399L534.609 57.1399C534.578 57 534.5 56.8748 534.389 56.7851C534.277 56.6954 534.138 56.6465 533.994 56.6465C533.851 56.6465 533.712 56.6954 533.6 56.7851C533.488 56.8748 533.41 57 533.379 57.1399L531.529 65.2699L523.419 67.1999C523.278 67.2301 523.152 67.3085 523.063 67.4217C522.973 67.5349 522.926 67.6757 522.929 67.8199C522.934 67.9623 522.986 68.0992 523.076 68.2094C523.167 68.3196 523.291 68.3971 523.429 68.4299L531.539 70.1899L533.379 78.2799C533.41 78.4198 533.488 78.5449 533.6 78.6346C533.712 78.7243 533.851 78.7732 533.994 78.7732C534.138 78.7732 534.277 78.7243 534.389 78.6346C534.5 78.5449 534.578 78.4198 534.609 78.2799L536.459 70.1499L544.569 68.2299C544.709 68.1988 544.834 68.1209 544.924 68.0091C545.014 67.8973 545.063 67.7582 545.063 67.6149C545.063 67.4715 545.014 67.3325 544.924 67.2207C544.834 67.1089 544.709 67.031 544.569 66.9999H544.559ZM92.2694 102.13L103.419 99.6999L105.999 88.5699C106.046 88.3808 106.154 88.2127 106.307 88.0925C106.461 87.9723 106.65 87.907 106.844 87.907C107.039 87.907 107.228 87.9723 107.381 88.0925C107.535 88.2127 107.643 88.3808 107.689 88.5699L110.229 99.7499L121.389 102.4C121.582 102.443 121.753 102.552 121.875 102.706C121.997 102.861 122.062 103.053 122.059 103.25C122.054 103.445 121.984 103.633 121.861 103.785C121.739 103.937 121.569 104.044 121.379 104.09L110.219 106.51L107.689 117.64C107.643 117.829 107.535 117.997 107.381 118.117C107.228 118.238 107.039 118.303 106.844 118.303C106.65 118.303 106.461 118.238 106.307 118.117C106.154 117.997 106.046 117.829 105.999 117.64L103.459 106.46L92.3094 103.81C92.1179 103.768 91.9465 103.662 91.8236 103.509C91.7008 103.356 91.6338 103.166 91.6338 102.97C91.6338 102.774 91.7008 102.584 91.8236 102.431C91.9465 102.278 92.1179 102.172 92.3094 102.13H92.2694ZM139.149 8.18988L144.909 6.93988L146.219 1.17987C146.241 1.0792 146.296 0.988981 146.376 0.924255C146.457 0.85953 146.556 0.824219 146.659 0.824219C146.762 0.824219 146.862 0.85953 146.942 0.924255C147.022 0.988981 147.078 1.0792 147.099 1.17987L148.409 6.95987L154.179 8.32986C154.283 8.34568 154.378 8.39828 154.447 8.47809C154.516 8.5579 154.553 8.65966 154.553 8.76489C154.553 8.87013 154.516 8.97186 154.447 9.05167C154.378 9.13147 154.283 9.18407 154.179 9.19989L148.419 10.4599L147.109 16.2199C147.088 16.3206 147.032 16.4108 146.952 16.4755C146.872 16.5402 146.772 16.5755 146.669 16.5755C146.566 16.5755 146.467 16.5402 146.387 16.4755C146.306 16.4108 146.251 16.3206 146.229 16.2199L144.919 10.4299L139.149 9.05988C139.049 9.0389 138.959 8.98343 138.895 8.90308C138.831 8.82272 138.797 8.72253 138.799 8.61987C138.805 8.52035 138.841 8.42507 138.904 8.34778C138.967 8.27049 139.053 8.21519 139.149 8.18988Z" fill="#3F3D56"/>
<path d="M37.5703 277.76L79.5303 647H586.71L628.67 277.76H37.5703Z" fill="#FFC700"/>
<path d="M589.39 650H76.85L76.5499 647.34L34.21 274.76H632L631.62 278.1L589.39 650ZM82.2099 644H584L625.28 280.76H40.9299L82.2099 644Z" fill="#3F3D56"/>
<path d="M628.66 236.85H38.62C19.4999 236.85 4 252.347 4 271.465C4 290.582 19.4999 306.08 38.62 306.08H628.66C647.78 306.08 663.28 290.582 663.28 271.465C663.28 252.347 647.78 236.85 628.66 236.85Z" fill="#49B38D"/>
<path d="M628.67 309.08H38.6698C33.6786 309.161 28.721 308.248 24.086 306.395C19.4511 304.541 15.2314 301.783 11.6729 298.282C8.1144 294.781 5.28825 290.607 3.35913 286.003C1.43001 281.399 0.436523 276.457 0.436523 271.465C0.436523 266.473 1.43001 261.531 3.35913 256.927C5.28825 252.323 8.1144 248.148 11.6729 244.647C15.2314 241.146 19.4511 238.389 24.086 236.535C28.721 234.681 33.6786 233.768 38.6698 233.85H628.67C638.54 234.011 647.951 238.044 654.874 245.081C661.797 252.118 665.677 261.594 665.677 271.465C665.677 281.336 661.797 290.812 654.874 297.848C647.951 304.885 638.54 308.919 628.67 309.08ZM38.6698 239.85C34.4708 239.775 30.2989 240.538 26.3978 242.093C22.4967 243.648 18.9445 245.965 15.9485 248.908C12.9526 251.851 10.573 255.362 8.94856 259.235C7.32417 263.107 6.48755 267.265 6.48755 271.465C6.48755 275.664 7.32417 279.822 8.94856 283.695C10.573 287.568 12.9526 291.078 15.9485 294.021C18.9445 296.965 22.4967 299.281 26.3978 300.837C30.2989 302.392 34.4708 303.154 38.6698 303.08H628.67C636.957 302.932 644.855 299.537 650.664 293.624C656.473 287.711 659.728 279.754 659.728 271.465C659.728 263.176 656.473 255.219 650.664 249.306C644.855 243.393 636.957 239.997 628.67 239.85H38.6698Z" fill="#3F3D56"/>
<path d="M279.612 65.9745L159.632 265.102C156.064 271.025 157.972 278.719 163.895 282.288L186.918 296.16C192.841 299.728 200.535 297.82 204.104 291.897L324.083 92.7696C327.652 86.847 325.743 79.1529 319.821 75.5844L296.797 61.7121C290.874 58.1435 283.18 60.0519 279.612 65.9745Z" fill="#FFC700"/>
<path d="M193.359 300.92C190.539 300.923 187.772 300.151 185.359 298.69L162.359 284.82C158.835 282.693 156.298 279.254 155.308 275.258C154.318 271.262 154.955 267.036 157.079 263.51L276.999 64.38C279.126 60.8552 282.566 58.319 286.562 57.3289C290.557 56.3388 294.783 56.9759 298.309 59.1L321.309 72.96C323.057 74.0112 324.58 75.3967 325.791 77.0371C327.002 78.6776 327.878 80.5407 328.369 82.5201C328.859 84.4994 328.954 86.556 328.649 88.5722C328.344 90.5884 327.644 92.5246 326.589 94.27L206.589 293.4C205.543 295.152 204.16 296.678 202.518 297.89C200.877 299.102 199.011 299.976 197.029 300.46C195.829 300.758 194.597 300.913 193.359 300.92ZM290.359 62.92C289.581 62.9193 288.805 63.0133 288.049 63.2C286.834 63.497 285.69 64.0328 284.684 64.7761C283.678 65.5195 282.83 66.4556 282.189 67.53L162.189 266.66C161.542 267.73 161.113 268.918 160.926 270.155C160.738 271.392 160.797 272.653 161.098 273.867C161.399 275.081 161.936 276.224 162.68 277.23C163.423 278.236 164.357 279.086 165.429 279.73L188.429 293.6C190.593 294.901 193.184 295.291 195.635 294.684C198.085 294.076 200.194 292.521 201.499 290.36L321.499 91.23C322.8 89.0638 323.189 86.4701 322.579 84.0179C321.97 81.5657 320.413 79.4553 318.249 78.15L295.249 64.29C293.775 63.3732 292.076 62.8818 290.339 62.87L290.359 62.92Z" fill="#3F3D56"/>
<path d="M367.728 60.4456L344.611 74.4232C338.664 78.0188 336.759 85.7542 340.354 91.7008L461.244 291.634C464.839 297.58 472.575 299.486 478.521 295.89L501.638 281.913C507.585 278.317 509.491 270.582 505.895 264.635L385.005 64.7024C381.41 58.7558 373.674 56.85 367.728 60.4456Z" fill="#FFC700"/>
<path d="M467.63 300.91C464.949 300.919 462.313 300.231 459.978 298.915C457.643 297.598 455.69 295.698 454.31 293.4L334.31 94.2702C332.199 90.743 331.574 86.5226 332.571 82.535C333.569 78.5474 336.107 75.1183 339.63 73.0002L362.63 59.1402C364.376 58.0773 366.315 57.3696 368.335 57.0578C370.355 56.7459 372.417 56.836 374.403 57.3228C376.388 57.8096 378.258 58.6836 379.905 59.8947C381.552 61.1058 382.943 62.6301 384 64.3802L504 263.51C505.052 265.257 505.751 267.193 506.054 269.21C506.358 271.226 506.262 273.282 505.771 275.261C505.279 277.24 504.403 279.103 503.191 280.743C501.98 282.383 500.457 283.769 498.71 284.82L475.71 298.69C473.273 300.163 470.477 300.931 467.63 300.91ZM370.63 62.9102C368.905 62.909 367.213 63.383 365.74 64.2802L342.74 78.1402C340.576 79.4455 339.019 81.5558 338.41 84.008C337.8 86.4603 338.189 89.054 339.49 91.2202L459.49 290.35C460.797 292.512 462.908 294.067 465.36 294.674C467.812 295.282 470.405 294.892 472.57 293.59L495.57 279.72C496.642 279.076 497.576 278.226 498.32 277.22C499.063 276.214 499.6 275.071 499.901 273.857C500.202 272.643 500.261 271.382 500.074 270.145C499.886 268.908 499.457 267.721 498.81 266.65L378.81 67.5202C378.168 66.4469 377.319 65.5116 376.313 64.7684C375.308 64.0251 374.164 63.4887 372.95 63.1902C372.196 62.9908 371.42 62.8834 370.64 62.8702L370.63 62.9102Z" fill="#3F3D56"/>
<path d="M190.189 279.33C198.59 279.33 205.399 272.52 205.399 264.12C205.399 255.72 198.59 248.91 190.189 248.91C181.789 248.91 174.979 255.72 174.979 264.12C174.979 272.52 181.789 279.33 190.189 279.33Z" fill="white"/>
<path d="M190.19 282.33C186.588 282.33 183.067 281.262 180.073 279.261C177.078 277.26 174.744 274.416 173.366 271.089C171.987 267.761 171.627 264.1 172.329 260.568C173.032 257.035 174.766 253.79 177.313 251.244C179.86 248.697 183.105 246.963 186.637 246.26C190.169 245.557 193.831 245.918 197.158 247.296C200.486 248.675 203.33 251.009 205.331 254.003C207.331 256.998 208.399 260.519 208.399 264.12C208.394 268.948 206.474 273.577 203.06 276.991C199.646 280.405 195.017 282.325 190.19 282.33ZM190.19 251.91C187.775 251.91 185.414 252.626 183.406 253.968C181.398 255.31 179.833 257.217 178.909 259.448C177.985 261.679 177.743 264.134 178.214 266.502C178.685 268.871 179.848 271.046 181.556 272.754C183.263 274.462 185.439 275.624 187.807 276.096C190.176 276.567 192.631 276.325 194.862 275.401C197.093 274.477 199 272.912 200.342 270.904C201.683 268.896 202.399 266.535 202.399 264.12C202.394 260.884 201.106 257.781 198.817 255.492C196.529 253.204 193.426 251.915 190.19 251.91Z" fill="#3F3D56"/>
<path d="M469.22 278.279C477.62 278.279 484.43 271.47 484.43 263.069C484.43 254.669 477.62 247.859 469.22 247.859C460.819 247.859 454.01 254.669 454.01 263.069C454.01 271.47 460.819 278.279 469.22 278.279Z" fill="white"/>
<path d="M469.22 281.279C465.618 281.279 462.097 280.211 459.103 278.21C456.108 276.21 453.774 273.365 452.396 270.038C451.018 266.711 450.657 263.049 451.36 259.517C452.062 255.984 453.797 252.74 456.343 250.193C458.89 247.646 462.135 245.912 465.667 245.209C469.2 244.507 472.861 244.867 476.188 246.246C479.516 247.624 482.36 249.958 484.361 252.952C486.362 255.947 487.43 259.468 487.43 263.069C487.424 267.897 485.504 272.526 482.09 275.94C478.676 279.354 474.048 281.274 469.22 281.279ZM469.22 250.859C466.805 250.859 464.444 251.576 462.436 252.917C460.428 254.259 458.863 256.166 457.939 258.397C457.015 260.628 456.773 263.083 457.244 265.451C457.716 267.82 458.878 269.996 460.586 271.703C462.294 273.411 464.469 274.574 466.838 275.045C469.206 275.516 471.661 275.274 473.892 274.35C476.123 273.426 478.03 271.861 479.372 269.853C480.714 267.845 481.43 265.484 481.43 263.069C481.424 259.833 480.136 256.73 477.848 254.441C475.559 252.153 472.456 250.865 469.22 250.859Z" fill="#3F3D56"/>
<path d="M122.53 341.22H158.2V461.85H122.53V341.22Z" fill="white"/>
<path d="M161.2 464.86H119.53V338.22H161.2V464.86ZM125.53 458.86H155.2V344.22H125.53V458.86Z" fill="#3F3D56"/>
<path d="M221.14 341.22H256.81V461.85H221.14V341.22Z" fill="white"/>
<path d="M259.8 464.86H218.14V338.22H259.8V464.86ZM224.14 458.86H253.8V344.22H224.14V458.86Z" fill="#3F3D56"/>
<path d="M319.74 341.22H355.41V461.85H319.74V341.22Z" fill="white"/>
<path d="M358.41 464.86H316.74V338.22H358.41V464.86ZM322.74 458.86H352.41V344.22H322.74V458.86Z" fill="#3F3D56"/>
<path d="M417.3 341.22H452.97V461.85H417.3V341.22Z" fill="white"/>
<path d="M456 464.86H414.3V338.22H456V464.86ZM420.34 458.86H450V344.22H420.3L420.34 458.86Z" fill="#3F3D56"/>
<path d="M515.9 341.22H551.57V461.85H515.9V341.22Z" fill="white"/>
<path d="M554.57 464.86H512.9V338.22H554.57V464.86ZM518.9 458.86H548.57V344.22H518.9V458.86Z" fill="#3F3D56"/>
<path d="M122.53 489.13H158.2V609.76H122.53V489.13Z" fill="white"/>
<path d="M161.2 612.76H119.53V486.13H161.2V612.76ZM125.53 606.76H155.2V492.13H125.53V606.76Z" fill="#3F3D56"/>
<path d="M221.14 489.13H256.81V609.76H221.14V489.13Z" fill="white"/>
<path d="M259.8 612.76H218.14V486.13H259.8V612.76ZM224.14 606.76H253.8V492.13H224.14V606.76Z" fill="#3F3D56"/>
<path d="M319.74 489.13H355.41V609.76H319.74V489.13Z" fill="white"/>
<path d="M358.41 612.76H316.74V486.13H358.41V612.76ZM322.74 606.76H352.41V492.13H322.74V606.76Z" fill="#3F3D56"/>
<path d="M417.3 489.13H452.97V609.76H417.3V489.13Z" fill="white"/>
<path d="M456 612.76H414.3V486.13H456V612.76ZM420.34 606.76H450V492.13H420.3L420.34 606.76Z" fill="#3F3D56"/>
<path d="M515.9 489.13H551.57V609.76H515.9V489.13Z" fill="white"/>
<path d="M554.57 612.76H512.9V486.13H554.57V612.76ZM518.9 606.76H548.57V492.13H518.9V606.76Z" fill="#3F3D56"/>
<path d="M618.83 369.31C675.318 369.31 721.11 323.518 721.11 267.03C721.11 210.542 675.318 164.75 618.83 164.75C562.342 164.75 516.55 210.542 516.55 267.03C516.55 323.518 562.342 369.31 618.83 369.31Z" fill="white"/>
<path d="M618.83 372.3C598.008 372.3 577.654 366.126 560.342 354.558C543.029 342.991 529.535 326.55 521.566 307.313C513.597 288.077 511.511 266.91 515.571 246.488C519.632 226.066 529.657 207.307 544.379 192.583C559.1 177.858 577.857 167.83 598.278 163.765C618.699 159.701 639.867 161.783 659.105 169.748C678.343 177.713 694.787 191.204 706.357 208.515C717.928 225.825 724.106 246.178 724.11 267C724.089 294.917 712.991 321.685 693.252 341.428C673.513 361.17 646.747 372.273 618.83 372.3ZM618.83 167.75C599.193 167.75 579.997 173.573 563.67 184.484C547.343 195.394 534.618 210.901 527.104 229.044C519.591 247.187 517.627 267.15 521.46 286.41C525.293 305.669 534.751 323.359 548.639 337.242C562.526 351.125 580.219 360.579 599.48 364.406C618.74 368.233 638.703 366.263 656.843 358.744C674.984 351.225 690.487 338.496 701.393 322.165C712.298 305.835 718.116 286.637 718.11 267C718.073 240.683 707.6 215.456 688.989 196.85C670.377 178.244 645.146 167.779 618.83 167.75ZM673.39 40.1699H679.39V145.07H673.39V40.1699Z" fill="#3F3D56"/>
<path d="M723.092 162.358L797.568 89.9838L801.75 94.2867L727.273 166.661L723.092 162.358Z" fill="#3F3D56"/>
<path d="M744.05 208.67H850V214.67H744.05V208.67Z" fill="#3F3D56"/>
<path d="M597.33 312.39C591.037 308.344 586.083 302.437 582.47 294.67C578.857 286.904 577.033 277.68 577 267C577 256.334 578.81 247.117 582.43 239.35C586.05 231.584 591.003 225.677 597.29 221.63C603.747 217.663 611.177 215.562 618.755 215.562C626.333 215.562 633.763 217.663 640.22 221.63C646.56 225.684 651.54 231.59 655.16 239.35C658.78 247.11 660.6 256.327 660.62 267C660.62 277.667 658.813 286.88 655.2 294.64C651.587 302.4 646.607 308.307 640.26 312.36C633.803 316.328 626.373 318.428 618.795 318.428C611.217 318.428 603.787 316.328 597.33 312.36V312.39ZM635.69 293.46C639.83 287.547 641.903 278.737 641.91 267.03C641.917 255.324 639.843 246.51 635.69 240.59C633.856 237.794 631.339 235.512 628.376 233.961C625.413 232.411 622.103 231.643 618.76 231.73C611.713 231.73 606.117 234.684 601.97 240.59C597.823 246.497 595.753 255.3 595.76 267C595.76 278.714 597.83 287.524 601.97 293.43C603.852 296.163 606.369 298.398 609.307 299.941C612.244 301.485 615.512 302.292 618.83 302.292C622.148 302.292 625.416 301.485 628.353 299.941C631.291 298.398 633.808 296.163 635.69 293.43V293.46Z" fill="#FFC700"/>
<path d="M618.76 321.46C610.599 321.573 602.583 319.296 595.7 314.909C588.96 310.569 583.59 304.189 579.7 295.909C575.81 287.629 574 278.09 574 267C574 255.91 575.92 246.21 579.71 238.08C583.5 229.95 588.92 223.45 595.71 219.08C602.651 214.8 610.646 212.534 618.8 212.534C626.954 212.534 634.949 214.8 641.89 219.08C648.937 223.745 654.492 230.341 657.89 238.08C661.68 246.21 663.6 255.94 663.6 267C663.6 278.06 661.68 287.779 657.89 295.909C654.1 304.039 648.65 310.549 641.89 314.909C634.978 319.289 626.942 321.565 618.76 321.46ZM618.76 218.59C611.77 218.495 604.904 220.437 599 224.18C593.23 227.9 588.59 233.44 585.24 240.65C581.89 247.86 580 256.85 580 267C580 277.15 581.73 286.05 585.15 293.38C588.57 300.71 593.15 306.12 598.91 309.84C604.884 313.499 611.754 315.436 618.76 315.436C625.766 315.436 632.636 313.499 638.61 309.84C644.42 306.13 649.08 300.59 652.44 293.39C655.8 286.19 657.58 277.18 657.58 267.01C657.58 256.84 655.85 248.01 652.44 240.63C649.502 233.931 644.702 228.218 638.61 224.169C632.672 220.429 625.777 218.491 618.76 218.59ZM618.76 305.32C610.76 305.32 604.23 301.91 599.52 295.18C595.03 288.79 592.75 279.32 592.75 267.03C592.75 254.74 595.03 245.27 599.52 238.87C601.68 235.745 604.566 233.19 607.93 231.426C611.294 229.662 615.036 228.74 618.835 228.74C622.634 228.74 626.376 229.662 629.74 231.426C633.104 233.19 635.99 235.745 638.15 238.87C642.63 245.26 644.91 254.74 644.91 267.03C644.91 279.32 642.63 288.79 638.15 295.18C636.044 298.377 633.16 300.985 629.767 302.759C626.375 304.533 622.587 305.414 618.76 305.32ZM618.76 234.74C615.921 234.663 613.11 235.32 610.6 236.648C608.089 237.976 605.964 239.93 604.43 242.32C600.66 247.68 598.75 256 598.75 267.03C598.75 278.06 600.66 286.37 604.43 291.74C606.036 294.076 608.187 295.987 610.697 297.308C613.206 298.628 615.999 299.318 618.835 299.318C621.671 299.318 624.464 298.628 626.973 297.308C629.483 295.987 631.634 294.076 633.24 291.74C637 286.37 638.91 278.06 638.91 267.03C638.91 256 637 247.68 633.24 242.32C631.682 239.918 629.531 237.958 626.994 236.631C624.458 235.303 621.622 234.651 618.76 234.74Z" fill="#3F3D56"/>
</svg>
