<svg width="22" height="24" viewBox="0 0 22 24" fill="none" xmlns="http://www.w3.org/2000/svg">
<path d="M2.52087 3.25L4.42754 3.61L5.31029 15.083C5.38087 16.02 6.09862 16.739 6.96029 16.736H16.9602C17.7825 16.738 18.48 16.078 18.5965 15.19L19.4664 8.632C19.5635 7.899 19.097 7.219 18.426 7.113C18.3673 7.104 4.73371 7.099 4.73371 7.099" stroke="white" stroke-width="1.5" stroke-linecap="round" stroke-linejoin="round"/>
<path d="M12.948 10.7949H15.4899" stroke="white" stroke-width="1.5" stroke-linecap="round" stroke-linejoin="round"/>
<path fill-rule="evenodd" clip-rule="evenodd" d="M6.55811 20.2026C6.83403 20.2026 7.05678 20.4466 7.05678 20.7466C7.05678 21.0476 6.83403 21.2916 6.55811 21.2916C6.2822 21.2916 6.05945 21.0476 6.05945 20.7466C6.05945 20.4466 6.2822 20.2026 6.55811 20.2026Z" fill="white" stroke="white" stroke-width="1.5" stroke-linecap="round" stroke-linejoin="round"/>
<path fill-rule="evenodd" clip-rule="evenodd" d="M16.8984 20.2026C17.1744 20.2026 17.398 20.4466 17.398 20.7466C17.398 21.0476 17.1744 21.2916 16.8984 21.2916C16.6225 21.2916 16.3998 21.0476 16.3998 20.7466C16.3998 20.4466 16.6225 20.2026 16.8984 20.2026Z" fill="white" stroke="white" stroke-width="1.5" stroke-linecap="round" stroke-linejoin="round"/>
</svg>
