<svg width="29" height="29" viewBox="0 0 29 29" fill="none" xmlns="http://www.w3.org/2000/svg">
<path d="M4 15C4 16.4445 4.28452 17.8749 4.83733 19.2095C5.39013 20.5441 6.20038 21.7567 7.22183 22.7782C8.24327 23.7996 9.4559 24.6099 10.7905 25.1627C12.1251 25.7155 13.5555 26 15 26C16.4445 26 17.8749 25.7155 19.2095 25.1627C20.5441 24.6099 21.7567 23.7996 22.7782 22.7782C23.7996 21.7567 24.6099 20.5441 25.1627 19.2095C25.7155 17.8749 26 16.4445 26 15C26 12.0826 24.8411 9.28473 22.7782 7.22183C20.7153 5.15893 17.9174 4 15 4C12.0826 4 9.28473 5.15893 7.22183 7.22183C5.15893 9.28473 4 12.0826 4 15Z" stroke="#FCC548" stroke-width="2" stroke-linecap="round" stroke-linejoin="round"/>
<path d="M15 12V15.9583L17.375 18.3333" stroke="#FCC548" stroke-width="2" stroke-linecap="round" stroke-linejoin="round"/>
</svg>
