<svg width="22" height="22" viewBox="0 0 22 22" fill="none" xmlns="http://www.w3.org/2000/svg">
<path fill-rule="evenodd" clip-rule="evenodd" d="M8.9512 2.74809C9.20913 2.46002 9.52492 2.22959 9.87794 2.07182C10.231 1.91406 10.6133 1.83252 11 1.83252C11.3866 1.83252 11.7689 1.91406 12.122 2.07182C12.475 2.22959 12.7908 2.46002 13.0487 2.74809L13.6904 3.46493C13.7821 3.56751 13.8957 3.64813 14.0228 3.70081C14.1499 3.7535 14.2872 3.77689 14.4246 3.76926L15.3871 3.71609C15.7731 3.69489 16.1592 3.7553 16.5202 3.89338C16.8813 4.03145 17.2091 4.24408 17.4825 4.51741C17.7558 4.79074 17.9684 5.11862 18.1065 5.47966C18.2446 5.8407 18.305 6.2268 18.2838 6.61276L18.2306 7.57526C18.2231 7.71249 18.2466 7.84965 18.2993 7.97658C18.3519 8.10352 18.4325 8.21699 18.535 8.30859L19.2527 8.95026C19.5409 9.2082 19.7715 9.52403 19.9293 9.87714C20.0872 10.2302 20.1688 10.6127 20.1688 10.9995C20.1688 11.3863 20.0872 11.7687 19.9293 12.1218C19.7715 12.4749 19.5409 12.7907 19.2527 13.0487L18.535 13.6903C18.4324 13.782 18.3517 13.8957 18.2991 14.0228C18.2464 14.1499 18.223 14.2872 18.2306 14.4246L18.2838 15.3871C18.305 15.7731 18.2446 16.1591 18.1065 16.5202C17.9684 16.8812 17.7558 17.2091 17.4825 17.4824C17.2091 17.7558 16.8813 17.9684 16.5202 18.1065C16.1592 18.2445 15.7731 18.305 15.3871 18.2838L14.4246 18.2306C14.2874 18.2231 14.1502 18.2466 14.0233 18.2992C13.8964 18.3519 13.7829 18.4325 13.6913 18.5349L13.0496 19.2527C12.7917 19.5409 12.4758 19.7715 12.1227 19.9293C11.7696 20.0872 11.3872 20.1688 11.0004 20.1688C10.6136 20.1688 10.2312 20.0872 9.87808 19.9293C9.52497 19.7715 9.20914 19.5409 8.9512 19.2527L8.30953 18.5349C8.21783 18.4323 8.10422 18.3517 7.97711 18.299C7.85 18.2464 7.71266 18.223 7.57528 18.2306L6.61278 18.2838C6.22682 18.305 5.84073 18.2445 5.47968 18.1065C5.11864 17.9684 4.79076 17.7558 4.51743 17.4824C4.24411 17.2091 4.03147 16.8812 3.8934 16.5202C3.75533 16.1591 3.69492 15.7731 3.71612 15.3871L3.76928 14.4246C3.77677 14.2874 3.75331 14.1502 3.70063 14.0233C3.64795 13.8963 3.56741 13.7829 3.46495 13.6913L2.74812 13.0496C2.4599 12.7917 2.22933 12.4758 2.07148 12.1227C1.91362 11.7696 1.83203 11.3872 1.83203 11.0004C1.83203 10.6136 1.91362 10.2312 2.07148 9.87806C2.22933 9.52495 2.4599 9.20911 2.74812 8.95118L3.46495 8.30951C3.56753 8.21781 3.64815 8.10419 3.70084 7.97709C3.75352 7.84998 3.77691 7.71264 3.76928 7.57526L3.71612 6.61276C3.69492 6.2268 3.75533 5.8407 3.8934 5.47966C4.03147 5.11862 4.24411 4.79074 4.51743 4.51741C4.79076 4.24408 5.11864 4.03145 5.47968 3.89338C5.84073 3.7553 6.22682 3.69489 6.61278 3.71609L7.57528 3.76926C7.71251 3.77675 7.84967 3.75329 7.97661 3.70061C8.10355 3.64793 8.21701 3.56738 8.30862 3.46493L8.95028 2.74809H8.9512ZM14.398 7.60184C14.5699 7.77374 14.6664 8.00686 14.6664 8.24993C14.6664 8.49299 14.5699 8.72611 14.398 8.89801L8.89803 14.398C8.72515 14.565 8.4936 14.6574 8.25325 14.6553C8.0129 14.6532 7.78299 14.5568 7.61303 14.3868C7.44308 14.2169 7.34667 13.987 7.34458 13.7466C7.34249 13.5063 7.43489 13.2747 7.60187 13.1018L13.1019 7.60184C13.2738 7.42999 13.5069 7.33346 13.75 7.33346C13.993 7.33346 14.2261 7.42999 14.398 7.60184ZM8.70828 7.33326C8.34361 7.33326 7.99387 7.47812 7.73601 7.73599C7.47815 7.99385 7.33328 8.34359 7.33328 8.70826V8.71743C7.33328 9.0821 7.47815 9.43184 7.73601 9.6897C7.99387 9.94756 8.34361 10.0924 8.70828 10.0924H8.71745C9.08212 10.0924 9.43186 9.94756 9.68972 9.6897C9.94758 9.43184 10.0925 9.0821 10.0925 8.71743V8.70826C10.0925 8.34359 9.94758 7.99385 9.68972 7.73599C9.43186 7.47812 9.08212 7.33326 8.71745 7.33326H8.70828ZM13.2916 11.9166C12.9269 11.9166 12.5772 12.0615 12.3193 12.3193C12.0615 12.5772 11.9166 12.9269 11.9166 13.2916V13.3008C11.9166 13.6654 12.0615 14.0152 12.3193 14.273C12.5772 14.5309 12.9269 14.6758 13.2916 14.6758H13.3008C13.6655 14.6758 14.0152 14.5309 14.2731 14.273C14.5309 14.0152 14.6758 13.6654 14.6758 13.3008V13.2916C14.6758 12.9269 14.5309 12.5772 14.2731 12.3193C14.0152 12.0615 13.6655 11.9166 13.3008 11.9166H13.2916Z" fill="white"/>
</svg>
