<svg width="110" height="110" viewBox="0 0 110 110" fill="none" xmlns="http://www.w3.org/2000/svg">
<path d="M54.61 109.22C84.7703 109.22 109.22 84.7703 109.22 54.61C109.22 24.4497 84.7703 0 54.61 0C24.4497 0 0 24.4497 0 54.61C0 84.7703 24.4497 109.22 54.61 109.22Z" fill="#008CEB"/>
<path d="M86.4298 54.8399V70.2099C86.4298 71.2099 85.9998 71.4199 85.1598 70.9299C84.0361 70.2556 82.8666 69.6608 81.6598 69.1499C78.0152 67.6979 74.0674 67.1723 70.1698 67.6199C65.9158 68.1718 61.7408 69.2189 57.7298 70.7399C53.7298 72.0899 49.8098 73.5499 45.7298 74.6799C42.3505 75.6834 38.8337 76.1458 35.3098 76.0499C31.4045 75.8984 27.6091 74.7149 24.3098 72.6199C23.8953 72.3702 23.5552 72.0141 23.3248 71.5886C23.0945 71.163 22.9822 70.6835 22.9998 70.1999C22.9998 60.1332 22.9998 50.0666 22.9998 39.9999C22.9998 39.5099 22.9998 38.9299 23.4398 38.6799C23.8798 38.4299 24.3298 38.8399 24.7098 39.0899C28.2925 41.5124 32.5358 42.7696 36.8598 42.6899C39.9517 42.5631 43.0094 41.994 45.9398 40.9999C50.0998 39.7099 54.1198 37.9999 58.2098 36.5499C61.3936 35.3264 64.658 34.324 67.9798 33.5499C70.8307 32.8823 73.7889 32.8122 76.6682 33.344C79.5475 33.8758 82.2855 34.998 84.7098 36.6399C85.2656 36.9804 85.7207 37.4629 86.0283 38.0376C86.3359 38.6123 86.4848 39.2586 86.4598 39.9099C86.4598 44.9099 86.4598 49.9099 86.4598 54.9099L86.4298 54.8399Z" fill="#FEFEFE"/>
</svg>
