<svg width="43" height="43" viewBox="0 0 43 43" fill="none" xmlns="http://www.w3.org/2000/svg">
<g clip-path="url(#clip0_563_1658)">
<path fill-rule="evenodd" clip-rule="evenodd" d="M25.0372 6.41248C25.2994 6.02479 25.3994 5.54991 25.316 5.0894C25.2325 4.62889 24.9722 4.21931 24.5907 3.94826C24.2091 3.67721 23.7367 3.56621 23.2744 3.63899C22.8121 3.71178 22.3966 3.96257 22.1168 4.33773L20.3251 6.86219C20.2568 6.95776 20.198 7.05977 20.1495 7.16678H13.7228C13.0101 7.16678 12.3265 7.44992 11.8225 7.95393C11.3185 8.45793 11.0353 9.14151 11.0353 9.85428V11.5H32.5327L32.5353 9.85428C32.5353 9.14151 32.2522 8.45793 31.7482 7.95393C31.2442 7.44992 30.5606 7.16678 29.8478 7.16678H24.5033L25.0372 6.41248ZM32.5319 12L32.53 12.6923H11.0407C10.5152 12.8768 10.1073 13.0455 9.78542 13.5C9.46349 13.9545 9.2434 14.6723 9.24367 15.2293V17.9168C9.24367 18.3904 9.4312 18.8448 9.76527 19.1805C10.0993 19.5163 10.5528 19.7061 11.0264 19.7084H32.5443C33.0179 19.7061 33.4713 19.5163 33.8054 19.1805C34.1395 18.8448 34.327 18.3904 34.327 17.9168V15.2293C34.3273 14.6723 34.1545 14.129 33.8326 13.6745C33.5106 13.2201 33.0555 12.8768 32.53 12.6923L32.531 12.5587L32.5319 12ZM11.1555 21H32.4151L30.896 36.1918C30.8071 37.0757 30.3932 37.895 29.7344 38.4909C29.0755 39.0868 28.2189 39.4168 27.3305 39.4168H16.2401C15.3518 39.4168 14.4951 39.0868 13.8363 38.4909C13.1775 37.895 12.7635 37.0757 12.6747 36.1918L11.1555 21Z" fill="#FCC548"/>
</g>
<defs>
<clipPath id="clip0_563_1658">
<rect width="43" height="43" fill="white"/>
</clipPath>
</defs>
</svg>
