<svg width="713" height="711" viewBox="0 0 713 711" fill="none" xmlns="http://www.w3.org/2000/svg">
<path d="M637.02 706.83C678.983 706.83 713 699.053 713 689.46C713 679.867 678.983 672.09 637.02 672.09C595.057 672.09 561.04 679.867 561.04 689.46C561.04 699.053 595.057 706.83 637.02 706.83Z" fill="#3F3D56"/>
<path d="M295.67 709C438.038 709 553.45 696.124 553.45 680.24C553.45 664.356 438.038 651.48 295.67 651.48C153.302 651.48 37.8896 664.356 37.8896 680.24C37.8896 696.124 153.302 709 295.67 709Z" fill="#3F3D56"/>
<path d="M649.35 283.57L638.72 281.25L636.3 270.64C636.259 270.458 636.158 270.296 636.012 270.18C635.867 270.063 635.686 270 635.5 270C635.313 270.001 635.132 270.065 634.985 270.181C634.838 270.297 634.735 270.458 634.69 270.64L632.27 281.3L621.64 283.82C621.457 283.865 621.294 283.97 621.178 284.119C621.062 284.268 620.999 284.451 621 284.64C621.001 284.826 621.066 285.007 621.185 285.151C621.303 285.294 621.467 285.393 621.65 285.43L632.28 287.75L634.69 298.36C634.735 298.542 634.838 298.703 634.985 298.819C635.132 298.935 635.313 298.999 635.5 299C635.686 299 635.867 298.937 636.012 298.82C636.158 298.704 636.259 298.542 636.3 298.36L638.73 287.7L649.36 285.18C649.547 285.144 649.715 285.044 649.836 284.897C649.958 284.75 650.024 284.565 650.024 284.375C650.024 284.185 649.958 284 649.836 283.853C649.715 283.706 649.547 283.606 649.36 283.57H649.35ZM138.35 260.57L127.72 258.25L125.3 247.64C125.259 247.458 125.158 247.296 125.012 247.18C124.867 247.063 124.686 247 124.5 247C124.313 247.001 124.132 247.065 123.985 247.181C123.838 247.297 123.735 247.458 123.69 247.64L121.27 258.3L110.64 260.82C110.457 260.865 110.294 260.97 110.178 261.119C110.062 261.268 109.999 261.451 110 261.64C110.001 261.826 110.066 262.007 110.185 262.151C110.303 262.294 110.467 262.393 110.65 262.43L121.28 264.75L123.69 275.36C123.735 275.542 123.838 275.703 123.985 275.819C124.132 275.935 124.313 275.999 124.5 276C124.686 276 124.867 275.937 125.012 275.82C125.158 275.704 125.259 275.542 125.3 275.36L127.73 264.7L138.36 262.18C138.547 262.144 138.715 262.044 138.836 261.897C138.958 261.75 139.024 261.565 139.024 261.375C139.024 261.185 138.958 261 138.836 260.853C138.715 260.706 138.547 260.606 138.36 260.57H138.35ZM595.66 241L590.16 239.8L588.92 234.31C588.899 234.214 588.846 234.129 588.769 234.067C588.693 234.006 588.598 233.972 588.5 233.972C588.402 233.972 588.307 234.006 588.231 234.067C588.154 234.129 588.101 234.214 588.08 234.31L586.83 239.83L581.33 241.13C581.236 241.153 581.152 241.206 581.092 241.283C581.032 241.359 581 241.453 581 241.55C581.001 241.647 581.035 241.741 581.097 241.816C581.159 241.891 581.245 241.941 581.34 241.96L586.84 243.16L588.08 248.65C588.101 248.746 588.154 248.831 588.231 248.893C588.307 248.954 588.402 248.988 588.5 248.988C588.598 248.988 588.693 248.954 588.769 248.893C588.846 248.831 588.899 248.746 588.92 248.65L590.17 243.13L595.67 241.83C595.763 241.806 595.846 241.752 595.906 241.676C595.966 241.6 595.999 241.506 596 241.41C595.999 241.313 595.965 241.219 595.903 241.144C595.841 241.069 595.755 241.018 595.66 241Z" fill="#3F3D56"/>
<path d="M244.66 463.16L253.34 430.6L355.37 458.82L383.59 514.17L493.21 531.54L508.4 625.97L244.66 463.16Z" fill="#3F3D56"/>
<path d="M508.41 626C470.41 678.1 435.68 707.4 368.41 707.4C336.811 707.41 305.911 698.101 279.577 680.636C253.242 663.171 232.644 638.327 220.361 609.213C208.077 580.099 204.653 548.009 210.517 516.959C216.382 485.909 231.274 457.278 253.33 434.65L292.41 481.65L385.76 499L414 555.42L463.92 546.74L508.41 626Z" fill="#FCC548"/>
<path d="M368.39 710.37C278.16 710.37 204.75 636.96 204.75 546.74C204.657 504.061 221.331 463.054 251.18 432.55L253.5 430.17L294 478.86L387.74 496.3L415.63 552.08L465.45 543.42L512 626.18L510.87 627.74C472.67 680.07 437.13 710.37 368.39 710.37ZM253.18 439.15C225.836 468.291 210.657 506.778 210.75 546.74C210.75 633.66 281.47 704.37 368.39 704.37C433.9 704.37 468.25 675.57 504.84 625.75L462.33 550.05L412.33 558.76L383.78 501.66L290.84 484.36L253.18 439.15Z" fill="#3F3D56"/>
<path d="M273.96 276.48L211.01 370.9L271.79 378.5L344.51 332.91L361.88 350.28L416.15 336.17L488.87 374.16L531.2 370.9L458.48 274.3L273.96 276.48Z" fill="#3F3D56"/>
<path d="M459.56 209.72C442.14 177.35 436.2 141.18 433.22 121.65C432.57 117.468 430.446 113.657 427.23 110.906C424.015 108.155 419.921 106.645 415.69 106.65H327.07C322.837 106.645 318.742 108.154 315.525 110.905C312.308 113.656 310.181 117.468 309.53 121.65C306.53 141.18 300.61 177.35 283.19 209.72C263.41 246.47 220.78 315.55 215.35 362.22L284.82 291.67L345.6 339.43L359.71 330.74L411.81 362.22L458.48 293.84L527.4 362.22C522 315.55 479.34 246.47 459.56 209.72Z" fill="#FCC548"/>
<path d="M211.359 370.55L212.359 361.87C216.979 322.17 247.279 267.99 269.359 228.43C273.449 221.13 277.299 214.23 280.499 208.3C298.259 175.3 304.039 137.38 306.499 121.2C307.229 116.291 309.704 111.809 313.472 108.578C317.239 105.347 322.046 103.583 327.009 103.61H415.629C420.592 103.583 425.397 105.347 429.163 108.579C432.929 111.81 435.402 116.292 436.129 121.2C438.599 137.38 444.379 175.29 462.129 208.3C465.329 214.23 469.129 221.13 473.269 228.43C495.389 267.99 525.689 322.17 530.269 361.87L531.269 370.38L458.819 298.51L412.579 366.25L359.579 334.25L345.249 343.07L284.929 295.68L211.359 370.55ZM359.689 327.23L410.929 358.18L458.029 289.18L523.029 353.63C515.509 316.07 488.369 267.54 468.139 231.37C464.039 224.05 460.139 217.13 456.959 211.16C438.699 177.23 432.809 138.61 430.299 122.16C429.782 118.673 428.023 115.489 425.346 113.195C422.67 110.9 419.255 109.649 415.729 109.67H327.069C323.543 109.649 320.127 110.9 317.448 113.194C314.77 115.488 313.009 118.672 312.489 122.16C309.979 138.66 304.089 177.28 285.829 211.16C282.609 217.16 278.749 224.05 274.649 231.37C254.459 267.48 227.369 315.9 219.799 353.43L284.559 287.66L345.809 335.79L359.689 327.23Z" fill="#3F3D56"/>
<path d="M367.71 433.57L366.9 427.63C377.295 426.342 386.989 421.709 394.52 414.43C393.06 413.943 391.57 413.383 390.05 412.75C384.51 410.48 373.79 403.75 372.84 394.59C372.23 388.67 375.65 383.15 382.99 378.19C388.24 374.64 398.16 374.49 403.99 379.95C408.72 384.37 412.13 393.23 403.62 410.7C415 413 423 410.63 428 407.8C436.41 403.14 440.43 395.51 441.38 389.93C441.51 389.15 441.64 388.38 441.74 387.62L440.84 387.89C435.11 389.57 418.84 389.24 413.36 380.96C409.77 375.54 411.36 368.6 418.14 360.32C421.91 355.71 430.14 352.91 437.41 356.21C441.78 358.21 448.11 363.57 448.41 378.03C452.601 375.41 455.891 371.572 457.84 367.03C465.71 348.56 452.11 321.5 451.49 320.28C449.65 317.04 415.67 257.05 405.81 235.44C391.76 204.66 385.2 97.8097 384.92 93.2697L390.92 92.9198C390.99 94.0098 397.69 203.18 411.28 232.92C421.09 254.42 456.39 316.72 456.75 317.35V317.44C457.39 318.67 472.43 347.96 463.33 369.35C460.353 376.3 454.921 381.91 448.07 385.11C447.89 386.95 447.63 388.9 447.27 390.96C446.09 397.96 441.16 407.37 430.89 413.07C424.6 416.56 414.63 419.49 400.65 416.22L400.24 416.93L399.96 417.33C399.56 417.86 388.71 430.73 367.71 433.57ZM392.28 381.67C390.203 381.604 388.149 382.12 386.35 383.16C380.98 386.78 378.45 390.42 378.81 393.98C379.38 399.51 387.06 405.04 392.32 407.2C394.166 407.96 395.953 408.61 397.68 409.15C403.57 397.46 404.41 388.55 399.89 384.33C397.775 382.523 395.06 381.574 392.28 381.67ZM430.72 360.78C429.241 360.75 427.772 361.031 426.409 361.607C425.046 362.182 423.82 363.039 422.81 364.12C419.44 368.25 415.93 373.94 418.39 377.65C421.73 382.65 434.21 383.59 439.18 382.13C440.29 381.81 441.35 381.45 442.38 381.06C442.76 370.95 440.19 364.06 434.96 361.67C433.625 361.077 432.18 360.774 430.72 360.78ZM294.1 427.16C284.35 427.16 277.73 424.16 274.43 418.16C269.23 408.77 274.6 395.72 278.02 390.87C280.856 386.7 284.376 383.039 288.43 380.04C287.94 379.47 287.43 378.9 286.91 378.31L286.81 378.18C286 377.18 267.27 353.06 278.87 329.41C284.69 317.53 295.12 301.09 305.2 285.2C318.51 264.2 332.26 242.54 333.97 233.57C340.49 199.23 350.11 93.8198 350.21 92.7598L356.21 93.3098C356.12 94.3698 346.47 200.07 339.89 234.69C337.97 244.79 324.53 265.98 310.3 288.41C300.3 304.17 289.97 320.46 284.3 332.05C274.6 351.85 290.57 373.17 291.52 374.4C292.286 375.266 293.036 376.126 293.77 376.98C296.958 375.536 300.393 374.715 303.89 374.56C322.8 373.7 338.59 392.05 339.25 392.83L334.68 396.72C334.54 396.55 320.09 379.81 304.14 380.55C301.973 380.65 299.835 381.082 297.8 381.83C310.89 398.13 315.6 410.1 312.18 418.29C309.98 423.54 304.58 426.66 296.97 427.07C296 427.13 295 427.16 294.1 427.16ZM292.32 384.67C288.642 387.312 285.463 390.586 282.93 394.34C280.12 398.34 276.14 408.89 279.67 415.26C282.08 419.61 287.77 421.57 296.59 421.09C299.59 420.93 304.9 420.09 306.59 415.99C308.07 412.44 307.9 403.82 292.32 384.67Z" fill="#707070"/>
<path d="M402 33V31.9C401.995 23.4412 398.632 15.3304 392.651 9.34915C386.67 3.36789 378.559 0.00529833 370.1 0C361.632 0 353.51 3.36404 347.522 9.35208C341.534 15.3401 338.17 23.4616 338.17 31.93V33H402Z" fill="#3F3D56"/>
<path d="M306.71 24.6602H433.48V102.39H306.71V24.6602Z" fill="#3F3D56"/>
<path d="M430.21 84.8101H310.91C303.99 84.8101 298.38 90.4199 298.38 97.3401C298.38 104.26 303.99 109.87 310.91 109.87H430.21C437.13 109.87 442.74 104.26 442.74 97.3401C442.74 90.4199 437.13 84.8101 430.21 84.8101Z" fill="white"/>
<path d="M430.21 112.87H310.91C306.791 112.87 302.841 111.234 299.929 108.321C297.016 105.409 295.38 101.459 295.38 97.3401C295.38 93.2212 297.016 89.2711 299.929 86.3587C302.841 83.4463 306.791 81.8101 310.91 81.8101H430.21C434.329 81.8101 438.279 83.4463 441.191 86.3587C444.104 89.2711 445.74 93.2212 445.74 97.3401C445.74 101.459 444.104 105.409 441.191 108.321C438.279 111.234 434.329 112.87 430.21 112.87ZM310.91 87.8101C308.382 87.8101 305.958 88.8141 304.171 90.6013C302.384 92.3885 301.38 94.8125 301.38 97.3401C301.38 99.8676 302.384 102.292 304.171 104.079C305.958 105.866 308.382 106.87 310.91 106.87H430.21C432.736 106.865 435.157 105.859 436.943 104.073C438.729 102.287 439.735 99.8659 439.74 97.3401C439.737 94.8134 438.732 92.3909 436.946 90.6042C435.159 88.8176 432.737 87.8127 430.21 87.8101H310.91Z" fill="#3F3D56"/>
<path d="M430.21 52.4199H310.91C303.99 52.4199 298.38 58.0298 298.38 64.9499C298.38 71.87 303.99 77.4799 310.91 77.4799H430.21C437.13 77.4799 442.74 71.87 442.74 64.9499C442.74 58.0298 437.13 52.4199 430.21 52.4199Z" fill="white"/>
<path d="M430.21 80.4799H310.91C306.791 80.4799 302.841 78.8437 299.929 75.9313C297.016 73.0188 295.38 69.0687 295.38 64.9499C295.38 60.8311 297.016 56.881 299.929 53.9685C302.841 51.0561 306.791 49.4199 310.91 49.4199H430.21C434.329 49.4199 438.279 51.0561 441.191 53.9685C444.104 56.881 445.74 60.8311 445.74 64.9499C445.74 69.0687 444.104 73.0188 441.191 75.9313C438.279 78.8437 434.329 80.4799 430.21 80.4799ZM310.91 55.4199C308.382 55.4199 305.958 56.424 304.171 58.2112C302.384 59.9984 301.38 62.4224 301.38 64.9499C301.38 67.4774 302.384 69.9014 304.171 71.6886C305.958 73.4759 308.382 74.4799 310.91 74.4799H430.21C432.737 74.4799 435.161 73.4759 436.949 71.6886C438.736 69.9014 439.74 67.4774 439.74 64.9499C439.74 62.4224 438.736 59.9984 436.949 58.2112C435.161 56.424 432.737 55.4199 430.21 55.4199H310.91Z" fill="#3F3D56"/>
<path d="M430.21 20.0298H310.91C303.99 20.0298 298.38 25.6397 298.38 32.5598C298.38 39.4799 303.99 45.0898 310.91 45.0898H430.21C437.13 45.0898 442.74 39.4799 442.74 32.5598C442.74 25.6397 437.13 20.0298 430.21 20.0298Z" fill="white"/>
<path d="M430.21 48.0898H310.91C308.87 48.0898 306.851 47.6881 304.967 46.9076C303.083 46.1272 301.371 44.9833 299.929 43.5412C298.486 42.0991 297.342 40.3871 296.562 38.5029C295.782 36.6187 295.38 34.5992 295.38 32.5598C295.38 30.5204 295.782 28.5009 296.562 26.6167C297.342 24.7325 298.486 23.0205 299.929 21.5784C301.371 20.1363 303.083 18.9924 304.967 18.2119C306.851 17.4315 308.87 17.0298 310.91 17.0298H430.21C434.329 17.0298 438.279 18.666 441.191 21.5784C444.104 24.4909 445.74 28.441 445.74 32.5598C445.74 36.6786 444.104 40.6287 441.191 43.5412C438.279 46.4536 434.329 48.0898 430.21 48.0898ZM310.91 22.9998C308.382 22.9998 305.958 24.0038 304.171 25.791C302.384 27.5783 301.38 30.0023 301.38 32.5298C301.38 35.0573 302.384 37.4813 304.171 39.2685C305.958 41.0557 308.382 42.0598 310.91 42.0598H430.21C432.737 42.0598 435.161 41.0557 436.949 39.2685C438.736 37.4813 439.74 35.0573 439.74 32.5298C439.74 30.0023 438.736 27.5783 436.949 25.791C435.161 24.0038 432.737 22.9998 430.21 22.9998H310.91Z" fill="#3F3D56"/>
<path d="M175.75 424.5C178.57 422.007 182.34 420.89 187.06 421.15C191.78 421.41 197.62 422.72 204.58 425.08C211.54 427.447 216.873 430.063 220.58 432.93C224.287 435.797 226.477 439.13 227.15 442.93C227.823 446.174 227.878 449.516 227.31 452.78C226.389 456.767 225.237 460.697 223.86 464.55L161.09 648.78C158.163 657.387 154.953 663.387 151.46 666.78C149.846 668.403 147.912 669.672 145.78 670.505C143.649 671.339 141.367 671.718 139.08 671.62C133.36 671.287 127.719 670.114 122.34 668.14C115.933 665.947 111.04 663.663 107.66 661.29C104.841 659.446 102.381 657.105 100.4 654.38C98.9018 651.956 98.2022 649.123 98.4 646.28C98.3467 642.08 99.64 636.113 102.28 628.38L116 587.93L26.21 557.34C10.75 552.073 3.01333 544.74 3 535.34C3.1 531.433 4.16666 526.497 6.2 520.53C8.23333 514.563 10.07 510.26 11.71 507.62L77 406C80.06 401.373 82.5367 397.903 84.43 395.59C86.7438 393.004 89.7004 391.075 93 390C96.8133 388.587 101.04 388.67 105.68 390.25C110.813 392.091 115.673 394.618 120.13 397.76C134.13 407.233 139.463 416.937 136.13 426.87C134.315 431.529 131.92 435.941 129 440C128.724 440.249 128.497 440.548 128.33 440.88L80.58 514.88L134.58 533.28L165.39 442.83C166.608 439.044 168.057 435.337 169.73 431.73C171.262 428.962 173.305 426.508 175.75 424.5Z" fill="white"/>
<path d="M139.66 674.61H139C132.979 674.271 127.04 673.055 121.37 671C114.61 668.69 109.56 666.33 105.93 663.76C102.808 661.704 100.096 659.087 97.93 656.04C96.0859 653.128 95.1979 649.712 95.39 646.27C95.39 641.69 96.67 635.52 99.39 627.43L112.19 589.85L25.24 560.22C8.49999 554.52 0.01 546.22 0 535.43C0.1 531.11 1.2 525.97 3.36 519.64C5.52 513.31 7.36 508.98 9.16 506.12L74.5 404.41C77.67 399.61 80.16 396.12 82.13 393.71C84.781 390.718 88.1755 388.479 91.97 387.22C96.43 385.56 101.37 385.64 106.65 387.44C112.042 389.37 117.148 392.021 121.83 395.32C137.04 405.58 142.83 416.53 138.94 427.87C137.65 431.67 135.22 436.2 131.54 441.69L131.37 441.95L131.15 442.16V442.21L85.28 513.21L132.81 529.41L162.65 441.79C163.91 437.877 165.413 434.046 167.15 430.32C168.83 427.212 171.091 424.456 173.81 422.2C177.23 419.2 181.76 417.81 187.27 418.1C192.27 418.37 198.43 419.75 205.6 422.19C212.77 424.63 218.5 427.45 222.46 430.51C226.76 433.84 229.34 437.82 230.16 442.36C230.894 445.986 230.942 449.717 230.3 453.36C229.351 457.469 228.166 461.519 226.75 465.49L163.93 649.75C160.81 658.9 157.42 665.17 153.54 668.92C151.72 670.742 149.555 672.183 147.172 673.16C144.789 674.137 142.235 674.63 139.66 674.61ZM98.7 392C97.1137 391.997 95.5394 392.274 94.05 392.82C91.2584 393.722 88.7496 395.335 86.77 397.5C84.95 399.72 82.52 403.13 79.53 407.66L14.23 509.26C12.0748 513.166 10.3225 517.28 9 521.54C7.07 527.2 6.05 531.88 6 535.46C6 543.28 13.13 549.72 27.18 554.46L119.81 586.02L105.07 629.28C102.56 636.66 101.31 642.34 101.35 646.19V646.32C101.188 648.547 101.73 650.768 102.9 652.67C104.678 655.078 106.877 657.145 109.39 658.77C112.5 660.98 117.19 663.15 123.3 665.24C128.401 667.11 133.747 668.228 139.17 668.56C141.055 668.643 142.937 668.33 144.694 667.642C146.451 666.953 148.044 665.903 149.37 664.56C152.5 661.56 155.49 655.89 158.25 647.77L221 463.59C222.334 459.857 223.452 456.051 224.35 452.19C224.833 449.295 224.775 446.335 224.18 443.46C223.63 440.4 221.85 437.73 218.72 435.31C215.29 432.66 210.2 430.17 203.59 427.92C196.98 425.67 191.32 424.38 186.88 424.14C182.94 423.92 179.94 424.79 177.71 426.75C175.575 428.506 173.788 430.647 172.44 433.06C170.832 436.546 169.436 440.126 168.26 443.78L136.5 537.07L76 516.46L125.71 439.46C125.976 438.967 126.313 438.516 126.71 438.12C129.387 434.336 131.594 430.239 133.28 425.92C136.19 417.35 131.35 408.92 118.47 400.27C114.234 397.275 109.612 394.866 104.73 393.11C102.795 392.412 100.757 392.036 98.7 392Z" fill="#3F3D56"/>
<path d="M607.5 444.49C608.954 441.017 611.86 438.35 616.22 436.49C620.58 434.63 626.407 433.27 633.7 432.41C641 431.51 646.944 431.544 651.53 432.51C656.117 433.477 659.54 435.524 661.8 438.65C663.818 441.282 665.321 444.271 666.23 447.46C667.127 451.449 667.795 455.485 668.23 459.55L692 652.77C693.107 661.797 692.824 668.59 691.15 673.15C690.412 675.312 689.229 677.296 687.68 678.975C686.13 680.654 684.247 681.991 682.15 682.9C676.853 685.088 671.264 686.487 665.56 687.05C658.84 687.884 653.44 687.96 649.36 687.28C646.019 686.855 642.785 685.818 639.82 684.22C637.404 682.703 635.525 680.464 634.45 677.82C632.584 674.06 631.15 668.124 630.15 660.01L624.94 617.63L530.79 629.19C514.577 631.19 504.424 627.97 500.33 619.53C498.724 615.97 497.534 611.06 496.76 604.8C496 598.55 495.76 593.87 496.1 590.8L510.65 470.88C511.377 465.38 512.094 461.177 512.8 458.27C513.753 454.936 515.571 451.914 518.07 449.51C520.89 446.577 524.73 444.813 529.59 444.22C535.013 443.636 540.49 443.794 545.87 444.69C562.624 447.104 571.64 453.52 572.92 463.94C573.333 468.911 573.118 473.913 572.28 478.83C572.129 479.17 572.054 479.538 572.06 479.91L561.28 567.29L617.91 560.29L606.26 465.45C605.712 461.512 605.401 457.545 605.33 453.57C605.477 450.434 606.213 447.354 607.5 444.49Z" fill="white"/>
<path d="M655.6 690.74C653.323 690.758 651.049 690.591 648.8 690.24C645.085 689.761 641.493 688.591 638.21 686.79C635.28 684.973 632.993 682.284 631.67 679.1C629.67 675 628.14 668.87 627.1 660.38L622.26 621L531.09 632.2C513.53 634.35 502.25 630.54 497.56 620.86C495.78 616.93 494.56 611.86 493.72 605.19C492.88 598.52 492.72 593.85 493.05 590.49L507.6 470.49C508.12 466.122 508.861 461.783 509.82 457.49C510.886 453.638 512.957 450.139 515.82 447.35C519.12 443.92 523.6 441.84 529.14 441.16C534.832 440.549 540.581 440.711 546.23 441.64C564.39 444.26 574.35 451.64 575.81 463.49C576.3 467.49 576.09 472.61 575.16 479.17V479.47L575.06 479.75V479.82L564.7 563.75L614.54 557.63L603.26 465.76C602.678 461.691 602.344 457.59 602.26 453.48C602.422 449.95 603.26 446.484 604.73 443.27C606.49 439.07 609.97 435.85 615.06 433.72C619.67 431.79 625.81 430.34 633.34 429.42C640.87 428.5 647.25 428.54 652.14 429.56C657.46 430.69 661.52 433.15 664.23 436.88C666.464 439.823 668.129 443.157 669.14 446.71C670.08 450.822 670.775 454.986 671.22 459.18L694.94 652.4C696.12 662 695.79 669.13 693.94 674.19C693.057 676.729 691.657 679.057 689.829 681.028C688.002 682.999 685.785 684.569 683.32 685.64C677.741 687.939 671.855 689.408 665.85 690C662.451 690.453 659.028 690.7 655.6 690.74ZM627.49 614.29L633.05 659.65C634.05 667.38 635.35 673.05 637.05 676.49L637.11 676.6C637.939 678.661 639.394 680.41 641.27 681.6C643.92 682.996 646.799 683.903 649.77 684.28C653.54 684.91 658.7 684.82 665.11 684.04C670.518 683.5 675.82 682.18 680.85 680.12C682.58 679.382 684.137 678.288 685.419 676.91C686.7 675.532 687.678 673.9 688.29 672.12C689.79 668.03 690.02 661.65 688.97 653.12L665.27 460C664.844 456.056 664.193 452.14 663.32 448.27C662.483 445.45 661.126 442.812 659.32 440.49C657.49 437.97 654.72 436.34 650.85 435.49C646.61 434.61 640.94 434.58 634.02 435.43C627.1 436.28 621.43 437.59 617.33 439.31C613.69 440.84 611.33 442.91 610.21 445.65C609.047 448.168 608.369 450.882 608.21 453.65C608.28 457.489 608.583 461.319 609.12 465.12L621.12 562.95L557.7 570.73L568.93 479.73C568.943 479.175 569.041 478.626 569.22 478.1C569.988 473.529 570.186 468.88 569.81 464.26C568.71 455.26 560.7 449.83 545.31 447.62C540.195 446.763 534.987 446.609 529.83 447.16C525.63 447.67 522.45 449.16 520.11 451.55C517.984 453.573 516.426 456.118 515.59 458.93C514.92 461.72 514.21 465.86 513.49 471.24L499 591.14C498.765 595.581 498.986 600.035 499.66 604.43C500.39 610.37 501.51 615.03 502.99 618.29C506.4 625.29 515.62 628.02 530.35 626.21L627.49 614.29Z" fill="#3F3D56"/>
</svg>
