<svg width="865" height="611" viewBox="0 0 865 611" fill="none" xmlns="http://www.w3.org/2000/svg">
<path d="M791.3 577.42C781.422 571.15 772.02 564.162 763.17 556.51C748.27 543.59 746.68 531.65 747.97 523.91C748.731 519.512 750.585 515.376 753.362 511.881C756.138 508.387 759.748 505.646 763.86 503.91C774.62 499.55 781.48 495.54 784.23 491.98C785.7 490.08 785.9 488.45 785.86 483.85C785.79 476.96 774.05 465.85 741.31 455.27C724.905 450.124 708.166 446.115 691.21 443.27L694.28 423.5C712.22 426.466 729.93 430.686 747.28 436.13C786.53 448.76 805.7 464.29 805.9 483.61C806.06 500.02 800.77 510.52 771.4 522.41C770.463 522.853 769.644 523.511 769.008 524.329C768.373 525.147 767.938 526.103 767.74 527.12C767.11 530.88 770.24 536.06 776.32 541.33C799.57 561.51 829.63 578.06 860.95 587.93L854.95 607.01C832.541 599.945 811.146 589.998 791.3 577.42Z" fill="white"/>
<path d="M856.85 610.85L854 610C831.362 602.816 809.75 592.732 789.7 580C779.699 573.649 770.177 566.573 761.21 558.83C745.27 544.99 743.61 531.96 745.02 523.47C745.875 518.574 747.945 513.972 751.041 510.084C754.137 506.197 758.16 503.149 762.74 501.22C775.53 496.04 780.2 492.39 781.86 490.22C782.66 489.22 782.86 488.48 782.86 483.96C782.86 479.44 773.86 468.96 740.38 458.2C724.13 453.111 707.547 449.151 690.75 446.35L687.75 445.88L691.75 420.2L694.75 420.66C712.833 423.645 730.684 427.898 748.17 433.39C788.81 446.47 808.67 462.92 808.88 483.7C809.05 501.07 803.3 512.84 772.5 525.31C772.044 525.563 771.645 525.909 771.332 526.326C771.018 526.743 770.796 527.221 770.68 527.73C770.35 529.73 772.14 533.87 778.26 539.18C801.26 559.1 830.89 575.44 861.83 585.18L864.69 586.09L856.85 610.85ZM792.92 574.85C811.671 586.762 831.825 596.307 852.92 603.27L857.13 589.92C826.46 579.83 797.13 563.46 774.29 543.64C767.29 537.57 763.91 531.55 764.72 526.64C764.999 525.116 765.645 523.682 766.601 522.463C767.558 521.243 768.796 520.275 770.21 519.64C798.15 508.33 802.99 499.03 802.84 483.64C802.66 465.78 784.16 451.17 746.3 438.98C730.07 433.891 713.52 429.882 696.76 426.98L694.61 440.82C710.71 443.643 726.61 447.508 742.21 452.39C771.74 461.92 788.73 473.39 788.84 483.8C788.84 488.66 788.69 491.07 786.58 493.8C783.46 497.8 776.39 502.06 764.96 506.68C761.326 508.216 758.136 510.64 755.681 513.729C753.226 516.818 751.586 520.473 750.91 524.36C749.75 531.36 751.27 542.18 765.11 554.2C773.862 561.767 783.157 568.682 792.92 574.89V574.85Z" fill="#3F3D56"/>
<path d="M651.901 322.68L601.79 305.42L542.521 477.5L592.63 494.76C615.448 502.619 640.454 501.091 662.146 490.514C683.838 479.938 700.44 461.177 708.3 438.36C712.193 427.061 713.822 415.106 713.094 403.177C712.367 391.249 709.297 379.581 704.059 368.839C698.822 358.097 691.52 348.492 682.571 340.572C673.621 332.652 663.2 326.572 651.901 322.68Z" fill="#FCC548"/>
<path d="M622.18 502.73C611.789 502.727 601.471 500.993 591.65 497.6L538.7 479.36L599.93 301.61L652.93 319.84C673.975 327.078 691.77 341.547 703.147 360.674C714.525 379.8 718.747 402.343 715.063 424.291C711.379 446.239 700.027 466.168 683.028 480.531C666.029 494.894 644.485 502.761 622.23 502.73H622.18ZM546.33 475.64L593.6 491.92C615.619 499.336 639.678 497.744 660.527 487.489C681.376 477.235 697.324 459.152 704.891 437.184C712.459 415.216 711.031 391.147 700.92 370.228C690.809 349.309 672.835 333.238 650.92 325.52L603.65 309.23L546.33 475.64Z" fill="#3F3D56"/>
<path d="M601.3 400.49C582.87 454 545.02 489.49 516.75 479.74C507.18 476.44 482.98 469.92 478.3 458.63C469.16 436.57 486.74 400.63 498.93 365.24C510.45 331.8 514.73 292.75 534.34 280.03C546.11 272.39 572.88 282.34 583.48 286.03C611.75 295.73 619.73 347 601.3 400.49Z" fill="#49B38D"/>
<path d="M526.57 484.36C522.895 484.371 519.244 483.766 515.77 482.57C514.63 482.18 513.27 481.74 511.77 481.25C500 477.41 480.17 471 475.53 459.78C467.71 440.91 477.88 413.63 488.65 384.78C491.16 378.06 493.74 371.12 496.1 364.29C499.29 355.01 501.95 345.2 504.52 335.72C511.27 310.83 517.64 287.32 532.71 277.54C545.1 269.54 570.5 278.33 582.71 282.54L584.46 283.15C599.23 288.23 609.32 303.58 612.87 326.36C616.3 348.46 613.2 375.13 604.13 401.46C595.07 427.79 581.13 450.72 564.76 466.01C551.89 478.08 538.68 484.36 526.57 484.36ZM546.19 280.2C542.14 280.2 538.57 280.86 535.98 282.54C522.83 291.07 516.75 313.54 510.31 337.26C507.72 346.84 505.03 356.74 501.77 366.26C499.39 373.17 496.77 380.14 494.27 386.89C483.93 414.64 474.15 440.84 481.07 457.53C484.66 466.18 503.49 472.3 513.61 475.59C515.16 476.1 516.55 476.59 517.72 476.95C530.29 481.28 545.54 475.86 560.66 461.69C576.28 447.05 589.71 424.99 598.46 399.57C607.21 374.15 610.23 348.5 606.94 327.34C603.75 306.87 595.07 293.21 582.51 288.88L580.73 288.26C573 285.54 557.68 280.2 546.19 280.2Z" fill="#3F3D56"/>
<path d="M574.63 391.361C593.062 337.86 585.091 286.595 556.827 276.857C528.562 267.119 490.706 302.596 472.274 356.097C453.842 409.598 461.813 460.863 490.077 470.601C518.342 480.339 556.197 444.862 574.63 391.361Z" fill="white"/>
<path d="M499.87 475.17C496.199 475.177 492.553 474.572 489.08 473.38C474.3 468.29 464.22 452.94 460.67 430.17C457.23 408.06 460.33 381.39 469.4 355.06C478.47 328.73 492.45 305.81 508.77 290.52C525.59 274.75 542.99 268.87 557.77 273.96C572.55 279.05 582.63 294.4 586.17 317.18C589.61 339.28 586.51 365.95 577.44 392.28C568.37 418.61 554.39 441.53 538.07 456.83C525.2 468.89 512 475.17 499.87 475.17ZM546.97 278.17C536.4 278.17 524.6 283.9 512.88 294.88C497.26 309.52 483.88 331.59 475.08 357.01C466.28 382.43 463.31 408.08 466.6 429.23C469.79 449.71 478.46 463.37 491.03 467.7C503.6 472.03 518.85 466.61 533.97 452.44C549.59 437.8 562.97 415.74 571.77 390.31C580.52 364.89 583.53 339.24 580.24 318.09C577.06 297.61 568.38 283.95 555.81 279.62C552.974 278.654 549.997 278.168 547 278.18L546.97 278.17Z" fill="#3F3D56"/>
<path d="M546.391 329.754C549.539 320.616 547.435 311.604 541.691 309.625C535.948 307.646 528.739 313.45 525.591 322.588C522.443 331.726 524.547 340.737 530.291 342.716C536.035 344.695 543.243 338.892 546.391 329.754Z" fill="#3F3D56"/>
<path d="M514.474 422.406C517.622 413.268 515.518 404.256 509.774 402.278C504.031 400.299 496.822 406.102 493.674 415.24C490.526 424.378 492.63 433.39 498.374 435.369C504.118 437.348 511.326 431.544 514.474 422.406Z" fill="#3F3D56"/>
<path d="M306.56 303.18L399.34 335.52C403.033 336.81 406.063 339.514 407.764 343.037C409.464 346.561 409.697 350.615 408.41 354.31C407.119 358.003 404.415 361.033 400.892 362.734C397.369 364.434 393.314 364.667 389.62 363.38L296.85 331L306.56 303.18Z" fill="white"/>
<path d="M394.46 367.2C392.478 367.195 390.51 366.857 388.64 366.2L293 332.88L304.69 299.36L400.29 332.69C404.251 334.071 407.595 336.811 409.728 340.423C411.861 344.035 412.647 348.286 411.944 352.421C411.242 356.557 409.098 360.311 405.892 363.016C402.686 365.721 398.625 367.203 394.43 367.2H394.46ZM300.67 329.2L390.61 360.56C393.553 361.586 396.782 361.402 399.589 360.047C402.395 358.692 404.549 356.277 405.575 353.335C406.601 350.392 406.417 347.162 405.062 344.356C403.707 341.55 401.293 339.396 398.35 338.37L308.41 307L300.67 329.2Z" fill="#3F3D56"/>
<path d="M338.829 210.64L431.599 243C435.292 244.288 438.322 246.99 440.023 250.512C441.724 254.033 441.956 258.086 440.669 261.78C439.381 265.472 436.679 268.502 433.157 270.203C429.636 271.904 425.583 272.136 421.889 270.85L329.109 238.5L338.829 210.64Z" fill="white"/>
<path d="M426.73 274.67C424.744 274.665 422.774 274.327 420.9 273.67L325.29 240.33L337 206.82L432.61 240.15C436.566 241.537 439.904 244.278 442.034 247.89C444.163 251.501 444.946 255.749 444.244 259.882C443.543 264.015 441.401 267.767 438.2 270.473C434.998 273.18 430.942 274.666 426.75 274.67H426.73ZM332.94 236.67L422.88 268C425.074 268.763 427.446 268.859 429.695 268.275C431.944 267.69 433.969 266.453 435.514 264.718C437.06 262.983 438.056 260.829 438.377 258.528C438.699 256.227 438.331 253.882 437.32 251.79C436.656 250.394 435.72 249.145 434.568 248.115C433.416 247.085 432.071 246.294 430.61 245.79L340.67 214.43L332.94 236.67Z" fill="#3F3D56"/>
<path d="M249.389 148.75L322.799 174.34C326.223 175.53 329.378 177.382 332.085 179.792C334.793 182.201 336.999 185.121 338.577 188.383C340.156 191.645 341.077 195.187 341.286 198.805C341.496 202.423 340.991 206.047 339.799 209.47L297.999 329.23C296.81 332.653 294.957 335.809 292.548 338.516C290.138 341.223 287.219 343.429 283.956 345.008C280.694 346.587 277.153 347.507 273.534 347.717C269.916 347.926 266.292 347.421 262.869 346.23L189.459 320.63C179.081 317.013 169.517 311.386 161.313 304.072C153.11 296.757 146.428 287.898 141.649 278.001C136.87 268.103 134.088 257.361 133.462 246.388C132.836 235.416 134.378 224.427 137.999 214.05L142.829 200.2C146.447 189.824 152.072 180.262 159.386 172.061C166.699 163.859 175.556 157.179 185.451 152.401C195.347 147.623 206.087 144.842 217.057 144.215C228.028 143.589 239.014 145.13 249.389 148.75Z" fill="#FCC548"/>
<path d="M272 350.75C268.559 350.739 265.144 350.148 261.9 349L188.48 323.4C166.791 315.811 148.999 299.929 139.006 279.237C129.014 258.546 127.638 234.735 135.18 213.03L140 199.22C147.591 177.53 163.475 159.737 184.168 149.743C204.86 139.749 228.672 138.371 250.38 145.91L323.79 171.51C331.449 174.182 337.733 179.786 341.26 187.09C344.787 194.394 345.269 202.801 342.6 210.46L300.84 330.22C298.747 336.205 294.849 341.393 289.684 345.07C284.519 348.747 278.34 350.731 272 350.75ZM221.91 147.08C205.161 147.085 188.828 152.295 175.169 161.989C161.511 171.683 151.203 185.381 145.67 201.19L140.84 215C133.825 235.204 135.109 257.365 144.411 276.624C153.713 295.882 170.273 310.665 190.46 317.73L263.87 343.32C266.919 344.385 270.147 344.839 273.371 344.656C276.595 344.472 279.751 343.655 282.659 342.25C285.567 340.846 288.17 338.882 290.318 336.472C292.467 334.061 294.119 331.25 295.18 328.2L336.93 208.44C337.994 205.391 338.447 202.163 338.263 198.939C338.078 195.716 337.261 192.56 335.857 189.653C334.453 186.745 332.489 184.142 330.079 181.994C327.669 179.845 324.859 178.192 321.81 177.13L248.4 151.58C239.886 148.601 230.93 147.079 221.91 147.08Z" fill="#3F3D56"/>
<path d="M339.999 275.65C321.999 327.28 289.109 362.75 257.919 351.87L250.189 349.18C248.765 348.657 247.524 347.729 246.618 346.512C245.712 345.294 245.18 343.839 245.088 342.324C244.995 340.81 245.346 339.301 246.098 337.982C246.849 336.664 247.969 335.593 249.319 334.9C270.179 324.06 287.379 296.15 299.449 261.51C311.519 226.87 315.449 194.33 305.819 172.86C305.193 171.478 304.983 169.944 305.215 168.445C305.446 166.945 306.11 165.546 307.124 164.417C308.138 163.289 309.458 162.48 310.924 162.09C312.39 161.7 313.938 161.745 315.379 162.22L323.099 164.91C354.289 175.79 357.999 224 339.999 275.65Z" fill="#49B38D"/>
<path d="M269.469 356.86C265.195 356.855 260.952 356.128 256.919 354.71L249.159 352C247.19 351.317 245.468 350.064 244.211 348.402C242.955 346.739 242.22 344.741 242.099 342.66C241.931 340.541 242.395 338.42 243.433 336.565C244.471 334.71 246.035 333.205 247.929 332.24C266.579 322.54 283.869 297.07 296.609 260.52C309.349 223.97 311.609 193.28 303.069 174.09C302.191 172.154 301.906 170.001 302.25 167.903C302.593 165.805 303.55 163.855 304.999 162.3C306.392 160.745 308.215 159.637 310.236 159.118C312.258 158.598 314.389 158.689 316.359 159.38L321.799 161.28L324.099 162.08C340.099 167.66 350.099 182.37 352.979 204.61C355.599 224.8 351.979 250.38 342.839 276.61C333.699 302.84 320.579 325.17 305.999 339.35C294.049 351 281.629 356.86 269.469 356.86ZM312.839 164.79C312.19 164.794 311.549 164.935 310.958 165.204C310.367 165.473 309.839 165.863 309.409 166.35C308.76 167.048 308.331 167.923 308.178 168.865C308.025 169.806 308.154 170.772 308.549 171.64C320.349 198.03 311.649 235.64 302.279 262.5C292.909 289.36 276.349 324.23 250.699 337.56C249.851 337.995 249.15 338.672 248.686 339.505C248.221 340.338 248.014 341.289 248.089 342.24C248.131 343.156 248.448 344.039 249 344.772C249.551 345.505 250.31 346.055 251.179 346.35L258.889 349.04C276.229 355.04 291.799 344.77 301.809 335.04C315.749 321.49 328.299 300.04 337.159 274.65C346.019 249.26 349.509 224.65 347.009 205.37C345.219 191.54 339.449 173.78 322.109 167.73L314.379 165.04C313.883 164.874 313.363 164.79 312.839 164.79Z" fill="#3F3D56"/>
<path d="M52.0001 170.12C16.9101 147.74 1.00008 126.38 3.48008 105.21C3.85704 102.135 4.8555 99.1695 6.41474 96.4928C7.97399 93.8162 10.0614 91.4846 12.5501 89.6401C27.9801 77.6401 59.2201 79.7001 76.5501 82.0101C97.4201 84.1401 127.93 81.2801 131.14 70.3101C133.14 63.4001 123.55 51.5601 101.71 43.2501C60.6301 27.6201 17.9301 24.0001 17.5101 24.0001L19.1101 4.06006C20.9701 4.21006 65.1101 7.91005 108.82 24.55C146.39 38.85 154.67 61.1701 150.34 75.9301C146.01 90.6901 131.25 99.2501 106.34 101.81C95.6984 102.823 84.9855 102.843 74.3401 101.87H74.0601C47.7501 98.3501 30.3701 101.13 24.8101 105.45C23.4601 106.5 23.3801 107.19 23.3401 107.56C21.4601 123.56 45.5001 145.74 89.3401 168.42C110.653 179.256 132.576 188.845 155 197.14C157.443 198.044 159.437 199.865 160.557 202.216C161.678 204.568 161.837 207.263 161 209.73C160.572 211.003 159.891 212.176 159 213.181C158.108 214.185 157.023 214.999 155.81 215.575C154.597 216.151 153.28 216.476 151.938 216.532C150.596 216.588 149.257 216.373 148 215.9C124.871 207.35 102.262 197.453 80.2901 186.26C69.7701 180.82 60.3401 175.44 52.0001 170.12Z" fill="white"/>
<path d="M151.46 219.53C149.916 219.529 148.385 219.252 146.94 218.71C123.712 210.114 101.006 200.167 78.9397 188.92C68.3697 183.46 58.7697 177.98 50.4097 172.65C14.1897 149.56 -2.12034 127.38 0.519659 104.86C0.940862 101.389 2.06309 98.0401 3.81823 95.0163C5.57336 91.9925 7.92477 89.357 10.7297 87.2698C26.9997 74.5998 59.1997 76.6698 76.9997 78.9998C98.7297 81.2298 125.94 77.5399 128.32 69.4398C129.69 64.7599 121.86 54.0798 100.69 46.0298C59.9997 30.5898 17.6897 26.9998 17.2697 26.9998L14.2697 26.7599L16.3497 0.839844L19.3497 1.07983C21.2297 1.22983 65.8097 4.97985 109.89 21.7498C149.38 36.7498 157.89 60.7998 153.21 76.7498C148.53 92.6998 132.89 102.06 106.65 104.75C95.7951 105.783 84.8679 105.803 74.0097 104.81H73.7097C48.3397 101.42 31.5397 103.97 26.6397 107.81C26.5131 107.905 26.3929 108.009 26.2797 108.12C24.8897 122.62 48.9097 144.12 90.6697 165.75C111.874 176.531 133.688 186.071 156 194.32C158.874 195.37 161.286 197.402 162.811 200.056C164.335 202.71 164.874 205.817 164.332 208.829C163.791 211.842 162.204 214.566 159.851 216.524C157.498 218.481 154.53 219.546 151.47 219.53H151.46ZM51.4597 83.2299C37.6297 83.2299 23.1497 85.2299 14.3797 92.0099C12.2097 93.6143 10.388 95.6424 9.02495 97.9715C7.66187 100.301 6.78574 102.882 6.44965 105.56C4.09965 125.56 19.5197 145.86 53.6097 167.56C61.8197 172.79 71.2597 178.18 81.6597 183.56C103.509 194.709 125.995 204.566 149 213.08C150.7 213.588 152.529 213.432 154.118 212.643C155.707 211.853 156.937 210.49 157.56 208.829C158.182 207.167 158.15 205.331 157.471 203.692C156.792 202.053 155.515 200.734 153.9 200C131.359 191.66 109.322 182.017 87.8997 171.12C42.2696 147.48 18.2697 124.8 20.3397 107.24C20.4474 106.403 20.7369 105.599 21.1877 104.886C21.6386 104.173 22.2399 103.566 22.9497 103.11C30.3297 97.3698 50.5497 95.7298 74.4397 98.9298H74.6697C85.1028 99.8696 95.6002 99.8495 106.03 98.8698C129.6 96.4398 143.54 88.4499 147.45 75.1299C151.45 61.5899 143.45 40.9699 107.74 27.3899C70.3696 13.1699 32.6297 8.47986 21.8497 7.38986L20.7197 21.3899C31.1997 22.4999 67.5397 27.1198 102.72 40.5298C127.6 49.9898 136.36 63.0798 133.96 71.2398C129.71 85.7298 93.1997 86.8099 76.1897 85.0699C67.9913 83.9234 59.7274 83.3088 51.4496 83.2299H51.4597Z" fill="#3F3D56"/>
<path d="M441.992 38.6903L436.626 41.374L457.367 82.8468L462.733 80.1631L441.992 38.6903Z" fill="#3F3D56"/>
<path d="M555.476 29.3897L529.982 84.0356L535.42 86.5723L560.913 31.9264L555.476 29.3897Z" fill="#3F3D56"/>
<path d="M623.503 133.795L586.751 148.05L588.921 153.644L625.673 139.389L623.503 133.795Z" fill="#3F3D56"/>
<path d="M223.618 495.838L191.315 511.107L193.88 516.532L226.182 501.262L223.618 495.838Z" fill="#3F3D56"/>
<path d="M289.494 553.731L257.779 601.646L262.783 604.958L294.497 557.043L289.494 553.731Z" fill="#3F3D56"/>
<path d="M379.546 557.149L374.121 559.713L388.758 590.678L394.183 588.114L379.546 557.149Z" fill="#3F3D56"/>
</svg>
