<svg width="138" height="138" viewBox="0 0 138 138" fill="none" xmlns="http://www.w3.org/2000/svg">
<g clip-path="url(#clip0_205_867)">
<g clip-path="url(#clip1_205_867)">
<path d="M48.9199 45.3921H123.85V135.978H48.9199V45.3921Z" fill="#FFC166"/>
<path d="M123.85 45.3923H48.9199L56.6522 20.52C56.7547 20.1904 56.9598 19.9023 57.2377 19.6977C57.5155 19.4931 57.8516 19.3828 58.1966 19.3828H126.005C126.238 19.3828 126.469 19.4332 126.681 19.5308C126.893 19.6283 127.081 19.7706 127.233 19.9479C127.385 20.1251 127.497 20.3332 127.56 20.5577C127.624 20.7822 127.639 21.0179 127.603 21.2485L123.85 45.3923Z" fill="#FFC97A"/>
<path d="M135.979 41.7803V127.172C135.978 127.393 135.924 127.612 135.819 127.807C135.714 128.003 135.563 128.17 135.378 128.293L123.85 135.979V45.3925L135.979 41.7803Z" fill="#FFB74E"/>
<path d="M127.335 20.0815L135.979 41.7802L123.85 45.3924L127.335 20.0815Z" fill="#FFAE36"/>
<path d="M62.7402 74.3672H109.025C109.74 74.3672 110.426 74.6512 110.931 75.1566C111.437 75.6621 111.721 76.3477 111.721 77.0625V100.828C111.721 101.543 111.437 102.229 110.931 102.734C110.426 103.239 109.74 103.523 109.025 103.523H62.7402V74.3672Z" fill="white"/>
<path d="M109.025 74.3672H96.8965C97.6113 74.3672 98.2969 74.6512 98.8024 75.1566C99.3078 75.6621 99.5918 76.3477 99.5918 77.0625V100.828C99.5918 101.543 99.3078 102.229 98.8024 102.734C98.2969 103.239 97.6113 103.523 96.8965 103.523H109.025C109.74 103.523 110.426 103.239 110.931 102.734C111.437 102.229 111.721 101.543 111.721 100.828V77.0625C111.721 76.3477 111.437 75.6621 110.931 75.1566C110.426 74.6512 109.74 74.3672 109.025 74.3672Z" fill="#EEEEEE"/>
<path d="M69.5068 51.0767L68.4772 61.8849L68.3991 62.7123L67.3668 73.5394L67.2886 74.3669L63.5583 113.516L62.4505 125.171L61.7686 132.319C61.6734 133.32 61.2084 134.25 60.4642 134.927C59.7201 135.604 58.7504 135.979 57.7445 135.979H19.0075C18.0013 135.979 17.0312 135.604 16.2866 134.927C15.542 134.25 15.0764 133.32 14.9807 132.319L14.3014 125.171L13.191 113.516L9.46336 74.3669L9.3852 73.5394L8.35289 62.7123L8.27473 61.8849L7.24512 51.0767H69.5068Z" fill="#B86600"/>
<path d="M57.3776 51.0767L56.348 61.8849L56.2698 62.7123L55.2375 73.5394L55.1593 74.3669L51.429 113.516L50.3212 125.171L49.6393 132.319C49.5442 133.32 49.0791 134.25 48.335 134.927C47.5909 135.604 46.6211 135.979 45.6152 135.979H57.7441C58.75 135.979 59.7198 135.604 60.4639 134.927C61.208 134.25 61.6731 133.32 61.7682 132.319L62.4502 125.171L63.5579 113.516L67.2882 74.3669L67.3664 73.5394L68.3987 62.7123L68.4769 61.8849L69.5065 51.0767H57.3776Z" fill="#B86600"/>
<path d="M72.0336 39.7085H4.7168C3.22822 39.7085 2.02148 40.9152 2.02148 42.4038V48.3809C2.02148 49.8695 3.22822 51.0762 4.7168 51.0762H72.0336C73.5222 51.0762 74.7289 49.8695 74.7289 48.3809V42.4038C74.7289 40.9152 73.5222 39.7085 72.0336 39.7085Z" fill="#FFC166"/>
<path d="M72.0337 39.7085H59.9048C60.6196 39.7085 61.3052 39.9925 61.8107 40.4979C62.3161 41.0034 62.6001 41.689 62.6001 42.4038V48.3809C62.6001 49.0958 62.3161 49.7813 61.8107 50.2868C61.3052 50.7923 60.6196 51.0762 59.9048 51.0762H72.0337C72.7485 51.0762 73.4341 50.7923 73.9396 50.2868C74.445 49.7813 74.729 49.0958 74.729 48.3809V42.4038C74.729 41.689 74.445 41.0034 73.9396 40.4979C73.4341 39.9925 72.7485 39.7085 72.0337 39.7085Z" fill="#FFC166"/>
<path d="M66.0359 39.7086H10.7148L14.071 31.5477C14.2742 31.0536 14.6196 30.6311 15.0634 30.3337C15.5073 30.0363 16.0294 29.8775 16.5637 29.8774H60.187C60.7213 29.8775 61.2435 30.0363 61.6873 30.3337C62.1311 30.6311 62.4765 31.0536 62.6797 31.5477L66.0359 39.7086Z" fill="#B86600"/>
<path d="M62.6796 31.5477C62.4765 31.0536 62.131 30.6311 61.6872 30.3337C61.2434 30.0363 60.7212 29.8775 60.187 29.8774H48.0581C48.5923 29.8775 49.1145 30.0363 49.5583 30.3337C50.0021 30.6311 50.3476 31.0536 50.5507 31.5477L53.9069 39.7086H66.0358L62.6796 31.5477Z" fill="#B86600"/>
<path d="M38.3751 105.212C44.8281 105.212 50.0593 99.9804 50.0593 93.5274C50.0593 87.0744 44.8281 81.8433 38.3751 81.8433C31.9221 81.8433 26.6909 87.0744 26.6909 93.5274C26.6909 99.9804 31.9221 105.212 38.3751 105.212Z" fill="white"/>
<path d="M38.3753 79.8214C35.6646 79.8214 33.0147 80.6253 30.7609 82.1313C28.507 83.6373 26.7503 85.7778 25.7129 88.2822C24.6756 90.7866 24.4042 93.5423 24.933 96.201C25.4618 98.8596 26.7672 101.302 28.684 103.218C30.6007 105.135 33.0428 106.441 35.7015 106.969C38.3601 107.498 41.1159 107.227 43.6203 106.189C46.1246 105.152 48.2652 103.395 49.7712 101.142C51.2772 98.8877 52.081 96.2378 52.081 93.5271C52.0768 89.8934 50.6315 86.4097 48.0621 83.8403C45.4927 81.2709 42.009 79.8256 38.3753 79.8214ZM38.3753 103.19C36.4642 103.19 34.596 102.623 33.007 101.561C31.418 100.5 30.1795 98.9905 29.4482 97.2249C28.7168 95.4592 28.5255 93.5164 28.8983 91.642C29.2711 89.7676 30.1914 88.0459 31.5428 86.6946C32.8941 85.3432 34.6158 84.4229 36.4902 84.0501C38.3646 83.6772 40.3074 83.8686 42.0731 84.5999C43.8387 85.3313 45.3478 86.5698 46.4096 88.1588C47.4713 89.7478 48.038 91.616 48.038 93.5271C48.0352 96.0889 47.0162 98.545 45.2047 100.357C43.3932 102.168 40.9371 103.187 38.3753 103.19ZM137.997 41.7294C137.996 41.6903 137.996 41.6512 137.993 41.6122L137.99 41.5874C137.988 41.561 137.983 41.5351 137.98 41.5092C137.975 41.4763 137.972 41.4437 137.966 41.4111L137.962 41.3925C137.955 41.3575 137.946 41.3235 137.938 41.2893C137.931 41.2637 137.926 41.2381 137.918 41.2122L137.916 41.2027L137.914 41.1984C137.902 41.1575 137.887 41.1178 137.872 41.0782C137.867 41.0626 137.863 41.0469 137.857 41.0316L137.842 40.9957L137.841 40.9917L129.536 20.1435C129.444 19.762 129.29 19.3981 129.081 19.0659C129.059 19.0279 129.037 18.9896 129.013 18.9535L128.993 18.9263C128.957 18.8739 128.918 18.8234 128.877 18.7748C128.84 18.7273 128.807 18.6783 128.768 18.6327C128.427 18.2337 128.003 17.9134 127.526 17.6938C127.049 17.4743 126.53 17.3608 126.005 17.3611H58.1966C57.4197 17.3585 56.6624 17.6058 56.0368 18.0665C55.4111 18.5271 54.9501 19.1768 54.7219 19.9195L52.2548 27.8556H40.3968V13.6647L50.3676 3.43198C50.7345 3.04664 50.9346 2.53219 50.9247 2.00022C50.9147 1.46826 50.6954 0.961668 50.3143 0.590336C49.9333 0.219004 49.4212 0.0128726 48.8892 0.0166526C48.3571 0.0204327 47.848 0.233819 47.4723 0.610528L36.9277 11.4319C36.5597 11.8093 36.3537 12.3156 36.3536 12.8427V27.8556H16.5638C15.6284 27.8534 14.7136 28.1304 13.9365 28.6511C13.1593 29.1718 12.5552 29.9124 12.2014 30.7784L9.36055 37.6867H4.7168C3.46626 37.6881 2.26736 38.1855 1.38309 39.0698C0.498832 39.9541 0.00142674 41.153 0 42.4035L0 48.3806C0.00142674 49.6312 0.498832 50.8301 1.38309 51.7143C2.26736 52.5986 3.46626 53.096 4.7168 53.0974H5.4068L12.9682 132.512C13.1073 134.016 13.8043 135.413 14.922 136.429C16.0397 137.444 17.4971 138.005 19.0073 138H57.7444L57.75 137.999H123.851C123.857 137.999 123.862 137.999 123.868 137.999C123.948 137.998 124.027 137.992 124.106 137.981C124.131 137.978 124.156 137.974 124.181 137.97C124.253 137.958 124.325 137.943 124.395 137.923C124.409 137.919 124.422 137.916 124.436 137.912C124.52 137.887 124.602 137.855 124.683 137.818C124.699 137.811 124.715 137.803 124.732 137.795C124.813 137.756 124.891 137.712 124.967 137.663L124.971 137.66L124.974 137.658L124.984 137.651L136.5 129.974C136.962 129.667 137.34 129.25 137.602 128.761C137.864 128.272 138.001 127.726 138 127.171V41.7798C138 41.7626 137.998 41.7461 137.997 41.7294ZM128.519 28.5143L133.282 40.4737L126.338 42.5418L128.519 28.5143ZM15.9403 32.3163C15.9908 32.1925 16.0771 32.0866 16.1881 32.0122C16.2991 31.9378 16.4298 31.8982 16.5635 31.8985H60.1869C60.3205 31.8982 60.4511 31.9379 60.5621 32.0123C60.6731 32.0867 60.7593 32.1926 60.8098 32.3163L63.0186 37.687H13.7318L15.9403 32.3163ZM4.7168 49.0545C4.53813 49.0543 4.36682 48.9833 4.24049 48.8569C4.11415 48.7306 4.04311 48.5593 4.04297 48.3806V42.4035C4.04311 42.2248 4.11415 42.0535 4.24049 41.9272C4.36682 41.8009 4.53813 41.7298 4.7168 41.7297H66.0292L66.0365 41.7302L66.0473 41.7297H72.0336C72.2122 41.7298 72.3836 41.8009 72.5099 41.9272C72.6362 42.0535 72.7073 42.2248 72.7074 42.4035V48.3806C72.7073 48.5593 72.6362 48.7306 72.5099 48.8569C72.3836 48.9833 72.2122 49.0543 72.0336 49.0545H4.7168ZM62.4984 103.336L59.7559 132.128C59.7103 132.628 59.4792 133.093 59.108 133.431C58.7368 133.77 58.2524 133.957 57.75 133.957H19.0073C18.5038 133.958 18.0178 133.772 17.645 133.433C17.2723 133.094 17.0397 132.629 16.9931 132.127L9.46782 53.0974H67.2836L62.5016 103.301L62.4984 103.336ZM69.1261 76.3879L109.025 76.3884C109.204 76.3886 109.375 76.4596 109.502 76.5859C109.628 76.7123 109.699 76.8836 109.699 77.0623V100.828C109.699 101.006 109.628 101.178 109.502 101.304C109.375 101.43 109.204 101.501 109.025 101.501H66.7343L69.1261 76.3879ZM121.828 133.957H63.4584C63.6241 133.489 63.7323 133.004 63.7808 132.51L66.3492 105.545L109.025 105.544C110.276 105.543 111.475 105.046 112.359 104.161C113.243 103.277 113.741 102.078 113.742 100.828V77.0623C113.741 75.8117 113.243 74.6128 112.359 73.7286C111.475 72.8443 110.276 72.3469 109.025 72.3455L69.5113 72.3449L71.3449 53.0974H72.0338C73.2844 53.096 74.4833 52.5986 75.3675 51.7143C76.2518 50.8301 76.7492 49.6312 76.7506 48.3806V47.4136H121.828V133.957ZM122.118 43.3706H76.7504V42.4035C76.7489 41.153 76.2515 39.9541 75.3673 39.0698C74.483 38.1855 73.2841 37.6881 72.0336 37.6867H67.3901L64.5492 30.7786C64.1955 29.9126 63.5914 29.1719 62.8142 28.6512C62.0371 28.1305 61.1223 27.8534 60.1869 27.8556H56.4889L58.4942 21.4041H125.533L122.118 43.3706ZM133.957 126.81L125.871 132.201V46.899L133.957 44.491V126.81Z" fill="#272A33"/>
<path d="M38.5 104C44.299 104 49 99.299 49 93.5C49 87.701 44.299 83 38.5 83C32.701 83 28 87.701 28 93.5C28 99.299 32.701 104 38.5 104Z" fill="#FCC548"/>
<path d="M32.4802 96.6665V96.2647H32.314V96.1816H32.74V96.2647H32.5703V96.6665H32.4802ZM32.9796 96.6665V96.1816H33.3509V96.2633H33.0682V96.5847H33.3536V96.6665H32.9796ZM33.0253 96.4587V96.3783H33.3155V96.4587H33.0253ZM33.9908 96.6665V96.1816H34.0809V96.6665H33.9908ZM33.6258 96.6665V96.1816H33.7158V96.6665H33.6258ZM33.6632 96.4684L33.6639 96.3838H34.0345V96.4684H33.6632ZM35.119 96.6665L35.0656 96.609L35.0379 96.5833L34.9132 96.4621C34.8994 96.4488 34.8855 96.4351 34.8717 96.4213C34.8583 96.4074 34.8461 96.3935 34.835 96.3797C34.8239 96.3653 34.8149 96.3513 34.808 96.3374C34.8015 96.3236 34.7983 96.3097 34.7983 96.2959C34.7983 96.2751 34.8047 96.2552 34.8177 96.2363C34.831 96.2174 34.8497 96.2019 34.8738 96.1899C34.8982 96.1779 34.9271 96.1719 34.9603 96.1719C34.9885 96.1719 35.0142 96.176 35.0372 96.1843C35.0603 96.1927 35.08 96.2039 35.0961 96.2183C35.1127 96.2326 35.1254 96.249 35.1342 96.2675L35.0705 96.3167C35.0571 96.2926 35.0409 96.2756 35.022 96.2654C35.0031 96.2548 34.9834 96.2495 34.9631 96.2495C34.9502 96.2495 34.9386 96.251 34.9285 96.2543C34.9183 96.2576 34.9102 96.2626 34.9042 96.2695C34.8982 96.2765 34.8952 96.285 34.8952 96.2952C34.8952 96.3035 34.898 96.3127 34.9035 96.3229C34.9091 96.3326 34.916 96.3425 34.9243 96.3527C34.9326 96.3629 34.9414 96.3726 34.9507 96.3818C34.9603 96.391 34.9689 96.3991 34.9763 96.406L35.1044 96.5279L35.1301 96.5556L35.234 96.6665H35.119ZM34.9229 96.6755C34.8795 96.6755 34.8424 96.6683 34.8114 96.654C34.7809 96.6397 34.7576 96.6208 34.7415 96.5972C34.7257 96.5736 34.7179 96.5482 34.7179 96.521C34.7179 96.4882 34.7283 96.4585 34.7491 96.4316C34.7703 96.4044 34.8024 96.3827 34.8454 96.3665L34.9001 96.4226C34.8687 96.4309 34.8461 96.4425 34.8322 96.4573C34.8188 96.472 34.8121 96.4896 34.8121 96.5099C34.8121 96.5257 34.8163 96.5399 34.8246 96.5529C34.8329 96.5658 34.8458 96.5762 34.8634 96.584C34.8809 96.5915 34.9035 96.5951 34.9313 96.5951C34.9497 96.5951 34.9684 96.5922 34.9874 96.5861C35.0063 96.5797 35.0236 96.57 35.0393 96.557C35.0555 96.5437 35.0686 96.5267 35.0788 96.5065C35.0894 96.4862 35.0952 96.4621 35.0961 96.4344H35.182C35.1806 96.4658 35.1744 96.4945 35.1633 96.5203C35.1527 96.5457 35.1388 96.5681 35.1217 96.5875C35.1051 96.6069 35.086 96.623 35.0643 96.636C35.0426 96.649 35.0197 96.6588 34.9957 96.6658C34.9721 96.6722 34.9479 96.6755 34.9229 96.6755ZM35.8486 96.6665V96.1816H35.9338L36.1354 96.4614L36.0904 96.4607L36.2927 96.1816H36.3765V96.6665H36.2871V96.4801C36.2871 96.4404 36.288 96.4039 36.2899 96.3707C36.2917 96.3369 36.2954 96.303 36.301 96.2689L36.3107 96.3007L36.134 96.5349H36.0883L35.9144 96.3007L35.9241 96.2689C35.9297 96.3021 35.9334 96.3354 35.9352 96.3686C35.9371 96.4019 35.938 96.4391 35.938 96.4801V96.6665H35.8486ZM36.6639 96.6665V96.584H36.7706V96.264H36.6639V96.1816H36.9673V96.264H36.8606V96.584H36.9673V96.6665H36.6639ZM37.2547 96.6665V96.1816H37.3399L37.6751 96.5605L37.6641 96.5633C37.6618 96.5489 37.6599 96.5344 37.6585 96.5196C37.6571 96.5049 37.6557 96.4896 37.6544 96.4739C37.6534 96.4582 37.6525 96.4422 37.6516 96.4261C37.6511 96.41 37.6507 96.3937 37.6502 96.3776C37.6502 96.361 37.6502 96.3442 37.6502 96.327V96.1816H37.7396V96.6665H37.653L37.3163 96.2931L37.3302 96.2883C37.3316 96.3044 37.3329 96.3194 37.3343 96.3333C37.3357 96.3466 37.3369 96.3598 37.3378 96.3728C37.3392 96.3857 37.3403 96.3982 37.3413 96.4102C37.3422 96.4217 37.3429 96.4332 37.3433 96.4448C37.3438 96.4564 37.344 96.4677 37.344 96.4787V96.6665H37.2547ZM38.249 96.6706C38.2047 96.6706 38.1654 96.6614 38.1312 96.6429C38.0971 96.624 38.0703 96.5981 38.0509 96.5653C38.0319 96.5326 38.0225 96.4956 38.0225 96.4545V96.1809H38.1132V96.4503C38.1132 96.4767 38.1192 96.5002 38.1312 96.521C38.1432 96.5413 38.1596 96.5575 38.1804 96.5695C38.2012 96.5811 38.2241 96.5868 38.249 96.5868C38.2758 96.5868 38.2998 96.5811 38.321 96.5695C38.3423 96.5575 38.3589 96.5413 38.3709 96.521C38.3829 96.5002 38.3889 96.4767 38.3889 96.4503V96.1809H38.4762V96.4545C38.4762 96.4956 38.4665 96.5326 38.4471 96.5653C38.4282 96.5981 38.4016 96.624 38.3675 96.6429C38.3337 96.6614 38.2943 96.6706 38.249 96.6706ZM38.7588 96.6665V96.1816H38.844L39.0456 96.4614L39.0006 96.4607L39.2029 96.1816H39.2867V96.6665H39.1973V96.4801C39.1973 96.4404 39.1982 96.4039 39.2001 96.3707C39.2019 96.3369 39.2056 96.303 39.2112 96.2689L39.2209 96.3007L39.0442 96.5349H38.9985L38.8246 96.3007L38.8343 96.2689C38.8398 96.3021 38.8435 96.3354 38.8454 96.3686C38.8472 96.4019 38.8482 96.4391 38.8482 96.4801V96.6665H38.7588ZM39.5152 96.6665L39.7313 96.1816H39.822L40.0375 96.6665H39.9426L39.8096 96.3672C39.8059 96.3598 39.8019 96.3511 39.7978 96.3409C39.7941 96.3307 39.7902 96.3203 39.786 96.3097C39.7819 96.2986 39.778 96.2881 39.7742 96.2779C39.7706 96.2673 39.7673 96.2578 39.7645 96.2495L39.7853 96.2488C39.7822 96.2585 39.7787 96.2687 39.7749 96.2792C39.7713 96.2894 39.7673 96.2998 39.7632 96.3104C39.759 96.321 39.7548 96.3312 39.7507 96.3409C39.7465 96.3506 39.7427 96.3601 39.7389 96.3693L39.6066 96.6665H39.5152ZM39.6121 96.5598L39.644 96.4815H39.9031L39.9252 96.5598H39.6121ZM40.2663 96.6665V96.1816H40.3515L40.6867 96.5605L40.6756 96.5633C40.6734 96.5489 40.6715 96.5344 40.6701 96.5196C40.6687 96.5049 40.6673 96.4896 40.666 96.4739C40.6651 96.4582 40.6642 96.4422 40.6632 96.4261C40.6628 96.41 40.6623 96.3937 40.6618 96.3776C40.6618 96.361 40.6618 96.3442 40.6618 96.327V96.1816H40.7512V96.6665H40.6646L40.3279 96.2931L40.3418 96.2883C40.3431 96.3044 40.3445 96.3194 40.3459 96.3333C40.3473 96.3466 40.3485 96.3598 40.3494 96.3728C40.3508 96.3857 40.352 96.3982 40.3528 96.4102C40.3538 96.4217 40.3545 96.4332 40.3549 96.4448C40.3554 96.4564 40.3556 96.4677 40.3556 96.4787V96.6665H40.2663ZM41.603 96.6734C41.5701 96.6734 41.54 96.6699 41.5122 96.663C41.4849 96.6556 41.46 96.6452 41.4374 96.6318C41.4153 96.6185 41.3952 96.6016 41.3772 96.5813L41.4305 96.5106C41.4586 96.5416 41.4868 96.5635 41.515 96.5764C41.5436 96.5889 41.5743 96.5951 41.6071 96.5951C41.626 96.5951 41.6439 96.5928 41.6605 96.5882C41.6775 96.5831 41.6914 96.5759 41.702 96.5667C41.7131 96.557 41.7187 96.5452 41.7187 96.5314C41.7187 96.5222 41.7159 96.5143 41.7104 96.5078C41.7052 96.5009 41.6981 96.4952 41.6889 96.4905C41.6801 96.4855 41.6699 96.4813 41.6584 96.4781C41.6468 96.4748 41.6349 96.472 41.6224 96.4697C41.6099 96.4675 41.5974 96.4654 41.585 96.4635C41.5559 96.4589 41.53 96.4529 41.5074 96.4455C41.4847 96.4377 41.4655 96.4277 41.4499 96.4157C41.4342 96.4037 41.4222 96.3896 41.4139 96.3735C41.406 96.3573 41.4021 96.3386 41.4021 96.3173C41.4021 96.2952 41.4071 96.2753 41.4173 96.2578C41.4274 96.2398 41.4418 96.2245 41.4603 96.2121C41.4787 96.1996 41.5 96.1901 41.524 96.1837C41.5485 96.1767 41.575 96.1733 41.6037 96.1733C41.6342 96.1733 41.6616 96.1765 41.6861 96.183C41.711 96.1894 41.7329 96.1989 41.7519 96.2114C41.7708 96.2233 41.7868 96.2379 41.7997 96.255L41.7436 96.3167C41.732 96.3028 41.7187 96.291 41.7034 96.2813C41.6886 96.2716 41.6727 96.2645 41.6556 96.2598C41.6385 96.2548 41.6205 96.2522 41.6016 96.2522C41.5812 96.2522 41.5632 96.2545 41.5476 96.2592C41.5318 96.2638 41.5194 96.2704 41.5102 96.2792C41.5009 96.2881 41.4963 96.2986 41.4963 96.3111C41.4963 96.3213 41.4993 96.3303 41.5053 96.3381C41.5113 96.3455 41.5196 96.352 41.5303 96.3575C41.5413 96.3626 41.5542 96.367 41.569 96.3707C41.5838 96.3739 41.5999 96.3769 41.6175 96.3797C41.6443 96.3838 41.6695 96.3892 41.693 96.3956C41.7166 96.4021 41.7374 96.4107 41.7554 96.4213C41.7734 96.4314 41.7872 96.4443 41.7969 96.46C41.807 96.4753 41.8122 96.4945 41.8122 96.5175C41.8122 96.5494 41.8034 96.5771 41.7859 96.6007C41.7682 96.6237 41.7438 96.6417 41.7124 96.6547C41.6815 96.6672 41.6449 96.6734 41.603 96.6734ZM42.0662 96.6665V96.1816H42.4375V96.2633H42.1549V96.5847H42.4403V96.6665H42.0662ZM42.1119 96.4587V96.3783H42.4022V96.4587H42.1119ZM42.9514 96.6734C42.9135 96.6734 42.878 96.6677 42.8447 96.6561C42.8115 96.6445 42.7824 96.6282 42.7574 96.6069C42.7325 96.5852 42.7129 96.5589 42.6986 96.5279C42.6847 96.497 42.6778 96.4621 42.6778 96.4233C42.6778 96.3882 42.6849 96.3556 42.6992 96.3257C42.7136 96.2952 42.7334 96.2689 42.7588 96.2467C42.7843 96.224 42.814 96.2065 42.8482 96.194C42.8828 96.1816 42.92 96.1753 42.9597 96.1753C42.9907 96.1753 43.0198 96.179 43.047 96.1864C43.0747 96.1938 43.0989 96.2037 43.1197 96.2162C43.141 96.2287 43.158 96.2423 43.171 96.2571L43.1142 96.3187C43.0998 96.3068 43.0846 96.2964 43.0685 96.2876C43.0523 96.2787 43.035 96.2718 43.0165 96.2668C42.9985 96.2617 42.9793 96.2592 42.959 96.2592C42.9327 96.2592 42.9079 96.2633 42.8849 96.2716C42.8622 96.2799 42.8424 96.2915 42.8253 96.3063C42.8087 96.321 42.7955 96.3383 42.7858 96.3582C42.7766 96.3781 42.772 96.3998 42.772 96.4233C42.772 96.4501 42.7768 96.4739 42.7865 96.4947C42.7967 96.515 42.8103 96.5323 42.8274 96.5466C42.8449 96.561 42.865 96.5718 42.8877 96.5792C42.9103 96.5861 42.9339 96.5896 42.9583 96.5896C42.981 96.5896 43.002 96.587 43.0214 96.582C43.0412 96.5769 43.0583 96.5697 43.0726 96.5605C43.0874 96.5513 43.0989 96.5406 43.1073 96.5286C43.1156 96.5162 43.1195 96.5025 43.119 96.4878L43.1183 96.4753L43.1315 96.4926H42.9549V96.4136H43.2091C43.21 96.4197 43.2107 96.4256 43.2112 96.4316C43.2117 96.4372 43.2119 96.4422 43.2119 96.4469C43.2123 96.4515 43.2125 96.4552 43.2125 96.458C43.2125 96.4921 43.2061 96.5226 43.1931 96.5494C43.1807 96.5762 43.1627 96.5988 43.1391 96.6173C43.1156 96.6353 43.0879 96.6492 43.056 96.6588C43.0246 96.6685 42.9897 96.6734 42.9514 96.6734ZM43.3957 96.6665L43.6118 96.1816H43.7026L43.918 96.6665H43.8231L43.6901 96.3672C43.6865 96.3598 43.6825 96.3511 43.6783 96.3409C43.6747 96.3307 43.6707 96.3203 43.6666 96.3097C43.6624 96.2986 43.6585 96.2881 43.6548 96.2779C43.6511 96.2673 43.6479 96.2578 43.6451 96.2495L43.6659 96.2488C43.6627 96.2585 43.6592 96.2687 43.6555 96.2792C43.6518 96.2894 43.6479 96.2998 43.6437 96.3104C43.6395 96.321 43.6354 96.3312 43.6312 96.3409C43.6271 96.3506 43.6232 96.3601 43.6195 96.3693L43.4872 96.6665H43.3957ZM43.4927 96.5598L43.5246 96.4815H43.7836L43.8058 96.5598H43.4927ZM44.1468 96.6665V96.1816H44.3976C44.4285 96.1816 44.4563 96.1883 44.4807 96.2017C44.5052 96.2146 44.5246 96.2326 44.5389 96.2557C44.5537 96.2788 44.561 96.3051 44.561 96.3347C44.561 96.3633 44.5534 96.3896 44.5382 96.4136C44.5229 96.4372 44.5027 96.4559 44.4772 96.4697C44.4519 96.4836 44.4237 96.4905 44.3927 96.4905H44.2348V96.6665H44.1468ZM44.4772 96.6665L44.3304 96.4476L44.4246 96.4303L44.5853 96.6672L44.4772 96.6665ZM44.2348 96.4122H44.3886C44.4034 96.4122 44.4168 96.409 44.4287 96.4025C44.4408 96.3956 44.4502 96.3864 44.4571 96.3748C44.4646 96.3633 44.4682 96.3504 44.4682 96.336C44.4682 96.3217 44.4644 96.3092 44.4564 96.2986C44.4486 96.2876 44.438 96.2787 44.4246 96.2723C44.4117 96.2659 44.3969 96.2626 44.3803 96.2626H44.2348V96.4122Z" fill="black"/>
<path d="M39.3906 91.814H40.0833V95.0795H39.3906V91.814Z" fill="black"/>
<path d="M40.7268 91.814H41.37L40.6965 93.799L40.0942 93.7077L40.7268 91.814Z" fill="black"/>
<path d="M40.2812 93.5939L40.8255 93.3477L41.4688 95.0794H40.776L40.2812 93.5939Z" fill="black"/>
<path d="M40.7762 93.1992H40.0835V93.793H40.7762V93.1992Z" fill="black"/>
<g clip-path="url(#clip2_205_867)">
<path d="M38.0375 90.9582C38.0356 90.9504 38.0338 90.9426 38.0332 90.9332C38.036 90.9263 38.0382 90.9209 38.0391 90.9153C38.0568 90.8085 38.0708 90.7011 38.093 90.5951C38.115 90.4901 38.1508 90.3882 38.1926 90.2882C38.2304 90.1979 38.2748 90.1106 38.3267 90.027C38.3491 89.9909 38.373 89.9554 38.399 89.9217C38.4418 89.8661 38.4848 89.8103 38.5315 89.7578C38.6195 89.6589 38.7174 89.5695 38.8263 89.4924C38.9074 89.435 38.9896 89.379 39.074 89.3264C39.1504 89.2787 39.2297 89.2352 39.309 89.1922C39.4136 89.1356 39.5202 89.0822 39.6248 89.0257C39.7336 88.967 39.8423 88.9079 39.949 88.8457C40.0662 88.7775 40.1752 88.698 40.2711 88.6028C40.2905 88.5834 40.3082 88.5625 40.3268 88.5422C40.3204 88.5409 40.317 88.5425 40.3143 88.5448C40.2958 88.5611 40.2779 88.578 40.2592 88.594C40.1097 88.7219 39.9377 88.8161 39.7625 88.9052C39.6708 88.9519 39.5778 88.9961 39.4854 89.0414C39.3917 89.0874 39.2968 89.131 39.2049 89.18C39.0958 89.2381 38.9882 89.2991 38.8819 89.362C38.7494 89.4404 38.6263 89.5314 38.517 89.6383C38.4554 89.6986 38.3971 89.7625 38.3424 89.8287C38.3035 89.8756 38.2714 89.9281 38.2396 89.98C38.2134 90.0226 38.1914 90.0676 38.1687 90.112C38.1556 90.1378 38.1448 90.1647 38.1306 90.1962C38.1135 90.1432 38.0955 90.096 38.0835 90.0473C38.0711 89.997 38.0639 89.9454 38.0558 89.8941C38.0436 89.8165 38.0461 89.7386 38.0559 89.6604C38.0711 89.5395 38.1122 89.4264 38.1736 89.3201C38.2178 89.2437 38.2731 89.1745 38.3351 89.1107C38.4282 89.0149 38.5345 88.9345 38.6494 88.8648C38.7765 88.7877 38.9098 88.7226 39.05 88.6713C39.1224 88.6448 39.1947 88.6176 39.268 88.5935C39.3327 88.5723 39.3986 88.5545 39.4642 88.5358C39.5234 88.5189 39.5828 88.5032 39.642 88.4865C39.7135 88.4663 39.7851 88.4463 39.8562 88.4248C39.9128 88.4077 39.9694 88.39 40.025 88.3696C40.091 88.3453 40.1573 88.3209 40.2209 88.2913C40.382 88.2165 40.5288 88.1206 40.6563 87.9983C40.667 87.988 40.6756 87.9754 40.6851 87.9639C40.689 87.9631 40.6929 87.9622 40.6971 87.9612C40.7009 87.9778 40.7047 87.9944 40.7073 88.0129C40.705 88.0164 40.7032 88.018 40.7031 88.0196C40.6997 88.0872 40.6999 88.1551 40.6923 88.2224C40.6815 88.318 40.6581 88.4119 40.6246 88.5028C40.5918 88.5922 40.5583 88.6818 40.5175 88.768C40.4708 88.8665 40.417 88.9621 40.3637 89.0577C40.3386 89.1027 40.3089 89.1455 40.279 89.1879C40.2205 89.2709 40.1629 89.3548 40.1002 89.4349C40.0445 89.5061 39.9843 89.5744 39.9229 89.6412C39.8229 89.7501 39.7106 89.8464 39.5912 89.935C39.5054 89.9988 39.4153 90.056 39.3214 90.1081C39.1937 90.1789 39.0595 90.2346 38.919 90.2749C38.8267 90.3014 38.732 90.3201 38.6361 90.3283C38.5317 90.3372 38.4275 90.3369 38.3237 90.3237C38.3189 90.323 38.3117 90.3256 38.3086 90.3291C38.299 90.3401 38.2891 90.3514 38.2823 90.364C38.2524 90.4197 38.2195 90.4744 38.1955 90.5323C38.1626 90.6113 38.1362 90.6928 38.1081 90.7735C38.0982 90.8019 38.0913 90.8313 38.0836 90.8587C38.1268 90.8178 38.1677 90.775 38.2129 90.7371C38.3185 90.6485 38.4359 90.5772 38.5615 90.5178C38.6436 90.479 38.7278 90.4456 38.8151 90.4215C38.8788 90.404 38.9447 90.3921 39.0103 90.3843C39.0853 90.3753 39.1614 90.3679 39.2366 90.3699C39.411 90.3746 39.585 90.386 39.7592 90.3935C39.8266 90.3964 39.8941 90.3982 39.9616 90.3968C40.015 90.3956 40.0688 90.3913 40.1218 90.3838C40.165 90.3777 40.2072 90.3649 40.2499 90.355C40.2395 90.3572 40.229 90.3595 40.2186 90.3621C40.1594 90.3766 40.0989 90.3821 40.0386 90.3799C39.9277 90.3758 39.8168 90.3707 39.7064 90.3614C39.5173 90.3456 39.3291 90.3209 39.1385 90.3238C39.065 90.3249 38.9914 90.3315 38.9179 90.3364C38.8897 90.3383 38.8615 90.3425 38.8336 90.3456C38.8591 90.3377 38.8849 90.3299 38.9106 90.3219C38.9595 90.3067 39.0091 90.2934 39.057 90.2756C39.1197 90.2522 39.1825 90.228 39.2427 90.1991C39.3558 90.1449 39.4631 90.081 39.5651 90.0086C39.5739 90.0024 39.5875 89.9983 39.598 89.9995C39.6405 90.0044 39.6836 90.0083 39.7246 90.0188C39.8227 90.044 39.9202 90.0714 40.0171 90.1003C40.1203 90.1311 40.2211 90.1696 40.3286 90.1866C40.4063 90.199 40.4845 90.203 40.5623 90.1856C40.6066 90.1756 40.6498 90.1605 40.6938 90.1476C40.6934 90.149 40.6932 90.1523 40.6916 90.1548C40.6583 90.2043 40.6274 90.2555 40.5911 90.3028C40.5123 90.4053 40.4123 90.487 40.3031 90.5569C40.2241 90.6074 40.1408 90.6522 40.057 90.6951C40 90.7242 39.9392 90.7464 39.8795 90.7702C39.8446 90.7841 39.8083 90.7948 39.7729 90.8075C39.7694 90.8087 39.7672 90.8138 39.7644 90.8171C39.6503 90.8434 39.5362 90.8698 39.4201 90.8949C39.4151 90.8929 39.412 90.8911 39.4091 90.8914C39.3751 90.895 39.3411 90.8988 39.3071 90.9027C39.2109 90.9136 39.1147 90.9124 39.0189 90.904C38.8978 90.8935 38.7804 90.8674 38.6687 90.821C38.5927 90.7894 38.5212 90.7509 38.4576 90.6999C38.4365 90.683 38.417 90.6793 38.3928 90.694C38.3769 90.7036 38.3588 90.7098 38.3425 90.7189C38.2727 90.7576 38.2062 90.801 38.1473 90.8544C38.11 90.8882 38.074 90.9235 38.0375 90.9582ZM40.3265 88.5357C40.3294 88.5346 40.3323 88.5335 40.3352 88.5324C40.3348 88.5314 40.3344 88.5304 40.334 88.5294C40.3316 88.5305 40.3291 88.5316 40.3265 88.5357ZM40.337 88.523C40.3383 88.5228 40.3397 88.5227 40.341 88.5226C40.3399 88.522 40.3387 88.5213 40.337 88.523Z" fill="#5A953B"/>
</g>
<path d="M31.9688 91.814H30.1875V92.4077H31.9688V91.814Z" fill="black"/>
<path d="M30.7515 92.4077V95.0796H31.4442V92.4077H30.7515Z" fill="black"/>
<path d="M33.4038 91.814H32.6616V95.0796H33.4038V91.814Z" fill="black"/>
<path d="M34.1955 91.814H33.4038V92.4077H34.1955V91.814Z" fill="black"/>
<path d="M34.1955 93.1006H33.4038V93.6943H34.1955V93.1006Z" fill="black"/>
<path d="M34.1955 94.4858H33.4038V95.0796H34.1955V94.4858Z" fill="black"/>
<path d="M37.7085 91.814H38.4507V95.0795H37.7085V91.814Z" fill="black"/>
<path d="M35.6302 91.814H34.9375V95.0796H35.6302V91.814Z" fill="black"/>
<path d="M36.2241 91.814C36.5684 91.814 36.8476 92.0931 36.8476 92.4374V94.4561C36.8476 94.8005 36.5684 95.0795 36.2241 95.0795V91.814Z" fill="black"/>
<path d="M35.6304 91.814H36.1549C36.4117 91.814 36.62 92.0222 36.62 92.2791H35.6304V91.814Z" fill="black"/>
<path d="M35.6304 94.5845H36.7189C36.7189 94.8578 36.4974 95.0793 36.2241 95.0793H35.6304V94.5845Z" fill="black"/>
<path d="M42.1118 92.21H42.8045V95.0797H42.1118V92.21Z" fill="black"/>
<path d="M43.3491 92.21C43.3491 92.21 43.9924 92.21 44.0418 92.21C44.0913 92.21 44.0418 95.0797 44.0418 95.0797H43.3491V92.21Z" fill="black"/>
<path d="M42.8047 93.4468H43.3786V93.991H42.8047V93.4468Z" fill="black"/>
<path d="M42.225 92.0284C42.3093 91.8937 42.4531 91.8075 42.6118 91.797L42.7303 91.7891L43.0833 91.7891L43.4786 91.8028C43.6759 91.8097 43.8568 91.9141 43.9614 92.0815L44.0415 92.2096H43.5467H43.0833H42.1118L42.225 92.0284Z" fill="black"/>
<path d="M44.9321 92.3086C44.9321 92.3086 45.5768 92.3086 45.6248 92.3086C45.6728 92.3086 45.6248 95.0794 45.6248 95.0794H44.9321V92.3086Z" fill="black"/>
<path d="M46.1196 91.814H44.9321V92.3088H46.1196V91.814Z" fill="black"/>
<path d="M46.1196 93.2983H44.9321V93.7931H46.1196V93.2983Z" fill="black"/>
<path d="M46.1196 91.814C46.4749 91.814 46.7629 92.1019 46.7629 92.4572V93.1499C46.7629 93.5051 46.4749 93.7931 46.1196 93.7931V91.814Z" fill="black"/>
<path d="M82.5 99C88.299 99 93 94.299 93 88.5C93 82.701 88.299 78 82.5 78C76.701 78 72 82.701 72 88.5C72 94.299 76.701 99 82.5 99Z" fill="#FCC548"/>
<path d="M76.4802 91.6665V91.2647H76.314V91.1816H76.74V91.2647H76.5703V91.6665H76.4802ZM76.9796 91.6665V91.1816H77.3509V91.2633H77.0682V91.5847H77.3536V91.6665H76.9796ZM77.0253 91.4587V91.3783H77.3155V91.4587H77.0253ZM77.9908 91.6665V91.1816H78.0809V91.6665H77.9908ZM77.6258 91.6665V91.1816H77.7158V91.6665H77.6258ZM77.6632 91.4684L77.6639 91.3838H78.0345V91.4684H77.6632ZM79.119 91.6665L79.0656 91.609L79.0379 91.5833L78.9132 91.4621C78.8994 91.4488 78.8855 91.4351 78.8717 91.4213C78.8583 91.4074 78.8461 91.3935 78.835 91.3797C78.8239 91.3653 78.8149 91.3513 78.808 91.3374C78.8015 91.3236 78.7983 91.3097 78.7983 91.2959C78.7983 91.2751 78.8047 91.2552 78.8177 91.2363C78.831 91.2174 78.8497 91.2019 78.8738 91.1899C78.8982 91.1779 78.9271 91.1719 78.9603 91.1719C78.9885 91.1719 79.0142 91.176 79.0372 91.1843C79.0603 91.1927 79.08 91.2039 79.0961 91.2183C79.1127 91.2326 79.1254 91.249 79.1342 91.2675L79.0705 91.3167C79.0571 91.2926 79.0409 91.2756 79.022 91.2654C79.0031 91.2548 78.9834 91.2495 78.9631 91.2495C78.9502 91.2495 78.9386 91.251 78.9285 91.2543C78.9183 91.2576 78.9102 91.2626 78.9042 91.2695C78.8982 91.2765 78.8952 91.285 78.8952 91.2952C78.8952 91.3035 78.898 91.3127 78.9035 91.3229C78.9091 91.3326 78.916 91.3425 78.9243 91.3527C78.9326 91.3629 78.9414 91.3726 78.9507 91.3818C78.9603 91.391 78.9689 91.3991 78.9763 91.406L79.1044 91.5279L79.1301 91.5556L79.234 91.6665H79.119ZM78.9229 91.6755C78.8795 91.6755 78.8424 91.6683 78.8114 91.654C78.7809 91.6397 78.7576 91.6208 78.7415 91.5972C78.7257 91.5736 78.7179 91.5482 78.7179 91.521C78.7179 91.4882 78.7283 91.4585 78.7491 91.4316C78.7703 91.4044 78.8024 91.3827 78.8454 91.3665L78.9001 91.4226C78.8687 91.4309 78.8461 91.4425 78.8322 91.4573C78.8188 91.472 78.8121 91.4896 78.8121 91.5099C78.8121 91.5257 78.8163 91.5399 78.8246 91.5529C78.8329 91.5658 78.8458 91.5762 78.8634 91.584C78.8809 91.5915 78.9035 91.5951 78.9313 91.5951C78.9497 91.5951 78.9684 91.5922 78.9874 91.5861C79.0063 91.5797 79.0236 91.57 79.0393 91.557C79.0555 91.5437 79.0686 91.5267 79.0788 91.5065C79.0894 91.4862 79.0952 91.4621 79.0961 91.4344H79.182C79.1806 91.4658 79.1744 91.4945 79.1633 91.5203C79.1527 91.5457 79.1388 91.5681 79.1217 91.5875C79.1051 91.6069 79.086 91.623 79.0643 91.636C79.0426 91.649 79.0197 91.6588 78.9957 91.6658C78.9721 91.6722 78.9479 91.6755 78.9229 91.6755ZM79.8486 91.6665V91.1816H79.9338L80.1354 91.4614L80.0904 91.4607L80.2927 91.1816H80.3765V91.6665H80.2871V91.4801C80.2871 91.4404 80.288 91.4039 80.2899 91.3707C80.2917 91.3369 80.2954 91.303 80.301 91.2689L80.3107 91.3007L80.134 91.5349H80.0883L79.9144 91.3007L79.9241 91.2689C79.9297 91.3021 79.9334 91.3354 79.9352 91.3686C79.9371 91.4019 79.938 91.4391 79.938 91.4801V91.6665H79.8486ZM80.6639 91.6665V91.584H80.7706V91.264H80.6639V91.1816H80.9673V91.264H80.8606V91.584H80.9673V91.6665H80.6639ZM81.2547 91.6665V91.1816H81.3399L81.6751 91.5605L81.6641 91.5633C81.6618 91.5489 81.6599 91.5344 81.6585 91.5196C81.6571 91.5049 81.6557 91.4896 81.6544 91.4739C81.6534 91.4582 81.6525 91.4422 81.6516 91.4261C81.6511 91.41 81.6507 91.3937 81.6502 91.3776C81.6502 91.361 81.6502 91.3442 81.6502 91.327V91.1816H81.7396V91.6665H81.653L81.3163 91.2931L81.3302 91.2883C81.3316 91.3044 81.3329 91.3194 81.3343 91.3333C81.3357 91.3466 81.3369 91.3598 81.3378 91.3728C81.3392 91.3857 81.3403 91.3982 81.3413 91.4102C81.3422 91.4217 81.3429 91.4332 81.3433 91.4448C81.3438 91.4564 81.344 91.4677 81.344 91.4787V91.6665H81.2547ZM82.249 91.6706C82.2047 91.6706 82.1654 91.6614 82.1312 91.6429C82.0971 91.624 82.0703 91.5981 82.0509 91.5653C82.0319 91.5326 82.0225 91.4956 82.0225 91.4545V91.1809H82.1132V91.4503C82.1132 91.4767 82.1192 91.5002 82.1312 91.521C82.1432 91.5413 82.1596 91.5575 82.1804 91.5695C82.2012 91.5811 82.2241 91.5868 82.249 91.5868C82.2758 91.5868 82.2998 91.5811 82.321 91.5695C82.3423 91.5575 82.3589 91.5413 82.3709 91.521C82.3829 91.5002 82.3889 91.4767 82.3889 91.4503V91.1809H82.4762V91.4545C82.4762 91.4956 82.4665 91.5326 82.4471 91.5653C82.4282 91.5981 82.4016 91.624 82.3675 91.6429C82.3337 91.6614 82.2943 91.6706 82.249 91.6706ZM82.7588 91.6665V91.1816H82.844L83.0456 91.4614L83.0006 91.4607L83.2029 91.1816H83.2867V91.6665H83.1973V91.4801C83.1973 91.4404 83.1982 91.4039 83.2001 91.3707C83.2019 91.3369 83.2056 91.303 83.2112 91.2689L83.2209 91.3007L83.0442 91.5349H82.9985L82.8246 91.3007L82.8343 91.2689C82.8398 91.3021 82.8435 91.3354 82.8454 91.3686C82.8472 91.4019 82.8482 91.4391 82.8482 91.4801V91.6665H82.7588ZM83.5152 91.6665L83.7313 91.1816H83.822L84.0375 91.6665H83.9426L83.8096 91.3672C83.8059 91.3598 83.8019 91.3511 83.7978 91.3409C83.7941 91.3307 83.7902 91.3203 83.786 91.3097C83.7819 91.2986 83.778 91.2881 83.7742 91.2779C83.7706 91.2673 83.7673 91.2578 83.7645 91.2495L83.7853 91.2488C83.7822 91.2585 83.7787 91.2687 83.7749 91.2792C83.7713 91.2894 83.7673 91.2998 83.7632 91.3104C83.759 91.321 83.7548 91.3312 83.7507 91.3409C83.7465 91.3506 83.7427 91.3601 83.7389 91.3693L83.6066 91.6665H83.5152ZM83.6121 91.5598L83.644 91.4815H83.9031L83.9252 91.5598H83.6121ZM84.2663 91.6665V91.1816H84.3515L84.6867 91.5605L84.6756 91.5633C84.6734 91.5489 84.6715 91.5344 84.6701 91.5196C84.6687 91.5049 84.6673 91.4896 84.666 91.4739C84.6651 91.4582 84.6642 91.4422 84.6632 91.4261C84.6628 91.41 84.6623 91.3937 84.6618 91.3776C84.6618 91.361 84.6618 91.3442 84.6618 91.327V91.1816H84.7512V91.6665H84.6646L84.3279 91.2931L84.3418 91.2883C84.3431 91.3044 84.3445 91.3194 84.3459 91.3333C84.3473 91.3466 84.3485 91.3598 84.3494 91.3728C84.3508 91.3857 84.352 91.3982 84.3528 91.4102C84.3538 91.4217 84.3545 91.4332 84.3549 91.4448C84.3554 91.4564 84.3556 91.4677 84.3556 91.4787V91.6665H84.2663ZM85.603 91.6734C85.5701 91.6734 85.54 91.6699 85.5122 91.663C85.4849 91.6556 85.46 91.6452 85.4374 91.6318C85.4153 91.6185 85.3952 91.6016 85.3772 91.5813L85.4305 91.5106C85.4586 91.5416 85.4868 91.5635 85.515 91.5764C85.5436 91.5889 85.5743 91.5951 85.6071 91.5951C85.626 91.5951 85.6439 91.5928 85.6605 91.5882C85.6775 91.5831 85.6914 91.5759 85.702 91.5667C85.7131 91.557 85.7187 91.5452 85.7187 91.5314C85.7187 91.5222 85.7159 91.5143 85.7104 91.5078C85.7052 91.5009 85.6981 91.4952 85.6889 91.4905C85.6801 91.4855 85.6699 91.4813 85.6584 91.4781C85.6468 91.4748 85.6349 91.472 85.6224 91.4697C85.6099 91.4675 85.5974 91.4654 85.585 91.4635C85.5559 91.4589 85.53 91.4529 85.5074 91.4455C85.4847 91.4377 85.4655 91.4277 85.4499 91.4157C85.4342 91.4037 85.4222 91.3896 85.4139 91.3735C85.406 91.3573 85.4021 91.3386 85.4021 91.3173C85.4021 91.2952 85.4071 91.2753 85.4173 91.2578C85.4274 91.2398 85.4418 91.2245 85.4603 91.2121C85.4787 91.1996 85.5 91.1901 85.524 91.1837C85.5485 91.1767 85.575 91.1733 85.6037 91.1733C85.6342 91.1733 85.6616 91.1765 85.6861 91.183C85.711 91.1894 85.7329 91.1989 85.7519 91.2114C85.7708 91.2233 85.7868 91.2379 85.7997 91.255L85.7436 91.3167C85.732 91.3028 85.7187 91.291 85.7034 91.2813C85.6886 91.2716 85.6727 91.2645 85.6556 91.2598C85.6385 91.2548 85.6205 91.2522 85.6016 91.2522C85.5812 91.2522 85.5632 91.2545 85.5476 91.2592C85.5318 91.2638 85.5194 91.2704 85.5102 91.2792C85.5009 91.2881 85.4963 91.2986 85.4963 91.3111C85.4963 91.3213 85.4993 91.3303 85.5053 91.3381C85.5113 91.3455 85.5196 91.352 85.5303 91.3575C85.5413 91.3626 85.5542 91.367 85.569 91.3707C85.5838 91.3739 85.5999 91.3769 85.6175 91.3797C85.6443 91.3838 85.6695 91.3892 85.693 91.3956C85.7166 91.4021 85.7374 91.4107 85.7554 91.4213C85.7734 91.4314 85.7872 91.4443 85.7969 91.46C85.807 91.4753 85.8122 91.4945 85.8122 91.5175C85.8122 91.5494 85.8034 91.5771 85.7859 91.6007C85.7682 91.6237 85.7438 91.6417 85.7124 91.6547C85.6815 91.6672 85.6449 91.6734 85.603 91.6734ZM86.0662 91.6665V91.1816H86.4375V91.2633H86.1549V91.5847H86.4403V91.6665H86.0662ZM86.1119 91.4587V91.3783H86.4022V91.4587H86.1119ZM86.9514 91.6734C86.9135 91.6734 86.878 91.6677 86.8447 91.6561C86.8115 91.6445 86.7824 91.6282 86.7574 91.6069C86.7325 91.5852 86.7129 91.5589 86.6986 91.5279C86.6847 91.497 86.6778 91.4621 86.6778 91.4233C86.6778 91.3882 86.6849 91.3556 86.6992 91.3257C86.7136 91.2952 86.7334 91.2689 86.7588 91.2467C86.7843 91.224 86.814 91.2065 86.8482 91.194C86.8828 91.1816 86.92 91.1753 86.9597 91.1753C86.9907 91.1753 87.0198 91.179 87.047 91.1864C87.0747 91.1938 87.0989 91.2037 87.1197 91.2162C87.141 91.2287 87.158 91.2423 87.171 91.2571L87.1142 91.3187C87.0998 91.3068 87.0846 91.2964 87.0685 91.2876C87.0523 91.2787 87.035 91.2718 87.0165 91.2668C86.9985 91.2617 86.9793 91.2592 86.959 91.2592C86.9327 91.2592 86.9079 91.2633 86.8849 91.2716C86.8622 91.2799 86.8424 91.2915 86.8253 91.3063C86.8087 91.321 86.7955 91.3383 86.7858 91.3582C86.7766 91.3781 86.772 91.3998 86.772 91.4233C86.772 91.4501 86.7768 91.4739 86.7865 91.4947C86.7967 91.515 86.8103 91.5323 86.8274 91.5466C86.8449 91.561 86.865 91.5718 86.8877 91.5792C86.9103 91.5861 86.9339 91.5896 86.9583 91.5896C86.981 91.5896 87.002 91.587 87.0214 91.582C87.0412 91.5769 87.0583 91.5697 87.0726 91.5605C87.0874 91.5513 87.0989 91.5406 87.1073 91.5286C87.1156 91.5162 87.1195 91.5025 87.119 91.4878L87.1183 91.4753L87.1315 91.4926H86.9549V91.4136H87.2091C87.21 91.4197 87.2107 91.4256 87.2112 91.4316C87.2117 91.4372 87.2119 91.4422 87.2119 91.4469C87.2123 91.4515 87.2125 91.4552 87.2125 91.458C87.2125 91.4921 87.2061 91.5226 87.1931 91.5494C87.1807 91.5762 87.1627 91.5988 87.1391 91.6173C87.1156 91.6353 87.0879 91.6492 87.056 91.6588C87.0246 91.6685 86.9897 91.6734 86.9514 91.6734ZM87.3957 91.6665L87.6118 91.1816H87.7026L87.918 91.6665H87.8231L87.6901 91.3672C87.6865 91.3598 87.6825 91.3511 87.6783 91.3409C87.6747 91.3307 87.6707 91.3203 87.6666 91.3097C87.6624 91.2986 87.6585 91.2881 87.6548 91.2779C87.6511 91.2673 87.6479 91.2578 87.6451 91.2495L87.6659 91.2488C87.6627 91.2585 87.6592 91.2687 87.6555 91.2792C87.6518 91.2894 87.6479 91.2998 87.6437 91.3104C87.6395 91.321 87.6354 91.3312 87.6312 91.3409C87.6271 91.3506 87.6232 91.3601 87.6195 91.3693L87.4872 91.6665H87.3957ZM87.4927 91.5598L87.5246 91.4815H87.7836L87.8058 91.5598H87.4927ZM88.1468 91.6665V91.1816H88.3976C88.4285 91.1816 88.4563 91.1883 88.4807 91.2017C88.5052 91.2146 88.5246 91.2326 88.5389 91.2557C88.5537 91.2788 88.561 91.3051 88.561 91.3347C88.561 91.3633 88.5534 91.3896 88.5382 91.4136C88.5229 91.4372 88.5027 91.4559 88.4772 91.4697C88.4519 91.4836 88.4237 91.4905 88.3927 91.4905H88.2348V91.6665H88.1468ZM88.4772 91.6665L88.3304 91.4476L88.4246 91.4303L88.5853 91.6672L88.4772 91.6665ZM88.2348 91.4122H88.3886C88.4034 91.4122 88.4168 91.409 88.4287 91.4025C88.4408 91.3956 88.4502 91.3864 88.4571 91.3748C88.4646 91.3633 88.4682 91.3504 88.4682 91.336C88.4682 91.3217 88.4644 91.3092 88.4564 91.2986C88.4486 91.2876 88.438 91.2787 88.4246 91.2723C88.4117 91.2659 88.3969 91.2626 88.3803 91.2626H88.2348V91.4122Z" fill="black"/>
<path d="M83.3906 86.814H84.0833V90.0795H83.3906V86.814Z" fill="black"/>
<path d="M84.7268 86.814H85.37L84.6965 88.799L84.0942 88.7077L84.7268 86.814Z" fill="black"/>
<path d="M84.2812 88.5939L84.8255 88.3477L85.4688 90.0794H84.776L84.2812 88.5939Z" fill="black"/>
<path d="M84.7762 88.1992H84.0835V88.793H84.7762V88.1992Z" fill="black"/>
<g clip-path="url(#clip3_205_867)">
<path d="M82.0375 85.9582C82.0356 85.9504 82.0338 85.9426 82.0332 85.9332C82.036 85.9263 82.0382 85.9209 82.0391 85.9153C82.0568 85.8085 82.0708 85.7011 82.093 85.5951C82.115 85.4901 82.1508 85.3882 82.1926 85.2882C82.2304 85.1979 82.2748 85.1106 82.3267 85.027C82.3491 84.9909 82.373 84.9554 82.399 84.9217C82.4418 84.8661 82.4848 84.8103 82.5315 84.7578C82.6195 84.6589 82.7174 84.5695 82.8263 84.4924C82.9074 84.435 82.9896 84.379 83.074 84.3264C83.1504 84.2787 83.2297 84.2352 83.309 84.1922C83.4136 84.1356 83.5202 84.0822 83.6248 84.0257C83.7336 83.967 83.8423 83.9079 83.949 83.8457C84.0662 83.7775 84.1752 83.698 84.2711 83.6028C84.2905 83.5834 84.3082 83.5625 84.3268 83.5422C84.3204 83.5409 84.317 83.5425 84.3143 83.5448C84.2958 83.5611 84.2779 83.578 84.2592 83.594C84.1097 83.7219 83.9377 83.8161 83.7625 83.9052C83.6708 83.9519 83.5778 83.9961 83.4854 84.0414C83.3917 84.0874 83.2968 84.131 83.2049 84.18C83.0958 84.2381 82.9882 84.2991 82.8819 84.362C82.7494 84.4404 82.6263 84.5314 82.517 84.6383C82.4554 84.6986 82.3971 84.7625 82.3424 84.8287C82.3035 84.8756 82.2714 84.9281 82.2396 84.98C82.2134 85.0226 82.1914 85.0676 82.1687 85.112C82.1556 85.1378 82.1448 85.1647 82.1306 85.1962C82.1135 85.1432 82.0955 85.096 82.0835 85.0473C82.0711 84.997 82.0639 84.9454 82.0558 84.8941C82.0436 84.8165 82.0461 84.7386 82.0559 84.6604C82.0711 84.5395 82.1122 84.4264 82.1736 84.3201C82.2178 84.2437 82.2731 84.1745 82.3351 84.1107C82.4282 84.0149 82.5345 83.9345 82.6494 83.8648C82.7765 83.7877 82.9098 83.7226 83.05 83.6713C83.1224 83.6448 83.1947 83.6176 83.268 83.5935C83.3327 83.5723 83.3986 83.5545 83.4642 83.5358C83.5234 83.5189 83.5828 83.5032 83.642 83.4865C83.7135 83.4663 83.7851 83.4463 83.8562 83.4248C83.9128 83.4077 83.9694 83.39 84.025 83.3696C84.091 83.3453 84.1573 83.3209 84.2209 83.2913C84.382 83.2165 84.5288 83.1206 84.6563 82.9983C84.667 82.988 84.6756 82.9754 84.6851 82.9639C84.689 82.9631 84.6929 82.9622 84.6971 82.9612C84.7009 82.9778 84.7047 82.9944 84.7073 83.0129C84.705 83.0164 84.7032 83.018 84.7031 83.0196C84.6997 83.0872 84.6999 83.1551 84.6923 83.2224C84.6815 83.318 84.6581 83.4119 84.6246 83.5028C84.5918 83.5922 84.5583 83.6818 84.5175 83.768C84.4708 83.8665 84.417 83.9621 84.3637 84.0577C84.3386 84.1027 84.3089 84.1455 84.279 84.1879C84.2205 84.2709 84.1629 84.3548 84.1002 84.4349C84.0445 84.5061 83.9843 84.5744 83.9229 84.6412C83.8229 84.7501 83.7106 84.8464 83.5912 84.935C83.5054 84.9988 83.4153 85.056 83.3214 85.1081C83.1937 85.1789 83.0595 85.2346 82.919 85.2749C82.8267 85.3014 82.732 85.3201 82.6361 85.3283C82.5317 85.3372 82.4275 85.3369 82.3237 85.3237C82.3189 85.323 82.3117 85.3256 82.3086 85.3291C82.299 85.3401 82.2891 85.3514 82.2823 85.364C82.2524 85.4197 82.2195 85.4744 82.1955 85.5323C82.1626 85.6113 82.1362 85.6928 82.1081 85.7735C82.0982 85.8019 82.0913 85.8313 82.0836 85.8587C82.1268 85.8178 82.1677 85.775 82.2129 85.7371C82.3185 85.6485 82.4359 85.5772 82.5615 85.5178C82.6436 85.479 82.7278 85.4456 82.8151 85.4215C82.8788 85.404 82.9447 85.3921 83.0103 85.3843C83.0853 85.3753 83.1614 85.3679 83.2366 85.3699C83.411 85.3746 83.585 85.386 83.7592 85.3935C83.8266 85.3964 83.8941 85.3982 83.9616 85.3968C84.015 85.3956 84.0688 85.3913 84.1218 85.3838C84.165 85.3777 84.2072 85.3649 84.2499 85.355C84.2395 85.3572 84.229 85.3595 84.2186 85.3621C84.1594 85.3766 84.0989 85.3821 84.0386 85.3799C83.9277 85.3758 83.8168 85.3707 83.7064 85.3614C83.5173 85.3456 83.3291 85.3209 83.1385 85.3238C83.065 85.3249 82.9914 85.3315 82.9179 85.3364C82.8897 85.3383 82.8615 85.3425 82.8336 85.3456C82.8591 85.3377 82.8849 85.3299 82.9106 85.3219C82.9595 85.3067 83.0091 85.2934 83.057 85.2756C83.1197 85.2522 83.1825 85.228 83.2427 85.1991C83.3558 85.1449 83.4631 85.081 83.5651 85.0086C83.5739 85.0024 83.5875 84.9983 83.598 84.9995C83.6405 85.0044 83.6836 85.0083 83.7246 85.0188C83.8227 85.044 83.9202 85.0714 84.0171 85.1003C84.1203 85.1311 84.2211 85.1696 84.3286 85.1866C84.4063 85.199 84.4845 85.203 84.5623 85.1856C84.6066 85.1756 84.6498 85.1605 84.6938 85.1476C84.6934 85.149 84.6932 85.1523 84.6916 85.1548C84.6583 85.2043 84.6274 85.2555 84.5911 85.3028C84.5123 85.4053 84.4123 85.487 84.3031 85.5569C84.2241 85.6074 84.1408 85.6522 84.057 85.6951C84 85.7242 83.9392 85.7464 83.8795 85.7702C83.8446 85.7841 83.8083 85.7948 83.7729 85.8075C83.7694 85.8087 83.7672 85.8138 83.7644 85.8171C83.6503 85.8434 83.5362 85.8698 83.4201 85.8949C83.4151 85.8929 83.412 85.8911 83.4091 85.8914C83.3751 85.895 83.3411 85.8988 83.3071 85.9027C83.2109 85.9136 83.1147 85.9124 83.0189 85.904C82.8978 85.8935 82.7804 85.8674 82.6687 85.821C82.5927 85.7894 82.5212 85.7509 82.4576 85.6999C82.4365 85.683 82.417 85.6793 82.3928 85.694C82.3769 85.7036 82.3588 85.7098 82.3425 85.7189C82.2727 85.7576 82.2062 85.801 82.1473 85.8544C82.11 85.8882 82.074 85.9235 82.0375 85.9582ZM84.3265 83.5357C84.3294 83.5346 84.3323 83.5335 84.3352 83.5324C84.3348 83.5314 84.3344 83.5304 84.334 83.5294C84.3316 83.5305 84.3291 83.5316 84.3265 83.5357ZM84.337 83.523C84.3383 83.5228 84.3397 83.5227 84.341 83.5226C84.3399 83.522 84.3387 83.5213 84.337 83.523Z" fill="#5A953B"/>
</g>
<path d="M75.9688 86.814H74.1875V87.4077H75.9688V86.814Z" fill="black"/>
<path d="M74.7515 87.4077V90.0796H75.4442V87.4077H74.7515Z" fill="black"/>
<path d="M77.4038 86.814H76.6616V90.0796H77.4038V86.814Z" fill="black"/>
<path d="M78.1955 86.814H77.4038V87.4077H78.1955V86.814Z" fill="black"/>
<path d="M78.1955 88.1006H77.4038V88.6943H78.1955V88.1006Z" fill="black"/>
<path d="M78.1955 89.4858H77.4038V90.0796H78.1955V89.4858Z" fill="black"/>
<path d="M81.7085 86.814H82.4507V90.0795H81.7085V86.814Z" fill="black"/>
<path d="M79.6302 86.814H78.9375V90.0796H79.6302V86.814Z" fill="black"/>
<path d="M80.2241 86.814C80.5684 86.814 80.8476 87.0931 80.8476 87.4374V89.4561C80.8476 89.8005 80.5684 90.0795 80.2241 90.0795V86.814Z" fill="black"/>
<path d="M79.6304 86.814H80.1549C80.4117 86.814 80.62 87.0222 80.62 87.2791H79.6304V86.814Z" fill="black"/>
<path d="M79.6304 89.5845H80.7189C80.7189 89.8578 80.4974 90.0793 80.2241 90.0793H79.6304V89.5845Z" fill="black"/>
<path d="M86.1118 87.21H86.8045V90.0797H86.1118V87.21Z" fill="black"/>
<path d="M87.3491 87.21C87.3491 87.21 87.9924 87.21 88.0418 87.21C88.0913 87.21 88.0418 90.0797 88.0418 90.0797H87.3491V87.21Z" fill="black"/>
<path d="M86.8047 88.4468H87.3786V88.991H86.8047V88.4468Z" fill="black"/>
<path d="M86.225 87.0284C86.3093 86.8937 86.4531 86.8075 86.6118 86.797L86.7303 86.7891L87.0833 86.7891L87.4786 86.8028C87.6759 86.8097 87.8568 86.9141 87.9614 87.0815L88.0415 87.2096H87.5467H87.0833H86.1118L86.225 87.0284Z" fill="black"/>
<path d="M88.9321 87.3086C88.9321 87.3086 89.5768 87.3086 89.6248 87.3086C89.6728 87.3086 89.6248 90.0794 89.6248 90.0794H88.9321V87.3086Z" fill="black"/>
<path d="M90.1196 86.814H88.9321V87.3088H90.1196V86.814Z" fill="black"/>
<path d="M90.1196 88.2983H88.9321V88.7931H90.1196V88.2983Z" fill="black"/>
<path d="M90.1196 86.814C90.4749 86.814 90.7629 87.1019 90.7629 87.4572V88.1499C90.7629 88.5051 90.4749 88.7931 90.1196 88.7931V86.814Z" fill="black"/>
</g>
</g>
<defs>
<clipPath id="clip0_205_867">
<rect width="138" height="138" fill="white"/>
</clipPath>
<clipPath id="clip1_205_867">
<rect width="138" height="138" fill="white"/>
</clipPath>
<clipPath id="clip2_205_867">
<rect width="3.26562" height="2.57292" fill="white" transform="translate(37.5103 88.6929) rotate(-13)"/>
</clipPath>
<clipPath id="clip3_205_867">
<rect width="3.26562" height="2.57292" fill="white" transform="translate(81.5103 83.6929) rotate(-13)"/>
</clipPath>
</defs>
</svg>
