<svg width="729" height="682" viewBox="0 0 729 682" fill="none" xmlns="http://www.w3.org/2000/svg">
<path d="M229.32 217.88C229.32 217.88 65.1001 195.52 15.0001 329.25C-2.35989 375.61 -0.0798836 426.9 19.4801 472.37C37.0601 513.24 70.6801 563.8 134.24 594.76C158.022 606.221 183.483 613.807 209.66 617.23C261.66 624.23 418.06 647.01 459.45 673L396.88 565.16L418.88 508.34L389.88 501.34L399.16 467.71L325 507.19L338.9 417.9H289L279.72 327.46L216 359.92L229.32 217.88Z" fill="#F582AE"/>
<path d="M468.19 682L457.9 675.54C416.74 649.7 257.21 626.65 209.3 620.2C182.815 616.744 157.055 609.066 133 597.46C67.2198 565.46 33.4998 512.39 16.7998 473.55C-3.53019 426.3 -5.14017 374.67 12.2598 328.2C23.8798 297.15 42.5898 271.86 67.8798 253.03C88.0598 238.03 112.42 227.03 140.3 220.5C187.6 209.37 229.3 214.85 229.76 214.91L232.61 215.29L219.51 354.78L282.33 322.78L291.78 414.88H342.4L328.87 501.7L403.94 461.82L393.64 499.17L422.95 506.17L400.19 564.9L468.19 682ZM202.81 219.5C182.164 219.447 161.581 221.755 141.46 226.38C79.7998 240.93 38.2098 275.89 17.8498 330.3C0.989824 375.3 2.56982 425.35 22.2798 471.18C38.5798 509.09 71.4798 560.83 135.59 592.06C159.081 603.391 184.237 610.883 210.1 614.25C267.82 622.02 400.87 641.84 451.61 665.41L393.56 565.41L414.87 510.41L386.2 503.53L394.45 473.63L321.1 512.63L335.4 420.88H286.33L277.22 332.09L212.49 365.09L226.06 220.56C222 220.14 213.76 219.5 202.81 219.5Z" fill="#3F3D56"/>
<path d="M365.57 238.17C365.57 238.17 412.79 74.8504 576.12 105.28C615.12 112.54 650.72 132.44 676.52 162.52C705.72 196.52 733.52 252.02 723.32 335.74C717.581 381.94 698.199 425.38 667.65 460.51C654.89 475.25 638.38 492.8 617.19 512.98C617.19 512.98 507.03 612.7 471.09 672.98L431.66 553.57L500.08 470.08L432.82 415.58L453.69 300.79L365.57 238.17Z" fill="#F582AE"/>
<path d="M470.3 680.18L428.3 552.94L495.84 470.51L429.55 416.79L450.4 302.13L362.09 239.38L362.69 237.38C363.18 235.68 375.05 195.48 407.33 158.38C426.33 136.53 448.52 120.38 473.2 110.46C504 98 538.85 95.28 576.67 102.33C616.72 109.79 652.98 130.47 678.79 160.56C706.29 192.62 736.85 249.1 726.3 336.1C720.546 382.908 700.91 426.921 669.92 462.47C655.42 479.22 638.38 496.95 619.26 515.16C618.1 516.16 508.97 615.32 473.66 674.54L470.3 680.18ZM435 554.19L471.92 666C510.76 605.62 614.1 511.77 615.18 510.8C634.1 492.8 651.01 475.19 665.38 458.59C695.601 423.946 714.757 381.048 720.38 335.42C730.67 250.59 700.99 195.66 674.28 164.51C649.36 135.45 614.28 115.51 575.61 108.27C509 95.83 454 114 412 162.13C384.53 193.62 371.93 228.37 369.09 236.99L457 299.45L436.1 414.37L504.32 469.65L435 554.19Z" fill="#3F3D56"/>
<path d="M357.45 393.55L344.7 475.88L409.63 434.13L357.45 393.55Z" fill="#F582AE"/>
<path d="M340.71 482L355.27 388L414.82 434.32L340.71 482ZM359.64 399L348.64 469.7L404.41 433.85L359.64 399Z" fill="#3F3D56"/>
<path d="M267.01 259.04L246.13 321.66L315.71 278.75L267.01 259.04Z" fill="#F582AE"/>
<path d="M240.68 328.55L265.17 255.06L322.33 278.2L240.68 328.55ZM268.84 263L251.59 314.75L309.09 279.29L268.84 263Z" fill="#3F3D56"/>
<path d="M358.609 306.58L374.849 377.32H418.909V297.31L358.609 306.58Z" fill="#F582AE"/>
<path d="M421.91 380.32H372.46L355 304.11L421.94 293.81L421.91 380.32ZM377.23 374.32H415.91V300.8L362.26 309.06L377.23 374.32Z" fill="#3F3D56"/>
<path d="M409.63 483.99L430.5 490.95L459.49 463.12L433.98 444.57L409.63 483.99Z" fill="#F582AE"/>
<path d="M431.27 494.37L405.09 485.64L433.09 440.24L464.09 462.8L431.27 494.37ZM414.17 482.37L429.73 487.55L454.83 463.46L434.83 448.92L414.17 482.37Z" fill="#3F3D56"/>
<path d="M95.9893 94.417L100.9 90.9695L150.038 160.963L145.127 164.411L95.9893 94.417Z" fill="#3F3D56"/>
<path d="M191.455 1.30859L197.334 0.110334L226.532 143.365L220.653 144.563L191.455 1.30859Z" fill="#3F3D56"/>
<path d="M286.801 61.8398L292.801 61.798L293.427 151.556L287.427 151.598L286.801 61.8398Z" fill="#3F3D56"/>
</svg>
