<svg width="22" height="22" viewBox="0 0 22 22" fill="none" xmlns="http://www.w3.org/2000/svg">
<path d="M22.0001 10.8374C22.0001 9.96568 21.9271 9.32958 21.7692 8.66992H11.5009V12.6043H17.5281C17.4067 13.5821 16.7505 15.0545 15.2922 16.044L15.2718 16.1757L18.5184 18.6138L18.7434 18.6356C20.8091 16.7861 22.0001 14.065 22.0001 10.8374Z" fill="#4285F4"/>
<path d="M11.5008 21.2034C14.4537 21.2034 16.9326 20.261 18.7433 18.6355L15.2922 16.0439C14.3687 16.6682 13.1291 17.104 11.5008 17.104C8.60871 17.104 6.15405 15.2547 5.27904 12.6985L5.15078 12.709L1.77486 15.2417L1.73071 15.3607C3.52917 18.8239 7.22334 21.2034 11.5008 21.2034Z" fill="#34A853"/>
<path d="M5.27896 12.6984C5.04808 12.0388 4.91446 11.3319 4.91446 10.6016C4.91446 9.87125 5.04808 9.16449 5.26681 8.50484L5.2607 8.36435L1.84247 5.79102L1.73064 5.84258C0.989406 7.27973 0.564087 8.89358 0.564087 10.6016C0.564087 12.3097 0.989406 13.9235 1.73064 15.3606L5.27896 12.6984Z" fill="#FBBC05"/>
<path d="M11.5008 4.09932C13.5545 4.09932 14.9398 4.95924 15.7297 5.67785L18.8162 2.75646C16.9206 1.0484 14.4537 0 11.5008 0C7.22335 0 3.52917 2.37949 1.73071 5.8427L5.26689 8.50496C6.15406 5.94876 8.60871 4.09932 11.5008 4.09932Z" fill="#EB4335"/>
</svg>
