<svg width="18" height="18" viewBox="0 0 18 18" fill="none" xmlns="http://www.w3.org/2000/svg">
<g clip-path="url(#clip0_186_821)">
<path d="M0 9C0 6.61305 0.948212 4.32387 2.63604 2.63604C4.32387 0.948212 6.61305 0 9 0C11.3869 0 13.6761 0.948212 15.364 2.63604C17.0518 4.32387 18 6.61305 18 9C18 11.3869 17.0518 13.6761 15.364 15.364C13.6761 17.0518 11.3869 18 9 18C6.61305 18 4.32387 17.0518 2.63604 15.364C0.948212 13.6761 0 11.3869 0 9ZM8.4375 1.21162C7.68375 1.44113 6.93563 2.13412 6.31462 3.2985C6.11013 3.68566 5.93417 4.08723 5.78813 4.5H8.4375V1.21162ZM4.60125 4.5C4.78895 3.90249 5.02991 3.32304 5.32125 2.76863C5.51705 2.40156 5.74163 2.05059 5.99288 1.719C4.59917 2.29733 3.39999 3.26229 2.53688 4.5H4.60125ZM3.9465 8.4375C3.98025 7.45087 4.10175 6.50475 4.2975 5.625H1.88325C1.4648 6.50856 1.21454 7.46232 1.14525 8.4375H3.9465ZM5.45288 5.625C5.2316 6.54728 5.10421 7.48958 5.07262 8.4375H8.4375V5.625H5.45288ZM9.5625 5.625V8.4375H12.9262C12.895 7.48961 12.768 6.54732 12.5471 5.625H9.5625ZM5.07375 9.5625C5.10496 10.5104 5.23198 11.4527 5.45288 12.375H8.4375V9.5625H5.07375ZM9.5625 9.5625V12.375H12.5471C12.7575 11.5144 12.8914 10.566 12.9274 9.5625H9.5625ZM5.78813 13.5C5.94413 13.935 6.11963 14.3355 6.31462 14.7015C6.93563 15.8659 7.68488 16.5578 8.4375 16.7884V13.5H5.78813ZM5.99288 16.281C5.74163 15.9494 5.51705 15.5984 5.32125 15.2314C5.02991 14.677 4.78895 14.0975 4.60125 13.5H2.53688C3.39859 14.739 4.59819 15.7043 5.99288 16.281ZM4.2975 12.375C4.09436 11.4503 3.97687 10.5088 3.9465 9.5625H1.14525C1.215 10.5638 1.47263 11.5121 1.88325 12.375H4.2975ZM12.0071 16.281C13.4018 15.7043 14.6014 14.739 15.4631 13.5H13.3988C13.2111 14.0975 12.9701 14.677 12.6788 15.2314C12.483 15.5984 12.2584 15.9494 12.0071 16.281ZM9.5625 13.5V16.7884C10.3162 16.5589 11.0644 15.8659 11.6854 14.7015C11.8804 14.3362 12.0559 13.9358 12.2119 13.5H9.5625ZM13.7025 12.375H16.1168C16.5274 11.5121 16.785 10.5638 16.8547 9.5625H14.0535C14.0231 10.5088 13.9056 11.4503 13.7025 12.375ZM16.8547 8.4375C16.7855 7.46232 16.5352 6.50856 16.1168 5.625H13.7025C13.8983 6.50475 14.0197 7.45087 14.0535 8.4375H16.8547ZM12.6788 2.76863C12.9566 3.29062 13.1985 3.87112 13.3988 4.5H15.4631C14.6014 3.26099 13.4018 2.29569 12.0071 1.719C12.2524 2.0385 12.4774 2.39175 12.6788 2.76863ZM12.2119 4.5C12.0658 4.08723 11.8899 3.68566 11.6854 3.2985C11.0644 2.13412 10.3162 1.44225 9.5625 1.21162V4.5H12.2119Z" fill="black"/>
</g>
<defs>
<clipPath id="clip0_186_821">
<rect width="18" height="18" fill="white"/>
</clipPath>
</defs>
</svg>
