<svg width="22" height="22" viewBox="0 0 22 22" fill="none" xmlns="http://www.w3.org/2000/svg">
<path d="M11 19.5938L11.4744 20.5095C11.3278 20.5854 11.1651 20.6251 11 20.6251C10.8349 20.6251 10.6722 20.5854 10.5256 20.5095L10.5146 20.504L10.4899 20.4902C10.3459 20.4159 10.2038 20.3379 10.0636 20.2565C8.38776 19.3027 6.80668 18.1913 5.34188 16.9373C2.81187 14.7551 0 11.4812 0 7.5625C0 3.8995 2.86825 1.375 5.84375 1.375C7.97088 1.375 9.83537 2.47775 11 4.1525C12.1646 2.47775 14.0291 1.375 16.1562 1.375C19.1318 1.375 22 3.8995 22 7.5625C22 11.4812 19.1881 14.7551 16.6581 16.9373C15.0691 18.2958 13.344 19.4864 11.5101 20.4902L11.4854 20.504L11.4771 20.5081H11.4744L11 19.5938ZM5.84375 3.4375C4.00675 3.4375 2.0625 5.038 2.0625 7.5625C2.0625 10.5188 4.235 13.2605 6.68937 15.3752C8.02846 16.5206 9.4716 17.5384 11 18.4154C12.5284 17.5384 13.9715 16.5206 15.3106 15.3752C17.765 13.2605 19.9375 10.5188 19.9375 7.5625C19.9375 5.038 17.9932 3.4375 16.1562 3.4375C14.2684 3.4375 12.5689 4.79325 11.9914 6.8145C11.9306 7.03062 11.8008 7.22094 11.6218 7.3565C11.4429 7.49205 11.2245 7.56542 11 7.56542C10.7755 7.56542 10.5571 7.49205 10.3782 7.3565C10.1992 7.22094 10.0694 7.03062 10.0086 6.8145C9.43112 4.79325 7.73163 3.4375 5.84375 3.4375Z" fill="black"/>
</svg>
