<svg width="25" height="24" viewBox="0 0 25 24" fill="none" xmlns="http://www.w3.org/2000/svg">
<path d="M4.95023 13.9079L11.9032 20.4389C12.1432 20.6639 12.2632 20.7769 12.4032 20.8049C12.467 20.8174 12.5325 20.8174 12.5962 20.8049C12.7382 20.7769 12.8572 20.6649 13.0962 20.4389L20.0492 13.9089C20.9936 13.0221 21.5733 11.815 21.6748 10.5236C21.7763 9.23213 21.3925 7.94926 20.5982 6.92585L20.2882 6.52685C18.3202 3.99085 14.3702 4.41585 12.9872 7.31385C12.9432 7.40569 12.8742 7.48322 12.788 7.53749C12.7018 7.59175 12.6021 7.62055 12.5002 7.62055C12.3984 7.62055 12.2986 7.59175 12.2125 7.53749C12.1263 7.48322 12.0572 7.40569 12.0132 7.31385C10.6302 4.41585 6.68023 3.98985 4.71223 6.52685L4.40223 6.92685C3.60859 7.95011 3.22505 9.23256 3.32657 10.5235C3.4281 11.8145 4.00739 13.0212 4.95123 13.9079H4.95023Z" stroke="#F02A07" stroke-width="2"/>
</svg>
