<svg width="784" height="725" viewBox="0 0 784 725" fill="none" xmlns="http://www.w3.org/2000/svg">
<g filter="url(#filter0_d_2522_1180)">
<path d="M61.35 378.57L50.72 376.25L48.3 365.64C48.2591 365.459 48.1577 365.296 48.0123 365.18C47.8669 365.064 47.6862 365 47.5 365C47.313 365.001 47.1318 365.065 46.9851 365.181C46.8384 365.297 46.7345 365.459 46.69 365.64L44.27 376.3L33.64 378.82C33.4567 378.865 33.2939 378.97 33.1778 379.119C33.0617 379.268 32.9991 379.451 33 379.64C33.0009 379.827 33.0661 380.007 33.1845 380.151C33.3029 380.295 33.4673 380.393 33.65 380.43L44.28 382.75L46.69 393.36C46.7345 393.542 46.8384 393.703 46.9851 393.819C47.1318 393.935 47.313 393.999 47.5 394C47.6862 394 47.8669 393.937 48.0123 393.82C48.1577 393.704 48.2591 393.542 48.3 393.36L50.73 382.7L61.36 380.18C61.5469 380.144 61.7154 380.044 61.8365 379.897C61.9576 379.75 62.0239 379.566 62.0239 379.375C62.0239 379.185 61.9576 379 61.8365 378.853C61.7154 378.707 61.5469 378.606 61.36 378.57H61.35ZM329.82 10.0702L322.09 8.39021L320.33 0.670197C320.301 0.537854 320.227 0.419362 320.122 0.334015C320.017 0.248668 319.886 0.201495 319.75 0.200195C319.614 0.202749 319.482 0.250178 319.375 0.335144C319.269 0.420111 319.193 0.537876 319.16 0.670197L317.4 8.42021L309.67 10.2602C309.536 10.2899 309.416 10.3647 309.331 10.4721C309.245 10.5795 309.199 10.7129 309.2 10.8502C309.204 10.9866 309.253 11.1179 309.34 11.2231C309.427 11.3282 309.547 11.4012 309.68 11.4302L317.41 13.1102L319.16 20.8302C319.193 20.9625 319.269 21.0803 319.375 21.1652C319.482 21.2502 319.614 21.2976 319.75 21.3002C319.886 21.2989 320.017 21.2517 320.122 21.1664C320.227 21.0811 320.301 20.9625 320.33 20.8302L322.1 13.0802L329.83 11.2402C329.964 11.212 330.084 11.1373 330.168 11.0293C330.252 10.9213 330.295 10.787 330.29 10.6502C330.291 10.5142 330.244 10.3821 330.158 10.2764C330.073 10.1707 329.953 10.0979 329.82 10.0702ZM537.65 229.57L548.28 227.25L550.69 216.64C550.735 216.459 550.838 216.297 550.985 216.181C551.132 216.065 551.313 216.002 551.5 216C551.686 216 551.867 216.064 552.012 216.18C552.158 216.296 552.259 216.459 552.3 216.64L554.73 227.3L565.36 229.82C565.547 229.856 565.715 229.957 565.836 230.103C565.958 230.25 566.024 230.435 566.024 230.625C566.024 230.816 565.958 231 565.836 231.147C565.715 231.294 565.547 231.394 565.36 231.43L554.73 233.75L552.31 244.36C552.269 244.542 552.168 244.704 552.022 244.821C551.877 244.937 551.696 245 551.51 245C551.323 244.999 551.142 244.935 550.995 244.819C550.848 244.703 550.745 244.542 550.7 244.36L548.28 233.7L537.65 231.18C537.467 231.135 537.304 231.03 537.188 230.881C537.072 230.732 537.009 230.549 537.01 230.36C537.01 230.175 537.074 229.996 537.191 229.852C537.307 229.709 537.469 229.609 537.65 229.57ZM582.34 140L587.84 138.8L589.08 133.31C589.101 133.214 589.154 133.129 589.231 133.067C589.307 133.006 589.402 132.972 589.5 132.972C589.598 132.972 589.693 133.006 589.769 133.067C589.846 133.129 589.899 133.214 589.92 133.31L591.17 138.83L596.67 140.13C596.763 140.154 596.846 140.209 596.906 140.284C596.966 140.36 596.999 140.454 597 140.55C596.999 140.647 596.965 140.741 596.903 140.816C596.841 140.891 596.755 140.942 596.66 140.96L591.16 142.16L589.92 147.65C589.899 147.746 589.846 147.832 589.769 147.893C589.693 147.955 589.598 147.988 589.5 147.988C589.402 147.988 589.307 147.955 589.231 147.893C589.154 147.832 589.101 147.746 589.08 147.65L587.83 142.13L582.33 140.83C582.236 140.808 582.152 140.754 582.092 140.678C582.032 140.601 582 140.507 582 140.41C582.001 140.313 582.035 140.219 582.097 140.144C582.159 140.07 582.245 140.019 582.34 140Z" fill="#3F3D56"/>
<path d="M230.33 679.79V352C230.33 343.102 233.865 334.569 240.157 328.277C246.448 321.985 254.982 318.45 263.88 318.45H365.88C372.32 318.451 378.624 320.306 384.04 323.792C389.455 327.278 393.753 332.248 396.42 338.11L407.34 362C410.006 367.864 414.303 372.837 419.719 376.325C425.134 379.812 431.439 381.668 437.88 381.67H598.4C602.812 381.664 607.182 382.527 611.259 384.212C615.337 385.896 619.042 388.368 622.163 391.486C625.284 394.604 627.759 398.307 629.447 402.383C631.135 406.459 632.003 410.828 632 415.24V679.79C631.997 688.686 628.462 697.217 622.17 703.507C615.878 709.797 607.346 713.33 598.45 713.33H263.88C254.984 713.33 246.452 709.797 240.16 703.507C233.869 697.217 230.333 688.686 230.33 679.79Z" fill="#49B38D"/>
<path d="M598.4 716.33H263.88C254.191 716.32 244.902 712.467 238.051 705.617C231.199 698.767 227.343 689.479 227.33 679.79V352C227.341 342.31 231.195 333.019 238.047 326.167C244.899 319.315 254.19 315.461 263.88 315.45H365.88C372.894 315.462 379.758 317.486 385.655 321.283C391.553 325.08 396.237 330.49 399.15 336.87L410.03 360.8C412.461 366.135 416.374 370.659 421.302 373.834C426.231 377.009 431.967 378.702 437.83 378.71H598.4C608.096 378.708 617.396 382.553 624.258 389.402C631.121 396.252 634.984 405.545 635 415.24V679.79C634.987 689.487 631.125 698.783 624.262 705.634C617.399 712.486 608.097 716.333 598.4 716.33ZM263.88 321.43C255.778 321.441 248.01 324.666 242.283 330.397C236.555 336.128 233.335 343.898 233.33 352V679.79C233.341 687.888 236.563 695.652 242.29 701.377C248.018 707.102 255.782 710.322 263.88 710.33H598.4C606.507 710.336 614.284 707.122 620.022 701.395C625.76 695.668 628.989 687.897 629 679.79V415.24C628.99 407.141 625.767 399.377 620.04 393.65C614.314 387.923 606.549 384.701 598.45 384.69H437.88C430.865 384.679 424 382.654 418.102 378.855C412.204 375.056 407.521 369.643 404.61 363.26L393.74 339.33C391.305 333.997 387.389 329.476 382.46 326.303C377.53 323.13 371.793 321.438 365.93 321.43H263.88Z" fill="#3F3D56"/>
<path d="M581.15 713.33C581.15 713.33 541.85 711.42 532.26 661.57L497.86 466.91C496.49 459.151 492.432 452.121 486.398 447.055C480.364 441.988 472.739 439.207 464.86 439.2H160.58C155.644 439.196 150.768 440.28 146.3 442.376C141.832 444.472 137.881 447.528 134.729 451.326C131.577 455.125 129.303 459.571 128.067 464.35C126.831 469.128 126.665 474.12 127.58 478.97L166.7 686C168.152 693.687 172.245 700.625 178.271 705.613C184.297 710.602 191.877 713.328 199.7 713.32L581.15 713.33Z" fill="#FFC700"/>
<path d="M581.15 716.33H199.67C191.156 716.326 182.91 713.35 176.355 707.918C169.799 702.485 165.345 694.935 163.76 686.57L124.67 479.57C123.671 474.29 123.849 468.853 125.192 463.65C126.535 458.446 129.01 453.602 132.439 449.464C135.869 445.326 140.169 441.995 145.033 439.71C149.897 437.424 155.205 436.239 160.58 436.24H464.82C473.415 436.227 481.739 439.248 488.325 444.771C494.911 450.294 499.336 457.964 500.82 466.43L535.23 661.09C544.23 708.03 580.93 710.36 581.3 710.38L581.15 716.33ZM160.58 442.2C156.089 442.203 151.654 443.196 147.591 445.108C143.527 447.02 139.936 449.805 137.071 453.263C134.207 456.721 132.14 460.769 131.018 465.117C129.896 469.465 129.746 474.008 130.58 478.42L169.67 685.42C170.994 692.41 174.714 698.72 180.191 703.261C185.667 707.803 192.555 710.292 199.67 710.3H561.59C560.66 709.8 559.7 709.3 558.74 708.68C548.16 702.24 534.47 688.94 529.32 662.11L494.91 467.43C493.665 460.356 489.965 453.948 484.461 449.334C478.957 444.719 472.002 442.193 464.82 442.2H160.58Z" fill="#3F3D56"/>
<path d="M357.81 134.391L260.05 173.691L335.77 203.411C335.77 203.411 403.82 184.241 357.81 134.391Z" fill="#3F3D56"/>
<path d="M7 102.761C7 102.761 7 416.201 346.31 196.701C346.31 196.701 264.84 212.031 229.37 28.001L7 102.761Z" fill="white"/>
<path d="M144.9 277.751C121.24 277.751 100.22 272.751 81.84 262.751C49.92 245.391 26.34 212.161 13.64 166.671C7.80124 145.847 4.56328 124.38 4 102.761V100.611L231.67 24.0605L232.32 27.4305C250.46 121.581 280.76 161.811 303 179.001C326.46 197.131 345.59 193.801 345.78 193.761L360.78 190.941L347.96 199.231C267.11 251.501 199.14 277.751 144.9 277.751ZM10 104.911C10.8218 125.315 13.9859 145.558 19.43 165.241C27.98 195.791 46.24 236.611 84.69 257.511C141.67 288.471 226.18 269.001 336 199.701C327.25 198.701 314 195.121 299.27 183.701C284.54 172.281 271.27 155.361 259.9 133.351C246.18 106.791 235.14 72.6705 227.05 31.9005L10 104.911Z" fill="#3F3D56"/>
<path d="M114.26 250.37L112.53 244.63C113.23 244.42 183.06 223.26 246.36 194.92L248.81 200.39C185.15 228.9 115 250.16 114.26 250.37ZM94.14 224.49L92.39 218.75C92.98 218.57 152.52 200.23 224.39 169.97L226.71 175.5C154.55 205.88 94.74 224.3 94.14 224.49ZM72.09 195.73L70.34 190C70.91 189.83 127.67 172.44 202.4 143.11L204.59 148.7C129.63 178.11 72.66 195.56 72.09 195.73ZM56.73 164.11L55 158.36C55.58 158.18 113.59 141.02 140.88 128.78L143.34 134.26C115.72 146.66 57.32 163.94 56.73 164.11Z" fill="#3F3D56"/>
<path d="M629.91 474.105L653.429 459.283L700.444 533.884L676.925 548.706L629.91 474.105Z" fill="#3F3D56"/>
<path d="M595.14 497.45C652.843 497.45 699.62 450.673 699.62 392.97C699.62 335.268 652.843 288.49 595.14 288.49C537.437 288.49 490.66 335.268 490.66 392.97C490.66 450.673 537.437 497.45 595.14 497.45Z" fill="#FFC700"/>
<path d="M595.35 500.48C587.275 500.478 579.225 499.573 571.35 497.78C544.73 491.681 521.452 475.627 506.293 452.911C491.133 430.195 485.24 402.539 489.823 375.616C494.407 348.694 509.118 324.545 530.941 308.125C552.763 291.705 580.041 284.257 607.18 287.31C634.319 290.363 659.261 303.686 676.889 324.544C694.517 345.403 703.496 372.216 701.983 399.484C700.47 426.752 688.579 452.408 668.751 471.188C648.923 489.968 622.66 500.448 595.35 500.48ZM594.98 291.48C572.486 291.521 550.644 299.037 532.887 312.845C515.131 326.654 502.467 345.972 496.886 367.763C491.306 389.554 493.127 412.581 502.061 433.225C510.995 453.868 526.537 470.957 546.243 481.804C565.949 492.652 588.701 496.642 610.922 493.149C633.143 489.655 653.572 478.876 668.999 462.505C684.425 446.134 693.974 425.101 696.143 402.711C698.311 380.322 692.978 357.847 680.98 338.82C671.866 324.263 659.183 312.277 644.136 303.999C629.088 295.721 612.175 291.426 595 291.52L594.98 291.48Z" fill="#3F3D56"/>
<path d="M595.14 472.65C639.146 472.65 674.82 436.976 674.82 392.97C674.82 348.964 639.146 313.29 595.14 313.29C551.134 313.29 515.46 348.964 515.46 392.97C515.46 436.976 551.134 472.65 595.14 472.65Z" fill="white"/>
<path d="M595.28 475.62C580.901 475.641 566.765 471.911 554.268 464.798C541.771 457.684 531.346 447.434 524.022 435.06C516.699 422.685 512.73 408.614 512.508 394.236C512.286 379.859 515.818 365.672 522.756 353.077C529.694 340.482 539.798 329.915 552.069 322.419C564.34 314.923 578.354 310.758 592.727 310.336C607.101 309.913 621.335 313.247 634.026 320.008C646.717 326.77 657.424 336.724 665.09 348.89C672.972 361.385 677.36 375.765 677.798 390.532C678.236 405.299 674.707 419.913 667.579 432.853C660.45 445.793 649.984 456.586 637.268 464.107C624.553 471.629 610.054 475.604 595.28 475.62ZM595 316.26C577.991 316.28 561.471 321.952 548.038 332.385C534.605 342.818 525.02 357.42 520.79 373.894C516.561 390.369 517.926 407.782 524.673 423.396C531.419 439.01 543.163 451.938 558.059 460.149C572.955 468.36 590.157 471.388 606.961 468.756C623.765 466.124 639.218 457.981 650.889 445.609C662.561 433.237 669.79 417.336 671.439 400.408C673.088 383.479 669.064 366.482 660 352.09C654.653 343.551 647.666 336.158 639.442 330.339C631.218 324.52 621.921 320.391 612.09 318.19C606.483 316.912 600.751 316.265 595 316.26Z" fill="#3F3D56"/>
<path d="M713.842 539.321C706.59 527.624 691.228 524.021 679.531 531.274C667.834 538.526 664.231 553.888 671.483 565.585L727.551 656.013C734.804 667.71 750.166 671.313 761.863 664.061C773.56 656.808 777.163 641.447 769.91 629.75L713.842 539.321Z" fill="#FFC700"/>
<path d="M748.12 664.32C743.398 664.33 738.75 663.143 734.61 660.87C730.471 658.596 726.975 655.311 724.45 651.32L667.73 561.32C663.777 555.052 662.476 547.47 664.113 540.242C665.751 533.014 670.192 526.733 676.46 522.78C682.729 518.827 690.311 517.526 697.538 519.163C704.766 520.8 711.047 525.242 715 531.51L771.73 621.51C774.392 625.73 775.874 630.587 776.022 635.574C776.169 640.562 774.977 645.498 772.57 649.868C770.162 654.238 766.626 657.883 762.332 660.423C758.037 662.963 753.14 664.305 748.15 664.31L748.12 664.32ZM691.31 524.47C687.393 524.478 683.549 525.535 680.178 527.532C676.808 529.528 674.033 532.391 672.144 535.823C670.254 539.255 669.319 543.13 669.434 547.046C669.55 550.962 670.712 554.776 672.8 558.09L729.53 648.09C731.065 650.525 733.065 652.635 735.415 654.297C737.766 655.96 740.42 657.143 743.228 657.779C746.036 658.416 748.941 658.493 751.779 658.007C754.616 657.521 757.33 656.48 759.765 654.945C762.201 653.41 764.31 651.41 765.972 649.06C767.635 646.71 768.818 644.055 769.455 641.247C770.091 638.44 770.168 635.534 769.682 632.697C769.196 629.859 768.155 627.145 766.62 624.71L709.89 534.71C708.364 532.267 706.368 530.151 704.018 528.484C701.668 526.817 699.011 525.633 696.2 525C694.595 524.642 692.955 524.464 691.31 524.47Z" fill="#3F3D56"/>
</g>
<defs>
<filter id="filter0_d_2522_1180" x="0" y="0.200195" width="780.034" height="724.13" filterUnits="userSpaceOnUse" color-interpolation-filters="sRGB">
<feFlood flood-opacity="0" result="BackgroundImageFix"/>
<feColorMatrix in="SourceAlpha" type="matrix" values="0 0 0 0 0 0 0 0 0 0 0 0 0 0 0 0 0 0 127 0" result="hardAlpha"/>
<feOffset dy="4"/>
<feGaussianBlur stdDeviation="2"/>
<feComposite in2="hardAlpha" operator="out"/>
<feColorMatrix type="matrix" values="0 0 0 0 0 0 0 0 0 0 0 0 0 0 0 0 0 0 0.25 0"/>
<feBlend mode="normal" in2="BackgroundImageFix" result="effect1_dropShadow_2522_1180"/>
<feBlend mode="normal" in="SourceGraphic" in2="effect1_dropShadow_2522_1180" result="shape"/>
</filter>
</defs>
</svg>
