<svg width="46" height="41" viewBox="0 0 46 41" fill="none" xmlns="http://www.w3.org/2000/svg">
<path fill-rule="evenodd" clip-rule="evenodd" d="M45.619 20.331C45.619 31.246 37.019 39.602 27.242 39.602C26.0793 39.6023 24.9186 39.5086 23.771 39.322C22.2017 39.801 20.5759 40.07 18.936 40.122C8.585 40.121 0 33.765 0 23.129C0.0865296 19.7509 1.1199 16.4651 2.98244 13.6455C4.84497 10.826 7.46183 8.58613 10.535 7.181C14.39 2.1 20.916 0 25.5 0C37.129 0 45.619 9.068 45.619 20.331ZM26.97 2C23.234 2.03853 19.6176 3.32269 16.694 5.649C16.907 5.643 17.272 5.632 17.483 5.632C20.0762 5.58201 22.6312 6.26149 24.857 7.593C24.857 7.593 36.013 11.913 36.013 23.968C35.9941 26.6371 35.2964 29.2575 33.9856 31.5827C32.6748 33.9078 30.7939 35.8612 28.52 37.259C35.911 35.777 42.286 28.407 42.286 18.894C42.286 10.727 35.7 2 26.97 2ZM18.5 8.151C13.832 8.151 10.229 12.403 10.229 17.516C10.229 23.723 14.21 28.089 18.676 28.089C23.654 28.089 27.225 23.968 27.225 17.812C27.229 13.252 23.418 8.151 18.5 8.151ZM17.841 38.205C18.3965 38.2059 18.9513 38.1698 19.502 38.097C11.949 34.979 7.122 27.279 7.122 17.988C7.122 17.299 7.166 16.643 7.23 15.988C7.34606 14.4376 7.71775 12.9171 8.33 11.488C5.175 14.321 3.93 18.51 3.93 22.711C3.939 31.308 11.075 38.205 17.845 38.205H17.841ZM22.906 37.231C28.641 35.002 33.039 29.231 33.039 23.038C33.1375 19.1317 31.7313 15.3368 29.111 12.438C29.8941 14.2065 30.2831 16.1242 30.251 18.058C30.2738 20.346 29.6112 22.5884 28.3484 24.4965C27.0856 26.4046 25.2805 27.8909 23.1656 28.7641C21.0507 29.6373 18.7227 29.8573 16.4817 29.3959C14.2406 28.9344 12.1889 27.8127 10.591 26.175C12.6 31.537 17.245 36.062 22.91 37.231H22.906Z" fill="#009BD2"/>
</svg>
