<svg width="34" height="34" viewBox="0 0 34 34" fill="none" xmlns="http://www.w3.org/2000/svg">
<rect width="34" height="34" rx="17" fill="#FEEDC8"/>
<g clip-path="url(#clip0_1783_783)">
<path d="M23 8.17999V9.17998C22.9713 9.95011 22.6403 10.6779 22.0788 11.2057C21.5173 11.7336 20.7704 12.0189 20 12H14C13.2279 12.0189 12.4796 11.7322 11.9178 11.2022C11.356 10.6722 11.0261 9.94187 11 9.16999V8.16999C10.4148 8.37687 9.90826 8.76015 9.55006 9.267C9.19186 9.77386 8.99968 10.3793 9 11V25C9 25.7956 9.31607 26.5587 9.87868 27.1213C10.4413 27.6839 11.2044 28 12 28H22C22.7957 28 23.5587 27.6839 24.1213 27.1213C24.6839 26.5587 25 25.7956 25 25V11C24.9983 10.381 24.8051 9.77778 24.4471 9.27292C24.089 8.76806 23.5836 8.3863 23 8.17999ZM20 25H14C13.7348 25 13.4804 24.8946 13.2929 24.7071C13.1054 24.5196 13 24.2652 13 24C13 23.7348 13.1054 23.4804 13.2929 23.2929C13.4804 23.1053 13.7348 23 14 23H20C20.2652 23 20.5196 23.1053 20.7071 23.2929C20.8946 23.4804 21 23.7348 21 24C21 24.2652 20.8946 24.5196 20.7071 24.7071C20.5196 24.8946 20.2652 25 20 25ZM20 21H14C13.7348 21 13.4804 20.8946 13.2929 20.7071C13.1054 20.5196 13 20.2652 13 20C13 19.7348 13.1054 19.4804 13.2929 19.2929C13.4804 19.1053 13.7348 19 14 19H20C20.2652 19 20.5196 19.1053 20.7071 19.2929C20.8946 19.4804 21 19.7348 21 20C21 20.2652 20.8946 20.5196 20.7071 20.7071C20.5196 20.8946 20.2652 21 20 21ZM20 17H14C13.7348 17 13.4804 16.8946 13.2929 16.7071C13.1054 16.5196 13 16.2652 13 16C13 15.7348 13.1054 15.4804 13.2929 15.2929C13.4804 15.1053 13.7348 15 14 15H20C20.2652 15 20.5196 15.1053 20.7071 15.2929C20.8946 15.4804 21 15.7348 21 16C21 16.2652 20.8946 16.5196 20.7071 16.7071C20.5196 16.8946 20.2652 17 20 17ZM21 6.82999V9.16999C20.9747 9.4115 20.8559 9.63354 20.669 9.78864C20.4822 9.94373 20.2421 10.0196 20 9.99999H14C13.758 10.0196 13.5178 9.94373 13.331 9.78864C13.1441 9.63354 13.0253 9.4115 13 9.16999V6.82999C13.0253 6.58847 13.1441 6.36643 13.331 6.21133C13.5178 6.05624 13.758 5.98038 14 5.99999H20C20.2421 5.98038 20.4822 6.05624 20.669 6.21133C20.8559 6.36643 20.9747 6.58847 21 6.82999Z" fill="#FCC546"/>
</g>
<defs>
<clipPath id="clip0_1783_783">
<rect width="24" height="24" fill="white" transform="translate(5 5)"/>
</clipPath>
</defs>
</svg>
