<svg width="92" height="92" viewBox="0 0 92 92" fill="none" xmlns="http://www.w3.org/2000/svg">
<g clip-path="url(#clip0_2624_1070)">
<mask id="mask0_2624_1070" style="mask-type:luminance" maskUnits="userSpaceOnUse" x="0" y="0" width="92" height="92">
<path d="M0 0.317261H91.6832V91.6844H0V0.317261Z" fill="white"/>
</mask>
<g mask="url(#mask0_2624_1070)">
<path fill-rule="evenodd" clip-rule="evenodd" d="M83.075 91.6844H8.60821C3.87387 91.6844 0 87.8242 0 83.1058V8.89579C0 4.17777 3.87387 0.317261 8.60821 0.317261H83.075C87.8097 0.317261 91.6833 4.17777 91.6833 8.89579V83.1058C91.6833 87.8242 87.8097 91.6844 83.075 91.6844Z" fill="#E82529"/>
</g>
<path fill-rule="evenodd" clip-rule="evenodd" d="M19.7807 17.5219H24.1244C24.4551 17.5219 24.7092 17.814 24.6621 18.1402L22.6448 32.0861C22.5671 32.6229 22.9851 33.1035 23.5291 33.1035H31.1492C31.3657 33.1035 31.5315 33.2951 31.5 33.5083L30.9088 37.5138C30.8783 37.7219 30.6991 37.8764 30.4877 37.8764H21.8715C19.3086 37.8764 16.8507 35.7816 17.2123 33.2529L19.2423 17.992C19.278 17.723 19.5082 17.5219 19.7807 17.5219Z" fill="#FEFEFE"/>
<path fill-rule="evenodd" clip-rule="evenodd" d="M34.2654 23.0865L32.2771 37.3091C32.2456 37.5346 32.4213 37.7361 32.6499 37.7361H36.8532C37.1521 37.7361 37.4055 37.5166 37.4469 37.2215L39.4159 23.2302C39.4579 22.9079 39.2061 22.6221 38.8798 22.6221H34.8009C34.5309 22.6221 34.3027 22.8203 34.2654 23.0865Z" fill="#FEFEFE"/>
<path fill-rule="evenodd" clip-rule="evenodd" d="M42.9356 36.6455C41.6386 36.5989 41.0319 37.004 40.2666 37.4589C40.4512 36.1766 41.8994 26.1838 42.0315 25.57C42.1712 24.9155 42.2982 23.8235 42.8757 23.2728C43.5525 22.6263 44.6002 22.2564 49.8126 22.2396C55.1334 22.2224 56.1641 26.0385 55.8818 28.5181C55.6411 30.6404 54.8494 35.8841 54.6259 37.3491C54.5919 37.5718 54.4009 37.7358 54.1758 37.7358H50.0657C49.7646 37.7358 49.5331 37.4713 49.5752 37.1743C49.783 35.7093 50.3404 31.8038 50.5295 30.6696C50.7642 29.2668 50.952 27.7231 50.5763 27.1137C50.2007 26.5055 49.0738 26.0385 46.9145 26.4129L45.3174 37.6664C45.3174 37.6664 44.2898 36.6943 42.9356 36.6455Z" fill="#FEFEFE"/>
<path fill-rule="evenodd" clip-rule="evenodd" d="M60.3397 16.7139H64.8989C65.0686 16.7139 65.1991 16.8633 65.1759 17.0308L62.3388 37.5119C62.3178 37.6639 62.1873 37.7771 62.0332 37.7771H57.5319C57.3447 37.7771 57.2008 37.6125 57.2266 37.4278L60.0627 16.9547C60.0818 16.8167 60.1999 16.7139 60.3397 16.7139Z" fill="#FEFEFE"/>
<path fill-rule="evenodd" clip-rule="evenodd" d="M63.8672 29.054L69.0198 23.0407C69.1822 22.8513 69.4197 22.7422 69.6699 22.7422H74.1931C74.5198 22.7422 74.6917 23.1276 74.4733 23.3691L69.2048 29.1958L74.0209 39.5182C74.1976 39.897 73.92 40.3304 73.5011 40.3304H69.4127C69.199 40.3304 69.0052 40.2063 68.916 40.0131L63.8672 29.054Z" fill="#FEFEFE"/>
<path fill-rule="evenodd" clip-rule="evenodd" d="M40.2969 18.7707C39.9283 20.3204 38.5279 21.4736 37.0616 21.4736C35.5957 21.4736 34.4713 20.2173 34.8402 18.6679C35.2089 17.1182 36.4227 15.8619 38.1624 15.8619C39.6284 15.8619 40.6655 17.221 40.2969 18.7707Z" fill="#FEFEFE"/>
<path fill-rule="evenodd" clip-rule="evenodd" d="M44.9307 41.3614C44.562 42.9111 43.1617 44.0643 41.6954 44.0643C40.2295 44.0643 39.1051 42.808 39.474 41.2586C39.8427 39.7089 41.0565 38.4526 42.7962 38.4526C44.2622 38.4526 45.2993 39.8117 44.9307 41.3614Z" fill="#FEFEFE"/>
<path fill-rule="evenodd" clip-rule="evenodd" d="M66.9847 59.8807C66.674 61.412 65.259 62.5512 63.7176 62.5503C62.1759 62.5496 60.9315 61.3073 61.2422 59.7763C61.5529 58.245 62.7668 57.0039 64.5959 57.0049C66.1373 57.0058 67.2954 58.3494 66.9847 59.8807Z" fill="#FEFEFE"/>
<path fill-rule="evenodd" clip-rule="evenodd" d="M28.1771 52.2535H25.4168C25.3143 52.2535 25.2439 52.1507 25.2815 52.0555L27.6837 45.9791C27.7295 45.8633 27.9008 45.8881 27.9119 46.0118L28.4518 51.9537C28.4665 52.1146 28.3395 52.2535 28.1771 52.2535ZM34.8641 59.8841L31.7839 41.5108C31.6492 40.7075 30.9514 40.119 30.1343 40.119H27.0435C26.1009 40.119 25.2452 40.6675 24.8549 41.5225L16.5574 59.9069C16.4371 60.1737 16.6338 60.4748 16.927 60.4732L21.2383 60.4482C21.5334 60.4466 21.7989 60.2702 21.9141 59.9999L23.3473 56.64C23.3861 56.5483 23.4762 56.489 23.5762 56.489H28.7937C28.9217 56.489 29.029 56.5857 29.0414 56.7126L29.3527 59.892C29.3887 60.2619 29.701 60.5443 30.0741 60.5443H34.3029C34.6547 60.5443 34.9221 60.2296 34.8641 59.8841Z" fill="#FEFEFE"/>
<path fill-rule="evenodd" clip-rule="evenodd" d="M32.8071 63.2123L33.8028 66.2778C33.9818 66.7822 34.1167 66.8942 34.4666 66.8206C35.7243 66.5563 38.7635 65.6614 40.2505 63.6567C42.1889 61.0433 42.4547 56.423 42.7969 54.0748C43.0786 52.1406 43.6956 47.3794 43.9044 45.7612C43.9419 45.4699 43.7143 45.2126 43.4196 45.2126H39.5546C39.213 45.2126 38.9243 45.4639 38.8784 45.8011C38.5668 48.0869 37.4443 56.3063 37.2482 57.4455C37.0203 58.7712 36.9748 60.6807 35.0068 61.8205C34.0247 62.389 33.5211 62.4975 33.1324 62.6784C32.9347 62.7704 32.7113 62.869 32.8071 63.2123Z" fill="#FEFEFE"/>
<path fill-rule="evenodd" clip-rule="evenodd" d="M54.0766 56.1349C54.0766 56.1349 52.0612 56.8179 51.0938 56.0946C50.126 55.3716 50.0455 53.8854 50.6099 51.7564C51.1743 49.627 52.5852 49.2657 53.1897 49.2254C53.7946 49.1851 54.9314 49.4703 54.9314 49.4703L54.0766 56.1349ZM59.6574 45.7627C58.3541 45.4379 56.163 44.7241 52.6406 44.9813C49.3907 45.2186 45.7208 46.7167 45.0336 53.11C44.3463 59.5034 47.2791 60.7365 51.4949 60.9192C54.5844 61.0531 57.0092 60.2061 58.0845 59.7439C58.4589 59.583 58.7196 59.2382 58.7743 58.8356L60.332 46.5263C60.3931 46.0378 60.148 45.8848 59.6574 45.7627Z" fill="#FEFEFE"/>
<path fill-rule="evenodd" clip-rule="evenodd" d="M62.6635 54.9668L63.7977 43.1797C63.8384 42.7575 64.194 42.5852 64.6197 42.5852H68.5324C68.8969 42.5852 69.0512 42.8609 68.9507 43.3123L66.5625 55.1153C66.5141 55.3437 66.3123 55.5071 66.078 55.5071H63.1559C62.864 55.5071 62.6354 55.2565 62.6635 54.9668Z" fill="#FEFEFE"/>
<path fill-rule="evenodd" clip-rule="evenodd" d="M16.8771 76.7017C17.6519 77.1284 18.557 77.2525 19.4184 77.0491C22.8498 76.2389 30.4434 74.0578 46.5065 71.7439C66.6873 68.8367 81.5875 68.8487 81.5875 68.8487L81.6266 68.8249C81.6266 68.8249 68.42 67.0167 46.7453 69.1263C25.0702 71.236 12.9727 74.5515 12.9727 74.5515L16.8771 76.7017Z" fill="#FEFEFE"/>
</g>
<defs>
<clipPath id="clip0_2624_1070">
<rect width="92" height="92" fill="white"/>
</clipPath>
</defs>
</svg>
