<svg width="32" height="32" viewBox="0 0 32 32" fill="none" xmlns="http://www.w3.org/2000/svg">
<rect width="32" height="32" rx="16" fill="#FEEDC8"/>
<path d="M17.3125 25.8263V26.9375C17.3125 27.1696 17.2203 27.3922 17.0562 27.5563C16.8921 27.7204 16.6696 27.8125 16.4375 27.8125H15.5625C15.3304 27.8125 15.1079 27.7204 14.9438 27.5563C14.7797 27.3922 14.6875 27.1696 14.6875 26.9375V25.8263C14.9534 25.9805 15.2551 26.062 15.5625 26.0625H16.4375C16.7449 26.062 17.0466 25.9805 17.3125 25.8263Z" fill="#ECF0F1" stroke="#8A8A8D" stroke-linecap="round" stroke-linejoin="round"/>
<path d="M18.1875 22.5625V24.3125C18.1875 24.7766 18.0031 25.2217 17.6749 25.5499C17.3467 25.8781 16.9016 26.0625 16.4375 26.0625H15.5625C15.0984 26.0625 14.6533 25.8781 14.3251 25.5499C13.9969 25.2217 13.8125 24.7766 13.8125 24.3125V22.5625H18.1875Z" fill="#ECF0F1" stroke="#8A8A8D" stroke-linecap="round" stroke-linejoin="round"/>
<path d="M22.5625 13.2963C22.5742 14.2935 22.3584 15.2803 21.9316 16.1817C21.5048 17.083 20.8782 17.8753 20.0994 18.4982C19.514 18.9501 19.0381 19.5282 18.7071 20.1895C18.3761 20.8507 18.1985 21.5782 18.1875 22.3176V22.5626H13.8125V22.3176C13.8204 21.6023 13.6635 20.8948 13.354 20.2499C13.0444 19.605 12.5905 19.0401 12.0275 18.5988C11.1414 17.9248 10.4413 17.0363 9.9931 16.0171C9.54494 14.9979 9.36346 13.8815 9.46574 12.7728C9.56801 11.6641 9.95067 10.5997 10.5777 9.67968C11.2048 8.75966 12.0556 8.0143 13.0501 7.51374C14.0446 7.01318 15.1501 6.77388 16.2626 6.81835C17.3751 6.86282 18.458 7.1896 19.4094 7.76794C20.3608 8.34629 21.1494 9.15718 21.701 10.1243C22.2526 11.0914 22.5491 12.183 22.5625 13.2963Z" fill="#FCC548" stroke="#8A8A8D" stroke-linecap="round" stroke-linejoin="round"/>
</svg>
