<svg width="44" height="43" viewBox="0 0 44 43" fill="none" xmlns="http://www.w3.org/2000/svg">
<g clip-path="url(#clip0_563_1654)">
<path d="M25.4142 6.24715L25.4143 6.24722L25.4159 6.24424C25.6373 5.83129 25.6929 5.34949 25.5715 4.89696C25.4501 4.44442 25.1607 4.05518 24.7624 3.80848C24.3641 3.56179 23.8867 3.47618 23.4275 3.56911C22.9682 3.66203 22.5617 3.92649 22.2906 4.30864C22.2906 4.30864 22.2906 4.30865 22.2906 4.30865L20.4989 6.8331L20.4989 6.83307L20.4978 6.83477L20.401 6.98348L20.4008 6.98332L20.3983 6.98818L20.3334 7.11662H13.9374V7.11656L13.935 7.11668L13.677 7.12922L13.677 7.12916L13.6746 7.12939C12.9973 7.19472 12.3685 7.51 11.911 8.01375C11.4534 8.5175 11.2 9.17361 11.1999 9.85412L11.1999 9.85415L11.2017 12.6169H11.2017L11.2018 12.6192L11.2036 12.6576C10.6832 12.8483 10.2326 13.1927 9.91189 13.6455C9.58397 14.1084 9.40798 14.6618 9.40825 15.2291C9.40825 15.2291 9.40825 15.2291 9.40825 15.2291L9.40825 17.9166H9.40816L9.40834 17.9197L9.42089 18.1257L9.42081 18.1257L9.42113 18.1285C9.4733 18.5752 9.68716 18.9874 10.0224 19.2873C10.3463 19.5772 10.762 19.7428 11.1956 19.7557L12.8395 36.1948L12.8397 36.1964L12.8756 36.4652L12.8755 36.4652L12.8759 36.4673C13.0253 37.3078 13.4658 38.0688 14.1202 38.6169C14.7746 39.165 15.6011 39.4652 16.4547 39.4648L27.5451 39.4649L27.5471 39.4648L27.8212 39.4541L27.8231 39.4539C28.6734 39.3887 29.4736 39.0265 30.0837 38.4306C30.6939 37.8348 31.075 37.0433 31.1603 36.1948L32.8044 19.7538L32.9697 19.7439L32.9697 19.744L32.9728 19.7436C33.4191 19.6892 33.8301 19.4734 34.1283 19.1368C34.4265 18.8003 34.5913 18.3663 34.5916 17.9167V17.9166V15.2309H34.5916L34.5915 15.2288L34.5808 14.9779L34.5809 14.9779L34.5806 14.9755C34.4814 13.9059 33.7673 13.0129 32.7958 12.6574L32.7999 12.5434L32.7999 12.5434V12.5416V9.85412H32.8L32.7999 9.85169L32.7873 9.59369L32.7874 9.59369L32.7871 9.59132C32.7218 8.91395 32.4065 8.2852 31.9028 7.82767C31.399 7.37015 30.7429 7.11665 30.0624 7.11662H24.8145L25.2926 6.44122L25.2927 6.44126L25.2942 6.43886L25.4142 6.24715ZM12.5554 20.05H31.4452L30.1134 34.7001C30.0116 35.82 29.4087 36.8337 28.4733 37.4577C27.4996 38.0383 26.387 38.3449 25.2534 38.3449H22H18.1626C17.0595 38.3449 15.9779 38.04 15.0372 37.4642C14.4852 36.4838 14.1407 35.4003 14.0251 34.281L12.5554 20.05ZM22.0001 12.4708L12.55 12.4501V9.5C12.55 8.97533 12.9753 8.55 13.5 8.55H22H30.5C31.0247 8.55 31.45 8.97533 31.45 9.5V12.4915L22.0001 12.4708ZM31.055 19.0537H12.945C12.6575 19.0537 12.3726 18.9985 12.1058 18.8911C11.4377 18.6223 10.9389 18.0496 10.7643 17.351L10.705 17.1137C10.6042 16.7108 10.6042 16.2892 10.705 15.8863L10.7525 15.6961C10.9327 14.9753 11.4687 14.3965 12.1736 14.1615C12.3951 14.0877 12.6272 14.05 12.8608 14.05H17.25H22H31.1392C31.3728 14.05 31.6049 14.0877 31.8264 14.1615C32.5313 14.3965 33.0673 14.9753 33.2475 15.6961L33.295 15.8863C33.3958 16.2892 33.3958 16.7108 33.295 17.1137L33.2357 17.351C33.0611 18.0496 32.5623 18.6223 31.8942 18.8911C31.6274 18.9985 31.3425 19.0537 31.055 19.0537Z" fill="#D9D9D9" stroke="#D9D9D9" stroke-width="0.1"/>
</g>
<defs>
<clipPath id="clip0_563_1654">
<rect width="43" height="43" fill="white" transform="translate(0.5)"/>
</clipPath>
</defs>
</svg>
