<svg width="256" height="256" viewBox="0 0 256 256" fill="none" xmlns="http://www.w3.org/2000/svg">
<g clip-path="url(#clip0_1948_1309)">
<path d="M234.667 85.3332H231.68L195.093 21.3332C192.261 16.4717 187.624 12.9258 182.19 11.4675C176.756 10.0091 170.966 10.7564 166.08 13.5465L10.6667 104.107C5.77645 106.939 2.2099 111.596 0.750018 117.056C-0.709868 122.515 0.0562026 128.331 2.88007 133.227L5.54673 137.813L9.92007 145.493L32.0001 184.107V224C32.0001 229.658 34.2477 235.084 38.2485 239.085C42.2492 243.086 47.6754 245.333 53.3334 245.333H234.667C240.325 245.333 245.751 243.086 249.752 239.085C253.752 235.084 256 229.658 256 224V106.667C256 101.009 253.752 95.5824 249.752 91.5816C245.751 87.5808 240.325 85.3332 234.667 85.3332ZM122.667 170.667C124.081 170.667 125.438 171.228 126.438 172.229C127.438 173.229 128 174.585 128 176C128 177.414 127.438 178.771 126.438 179.771C125.438 180.771 124.081 181.333 122.667 181.333H69.3334C67.9189 181.333 66.5624 180.771 65.5622 179.771C64.562 178.771 64.0001 177.414 64.0001 176C64.0001 174.585 64.562 173.229 65.5622 172.229C66.5624 171.228 67.9189 170.667 69.3334 170.667H122.667ZM201.707 54.3999L219.413 85.3332H148.48L201.707 54.3999ZM171.52 22.3999C173.915 21.0385 176.743 20.6562 179.413 21.3332C182.107 22.0682 184.404 23.8298 185.813 26.2399L85.3334 85.3332H64.0001L171.52 22.3999ZM15.8934 113.28L32.0001 103.787C31.9352 104.745 31.9352 105.708 32.0001 106.667V116.267L12.0534 128C11.3269 126.784 10.8497 125.436 10.6497 124.035C10.4496 122.633 10.5306 121.205 10.8881 119.835C11.2455 118.465 11.8722 117.18 12.7315 116.054C13.5909 114.929 14.6658 113.986 15.8934 113.28ZM27.8401 155.947L32.0001 153.173V162.667L27.8401 155.947ZM144 213.333H69.3334C67.9189 213.333 66.5624 212.771 65.5622 211.771C64.562 210.771 64.0001 209.414 64.0001 208C64.0001 206.585 64.562 205.229 65.5622 204.229C66.5624 203.228 67.9189 202.667 69.3334 202.667H144C145.415 202.667 146.771 203.228 147.771 204.229C148.771 205.229 149.333 206.585 149.333 208C149.333 209.414 148.771 210.771 147.771 211.771C146.771 212.771 145.415 213.333 144 213.333ZM202.027 213.333C198.547 213.348 195.112 212.544 192 210.987C188.888 212.544 185.453 213.348 181.973 213.333C176.315 213.333 170.889 211.086 166.888 207.085C162.888 203.084 160.64 197.658 160.64 192C160.64 186.342 162.888 180.916 166.888 176.915C170.889 172.914 176.315 170.667 181.973 170.667C185.453 170.652 188.888 171.455 192 173.013C195.112 171.455 198.547 170.652 202.027 170.667C207.685 170.667 213.111 172.914 217.112 176.915C221.112 180.916 223.36 186.342 223.36 192C223.36 197.658 221.112 203.084 217.112 207.085C213.111 211.086 207.685 213.333 202.027 213.333Z" fill="white"/>
</g>
<defs>
<clipPath id="clip0_1948_1309">
<rect width="256" height="256" fill="white"/>
</clipPath>
</defs>
</svg>
