<svg width="14" height="12" viewBox="0 0 14 12" fill="none" xmlns="http://www.w3.org/2000/svg">
<path fill-rule="evenodd" clip-rule="evenodd" d="M0.561583 0.390667C-5.96046e-08 0.781333 0 1.40933 0 2.66667V8.66667C0 9.924 -5.96046e-08 10.552 0.561583 10.9427C1.12317 11.3333 2.02592 11.3333 3.83333 11.3333H9.58333C11.3908 11.3333 12.2935 11.3333 12.8551 10.9427C13.4167 10.552 13.4167 9.924 13.4167 8.66667V2.66667C13.4167 1.40933 13.4167 0.781333 12.8551 0.390667C12.2935 -2.98023e-08 11.3908 0 9.58333 0H3.83333C2.02592 0 1.12317 -2.98023e-08 0.561583 0.390667ZM3.83333 2.66667C3.57917 2.66667 3.33541 2.7369 3.15569 2.86193C2.97597 2.98695 2.875 3.15652 2.875 3.33333C2.875 3.51014 2.97597 3.67971 3.15569 3.80474C3.33541 3.92976 3.57917 4 3.83333 4H9.58333C9.8375 4 10.0813 3.92976 10.261 3.80474C10.4407 3.67971 10.5417 3.51014 10.5417 3.33333C10.5417 3.15652 10.4407 2.98695 10.261 2.86193C10.0813 2.7369 9.8375 2.66667 9.58333 2.66667H3.83333ZM3.83333 5.33333C3.57917 5.33333 3.33541 5.40357 3.15569 5.5286C2.97597 5.65362 2.875 5.82319 2.875 6C2.875 6.17681 2.97597 6.34638 3.15569 6.4714C3.33541 6.59643 3.57917 6.66667 3.83333 6.66667H9.58333C9.8375 6.66667 10.0813 6.59643 10.261 6.4714C10.4407 6.34638 10.5417 6.17681 10.5417 6C10.5417 5.82319 10.4407 5.65362 10.261 5.5286C10.0813 5.40357 9.8375 5.33333 9.58333 5.33333H3.83333ZM3.83333 8C3.57917 8 3.33541 8.07024 3.15569 8.19526C2.97597 8.32029 2.875 8.48986 2.875 8.66667C2.875 8.84348 2.97597 9.01305 3.15569 9.13807C3.33541 9.2631 3.57917 9.33333 3.83333 9.33333H7.66667C7.92083 9.33333 8.16459 9.2631 8.34431 9.13807C8.52403 9.01305 8.625 8.84348 8.625 8.66667C8.625 8.48986 8.52403 8.32029 8.34431 8.19526C8.16459 8.07024 7.92083 8 7.66667 8H3.83333Z" fill="#ABB3BD"/>
</svg>
