<svg width="753" height="783" viewBox="0 0 753 783" fill="none" xmlns="http://www.w3.org/2000/svg">
<path d="M65.35 306.57L54.72 304.25L52.3 293.64C52.2591 293.459 52.1576 293.296 52.0122 293.18C51.8669 293.064 51.6862 293 51.5 293C51.313 293.002 51.1318 293.065 50.9851 293.181C50.8384 293.297 50.7345 293.459 50.69 293.64L48.27 304.3L37.64 306.82C37.4567 306.865 37.2939 306.971 37.1778 307.119C37.0617 307.268 36.9991 307.452 37 307.64C37.0009 307.827 37.0661 308.007 37.1845 308.151C37.3029 308.295 37.4673 308.394 37.65 308.43L48.28 310.75L50.69 321.36C50.7345 321.542 50.8384 321.704 50.9851 321.82C51.1318 321.935 51.313 321.999 51.5 322C51.6862 322 51.8669 321.937 52.0122 321.821C52.1576 321.704 52.2591 321.542 52.3 321.36L54.73 310.7L65.36 308.18C65.5469 308.144 65.7154 308.044 65.8365 307.897C65.9576 307.75 66.0239 307.566 66.0239 307.375C66.0239 307.185 65.9576 307.001 65.8365 306.854C65.7154 306.707 65.5469 306.607 65.36 306.57H65.35ZM84.66 261L79.16 259.8L77.92 254.31C77.899 254.215 77.8459 254.129 77.7695 254.068C77.6931 254.006 77.598 253.973 77.5 253.973C77.402 253.973 77.3069 254.006 77.2305 254.068C77.1541 254.129 77.101 254.215 77.08 254.31L75.83 259.83L70.33 261.13C70.2357 261.153 70.1518 261.207 70.0919 261.283C70.032 261.359 69.9996 261.453 70 261.55C70.0005 261.648 70.0347 261.742 70.0967 261.816C70.1587 261.891 70.2447 261.942 70.34 261.96L75.84 263.16L77.08 268.65C77.101 268.746 77.1541 268.832 77.2305 268.893C77.3069 268.955 77.402 268.988 77.5 268.988C77.598 268.988 77.6931 268.955 77.7695 268.893C77.8459 268.832 77.899 268.746 77.92 268.65L79.17 263.13L84.67 261.83C84.7635 261.806 84.8464 261.752 84.906 261.676C84.9657 261.6 84.9987 261.507 85 261.41C84.9995 261.313 84.9653 261.219 84.9033 261.145C84.8413 261.07 84.7553 261.019 84.66 261ZM606.42 262.51L599.89 261.09L598.41 254.57C598.383 254.459 598.319 254.359 598.228 254.288C598.137 254.217 598.025 254.179 597.91 254.18C597.796 254.178 597.684 254.216 597.595 254.287C597.505 254.358 597.443 254.458 597.42 254.57L595.93 261.12L589.39 262.67C589.278 262.698 589.179 262.762 589.108 262.852C589.037 262.943 588.999 263.055 589 263.17C589 263.286 589.04 263.397 589.113 263.487C589.186 263.576 589.287 263.637 589.4 263.66L595.93 265.08L597.42 271.6C597.441 271.714 597.502 271.817 597.592 271.89C597.681 271.963 597.794 272.002 597.91 272C598.026 272.001 598.14 271.961 598.231 271.889C598.322 271.816 598.385 271.714 598.41 271.6L599.9 265.05L606.43 263.5C606.543 263.475 606.643 263.411 606.714 263.32C606.786 263.229 606.823 263.116 606.82 263C606.82 262.885 606.78 262.773 606.707 262.684C606.634 262.595 606.533 262.534 606.42 262.51Z" fill="#3F3D56"/>
<path d="M748 380.13C748 380.13 738.28 353.39 712.35 360.68C712.35 360.68 709.11 321.79 666.98 319.36C624.85 316.93 611.88 350.15 611.88 350.15C611.88 350.15 576.23 330.7 551.88 360.68C551.88 360.68 524.33 360.68 518.66 380.13H748Z" fill="white"/>
<path d="M752.28 383.13H514.7L515.82 379.29C521.33 360.4 544.39 358.02 550.48 357.73C571.91 332.55 601.31 342.27 610.48 346.19C614.96 337.83 630.87 314.27 667.16 316.37C703.79 318.48 712.78 347.04 714.8 357.02C740.67 352.07 750.73 378.82 750.8 379.1L752.28 383.13ZM523.17 377.13H743.27C739.59 370.54 730.36 358.74 713.16 363.57L709.66 364.57L709.36 360.94C709.23 359.47 705.75 324.61 666.8 322.37C627.31 320.08 614.8 350.94 614.67 351.25L613.44 354.43L610.44 352.79C609.08 352.05 576.66 334.94 554.25 362.58L553.35 363.69H551.92C551.69 363.68 530.48 363.9 523.17 377.13Z" fill="#3F3D56"/>
<path d="M148 403C148 403 141.93 386.31 125.75 390.87C125.75 390.87 123.75 366.6 97.4402 365.08C71.1302 363.56 63.0602 384.29 63.0602 384.29C63.0602 384.29 40.8102 372.16 25.6402 390.87C25.6402 390.87 8.45016 390.87 4.91016 403H148Z" fill="white"/>
<path d="M152.28 406H0.910156L2.03015 402.16C5.54015 390.16 19.5901 388.22 24.2001 387.92C37.3401 372.92 54.9302 377.73 61.6902 380.4C65.1802 374.4 75.5501 360.82 97.6101 362.08C120.03 363.38 126.42 380.08 128.14 387.3C141.09 385.45 148.57 395.79 150.82 401.97L152.28 406ZM9.84015 400H143C140.37 396.17 135.17 391.33 126.56 393.75L123.06 394.75L122.75 391.12C122.68 390.25 120.55 369.43 97.2602 368.12C73.4202 366.73 65.9201 385.25 65.8401 385.43L64.6002 388.61L61.6002 386.98C60.7802 386.54 41.3301 376.31 27.9501 392.8L27.0502 393.92H25.6201C25.5201 393.87 14.8301 394 9.84015 400Z" fill="#3F3D56"/>
<path d="M406.5 263.5H431.5V727.5H406.5V263.5ZM299.5 1.5H350.5V19.5H299.5V1.5Z" fill="#3F3D56"/>
<path d="M332.5 3.5H350.5V117.5H332.5V3.5Z" fill="white"/>
<path d="M353.5 120.5H329.5V0.5H353.5V120.5ZM335.5 114.5H347.5V6.5H335.5V114.5Z" fill="#3F3D56"/>
<path d="M388.5 458V287.5H211.5V458C211.5 481.472 220.824 503.982 237.421 520.579C254.018 537.176 276.528 546.5 300 546.5C323.472 546.5 345.982 537.176 362.579 520.579C379.176 503.982 388.5 481.472 388.5 458Z" fill="white"/>
<path d="M300 549.5C275.733 549.5 252.459 539.86 235.3 522.7C218.14 505.541 208.5 482.267 208.5 458V284.5H391.5V458C391.471 482.258 381.821 505.515 364.668 522.668C347.515 539.821 324.258 549.471 300 549.5ZM214.5 290.5V458C214.5 480.676 223.508 502.423 239.542 518.458C255.577 534.492 277.324 543.5 300 543.5C322.676 543.5 344.423 534.492 360.458 518.458C376.492 502.423 385.5 480.676 385.5 458V290.5H214.5Z" fill="#3F3D56"/>
<path d="M500.5 288.5L388.5 309.5L299.5 51.5H424.39C434.96 51.5004 445.424 53.6105 455.169 57.7068C464.913 61.8032 473.742 67.8032 481.138 75.3554C488.533 82.9076 494.347 91.8601 498.239 101.688C502.13 111.516 504.021 122.022 503.8 132.59L500.5 288.5Z" fill="#FFC700"/>
<path d="M386.51 312.93L295.29 48.5H424.39C435.36 48.5002 446.219 50.6903 456.332 54.9419C466.444 59.1934 475.606 65.4209 483.281 73.2593C490.955 81.0977 496.988 90.3892 501.025 100.589C505.061 110.789 507.022 121.693 506.79 132.66L503.45 291L386.51 312.93ZM303.71 54.5L390.49 306.07L497.55 286L500.8 132.53C501.009 122.363 499.187 112.257 495.441 102.804C491.695 93.3502 486.1 84.7392 478.984 77.4752C471.868 70.2111 463.374 64.4401 454 60.5002C444.625 56.5602 434.559 54.5305 424.39 54.53L303.71 54.5Z" fill="#3F3D56"/>
<path d="M388 139.5V310H211V139.5C211.004 124.725 214.704 110.186 221.764 97.2071C228.824 84.2281 239.019 73.2216 251.42 65.1901C253.42 63.8901 255.477 62.6701 257.59 61.5301C277.2 51.0236 300.039 48.258 321.59 53.7801C323.59 54.2868 325.557 54.8668 327.49 55.5201C345.112 61.3997 360.437 72.6736 371.297 87.7454C382.157 102.817 388 120.923 388 139.5Z" fill="#49B38D"/>
<path d="M391 313H208V139.5C208.006 124.224 211.833 109.193 219.132 95.7741C226.431 82.3553 236.97 70.9752 249.79 62.6695C251.79 61.3395 253.98 60.0695 256.16 58.8895C276.438 48.0236 300.057 45.1685 322.34 50.8895C324.34 51.4095 326.45 52.0195 328.44 52.6795C346.669 58.7396 362.526 70.39 373.756 85.9755C384.987 101.561 391.02 120.289 391 139.5V313ZM214 307H385V139.5C385.024 121.547 379.387 104.044 368.892 89.4792C358.397 74.9142 343.577 64.0284 326.54 58.3695C324.68 57.7395 322.77 57.1795 320.85 56.6895C300.024 51.3464 277.952 54.0158 259 64.1695C257 65.2695 255 66.4595 253 67.7095C247.951 70.9726 243.259 74.7567 239 78.9995C231.043 86.9242 224.737 96.3481 220.445 106.726C216.154 117.104 213.963 128.23 214 139.46V307Z" fill="#3F3D56"/>
<path d="M388.001 263.67V310H211.811L388.001 263.67Z" fill="#3F3D56"/>
<path d="M379.58 156.78C347.36 161.63 328.58 110.2 323.41 93.4303C325.18 81.9003 326.62 69.2503 327.49 55.5203C325.55 54.8536 323.583 54.2736 321.59 53.7803C320.963 64.03 319.963 74.2535 318.59 84.4303L316.59 87.2503C298.43 112.4 268 103 260.08 100C257.865 87.3009 257.03 74.3992 257.59 61.5203C255.483 62.6603 253.427 63.8803 251.42 65.1803C251.146 76.6192 251.939 88.0587 253.79 99.3503C253.89 99.9603 254 100.58 254.1 101.2C245.77 129.04 216.66 141.59 211 143.79V150L211.43 150.07L216.52 152.07C217.605 152.864 218.56 153.822 219.35 154.91C227.97 166.63 223.92 193.91 222.61 201.39L211 205.39V211.73C213.92 210.73 218.79 209.05 224.89 206.91C227.85 207.621 230.632 208.935 233.06 210.771C235.488 212.607 237.51 214.925 239 217.58C249 234.58 242.4 264.79 241 270.58C231.6 284.17 221.46 296.99 211 307.23V310H216.7C226.8 299.86 236.54 287.56 245.57 274.59C273.7 252.41 295.24 271.32 299.06 275.1C299.49 289.87 299.75 302.56 299.88 310H305.88C305.75 302.41 305.49 289.41 305.05 274.29C322.77 248.47 351.32 261.72 352.53 262.29L353.32 262.67C359.305 278.146 364.409 293.948 368.61 310H374.81C369.535 289.274 362.709 268.973 354.39 249.27C350.39 228.89 353.39 208.68 363.21 189.09C368.159 179.184 374.62 170.109 382.36 162.19C384.48 161.25 386.36 160.37 388 159.57V152.83C385.89 153.9 383.06 155.27 379.58 156.78ZM321.29 106C328.44 125.32 343.13 155.67 366.36 162C359.579 164.358 352.679 166.36 345.69 168C326.95 158.92 318.93 131.3 317.27 124.79C318.683 118.93 320.023 112.667 321.29 106ZM319.87 172.45C317.2 170.45 309.33 163.96 308.12 155.92C310.12 150.28 312.27 143.61 314.39 135.92C318.07 146.23 325.13 161.11 337.13 169.85C331.414 170.938 325.656 171.792 319.87 172.41V172.45ZM336.8 176.11C332.53 182.04 327.6 191.11 327.44 201.45C326.124 199.708 324.767 197.998 323.37 196.32L321.76 193.26C320.23 190.36 316.88 181.71 320.35 178.46C326.09 177.83 331.59 177 336.8 176.07V176.11ZM313 185.2C310.802 183.145 308.495 181.209 306.09 179.4C308.537 179.314 310.947 179.19 313.32 179.03C312.836 181.05 312.727 183.141 313 185.2ZM250.58 165C255.23 166.69 260.02 168.41 264.8 170.08C264.98 170.36 265.17 170.63 265.36 170.91C268.72 175.84 271.47 179.91 267 185.3C261 187.57 254.93 189.81 249.06 191.95C252.065 183.284 252.591 173.95 250.58 165ZM252.81 159.43C255.808 157.612 258.604 155.48 261.15 153.07C264.059 149.862 266.028 145.914 266.84 141.66C269.542 147.318 272.639 152.778 276.11 158C276.2 158.861 276.073 159.731 275.739 160.529C275.405 161.328 274.876 162.03 274.2 162.57C272.51 163.84 270.08 164.1 268.47 164.27C267.99 164.33 267.47 164.39 267 164.49C262.255 162.853 257.525 161.173 252.81 159.45V159.43ZM262 193.61L266.72 193.15C266.79 193.15 273.94 192.5 278.12 196.21C279.726 197.687 280.757 199.685 281.03 201.85C277.71 208.46 273.8 215.97 269.42 223.97C268.53 217.13 266.25 208.78 260.64 203.09C258.065 200.461 254.849 198.549 251.31 197.54C254.8 196.26 258.39 195 262 193.61ZM285.35 206.78L285.87 206.44C285.87 206.44 289.04 204.44 292.02 205.2C292.887 205.46 293.693 205.89 294.392 206.466C295.091 207.041 295.668 207.749 296.09 208.55C296.67 216.77 297.17 225.77 297.6 234.98C293.766 231.316 288.97 228.815 283.77 227.77C282.595 227.563 281.403 227.46 280.21 227.46C278.085 227.481 275.976 227.818 273.95 228.46C278.2 220.66 282 213.33 285.33 206.78H285.35ZM293.45 199.38C292.508 199.144 291.541 199.027 290.57 199.03C290.099 199.035 289.628 199.065 289.16 199.12C291.16 195.04 292.88 191.42 294.3 188.37C294.71 191.89 295.09 195.83 295.45 200.09C294.801 199.79 294.124 199.552 293.43 199.38H293.45ZM284.6 194.64C283.894 193.553 283.046 192.564 282.08 191.7C280.3 190.173 278.228 189.023 275.99 188.32C280.94 186.41 285.77 184.52 290.31 182.67C288.431 186.675 286.521 190.665 284.58 194.64H284.6ZM275.16 182.21C275.674 179.135 275.172 175.975 273.73 173.21C278.33 174.76 282.84 176.21 287.11 177.54C283.27 179 279.25 180.62 275.14 182.21H275.16ZM277 167.94C277.27 167.77 277.53 167.59 277.79 167.4C278.91 166.565 279.851 165.514 280.56 164.31C282.24 166.517 284.02 168.694 285.9 170.84C283 169.92 280 169 277 167.94ZM281 154.62C276.563 147.9 272.767 140.779 269.66 133.35C279.1 136.35 296.2 140.03 309.01 132.25C306.88 140.13 304.72 146.98 302.7 152.78C299.87 154.14 289.87 158.27 281 154.62ZM304.83 164.53C306.612 167.7 308.845 170.594 311.46 173.12C308.047 173.34 304.56 173.47 301 173.51C302.08 171.27 303.39 168.26 304.87 164.53H304.83ZM316.83 96.2503C315.27 105.67 313.5 114.33 311.63 122.16C299.22 137.37 273.46 128.54 266.83 125.93C264.611 119.656 262.797 113.247 261.4 106.74C272.68 110.19 298.54 115.18 316.83 96.2503ZM219.37 146.78H219.31C229.31 141.94 247.04 131.13 256.31 111.97C257.45 116.68 258.87 121.61 260.62 126.66L261.02 128.66C262.56 136.35 260.79 144.89 256.81 148.98C253.89 151.98 247.93 155.51 245.56 156.86C234.91 152.82 225.48 149.17 219.37 146.78ZM226.87 156.12C231.8 158.02 237.53 160.19 243.67 162.47C247.024 173.12 246.228 184.644 241.44 194.73C237.08 196.3 232.92 197.79 229.08 199.14C230.55 189.49 232.63 169.18 226.87 156.12ZM244.15 214.54C241.605 210.125 237.911 206.482 233.46 204L236.39 203L236.31 203.13L242.39 202.72C248.29 202.33 252.85 203.85 256.34 207.38C263.76 214.9 264.03 229.26 263.9 233.91C259.43 241.75 254.58 249.91 249.43 257.91C251.09 245.1 251.57 227.1 244.15 214.54ZM272.42 258C265.937 258.052 259.548 259.552 253.72 262.39C259 254.26 264 246 268.52 238.05L268.66 237.94C273.33 234.33 278.06 232.94 282.66 233.68C290.66 235.01 296.45 242.31 297.94 244.35C298.26 252.07 298.54 259.79 298.77 267.16C293.42 263.19 284.16 258 272.42 258ZM295.12 172C292.008 168.84 289.083 165.501 286.36 162C290.976 162.311 295.608 161.724 300 160.27C298 165.46 296.31 169.39 295.12 172ZM299.53 182.24C303.557 184.977 307.314 188.091 310.75 191.54C307.024 192.458 303.688 194.543 301.23 197.49C300.71 191.65 300.15 186.47 299.53 182.19V182.24ZM302.06 208C302.87 205.51 306.55 196.19 316.06 197.15C317.77 199.08 319.54 201.2 321.37 203.54C323.72 206.54 326.25 210.08 328.9 214.1C322.45 215.76 310.99 220.1 303.39 231.1C303 223.07 302.57 215.23 302.06 208ZM304.78 265.1C304.55 258.1 304.29 250.79 303.98 243.48C309.8 225.6 326.44 220.67 332.32 219.48C338.526 229.75 344.003 240.443 348.71 251.48C348.94 252.6 349.18 253.73 349.46 254.86C339.85 252 320 248.88 304.78 265.08V265.1ZM358 186.19C350.592 200.633 346.748 216.639 346.79 232.87C343.71 226.78 340.64 221.31 337.63 216.38L336.74 214.7C326.74 196 342 178.41 346.12 174.16C354.253 172.288 362.267 169.934 370.12 167.11C365.476 173.066 361.417 179.455 358 186.19Z" fill="white"/>
<path d="M401 783H668.07C671.44 747.62 643.64 735.4 643.64 735.4C650.38 724.24 647.22 717.08 647.22 717.08C643.01 711.18 638.58 717.08 638.58 717.08C638.79 702.75 631.58 700.23 631.58 700.23C626.58 698.96 624.84 708.86 624.84 708.86C609.73 693.06 595 701.7 595 701.7C597.11 694.96 596.06 690.7 596.06 690.7C593.32 687.12 590.37 691.7 590.37 691.7C591.21 672.53 584.26 671.7 584.26 671.7C577.26 671.49 578.57 686.23 578.57 686.23C568.47 672.33 556.88 671.7 556.88 671.7C538.77 671.49 529.71 690.45 529.71 690.45C530.97 667.91 522.71 667.91 522.71 667.91C513.44 669.81 519.34 694.24 519.34 694.24C506.28 683.92 494.91 686.44 494.91 686.44C473 690.24 466.91 720.99 466.91 720.99C460.81 712.35 456.59 714.46 456.59 714.46C450.7 717.62 453.65 726.67 453.65 726.67C434.27 731.52 449.43 735.31 449.43 735.31C445.64 738.47 443.11 744.16 443.11 744.16C407.74 743.82 401 783 401 783Z" fill="#3F3D56"/>
<path d="M541.14 780H125.44C120.2 724.92 163.44 705.91 163.44 705.91C152.95 688.53 157.87 677.39 157.87 677.39C164.42 668.21 171.31 677.39 171.31 677.39C170.98 655.09 182.13 651.16 182.13 651.16C190 649.16 192.62 664.6 192.62 664.6C216.22 640.01 239.17 653.45 239.17 653.45C235.89 642.96 237.53 636.45 237.53 636.45C241.79 630.87 246.38 638.09 246.38 638.09C245.07 608.25 255.89 606.94 255.89 606.94C266.71 606.61 264.74 629.56 264.74 629.56C280.48 607.92 298.51 606.94 298.51 606.94C326.7 606.61 340.799 636.12 340.799 636.12C338.859 601 351.65 601 351.65 601C366.07 604 356.9 642 356.9 642C377.22 625.94 394.9 629.87 394.9 629.87C429 635.77 438.51 683.64 438.51 683.64C448.01 670.19 454.57 673.47 454.57 673.47C463.75 678.39 459.159 692.47 459.159 692.47C489.319 700.01 465.719 705.91 465.719 705.91C471.619 710.83 475.549 719.68 475.549 719.68C530.649 719 541.14 780 541.14 780Z" fill="#FFC700"/>
<path d="M544.7 783H122.7L122.44 780.28C119.63 750.77 130.56 731.39 140.22 720.33C145.655 714.075 152.106 708.781 159.3 704.67C150.24 687.74 154.93 676.67 155.14 676.18L155.27 675.89L155.45 675.64C157.95 672.14 160.89 670.35 164.18 670.31C165.689 670.285 167.182 670.628 168.53 671.31C170.17 652.44 180.66 648.5 181.15 648.31L181.42 648.23C182.534 647.937 183.698 647.885 184.834 648.076C185.97 648.268 187.053 648.698 188.01 649.34C191.16 651.4 193.11 655.5 194.25 658.87C210.69 644.29 226.62 646.04 234.87 648.51C233.43 640.71 234.58 635.9 234.64 635.66L234.79 635.06L235.17 634.56C237.34 631.72 239.73 631.2 241.36 631.28C242.025 631.312 242.682 631.44 243.31 631.66C243.73 606.12 254.26 604.06 255.55 603.9H255.82C257.159 603.851 258.494 604.093 259.73 604.611C260.967 605.129 262.075 605.91 262.98 606.9C266.2 610.31 267.38 616.19 267.76 621.16C282.62 605 297.66 603.98 298.37 603.95H299C318.06 603.95 330.85 616.38 337.67 625.48C338.07 614.14 340.42 606.14 344.67 601.61C347.88 598.22 351.01 598.05 351.6 598.05H351.9L352.2 598.11C353.677 598.415 355.075 599.024 356.304 599.898C357.534 600.773 358.567 601.894 359.34 603.19C364.34 610.99 362.81 626.04 361.27 635.19C379.27 623.91 394.06 626.63 395.45 626.91C424 631.91 436.04 663.58 439.92 677.05C448.67 667.62 455.09 670.38 455.92 670.78C464.36 675.3 463.74 685.25 462.78 690.32C473.07 693.19 477.52 696.22 477.52 700.32C477.52 703.63 474.37 705.85 471.23 707.24C473.644 710.157 475.727 713.333 477.44 716.71C500.2 717.02 518.87 727.82 531.54 748.03C537.553 757.702 541.802 768.363 544.09 779.52L544.7 783ZM128.21 777H537.39C535.068 767.824 531.358 759.056 526.39 751C514.53 732.18 497.74 722.64 476.48 722.64H473.63L472.83 720.84C472.83 720.76 469.09 712.55 463.83 708.15L459.29 704.37L465 703C467.241 702.482 469.369 701.56 471.28 700.28C470.47 699.54 467.66 697.68 458.44 695.38L455.32 694.6L456.32 691.54C456.32 691.43 459.95 679.94 453.32 676.18C452.75 676.04 448.11 675.25 440.97 685.35L437 691L435.63 684.16C435.54 683.7 426.11 638.24 394.46 632.77H394.32C393.67 632.63 377.65 629.43 358.81 644.32L352 649.71L354 641.28C355.72 634.12 359.14 613.91 354.34 606.36C353.719 605.258 352.704 604.433 351.5 604.05C348.64 604.73 342.5 611.41 343.85 635.91L344.7 651.09L338.14 637.37C338.01 637.1 324.64 609.9 299.02 609.9H298.68C297.5 609.99 281.58 611.54 267.22 631.29L260.88 640L261.78 629.29C262.23 623.98 261.78 614.29 258.63 611C258.339 610.667 257.981 610.399 257.579 610.212C257.178 610.026 256.742 609.927 256.3 609.92C255.25 610.33 248.36 613.92 249.41 637.92L249.9 649.13L243.9 639.67C243.2 638.58 241.9 637.33 241.13 637.3C240.93 637.3 240.68 637.46 240.39 637.75C240.13 639.5 239.68 644.88 242.08 652.57L244.4 659.97L237.69 656C236.84 655.52 216.4 644.15 194.81 666.64L190.69 671L189.69 665.13C189.13 661.87 187.28 656.07 184.69 654.41C184.45 654.238 184.176 654.118 183.887 654.057C183.597 653.997 183.299 653.998 183.01 654.06C182.01 654.53 174.01 658.78 174.3 677.37L174.43 686.6L168.9 679.22C168.32 678.47 166.24 676.22 164.21 676.34C163 676.34 161.76 677.21 160.51 678.87C159.93 680.51 157.27 689.93 166 704.39L167.76 707.31L164.64 708.68C156.958 712.574 150.123 717.951 144.53 724.5C132.31 738.63 126.81 756.29 128.21 777Z" fill="#3F3D56"/>
<path d="M423.45 749.84C410.61 758.32 404.57 771.84 401.95 780H310C302.69 756.89 305.15 744.59 305.15 744.59C311.38 755.41 318.26 758.36 318.26 758.36C325.8 744.59 322.85 707.55 322.85 707.55C336.62 720.33 335.31 748.86 335.31 748.86C345.07 714.05 367.41 703.45 367.76 703.29C353.34 726.89 352.68 761.64 352.68 761.64C370.39 733.45 404.15 736.73 404.15 736.73C379.57 744.92 378.58 769.84 378.58 769.84C395.25 751.15 423.45 749.84 423.45 749.84Z" fill="white"/>
<path d="M404.129 783H307.749L307.089 780.91C299.629 757.33 302.089 744.54 302.149 744.01L303.719 736.19L307.719 743.1C310.014 747.309 313.129 751.015 316.879 754C322.239 739.37 319.879 708.13 319.809 707.8L319.199 700.12L324.839 705.36C332.779 712.73 336.069 724.6 337.409 734.11C348.779 708.92 366.259 700.66 366.459 700.57L375.379 696.5L370.269 704.86C361.049 719.96 357.619 740.03 356.359 751.86C375.359 731.24 403.089 733.64 404.359 733.77L418.429 735.13L405.019 739.6C399.944 741.232 395.331 744.051 391.564 747.823C387.797 751.596 384.984 756.212 383.359 761.29C400.429 748.1 422.229 746.92 423.279 746.87L434.159 746.37L425.069 752.37C412.789 760.49 407.069 773.76 404.769 780.95L404.129 783ZM376.129 777H399.799C402.719 768.603 407.346 760.901 413.389 754.38C404.069 756.44 390.319 761.16 380.769 771.84L376.129 777ZM312.129 777H375.219L375.509 769.72C375.509 769.5 376.409 751.86 390.689 740.52C379.909 742.36 364.849 747.77 355.139 763.24L349.399 772.38L349.599 761.58C349.599 760.35 350.219 735.22 359.469 712.95C352.469 719.38 343.389 730.85 338.119 749.67L331.059 774.83L332.229 748.72C332.229 748.5 332.959 730.24 326.229 717.25C326.579 729.51 326.229 749.9 320.789 759.8L319.479 762.19L316.979 761.12C316.739 761.02 312.579 759.18 307.749 753.61C308.287 761.554 309.768 769.406 312.159 777H312.129Z" fill="#3F3D56"/>
<path d="M302.61 446.29C310.591 446.29 317.06 439.82 317.06 431.84C317.06 423.859 310.591 417.39 302.61 417.39C294.63 417.39 288.16 423.859 288.16 431.84C288.16 439.82 294.63 446.29 302.61 446.29Z" fill="#3F3D56"/>
<path d="M290.95 426.49L282.14 419.71L270.79 424.89L269.13 421.25L282.67 415.07L293.39 423.32L290.95 426.49Z" fill="#3F3D56"/>
<path d="M269.92 438.3L267.08 435.48L277.42 425.05L291.07 428.78L290.02 432.64L278.62 429.52L269.92 438.3ZM278.04 450.75L274.33 449.25L279.71 436.02L291.36 434.9L291.74 438.88L282.5 439.77L278.04 450.75ZM313.48 426.49L311.04 423.32L321.76 415.07L335.3 421.25L333.64 424.89L322.29 419.71L313.48 426.49Z" fill="#3F3D56"/>
<path d="M334.51 438.3L325.81 429.52L314.41 432.64L313.36 428.78L327.01 425.05L337.35 435.48L334.51 438.3ZM326.4 450.75L321.93 439.77L312.69 438.88L313.08 434.9L324.72 436.02L330.1 449.25L326.4 450.75ZM300.11 310H305.11V421.15H300.11V310Z" fill="#3F3D56"/>
</svg>
