<svg width="24" height="24" viewBox="0 0 24 24" fill="none" xmlns="http://www.w3.org/2000/svg">
<g clip-path="url(#clip0_1573_771)">
<path d="M12 4C11.4469 4 11 4.44687 11 5V5.6C8.71878 6.0625 7.00003 8.08125 7.00003 10.5V11.2937C7.00003 12.7125 6.51566 14.0906 5.63128 15.1969L5.16566 15.7812C4.98441 16.0062 4.95003 16.3156 5.07503 16.575C5.20003 16.8344 5.46253 17 5.75003 17H18.25C18.5375 17 18.8 16.8344 18.925 16.575C19.05 16.3156 19.0157 16.0062 18.8344 15.7812L18.3688 15.2C17.4844 14.0906 17 12.7125 17 11.2937V10.5C17 8.08125 15.2813 6.0625 13 5.6V5C13 4.44687 12.5532 4 12 4ZM12 7C13.9344 7 15.5 8.56562 15.5 10.5V11.2937C15.5 12.7906 15.9344 14.25 16.7407 15.5H7.25941C8.06566 14.25 8.50003 12.7906 8.50003 11.2937V10.5C8.50003 8.56562 10.0657 7 12 7ZM14 18H10C10 18.5312 10.2094 19.0406 10.5844 19.4156C10.9594 19.7906 11.4688 20 12 20C12.5313 20 13.0407 19.7906 13.4157 19.4156C13.7907 19.0406 14 18.5312 14 18Z" fill="white"/>
</g>
<defs>
<clipPath id="clip0_1573_771">
<rect width="14" height="16" fill="white" transform="translate(5 4)"/>
</clipPath>
</defs>
</svg>
