<svg width="77" height="24" viewBox="0 0 77 24" fill="none" xmlns="http://www.w3.org/2000/svg">
<g clip-path="url(#clip0_2625_1094)">
<path fill-rule="evenodd" clip-rule="evenodd" d="M21.1901 20.2401C18.8191 22.4939 15.6612 23.7319 12.3901 23.6901C9.10285 23.7397 5.92654 22.5015 3.54015 20.2401C2.41732 19.1512 1.52461 17.848 0.914975 16.4076C0.305344 14.9672 -0.00878906 13.4191 -0.00878906 11.8551C-0.00878906 10.291 0.305344 8.74285 0.914975 7.30249C1.52461 5.86213 2.41732 4.55888 3.54015 3.47005C5.9235 1.19523 9.10582 -0.0511214 12.4001 5.08399e-05C15.6712 -0.0418008 18.8291 1.19624 21.2001 3.45005C22.3242 4.53816 23.218 5.84118 23.8285 7.28164C24.4389 8.7221 24.7535 10.2706 24.7535 11.8351C24.7535 13.3995 24.4389 14.948 23.8285 16.3885C23.218 17.8289 22.3242 19.1319 21.2001 20.2201M12.4001 3.86005C11.356 3.84996 10.3207 4.0515 9.3566 4.45253C8.39252 4.85356 7.51967 5.44575 6.79074 6.19338C6.0618 6.941 5.4919 7.82855 5.1154 8.80248C4.7389 9.77641 4.56363 10.8165 4.60015 11.8601C4.60015 12.8817 4.80138 13.8934 5.19237 14.8373C5.58335 15.7812 6.15642 16.6389 6.87886 17.3613C7.6013 18.0838 8.45896 18.6569 9.40287 19.0478C10.3468 19.4388 11.3585 19.6401 12.3801 19.6401C13.4018 19.6401 14.4135 19.4388 15.3574 19.0478C16.3013 18.6569 17.159 18.0838 17.8814 17.3613C18.6039 16.6389 19.177 15.7812 19.5679 14.8373C19.9589 13.8934 20.1601 12.8817 20.1601 11.8601C20.1965 10.8199 20.0225 9.78314 19.6484 8.8119C19.2744 7.84066 18.708 6.95496 17.9834 6.2079C17.2588 5.46084 16.3907 4.86781 15.4313 4.46437C14.4719 4.06092 13.4409 3.85538 12.4001 3.86005ZM50.4002 2.79005L40.8901 24.0001L40.3501 23.9001C37.6301 23.4101 37.0802 22.7301 35.8102 19.9701L28.6801 4.44005H26.0001V0.670051H36.1301V4.44005H33.7101L39.4401 17.2901L45.0001 4.44005H42.0001V0.670051H50.4002V2.79005ZM73.4001 20.2401C70.9985 22.4581 67.8493 23.6898 64.5801 23.6898C61.311 23.6898 58.1618 22.4581 55.7601 20.2401C54.6373 19.1512 53.7446 17.848 53.135 16.4076C52.5253 14.9672 52.2112 13.4191 52.2112 11.8551C52.2112 10.291 52.5253 8.74285 53.135 7.30249C53.7446 5.86213 54.6373 4.55888 55.7601 3.47005C58.1618 1.25204 61.311 0.0203179 64.5801 0.0203179C67.8493 0.0203179 70.9985 1.25204 73.4001 3.47005C74.5267 4.55672 75.4228 5.85927 76.0348 7.29992C76.6468 8.74058 76.9622 10.2898 76.9622 11.8551C76.9622 13.4203 76.6468 14.9695 76.0348 16.4102C75.4228 17.8508 74.5267 19.1534 73.4001 20.2401ZM64.6501 3.86005C63.6056 3.85001 62.5698 4.05152 61.6052 4.45244C60.6406 4.85335 59.7671 5.44538 59.0374 6.19285C58.3077 6.94032 57.7368 7.82777 57.3592 8.80174C56.9816 9.77571 56.805 10.816 56.8401 11.8601C56.8401 12.8817 57.0414 13.8934 57.4324 14.8373C57.8233 15.7812 58.3964 16.6389 59.1189 17.3613C59.8413 18.0838 60.699 18.6569 61.6429 19.0478C62.5868 19.4388 63.5985 19.6401 64.6201 19.6401C65.6418 19.6401 66.6535 19.4388 67.5974 19.0478C68.5413 18.6569 69.399 18.0838 70.1214 17.3613C70.8439 16.6389 71.4169 15.7812 71.8079 14.8373C72.1989 13.8934 72.4001 12.8817 72.4001 11.8601C72.4379 10.8204 72.2651 9.78385 71.8922 8.81265C71.5193 7.84145 70.9539 6.95564 70.23 6.20843C69.5062 5.46122 68.6388 4.86802 67.6799 4.46447C66.721 4.06091 65.6905 3.85532 64.6501 3.86005Z" fill="#4B2489"/>
</g>
<defs>
<clipPath id="clip0_2625_1094">
<rect width="77" height="24" fill="white"/>
</clipPath>
</defs>
</svg>
