<svg width="29" height="29" viewBox="0 0 29 29" fill="none" xmlns="http://www.w3.org/2000/svg">
<path d="M8.08375 4.51333C8.21284 4.35234 8.3731 4.2231 8.5535 4.13448C8.73389 4.04586 8.93014 3.99999 9.12875 4H20.8713C21.0699 3.99999 21.2661 4.04586 21.4465 4.13448C21.6269 4.2231 21.7872 4.35234 21.9163 4.51333L25.5036 8.97787C25.8239 9.37655 26 9.88428 26 10.4093V10.7833C26.0001 11.5093 25.7875 12.2171 25.392 12.808C24.9965 13.3988 24.4378 13.843 23.7941 14.0786C23.1503 14.3141 22.4536 14.3293 21.8014 14.1219C21.1492 13.9145 20.574 13.4949 20.1562 12.9217C19.8513 13.3409 19.4603 13.6801 19.0135 13.9132C18.5666 14.1464 18.0756 14.2673 17.5781 14.2667C17.0807 14.2673 16.5897 14.1464 16.1428 13.9132C15.6959 13.6801 15.305 13.3409 15 12.9217C14.695 13.3409 14.3041 13.6801 13.8572 13.9132C13.4103 14.1464 12.9193 14.2673 12.4219 14.2667C11.9244 14.2673 11.4334 14.1464 10.9865 13.9132C10.5397 13.6801 10.1487 13.3409 9.84375 12.9217C9.42601 13.4949 8.85084 13.9145 8.19861 14.1219C7.54639 14.3293 6.84971 14.3141 6.20595 14.0786C5.56218 13.843 5.00351 13.3988 4.608 12.808C4.21249 12.2171 3.99992 11.5093 4 10.7833V10.4093C4.00002 9.88428 4.17608 9.37655 4.49637 8.97787L8.08375 4.51333ZM10.5312 10.7833C10.5312 11.3182 10.7304 11.8311 11.085 12.2093C11.4396 12.5875 11.9205 12.8 12.4219 12.8C12.9233 12.8 13.4042 12.5875 13.7587 12.2093C14.1133 11.8311 14.3125 11.3182 14.3125 10.7833C14.3125 10.5888 14.3849 10.4023 14.5139 10.2648C14.6428 10.1273 14.8177 10.05 15 10.05C15.1823 10.05 15.3572 10.1273 15.4861 10.2648C15.6151 10.4023 15.6875 10.5888 15.6875 10.7833C15.6875 11.3182 15.8867 11.8311 16.2413 12.2093C16.5958 12.5875 17.0767 12.8 17.5781 12.8C18.0795 12.8 18.5604 12.5875 18.915 12.2093C19.2696 11.8311 19.4688 11.3182 19.4688 10.7833C19.4688 10.5888 19.5412 10.4023 19.6701 10.2648C19.799 10.1273 19.9739 10.05 20.1562 10.05C20.3386 10.05 20.5135 10.1273 20.6424 10.2648C20.7713 10.4023 20.8438 10.5888 20.8438 10.7833C20.8438 11.3182 21.0429 11.8311 21.3975 12.2093C21.7521 12.5875 22.233 12.8 22.7344 12.8C23.2358 12.8 23.7167 12.5875 24.0712 12.2093C24.4258 11.8311 24.625 11.3182 24.625 10.7833V10.4093C24.625 10.2345 24.5665 10.0655 24.46 9.93267L20.8713 5.46667H9.12875L5.54 9.93267C5.4335 10.0655 5.37499 10.2345 5.375 10.4093V10.7833C5.375 11.3182 5.57419 11.8311 5.92875 12.2093C6.28331 12.5875 6.7642 12.8 7.26562 12.8C7.76705 12.8 8.24794 12.5875 8.6025 12.2093C8.95706 11.8311 9.15625 11.3182 9.15625 10.7833C9.15625 10.5888 9.22868 10.4023 9.35761 10.2648C9.48655 10.1273 9.66141 10.05 9.84375 10.05C10.0261 10.05 10.201 10.1273 10.3299 10.2648C10.4588 10.4023 10.5312 10.5888 10.5312 10.7833ZM6.0625 15C6.24484 15 6.4197 15.0773 6.54864 15.2148C6.67757 15.3523 6.75 15.5388 6.75 15.7333V24.5333H8.125V17.2C8.125 16.811 8.26987 16.438 8.52773 16.1629C8.78559 15.8879 9.13533 15.7333 9.5 15.7333H13.625C13.9897 15.7333 14.3394 15.8879 14.5973 16.1629C14.8551 16.438 15 16.811 15 17.2V24.5333H23.25V15.7333C23.25 15.5388 23.3224 15.3523 23.4514 15.2148C23.5803 15.0773 23.7552 15 23.9375 15C24.1198 15 24.2947 15.0773 24.4236 15.2148C24.5526 15.3523 24.625 15.5388 24.625 15.7333V24.5333H25.3125C25.4948 24.5333 25.6697 24.6106 25.7986 24.7481C25.9276 24.8856 26 25.0722 26 25.2667C26 25.4612 25.9276 25.6477 25.7986 25.7852C25.6697 25.9227 25.4948 26 25.3125 26H4.6875C4.50516 26 4.3303 25.9227 4.20136 25.7852C4.07243 25.6477 4 25.4612 4 25.2667C4 25.0722 4.07243 24.8856 4.20136 24.7481C4.3303 24.6106 4.50516 24.5333 4.6875 24.5333H5.375V15.7333C5.375 15.5388 5.44743 15.3523 5.57636 15.2148C5.7053 15.0773 5.88016 15 6.0625 15ZM9.5 24.5333H13.625V17.2H9.5V24.5333ZM16.375 17.2C16.375 16.811 16.5199 16.438 16.7777 16.1629C17.0356 15.8879 17.3853 15.7333 17.75 15.7333H20.5C20.8647 15.7333 21.2144 15.8879 21.4723 16.1629C21.7301 16.438 21.875 16.811 21.875 17.2V21.6C21.875 21.989 21.7301 22.362 21.4723 22.6371C21.2144 22.9121 20.8647 23.0667 20.5 23.0667H17.75C17.3853 23.0667 17.0356 22.9121 16.7777 22.6371C16.5199 22.362 16.375 21.989 16.375 21.6V17.2ZM20.5 17.2H17.75V21.6H20.5V17.2Z" fill="#FCC548"/>
</svg>
