<svg width="45" height="45" viewBox="0 0 45 45" fill="none" xmlns="http://www.w3.org/2000/svg">
<path fill-rule="evenodd" clip-rule="evenodd" d="M10.4737 8.59875C9.375 9.6975 9.375 11.4637 9.375 15V31.875C9.375 35.4112 9.375 37.1775 10.4737 38.2762C11.5725 39.375 13.3387 39.375 16.875 39.375H25.7008C28.7008 38.5 30.7252 37.7748 32 36.5C33 35.5 35 34 35.625 30.5492V15C35.625 11.4637 35.625 9.6975 34.5262 8.59875C33.4275 7.5 31.6612 7.5 28.125 7.5H16.875C13.3387 7.5 11.5725 7.5 10.4737 8.59875ZM16.875 15C16.3777 15 15.9008 15.1975 15.5492 15.5492C15.1975 15.9008 15 16.3777 15 16.875C15 17.3723 15.1975 17.8492 15.5492 18.2008C15.9008 18.5525 16.3777 18.75 16.875 18.75H28.125C28.6223 18.75 29.0992 18.5525 29.4508 18.2008C29.8025 17.8492 30 17.3723 30 16.875C30 16.3777 29.8025 15.9008 29.4508 15.5492C29.0992 15.1975 28.6223 15 28.125 15H16.875ZM16.875 22.5C16.3777 22.5 15.9008 22.6975 15.5492 23.0492C15.1975 23.4008 15 23.8777 15 24.375C15 24.8723 15.1975 25.3492 15.5492 25.7008C15.9008 26.0525 16.3777 26.25 16.875 26.25H28.125C28.6223 26.25 29.0992 26.0525 29.4508 25.7008C29.8025 25.3492 30 24.8723 30 24.375C30 23.8777 29.8025 23.4008 29.4508 23.0492C29.0992 22.6975 28.6223 22.5 28.125 22.5H16.875ZM16.875 30C16.3777 30 15.9008 30.1975 15.5492 30.5492C15.1975 30.9008 15 31.3777 15 31.875C15 32.3723 15.1975 32.8492 15.5492 33.2008C15.9008 33.5525 16.3777 33.75 16.875 33.75H24.375C24.8723 33.75 25.3492 33.5525 25.7008 33.2008C26.0525 32.8492 26.25 32.3723 26.25 31.875C26.25 31.3777 26.0525 30.9008 25.7008 30.5492C25.3492 30.1975 24.8723 30 24.375 30H16.875Z" fill="#D9D9D9"/>
</svg>
