<svg width="691" height="707" viewBox="0 0 691 707" fill="none" xmlns="http://www.w3.org/2000/svg">
<path d="M657.35 171.57L646.72 169.25L644.3 158.64C644.259 158.458 644.158 158.296 644.012 158.18C643.867 158.063 643.686 158 643.5 158C643.313 158.001 643.132 158.065 642.985 158.181C642.838 158.297 642.735 158.458 642.69 158.64L640.27 169.3L629.64 171.82C629.457 171.865 629.294 171.97 629.178 172.119C629.062 172.268 628.999 172.451 629 172.64C629.001 172.826 629.066 173.007 629.185 173.151C629.303 173.294 629.467 173.393 629.65 173.43L640.28 175.75L642.69 186.36C642.735 186.542 642.838 186.703 642.985 186.819C643.132 186.935 643.313 186.999 643.5 187C643.686 187 643.867 186.937 644.012 186.82C644.158 186.704 644.259 186.542 644.3 186.36L646.73 175.7L657.36 173.18C657.547 173.144 657.715 173.044 657.836 172.897C657.958 172.75 658.024 172.565 658.024 172.375C658.024 172.185 657.958 172 657.836 171.853C657.715 171.706 657.547 171.606 657.36 171.57H657.35ZM37.35 325.57L26.72 323.25L24.3 312.64C24.2591 312.458 24.1576 312.296 24.0122 312.18C23.8669 312.063 23.6862 312 23.5 312C23.313 312.001 23.1318 312.065 22.9851 312.181C22.8384 312.297 22.7345 312.458 22.69 312.64L20.27 323.3L9.64002 325.82C9.45675 325.865 9.29391 325.97 9.17781 326.119C9.0617 326.268 8.99908 326.451 9.00001 326.64C9.00094 326.826 9.06611 327.007 9.18452 327.151C9.30293 327.294 9.46732 327.393 9.65 327.43L20.28 329.75L22.69 340.36C22.7345 340.542 22.8384 340.703 22.9851 340.819C23.1318 340.935 23.313 340.999 23.5 341C23.6862 341 23.8669 340.937 24.0122 340.82C24.1576 340.704 24.2591 340.542 24.3 340.36L26.73 329.7L37.36 327.18C37.5469 327.144 37.7154 327.044 37.8365 326.897C37.9576 326.75 38.0239 326.565 38.0239 326.375C38.0239 326.185 37.9576 326 37.8365 325.853C37.7154 325.706 37.5469 325.606 37.36 325.57H37.35ZM603.66 129L598.16 127.8L596.92 122.31C596.899 122.214 596.846 122.129 596.769 122.067C596.693 122.006 596.598 121.972 596.5 121.972C596.402 121.972 596.307 122.006 596.231 122.067C596.154 122.129 596.101 122.214 596.08 122.31L594.83 127.83L589.33 129.13C589.236 129.153 589.152 129.206 589.092 129.283C589.032 129.359 589 129.453 589 129.55C589.001 129.647 589.035 129.741 589.097 129.816C589.159 129.891 589.245 129.941 589.34 129.96L594.84 131.16L596.08 136.65C596.101 136.746 596.154 136.831 596.231 136.893C596.307 136.954 596.402 136.988 596.5 136.988C596.598 136.988 596.693 136.954 596.769 136.893C596.846 136.831 596.899 136.746 596.92 136.65L598.17 131.13L603.67 129.83C603.763 129.806 603.846 129.752 603.906 129.676C603.966 129.6 603.999 129.506 604 129.41C603.999 129.313 603.965 129.219 603.903 129.144C603.841 129.069 603.755 129.018 603.66 129Z" fill="#3F3D56"/>
<path d="M30.0006 29.66L30.6806 12.3599C30.7608 10.3947 31.3073 8.47673 32.275 6.76439C33.2428 5.05205 34.6039 3.59448 36.2462 2.51204C37.8884 1.4296 39.7646 0.753343 41.7197 0.53911C43.6749 0.324877 45.653 0.578811 47.4906 1.27995C49.3299 1.98238 50.9754 3.11303 52.2906 4.5782C53.6058 6.04338 54.5528 7.8009 55.0533 9.7051C55.5538 11.6093 55.5933 13.6053 55.1685 15.5278C54.7437 17.4503 53.8669 19.2439 52.6106 20.76L41.6106 34.1L30.0006 29.66ZM25.2907 42.07L14.2907 55.41C13.0365 56.9259 12.1615 58.7187 11.7379 60.6401C11.3142 62.5614 11.3543 64.556 11.8546 66.4588C12.355 68.3615 13.3013 70.1178 14.6153 71.5822C15.9292 73.0466 17.573 74.177 19.4106 74.88C21.2482 75.5834 23.2269 75.8391 25.183 75.6259C27.139 75.4127 29.0162 74.7367 30.6591 73.6538C32.3019 72.571 33.6633 71.1124 34.6304 69.3988C35.5975 67.6853 36.1427 65.766 36.2206 63.7999L36.9106 46.5L25.2907 42.07Z" fill="#FFC700"/>
<path d="M18.3408 32.4701L23.7408 43.9202C24.7894 46.1391 26.676 47.851 28.9861 48.6798C31.2962 49.5086 33.8408 49.3864 36.0608 48.3401L47.1208 43.1301L41.7308 31.6801C40.682 29.4612 38.7961 27.7488 36.4866 26.9184C34.1771 26.0879 31.6325 26.2072 29.4108 27.2501L18.3408 32.4701Z" fill="#3F3D56"/>
<path d="M14.8407 39.3698C19.4854 39.3698 23.2507 35.6045 23.2507 30.9598C23.2507 26.3151 19.4854 22.5498 14.8407 22.5498C10.196 22.5498 6.43066 26.3151 6.43066 30.9598C6.43066 35.6045 10.196 39.3698 14.8407 39.3698Z" fill="#3F3D56"/>
<path d="M2.22461 23.2378L6.20033 18.7441L11.8699 23.7601L7.89421 28.2538L2.22461 23.2378Z" fill="#3F3D56"/>
<path d="M0.21875 34.2769L0.258543 28.277L7.82838 28.3272L7.78859 34.3271L0.21875 34.2769Z" fill="#3F3D56"/>
<path d="M196.111 407L190.241 405.79C190.801 403.08 191.331 400.34 191.841 397.64L197.731 398.73C197.231 401.48 196.681 404.26 196.111 407ZM200.231 383.83L194.301 383C195.041 378 195.671 373.06 196.191 368.25L202.191 368.88C201.631 373.74 201.001 378.78 200.231 383.84V383.83ZM203.411 353.75L197.411 353.39C197.711 348.39 197.881 343.39 197.911 338.56H203.911C203.881 343.53 203.711 348.63 203.411 353.76V353.75ZM197.571 323.75C197.291 318.75 196.851 313.75 196.251 309.03L202.251 308.29C202.861 313.17 203.321 318.29 203.601 323.42L197.571 323.75ZM193.841 294.49C192.841 289.6 191.591 284.81 190.191 280.25L195.921 278.49C197.381 283.22 198.661 288.19 199.721 293.27L193.841 294.49ZM138.841 268.49C137.071 268.49 135.271 268.42 133.481 268.29L133.931 262.29C135.571 262.42 137.281 262.46 138.841 262.48C141.965 262.483 145.085 262.239 148.171 261.75L149.171 267.67C145.767 268.209 142.326 268.473 138.881 268.46L138.841 268.49ZM185.101 266.49C183.175 262.026 180.978 257.685 178.521 253.49L183.701 250.49C186.282 254.915 188.589 259.493 190.611 264.2L185.101 266.49ZM118.001 264.71C112.996 262.549 108.517 259.332 104.871 255.28L109.351 251.28C112.426 254.691 116.202 257.396 120.421 259.21L118.001 264.71ZM164.301 263.08L161.781 257.64C166.057 255.677 170.009 253.074 173.501 249.92L177.551 254.35C173.589 257.921 169.103 260.866 164.251 263.08H164.301ZM170.431 241.41C167.437 237.594 164.157 234.01 160.621 230.69L164.721 226.31C168.465 229.838 171.935 233.646 175.101 237.7L170.431 241.41ZM186.761 241.41L181.481 238.56C183.797 234.29 185.802 229.859 187.481 225.3L193.111 227.38C191.316 232.191 189.177 236.866 186.711 241.37L186.761 241.41ZM97.1307 241.1C96.6125 239.305 96.2117 237.478 95.9307 235.63C95.7228 234.307 95.6191 232.97 95.6207 231.63C95.6207 229.261 95.9574 226.904 96.6207 224.63L102.381 226.3C101.887 228.023 101.638 229.808 101.641 231.6C101.641 232.631 101.721 233.661 101.881 234.68C102.115 236.276 102.449 237.856 102.881 239.41L97.1307 241.1ZM149.261 221.76C145.635 219.297 141.736 217.263 137.641 215.7L136.711 215.44L138.291 209.65L139.361 209.95C144.023 211.654 148.455 213.935 152.551 216.74L149.261 221.76ZM109.911 216.38L106.781 211.27C111.561 208.499 117.018 207.114 122.541 207.27H122.741L122.691 213.27H122.541C118.111 213.099 113.721 214.162 109.861 216.34L109.911 216.38ZM197.281 212.46L191.381 211.35C192.279 206.612 192.747 201.803 192.781 196.98H198.781C198.727 202.163 198.209 207.33 197.231 212.42L197.281 212.46ZM191.581 182.62C190.739 177.864 189.518 173.182 187.931 168.62L193.601 166.62C195.298 171.491 196.599 176.49 197.491 181.57L191.581 182.62ZM182.201 155.23C179.968 150.882 177.487 146.665 174.771 142.6L179.771 139.28C182.612 143.534 185.206 147.948 187.541 152.5L182.201 155.23ZM166.001 130.72C163.001 127.02 159.721 123.29 156.241 119.62L160.591 115.49C164.181 119.27 167.591 123.12 170.661 126.94L166.001 130.72ZM145.681 109.23C142.151 105.97 138.381 102.68 134.481 99.4601L138.311 94.8301C142.311 98.1201 146.141 101.48 149.751 104.83L145.681 109.23ZM122.781 90.2302C118.901 87.3302 114.781 84.4201 110.661 81.5801L114.041 76.5801C118.271 79.4701 122.421 82.4402 126.371 85.3902L122.781 90.2302ZM98.1807 73.4202C94.0107 70.8102 89.7007 68.2202 85.3907 65.7302L88.3907 60.5302C92.7607 63.0602 97.1307 65.6801 101.391 68.3401L98.1807 73.4202ZM72.3207 58.5201C64.1807 54.2301 59.0207 51.9102 58.9707 51.8802L61.4307 46.4102C61.6507 46.5102 66.7907 48.8301 75.1207 53.2101L72.3207 58.5201Z" fill="#3F3D56"/>
<path d="M493.901 211.39L469.701 203.25L467.311 134.44C496.891 111.99 480.311 95.8999 480.311 95.8999L479.051 64.4199H361.001C339.001 192.71 394.941 180.42 394.941 180.42L393.521 207.15L363.821 220.42L365.001 272H498.001L493.901 211.39Z" fill="white"/>
<path d="M501.21 275H362.07L360.78 218.52L390.62 205.18L391.76 183.76C387.708 183.827 383.683 183.088 379.92 181.584C376.156 180.08 372.73 177.842 369.84 175C352.26 158.21 348.29 120.83 358.04 63.9001L358.47 61.4102H482L483.33 94.7002C486.632 98.8004 488.283 103.986 487.96 109.24C487.41 118.18 481.51 127.13 470.41 135.86L472.68 201.06L496.8 209.18L501.21 275ZM367.93 269H494.79L491 213.59L466.74 205.43L464.26 133L465.5 132.06C475.79 124.24 481.5 116.23 481.92 108.9C482.175 104.942 480.852 101.045 478.24 98.0602L477.38 97.2302L476.18 67.4301H363.53C352.53 133.9 363.08 160.27 373.98 170.68C383.5 179.76 394.19 177.55 394.29 177.52L398.14 176.68L396.42 209.17L366.87 222.38L367.93 269Z" fill="#3F3D56"/>
<path d="M428.211 71.32C428.211 71.32 402.95 87.67 359.86 71.32L357.771 86.38C357.771 86.38 338.77 72.85 343.87 47.81C343.87 47.81 346.431 31.96 373.011 28.89C373.011 28.89 384.25 5.88998 408.79 15.6C408.79 15.6 427.191 4.35998 445.081 21.23C445.081 21.23 460.92 20.72 463.48 33.49C463.48 33.49 489.541 30.43 496.701 54.49C496.701 54.49 500.791 85.18 478.811 98.49C478.811 98.49 462.96 88.24 455.81 109.71L446.61 112.27L444.56 97.96C444.56 97.96 430.761 93.81 428.211 71.32Z" fill="#3F3D56"/>
<path d="M367.131 125.45C363.45 125.45 359.852 124.359 356.791 122.314C353.731 120.269 351.346 117.362 349.937 113.962C348.529 110.561 348.16 106.819 348.878 103.209C349.596 99.5994 351.369 96.2834 353.971 93.6807C356.574 91.0781 359.89 89.3056 363.5 88.5876C367.11 87.8695 370.852 88.238 374.252 89.6466C377.653 91.0551 380.559 93.4404 382.604 96.5008C384.649 99.5612 385.741 103.159 385.741 106.84C385.735 111.774 383.773 116.504 380.284 119.993C376.795 123.482 372.065 125.445 367.131 125.45ZM367.131 92.23C364.241 92.23 361.416 93.0869 359.014 94.6922C356.611 96.2976 354.738 98.5794 353.633 101.249C352.527 103.919 352.238 106.856 352.801 109.69C353.365 112.524 354.756 115.128 356.8 117.171C358.843 119.214 361.446 120.606 364.28 121.169C367.114 121.733 370.052 121.444 372.722 120.338C375.391 119.232 377.673 117.359 379.278 114.957C380.884 112.554 381.741 109.73 381.741 106.84C381.738 102.966 380.198 99.2514 377.458 96.5121C374.719 93.7727 371.005 92.2326 367.131 92.23ZM407.001 125.45C403.32 125.45 399.722 124.359 396.661 122.314C393.601 120.269 391.216 117.362 389.807 113.962C388.399 110.561 388.03 106.819 388.748 103.209C389.466 99.5994 391.239 96.2834 393.841 93.6807C396.444 91.0781 399.76 89.3056 403.37 88.5876C406.98 87.8695 410.722 88.238 414.122 89.6466C417.523 91.0551 420.429 93.4404 422.474 96.5008C424.519 99.5612 425.611 103.159 425.611 106.84C425.605 111.774 423.643 116.504 420.154 119.993C416.665 123.482 411.935 125.445 407.001 125.45ZM407.001 92.23C404.111 92.23 401.286 93.0869 398.884 94.6922C396.481 96.2976 394.608 98.5794 393.503 101.249C392.397 103.919 392.108 106.856 392.671 109.69C393.235 112.524 394.626 115.128 396.67 117.171C398.713 119.214 401.316 120.606 404.15 121.169C406.984 121.733 409.922 121.444 412.592 120.338C415.261 119.232 417.543 117.359 419.148 114.957C420.754 112.554 421.611 109.73 421.611 106.84C421.608 102.966 420.068 99.2514 417.328 96.5121C414.589 93.7727 410.875 92.2326 407.001 92.23Z" fill="#3F3D56"/>
<path d="M367.38 113.74C369.921 113.74 371.98 111.681 371.98 109.14C371.98 106.6 369.921 104.54 367.38 104.54C364.84 104.54 362.78 106.6 362.78 109.14C362.78 111.681 364.84 113.74 367.38 113.74Z" fill="#3F3D56"/>
<path d="M407 114C409.541 114 411.6 111.94 411.6 109.4C411.6 106.859 409.541 104.8 407 104.8C404.46 104.8 402.4 106.859 402.4 109.4C402.4 111.94 404.46 114 407 114Z" fill="#3F3D56"/>
<path d="M423.316 102.837L445.924 99.5186L446.505 103.476L423.897 106.795L423.316 102.837Z" fill="#3F3D56"/>
<path d="M392.74 137.71L375.43 135.92L386.17 103.8L389.97 105.07L380.81 132.45L393.15 133.73L392.74 137.71ZM382.23 90.2698C382.15 90.1998 374.13 83.9398 358.4 85.9098L357.9 81.9098C375.45 79.7198 384.38 86.8298 384.75 87.1298L382.22 90.2298L383.48 88.6798L382.23 90.2698ZM394.46 89.7598L391.46 87.1598C391.58 87.0198 403.26 73.7398 422.4 85.7598L420.27 89.1498C404.1 78.9998 394.84 89.3198 394.46 89.7598ZM379.51 155C379.086 154.583 378.76 154.077 378.556 153.519C378.352 152.961 378.275 152.364 378.33 151.772C378.386 151.18 378.573 150.608 378.877 150.097C379.182 149.586 379.596 149.15 380.09 148.82C381.601 147.791 383.374 147.215 385.2 147.16C389.96 147.02 396.26 150.08 399.2 151.66C399.395 151.763 399.562 151.913 399.686 152.094C399.811 152.276 399.89 152.486 399.917 152.704C399.943 152.923 399.916 153.145 399.839 153.352C399.761 153.558 399.635 153.743 399.47 153.89C396.17 156.79 386.12 161.88 379.51 155Z" fill="#3F3D56"/>
<path d="M375 215C375 215 379 263 433 261C433 261 477.5 256.5 490.5 210.5C490.5 210.5 549.96 225.36 598.34 251.2C607.281 255.982 615.14 262.558 621.424 270.516C627.708 278.474 632.282 287.643 634.86 297.45L677 440L570 441L557.5 418.5L576.5 673.5H301.5L294.5 464.5L206.5 453.5L256.69 296.5C260.396 284.884 266.537 274.192 274.704 265.139C282.871 256.085 292.876 248.879 304.05 244L375 215Z" fill="#FFC700"/>
<path d="M579.73 676.5H298.6L291.6 467.16L202.54 456L253.83 295.51C257.67 283.496 264.026 272.438 272.475 263.073C280.925 253.708 291.273 246.251 302.83 241.2L377.63 210.65L377.97 214.72C378.14 216.63 382.52 259.79 432.76 257.98C435.46 257.68 475.48 252.51 487.59 209.65L488.38 206.85L491.21 207.56C491.81 207.71 551.58 222.81 599.73 248.56C609.023 253.552 617.191 260.4 623.728 268.679C630.265 276.958 635.031 286.493 637.73 296.69L681 443L568.24 444L561.51 431.87L579.73 676.5ZM304.4 670.5H573.27L553.49 405.11L571.76 438L673 437L632 298.3C629.517 288.883 625.124 280.076 619.092 272.43C613.06 264.783 605.52 258.458 596.94 253.85C555.32 231.62 504.79 217.41 492.55 214.13C487.053 231.938 474.748 246.857 458.31 255.64C450.551 259.913 442.08 262.738 433.31 263.98H433.12C431.99 263.98 430.89 264.04 429.8 264.04C402.68 264.04 388.46 251.31 381.26 240.38C377.057 233.932 374.128 226.74 372.63 219.19L305.2 246.73C294.433 251.441 284.794 258.393 276.924 267.121C269.054 275.85 263.135 286.155 259.56 297.35L210.46 451L297.41 461.87L304.4 670.5Z" fill="#3F3D56"/>
<path d="M127 377H505V673H127V377Z" fill="#49B38D"/>
<path d="M508 676H124V374H508V676ZM130 670H502V380H130V670Z" fill="#3F3D56"/>
<path d="M41.5 456.5H269.5L361.5 377.5H126.5L41.5 456.5Z" fill="white"/>
<path d="M270.61 459.5H33.8701L125.32 374.5H369.6L270.61 459.5ZM49.1301 453.5H268.39L353.39 380.5H127.68L49.1301 453.5Z" fill="#3F3D56"/>
<path d="M360 377H505V673H360V377Z" fill="#3F3D56"/>
<path d="M566.5 456.5H408.5L360.5 377.5H505.5L566.5 456.5Z" fill="white"/>
<path d="M572.61 459.5H406.81L355.17 374.5H507L572.61 459.5ZM410.19 453.5H560.39L504 380.5H365.83L410.19 453.5Z" fill="#3F3D56"/>
<path d="M127.001 559C127.001 559 99.4908 575.68 100.791 606C101.058 612.176 103.084 618.147 106.631 623.21C113.501 633 129.061 648.31 160.001 651C160.001 651 174.001 653 170.001 643C170.001 643 180.001 638 176.001 629C176.001 629 185.001 621 180.001 614C180.001 614 187.001 604 181.001 600C175.001 596 148.001 591 148.001 591C148.001 591 168.001 587 165.001 578C162.001 569 127.001 570.33 127.001 570.33V559Z" fill="white"/>
<path d="M162.73 654.18C161.703 654.184 160.677 654.117 159.66 653.98C127.18 651.13 110.96 634.55 104.18 624.91C100.296 619.384 98.0815 612.858 97.7999 606.11C96.4299 574.39 124.26 557.11 125.45 556.43L130 553.67V567.25C141 567.05 164.74 567.74 167.85 577.05C168.247 578.199 168.387 579.422 168.261 580.631C168.134 581.84 167.745 583.007 167.12 584.05C165.58 586.71 162.63 588.75 159.52 590.27C168 592.15 178.8 594.91 182.66 597.48C183.598 598.092 184.402 598.889 185.021 599.823C185.64 600.757 186.062 601.807 186.26 602.91C187.04 607.05 184.9 611.62 183.5 614.04C186.27 619.93 182.74 626.17 179.5 629.76C181.43 636.52 177.31 641.64 173.56 644.33C173.829 645.415 173.852 646.547 173.627 647.642C173.402 648.737 172.935 649.768 172.26 650.66C169.94 653.6 165.72 654.18 162.73 654.18ZM124 564.93C116.6 571.01 102.9 585.16 103.79 605.85C104.028 611.451 105.864 616.868 109.08 621.46C115.27 630.25 130.14 645.39 160.26 648.01H160.42C163.09 648.38 166.67 648.01 167.52 646.95C167.87 646.51 167.75 645.44 167.21 644.09L166.21 641.53L168.68 640.3C169.43 639.91 176 636.3 173.28 630.2L172.39 628.2L174.03 626.75C174.09 626.69 180.94 620.44 177.58 615.75L176.33 614L177.54 612.26C178.87 610.34 180.82 606.4 180.36 604.01C180.314 603.698 180.201 603.399 180.028 603.135C179.855 602.871 179.627 602.647 179.36 602.48C175.36 599.81 157.68 595.82 147.47 593.93L132.16 591.09L147.43 588.04C152.01 587.12 160.01 584.4 161.96 581.04C162.158 580.729 162.28 580.376 162.316 580.01C162.353 579.643 162.303 579.273 162.17 578.93C160.83 574.88 142.62 572.72 127.17 573.31L124.06 573.43L124 564.93Z" fill="#3F3D56"/>
<path d="M673.411 439.28L573.001 440.28L584.791 473.55L432.301 630.94C432.301 630.94 397.301 607.6 376.541 605.94C375.51 605.862 374.474 605.996 373.496 606.333C372.518 606.67 371.62 607.203 370.856 607.9C370.092 608.597 369.478 609.442 369.053 610.385C368.627 611.327 368.398 612.346 368.381 613.38C368.311 618.94 370.891 627.08 383.111 635.23C383.111 635.23 364.111 649.79 350.621 657.23C348.225 658.51 346.307 660.532 345.155 662.992C344.004 665.453 343.679 668.22 344.231 670.88C345.501 676.39 350.561 681.88 365.751 681.76C365.751 681.76 365.751 697.43 386.001 693.09C386.001 693.09 391.791 707.56 409.151 700.32C409.151 700.32 414.001 709.95 436.641 695.99L667.211 536.1C675.063 530.657 681.049 522.929 684.357 513.966C687.665 505.003 688.134 495.239 685.701 486L673.411 439.28Z" fill="white"/>
<path d="M416.571 706.61C415.166 706.621 413.766 706.44 412.411 706.07C410.897 705.657 409.491 704.92 408.291 703.91C402.631 705.91 397.501 705.91 393.001 704.01C389.423 702.456 386.418 699.828 384.401 696.49C377.571 697.57 372.161 696.49 368.291 693.4C365.645 691.189 363.826 688.147 363.131 684.77C347.551 684.2 342.641 677.39 341.311 671.6C340.617 668.306 341.007 664.876 342.424 661.823C343.841 658.769 346.207 656.256 349.171 654.66C359.001 649.22 372.061 639.77 378.041 635.33C367.551 627.17 365.311 619.01 365.381 613.39C365.402 611.946 365.72 610.521 366.313 609.204C366.906 607.887 367.762 606.706 368.829 605.732C369.896 604.759 371.152 604.014 372.517 603.544C373.883 603.074 375.331 602.889 376.771 603C395.331 604.44 423.871 622 431.861 627.08L581.341 472.8L568.771 437.32L675.711 436.26L688.601 485.26C691.171 495.096 690.662 505.484 687.143 515.023C683.624 524.561 677.264 532.79 668.921 538.6L438.281 698.6H438.211C429.561 703.93 422.301 706.61 416.571 706.61ZM411.811 699C413.051 700.77 419.451 703.11 434.991 693.54L665.501 533.64C672.831 528.531 678.419 521.299 681.513 512.916C684.606 504.534 685.055 495.405 682.801 486.76L671.101 442.3L577.231 443.24L588.231 474.3L432.711 634.82L430.631 633.43C430.291 633.21 396.041 610.52 376.311 608.98C375.686 608.931 375.059 609.011 374.467 609.216C373.875 609.421 373.331 609.745 372.871 610.17C372.408 610.585 372.037 611.092 371.78 611.658C371.524 612.225 371.388 612.838 371.381 613.46C371.291 620.2 375.921 626.88 384.781 632.78L388.271 635.11L384.931 637.66C384.151 638.26 365.561 652.45 352.071 659.91C350.244 660.873 348.779 662.402 347.894 664.268C347.009 666.134 346.752 668.236 347.161 670.26C348.481 676.02 354.741 678.9 365.731 678.81H368.731V681.81C368.796 683.142 369.127 684.447 369.704 685.649C370.281 686.851 371.092 687.926 372.091 688.81C374.901 691.05 379.361 691.53 385.361 690.25L387.831 689.72L388.771 692.07C390.124 694.95 392.466 697.25 395.371 698.55C398.851 699.99 403.091 699.68 407.981 697.65L410.801 696.47L411.811 699Z" fill="#3F3D56"/>
<path d="M393.27 353.727L417.264 301.726L422.712 304.239L398.718 356.24L393.27 353.727Z" fill="#3F3D56"/>
<path d="M341 277H347V355H341V277Z" fill="#3F3D56"/>
<path d="M268.225 304.02L273.828 301.873L291.831 348.873L286.228 351.019L268.225 304.02Z" fill="#3F3D56"/>
</svg>
