<svg width="22" height="22" viewBox="0 0 22 22" fill="none" xmlns="http://www.w3.org/2000/svg">
<path d="M4.08375 0.51333C4.21284 0.35234 4.3731 0.2231 4.5535 0.13448C4.73389 0.04586 4.93014 -9.99837e-06 5.12875 1.6347e-09H16.8713C17.0699 -9.99837e-06 17.2661 0.04586 17.4465 0.13448C17.6269 0.2231 17.7872 0.35234 17.9163 0.51333L21.5036 4.97787C21.8239 5.37655 22 5.88428 22 6.4093V6.7833C22.0001 7.5093 21.7875 8.2171 21.392 8.808C20.9965 9.3988 20.4378 9.843 19.7941 10.0786C19.1503 10.3141 18.4536 10.3293 17.8014 10.1219C17.1492 9.9145 16.574 9.4949 16.1562 8.9217C15.8513 9.3409 15.4603 9.6801 15.0135 9.9132C14.5666 10.1464 14.0756 10.2673 13.5781 10.2667C13.0807 10.2673 12.5897 10.1464 12.1428 9.9132C11.6959 9.6801 11.305 9.3409 11 8.9217C10.695 9.3409 10.3041 9.6801 9.8572 9.9132C9.4103 10.1464 8.9193 10.2673 8.4219 10.2667C7.9244 10.2673 7.4334 10.1464 6.9865 9.9132C6.5397 9.6801 6.1487 9.3409 5.84375 8.9217C5.42601 9.4949 4.85084 9.9145 4.19861 10.1219C3.54639 10.3293 2.84971 10.3141 2.20595 10.0786C1.56218 9.843 1.00351 9.3988 0.608 8.808C0.21249 8.2171 -7.99774e-05 7.5093 2.25725e-08 6.7833V6.4093C2.00226e-05 5.88428 0.17608 5.37655 0.49637 4.97787L4.08375 0.51333ZM6.5312 6.7833C6.5312 7.3182 6.7304 7.8311 7.085 8.2093C7.4396 8.5875 7.9205 8.8 8.4219 8.8C8.9233 8.8 9.4042 8.5875 9.7587 8.2093C10.1133 7.8311 10.3125 7.3182 10.3125 6.7833C10.3125 6.5888 10.3849 6.4023 10.5139 6.2648C10.6428 6.1273 10.8177 6.05 11 6.05C11.1823 6.05 11.3572 6.1273 11.4861 6.2648C11.6151 6.4023 11.6875 6.5888 11.6875 6.7833C11.6875 7.3182 11.8867 7.8311 12.2413 8.2093C12.5958 8.5875 13.0767 8.8 13.5781 8.8C14.0795 8.8 14.5604 8.5875 14.915 8.2093C15.2696 7.8311 15.4688 7.3182 15.4688 6.7833C15.4688 6.5888 15.5412 6.4023 15.6701 6.2648C15.799 6.1273 15.9739 6.05 16.1562 6.05C16.3386 6.05 16.5135 6.1273 16.6424 6.2648C16.7713 6.4023 16.8438 6.5888 16.8438 6.7833C16.8438 7.3182 17.0429 7.8311 17.3975 8.2093C17.7521 8.5875 18.233 8.8 18.7344 8.8C19.2358 8.8 19.7167 8.5875 20.0712 8.2093C20.4258 7.8311 20.625 7.3182 20.625 6.7833V6.4093C20.625 6.2345 20.5665 6.0655 20.46 5.93267L16.8713 1.46667H5.12875L1.54 5.93267C1.4335 6.0655 1.37499 6.2345 1.375 6.4093V6.7833C1.375 7.3182 1.57419 7.8311 1.92875 8.2093C2.28331 8.5875 2.7642 8.8 3.26562 8.8C3.76705 8.8 4.24794 8.5875 4.6025 8.2093C4.95706 7.8311 5.15625 7.3182 5.15625 6.7833C5.15625 6.5888 5.22868 6.4023 5.35761 6.2648C5.48655 6.1273 5.66141 6.05 5.84375 6.05C6.0261 6.05 6.201 6.1273 6.3299 6.2648C6.4588 6.4023 6.5312 6.5888 6.5312 6.7833ZM2.0625 11C2.24484 11 2.4197 11.0773 2.54864 11.2148C2.67757 11.3523 2.75 11.5388 2.75 11.7333V20.5333H4.125V13.2C4.125 12.811 4.26987 12.438 4.52773 12.1629C4.78559 11.8879 5.13533 11.7333 5.5 11.7333H9.625C9.9897 11.7333 10.3394 11.8879 10.5973 12.1629C10.8551 12.438 11 12.811 11 13.2V20.5333H19.25V11.7333C19.25 11.5388 19.3224 11.3523 19.4514 11.2148C19.5803 11.0773 19.7552 11 19.9375 11C20.1198 11 20.2947 11.0773 20.4236 11.2148C20.5526 11.3523 20.625 11.5388 20.625 11.7333V20.5333H21.3125C21.4948 20.5333 21.6697 20.6106 21.7986 20.7481C21.9276 20.8856 22 21.0722 22 21.2667C22 21.4612 21.9276 21.6477 21.7986 21.7852C21.6697 21.9227 21.4948 22 21.3125 22H0.6875C0.50516 22 0.3303 21.9227 0.20136 21.7852C0.0724303 21.6477 2.25725e-08 21.4612 2.25725e-08 21.2667C2.25725e-08 21.0722 0.0724303 20.8856 0.20136 20.7481C0.3303 20.6106 0.50516 20.5333 0.6875 20.5333H1.375V11.7333C1.375 11.5388 1.44743 11.3523 1.57636 11.2148C1.7053 11.0773 1.88016 11 2.0625 11ZM5.5 20.5333H9.625V13.2H5.5V20.5333ZM12.375 13.2C12.375 12.811 12.5199 12.438 12.7777 12.1629C13.0356 11.8879 13.3853 11.7333 13.75 11.7333H16.5C16.8647 11.7333 17.2144 11.8879 17.4723 12.1629C17.7301 12.438 17.875 12.811 17.875 13.2V17.6C17.875 17.989 17.7301 18.362 17.4723 18.6371C17.2144 18.9121 16.8647 19.0667 16.5 19.0667H13.75C13.3853 19.0667 13.0356 18.9121 12.7777 18.6371C12.5199 18.362 12.375 17.989 12.375 17.6V13.2ZM16.5 13.2H13.75V17.6H16.5V13.2Z" fill="#FCC548"/>
</svg>
