<svg xmlns="http://www.w3.org/2000/svg" enable-background="new 0 0 4350 5000" viewBox="0 0 4350 5000"><path fill="#fff" d="M2604.675,2797.333c-30.545,0.006-59.617-7.321-85.129-25.488
					c-203.632-144.947,140.773-867.587,251.178-1085.613l96.93,49.09c-132.698,262.047-227.21,496.402-273.329,677.718
					c-49.219,193.576-25.193,260.745-11.777,270.294c17.471,12.432,74.684,5.423,178.475-55.073l54.701,93.865
					C2755.245,2757.38,2675.975,2797.333,2604.675,2797.333z"/><path fill="#212121" d="M2604.639,2802.333c-33.776,0-63.378-8.886-87.993-26.415
					c-89.035-63.375-87.024-238.679,5.976-521.039c73.592-223.432,184.237-453.595,243.642-570.906
					c0.6-1.183,1.644-2.08,2.904-2.493c1.258-0.413,2.631-0.309,3.815,0.291l96.93,49.089c2.464,1.248,3.449,4.256,2.202,6.719
					c-132.527,261.708-226.91,495.705-272.945,676.691c-20.944,82.372-31.05,152.479-29.226,202.743
					c1.51,41.582,10.801,58.898,15.503,62.245c13.069,9.301,64.227,8.114,173.057-55.319c1.146-0.667,2.509-0.852,3.792-0.515
					c1.282,0.338,2.378,1.171,3.046,2.317l54.702,93.864c1.39,2.386,0.583,5.447-1.802,6.837
					c-55.883,32.576-138.829,75.883-213.565,75.889l0,0C2604.666,2802.333,2604.65,2802.333,2604.639,2802.333z M2772.928,1692.952
					c-59.788,118.365-168.345,345.048-240.809,565.055c-41.447,125.839-64.921,231.489-69.769,314.014
					c-5.724,97.432,14.495,163.292,60.095,195.75c22.887,16.298,50.541,24.561,82.194,24.561c0.012,0,0.022,0,0.034,0h0.001
					c70.441,0,149.434-40.356,204.206-72.018l-49.669-85.229c-74.606,42.959-125.215,58.333-154.776,58.336
					c-11.264,0-19.467-2.229-24.787-6.015c-17.645-12.56-38.297-86.322,9.829-275.6c45.951-180.655,139.791-413.733,271.458-674.283
					L2772.928,1692.952z"/><path fill="#212121" d="M3692.64,2828.752l-878.069,0.012c-38.363,0.001-69.463-31.098-69.464-69.461l-0.016-1139.999
						l947.531-0.013c38.363-0.001,69.463,31.098,69.464,69.462l0.015,1070.536
						C3762.102,2797.651,3731.003,2828.751,3692.64,2828.752z"/><path fill="#212121" d="M2814.571,2833.764c-19.89,0-38.589-7.745-52.653-21.809
						c-14.064-14.064-21.81-32.763-21.81-52.653l-0.017-1139.999c0-1.326,0.526-2.598,1.465-3.536
						c0.938-0.938,2.209-1.464,3.535-1.464l947.531-0.014c41.059,0,74.463,33.403,74.464,74.462l0.015,1070.536
						c0,19.889-7.744,38.588-21.809,52.653c-14.064,14.064-32.763,21.81-52.652,21.81L2814.571,2833.764z M2750.091,1624.304
						l0.017,1134.999c0,17.219,6.705,33.406,18.881,45.582c12.175,12.175,28.363,18.88,45.582,18.88l878.069-0.012
						c17.218,0,33.406-6.706,45.581-18.881c12.176-12.176,18.88-28.364,18.88-45.582l-0.015-1070.536
						c-0.001-35.545-28.919-64.462-64.464-64.462L2750.091,1624.304z"/><path fill="#fff" d="M3248.516,2229.684l-23.88,41.35l-71.47-123.79c-9.91,4.25-22.11,7.94-35.39,7.94
						c-23.64,0-50.69-11.68-74.35-52.68l-78.22-135.46c-5.1-8.82-2.08-20.08,6.74-25.17c8.8-5.06,20.08-2.07,25.16,6.74
						c0,0,78.22,135.47,78.22,135.48l32.99-19.05l-78.21-135.48c-5.1-8.8-2.08-20.07,6.74-25.15c8.81-5.07,20.09-2.08,25.16,6.74
						l78.21,135.47c0,0,32.99-19.04,32.99-19.05l-78.22-135.47c-5.09-8.81-2.07-20.07,6.75-25.16c8.8-5.06,20.07-2.07,25.15,6.74
						l78.23,135.47c36.95,64.03,7.88,99.47-16.14,117.41L3248.516,2229.684z"/><path fill="#fff" d="M3367.186,2474.064l-2.17,1.26c-9.29,5.36-21.17,2.18-26.53-7.11l-71.5-123.83l23.88-41.35
						l83.43,144.5C3379.666,2456.824,3376.476,2468.704,3367.186,2474.064z"/><path fill="#fff" d="M3471.74,1899.211c-44.297-20.53-97.063-1.418-121.475,40.865l-51.079,88.475
						c-19.544,33.852-7.945,77.139,25.908,96.683l1.647,0.951l-184.814,320.118c-5.364,9.29-2.181,21.169,7.11,26.533l2.169,1.252
						c9.29,5.364,21.169,2.18,26.533-7.11l184.814-320.118l1.648,0.951c33.853,19.544,77.139,7.945,96.683-25.908l52.659-91.212
						C3540.698,1983.658,3522.136,1922.568,3471.74,1899.211z"/><path fill="#212121" d="M2920.942,1518.742c0-24.524-19.88-44.404-44.404-44.404h-291.313h-93.291
					c-28.279,0-49.353,26.082-43.413,53.73l19.604,91.255l115.651,537.686c1.692,7.847,0.601,16.055-3.136,23.179l-26.926,51.789
					c-13.398,25.954,9.419,55.892,38.031,49.735l125.907-27.041c18.715-3.983,30.545-22.454,26.561-41.044l-127.841-594.304h304.57
					V1518.742z"/><path fill="#212121" d="M2584.296,2287.51c-12.15,0.001-23.636-5.578-31.274-15.562
					c-9.418-12.31-10.856-28.504-3.752-42.265l26.932-51.803c3.184-6.067,4.134-13.099,2.686-19.818l-115.652-537.688
					l-19.604-91.255c-3.149-14.662,0.449-29.761,9.874-41.426c9.426-11.665,23.432-18.354,38.428-18.354h384.604
					c27.241,0,49.404,22.163,49.404,49.404v100.581c0,2.761-2.238,5-5,5h-298.381l126.538,588.253
					c2.218,10.344,0.265,20.937-5.498,29.83c-5.745,8.867-14.592,14.959-24.909,17.156l-125.898,27.039
					C2589.953,2287.212,2587.106,2287.51,2584.296,2287.51z M2491.933,1479.338c-11.961,0-23.132,5.336-30.649,14.639
					c-7.517,9.304-10.388,21.347-7.875,33.041l19.604,91.254l115.651,537.685c1.939,9.002,0.662,18.433-3.598,26.553l-26.917,51.773
					c-5.305,10.274-4.229,22.383,2.815,31.588c7.136,9.328,18.247,13.423,29.728,10.952l125.909-27.042
					c7.711-1.641,14.316-6.191,18.608-12.814c4.309-6.65,5.77-14.567,4.113-22.292l-127.84-594.301
					c-0.317-1.477,0.05-3.019,0.999-4.194c0.949-1.175,2.379-1.858,3.89-1.858h299.57v-95.581c0-21.728-17.677-39.404-39.404-39.404
					H2491.933z"/><path fill="#fff" d="M2717.646,2259.672c-2.311,0-4.386-1.61-4.886-3.96c-0.574-2.701,1.148-5.356,3.85-5.932
				c7.702-1.639,14.308-6.189,18.6-12.812c4.309-6.65,5.77-14.567,4.113-22.293l-9.3-43.233c-0.58-2.7,1.138-5.359,3.837-5.939
				c2.7-0.581,5.359,1.137,5.94,3.837l9.3,43.236c2.217,10.344,0.264,20.937-5.499,29.83c-5.745,8.867-14.592,14.959-24.909,17.156
				C2718.341,2259.636,2717.991,2259.672,2717.646,2259.672z"/><path fill="#fff" d="M2920.942,1624.323h-180.15c-2.762,0-5-2.239-5-5s2.238-5,5-5h180.15c2.762,0,5,2.239,5,5
				S2923.704,1624.323,2920.942,1624.323z"/><path fill="#fff" d="M3021.109,2325.423c151.617-18.993,209.878,284.553,21.371,325.421l-647.434,95.062
						c-19.132,4.147-37.343,6.248-54.64,6.549c-242.721,4.225-257.747-357.62-15.65-375.526L3021.109,2325.423z"/><path fill="#212121" d="M2336.223,2757.491c-55.753,0-103.408-19.195-138.038-55.66
						c-31.524-33.195-50.123-78.569-52.368-127.764c-2.26-49.499,12.275-96.76,40.927-133.077
						c32.267-40.898,79.863-64.775,137.644-69.049l696.227-51.496c35.645-4.428,68.514,7.849,95.039,35.51
						c23.722,24.738,40.495,60.098,47.232,99.567c7.509,43.992,1.726,87.592-16.284,122.769
						c-20.756,40.543-56.395,67.32-103.062,77.438c-0.11,0.023-0.222,0.044-0.333,0.06l-647.269,95.038
						c-18.892,4.085-37.545,6.314-55.445,6.625C2339.066,2757.478,2337.64,2757.491,2336.223,2757.491z M3034.987,2329.543
						c-4.314,0-8.732,0.274-13.257,0.841c-0.084,0.01-0.168,0.019-0.252,0.025l-696.353,51.505
						c-121.935,9.019-173.245,105.692-169.319,191.698c3.846,84.229,61.948,173.871,180.38,173.879c1.375,0,2.742-0.012,4.133-0.036
						c17.3-0.301,35.356-2.466,53.667-6.436c0.11-0.023,0.222-0.044,0.333-0.06l647.266-95.038
						c95.682-20.834,124.917-109.773,111.443-188.715C3142.204,2393.792,3101.002,2329.543,3034.987,2329.543z M3021.109,2325.423
						h0.01H3021.109z"/><path fill="#212121" d="M3043.828,2657.06c-22.684,2.351-633.816,120.137-743.064,99.998
							c-61.452-11.328-158.058-109.627-158.058-224.744c0-115.117,38.588-140.02,199-172s678.777-41.226,678.777-41.226
							c81.149-10.013,131.349,63.54,143.745,136.208C3178.153,2536.88,3146.414,2634.821,3043.828,2657.06z"/><path fill="#212121" d="M2335.174,2764.343c-14.579,0-26.519-0.746-35.316-2.368
							c-65.296-12.037-162.152-113.776-162.152-229.661c0-62.549,11.539-96.481,41.155-121.026
							c31.37-25.999,83.105-40.176,161.867-55.877c157.596-31.418,665.318-41.058,679.405-41.318
							c84.188-10.216,136.263,65.558,149.023,140.362c14.312,83.857-18.471,184.557-124.27,207.491
							c-0.18,0.039-0.361,0.068-0.544,0.087c-3.718,0.386-26.499,4.469-58.03,10.12
							C2839.229,2698.514,2471.964,2764.343,2335.174,2764.343z M3035.058,2323.177c-4.547,0-9.193,0.284-13.963,0.873
							c-0.174,0.021-0.349,0.034-0.523,0.037c-5.179,0.093-519.749,9.604-677.889,41.131
							c-75.245,15.001-127.829,29.229-157.441,53.77c-27.012,22.387-37.536,54.161-37.536,113.327
							c0,50.648,19.501,103.279,54.911,148.197c29.904,37.934,68.785,66.05,99.054,71.63
							c89.562,16.509,520.607-60.748,682.879-89.832c33.339-5.976,53.756-9.635,58.467-10.19
							c99.174-21.65,129.81-116.734,116.283-195.982C3148.034,2390.097,3104.709,2323.177,3035.058,2323.177z M3043.828,2657.059
							h0.01H3043.828z"/><path fill="#fff" d="M3164.222,2460.296c-2.393,0-4.507-1.723-4.923-4.16
						c-10.419-61.074-52.635-132.056-137.336-132.056c-0.479,0-0.952,0.002-1.434,0.006c-1.26,0.023-131.852,2.395-280.179,8.664
						c-2.747,0.114-5.089-2.025-5.206-4.785c-0.117-2.759,2.025-5.09,4.784-5.207c148.454-6.274,279.161-8.648,280.465-8.671
						c0.497-0.005,0.995-0.007,1.491-0.007c39.121,0,73.746,14.54,100.259,42.104c23.712,24.652,40.408,59.552,47.013,98.27
						c0.465,2.722-1.366,5.305-4.088,5.77C3164.785,2460.273,3164.501,2460.296,3164.222,2460.296z"/><path fill="#fff" d="M2201.143,2703.277l209.121-151.935c54.855-39.855,85.557-104.964,81.408-172.642
						l-13.766-370.289c-7.435-177.908-739.8-212.567-764.98-7.764l-25.878,368.897c-10.045,72.524,20.671,144.684,79.904,187.72
						l200.969,146.013C2037.454,2753.795,2131.61,2753.795,2201.143,2703.277z"/><path fill="#212121" d="M2084.532,2746.166c-43.233,0-84.573-13.432-119.55-38.844l-200.97-146.013
						c-60.802-44.175-92.19-117.836-81.94-192.281l25.865-368.73c0.007-0.087,0.015-0.174,0.025-0.26
						c6.213-50.528,53.842-90.626,137.738-115.96c72.499-21.893,168.279-31.7,269.711-27.609
						c94.991,3.829,183.773,19.442,249.992,43.964c75.083,27.805,115.713,65.071,117.497,107.771l13.766,370.256
						c2.075,34.023-4.512,68.298-19.049,99.129c-14.548,30.85-36.821,57.752-64.415,77.8l-209.121,151.936l-2.938-4.045l2.938,4.045
						C2169.105,2732.734,2127.766,2746.166,2084.532,2746.166z M1717.904,2001.128l-25.869,368.766
						c-0.008,0.112-0.02,0.224-0.034,0.336c-9.811,70.838,20.035,140.955,77.89,182.989l200.969,146.013
						c67.993,49.398,159.354,49.396,227.346,0l209.121-151.936c53.756-39.056,83.422-101.968,79.356-168.291
						c-0.003-0.04-0.005-0.081-0.007-0.12l-13.766-370.289c-2.024-48.427-61.468-80.453-110.979-98.787
						c-65.26-24.167-152.952-39.562-246.923-43.35C1932.708,1859.112,1730.736,1898.124,1717.904,2001.128z"/><path fill="#212121" d="M2494.316,2278.508c-30.933,0.031-61.868,0-92.801,0.103
							c-122.378,0.406-244.76,1.053-367.136,1.71c-60.721,0.326-121.44,0.993-182.146,2.336
							c-55.214,1.224-110.619,8.02-165.869,5.872l-5.619,80.143c0,186.805,136.486,369.122,403.786,369.122
							s413.501-195.975,413.501-359.33L2494.316,2278.508z"/><path fill="#212121" d="M2084.532,2742.794c-125.635,0-231.345-40.116-305.702-116.01
							c-33.53-34.224-59.517-74.532-77.237-119.806c-17.15-43.817-25.847-90.35-25.847-138.306c0-0.117,0.004-0.233,0.013-0.35
							l5.618-80.143c0.188-2.694,2.435-4.746,5.182-4.646c33.805,1.313,68.354-0.787,101.766-2.818
							c20.905-1.271,42.521-2.585,63.798-3.057c54.546-1.207,114.153-1.971,182.23-2.337c136.121-0.731,249.589-1.321,367.146-1.71
							c21.173-0.07,42.696-0.078,63.511-0.085c9.768-0.004,19.535-0.007,29.303-0.017c0.002,0,0.003,0,0.005,0
							c2.689,0,4.896,2.126,4.997,4.814l3.715,99.956c0.003,0.062,0.004,0.124,0.004,0.186c0,41.624-9.485,85.556-27.432,127.045
							c-18.854,43.588-45.958,83.096-80.56,117.427c-37.226,36.933-81.383,65.973-131.244,86.313
							C2209.234,2731.508,2148.92,2742.794,2084.532,2742.794z M1685.746,2368.846c0.076,175.327,124.877,363.947,398.786,363.947
							c153.387,0,249.688-63.602,303.467-116.956c65.745-65.229,105.006-153.925,105.034-237.281l-3.533-95.044
							c-8.162,0.006-16.324,0.009-24.486,0.013c-20.808,0.007-42.324,0.015-63.481,0.085c-117.548,0.389-231.011,0.979-367.127,1.71
							c-68.02,0.365-127.572,1.129-182.062,2.334c-21.084,0.468-42.603,1.776-63.412,3.042c-32.072,1.95-65.183,3.963-97.917,2.994
							L1685.746,2368.846z"/><path fill="#fff" d="M2128.258,2495.371h-7.093c-32.615,0-59.15-26.535-59.15-59.15v-133.675c0-2.761,2.238-5,5-5
								s5,2.239,5,5v133.675c0,27.102,22.049,49.15,49.15,49.15h7.093c2.762,0,5,2.239,5,5S2131.02,2495.371,2128.258,2495.371z"/><path fill="#fff" d="M2128.26,2752.357c-2.762,0-5-2.239-5-5v-444.812c0-2.761,2.238-5,5-5s5,2.239,5,5v444.812
								C2133.26,2750.118,2131.022,2752.357,2128.26,2752.357z"/><path fill="#fff" d="M2447.22,2419.429c-51.427,0-93.265-44.117-93.265-98.344c0-2.761,2.238-5,5-5s5,2.239,5,5
								c0,48.713,37.353,88.344,83.265,88.344c2.762,0,5,2.239,5,5S2449.982,2419.429,2447.22,2419.429z"/><path fill="#fff" d="M1739.643,2414.429c48.747,0,88.265-41.792,88.265-93.344"/><path fill="#212121" d="M1739.643,2419.429c-2.762,0-5-2.239-5-5s2.238-5,5-5c45.913,0,83.266-39.631,83.266-88.344
								c0-2.761,2.238-5,5-5s5,2.239,5,5C1832.909,2375.312,1791.07,2419.429,1739.643,2419.429z"/><path fill="#fff" d="M1718.035,1365.173l-284.198,413.233c-37.911,57.948-20.856,137.212,33.155,175.634
						c54.011,38.422,125.88,33.627,181.743-33.161c55.863-66.788,295.356-419.633,295.356-419.633
						c44.589-63.357,43.661-158.11-29.418-198.433C1841.594,1262.489,1780.904,1281.095,1718.035,1365.173z"/><path fill="#212121" d="M1539.551,1983.232c-26.364,0-52.14-8.53-75.458-25.118
						c-27.438-19.519-46.281-49.209-53.056-83.603c-6.872-34.887-0.262-69.99,18.615-98.842c0.021-0.032,0.042-0.064,0.063-0.096
						l284.198-413.233c0.038-0.054,0.076-0.108,0.116-0.161c32.297-43.193,64.024-69.232,96.993-79.605
						c33.133-10.427,67.826-5.237,106.064,15.862c30.5,16.83,50.778,43.748,58.643,77.846c9.647,41.829-0.652,89.621-27.552,127.842
						c-2.349,3.461-240.227,353.75-295.61,419.964c-27.273,32.607-60.007,52.584-94.66,57.771
						C1551.776,1982.776,1545.645,1983.232,1539.551,1983.232z M1437.99,1781.191c-35.328,54.06-20.728,131.336,31.9,168.774
						c56.364,40.098,125.06,27.421,175.009-32.294c55.064-65.833,292.661-415.707,295.055-419.233
						c25.338-36.004,35.052-80.805,26.033-119.91c-7.207-31.251-25.787-55.919-53.729-71.337
						c-70.787-39.059-129.432-20.279-190.158,60.896L1437.99,1781.191z"/><path fill="#fff" d="M1783.776,1817.562c0,0,113.705-165.517,176.616-309.408
						c40.061-91.628,46.242-175.81-28.639-225.78c-98.25-69.146-204.274,39.397-259.077,100.616
						c-54.803,61.219-167.146,195.766-167.146,195.766L1783.776,1817.562z"/><path fill="#212121" d="M1783.776,1822.562c-1.188,0-2.345-0.423-3.257-1.206l-278.245-238.807
						c-2.075-1.781-2.334-4.899-0.581-6.999c1.124-1.346,113.025-135.314,167.258-195.896
						c29.612-33.079,69.386-74.361,114.486-100.198c55.895-32.021,106.744-32.428,151.144-1.208
						c36.44,24.338,56.488,58.331,59.582,101.032c2.644,36.495-7.177,80.528-29.189,130.876
						c-62.38,142.676-175.937,308.577-177.076,310.236c-0.804,1.17-2.066,1.943-3.474,2.127
						C1784.208,1822.548,1783.991,1822.562,1783.776,1822.562z M1512.533,1578.176l270.25,231.944
						c18.725-27.76,116.839-175.453,173.028-303.97c21.355-48.846,30.903-91.288,28.377-126.147
						c-2.9-40.041-20.96-70.615-55.21-93.471c-0.034-0.023-0.068-0.046-0.103-0.07c-89.67-63.109-187.039,26.766-252.474,99.862
						C1627.417,1441.045,1531.18,1555.885,1512.533,1578.176z"/><path fill="#fff" d="M2495.399,1375.962l256.1,431.211c33.975,60.34,11.689,138.294-44.757,173.041
						c-56.446,34.747-127.837,25.185-179.136-45.169c-51.3-70.354-266.808-438.339-266.808-438.339
						c-40.279-66.181-33.054-160.662,42.544-196.039C2378.939,1265.292,2438.258,1287.891,2495.399,1375.962z"/><path fill="#212121" d="M2640.503,2004.788c-8.777,0-17.573-0.949-26.326-2.861
						c-34.232-7.479-65.565-29.587-90.611-63.936c-50.859-69.75-264.926-435.076-267.082-438.758
						c-24.256-39.852-31.356-88.223-18.95-129.318c10.113-33.5,32.137-59.011,63.689-73.776
						c39.556-18.51,74.517-21.38,106.884-8.776c32.206,12.542,62.132,40.633,91.486,85.877c0.036,0.056,0.071,0.112,0.104,0.168
						l256.101,431.211c0.02,0.033,0.039,0.066,0.058,0.1c16.917,30.043,21.18,65.508,12.004,99.862
						c-9.047,33.866-29.82,62.239-58.496,79.891C2687.5,1997.931,2664.083,2004.788,2640.503,2004.788z M2366.812,1289.869
						c-19.288,0-39.614,5.157-61.351,15.328c-28.906,13.527-49.085,36.905-58.354,67.608
						c-11.598,38.418-4.883,83.765,17.963,121.301c2.197,3.75,216.01,368.645,266.576,437.993
						c45.868,62.904,113.567,80.119,172.476,43.857c55-33.857,74.704-109.995,43.048-166.283l-256.019-431.073
						C2452.339,1318.808,2412.5,1289.869,2366.812,1289.869z"/><path fill="#fff" d="M2689.022,1608.347c0,0-86.869-154.9-197.167-266.689
						c-70.236-71.186-146.123-108.147-220.3-57.139c-100.653,65.599-39.171,204.318-2.643,277.916
						c36.529,73.599,130.461,247.641,130.461,247.641L2689.022,1608.347z"/><path fill="#212121" d="M2399.374,1815.076c-0.387,0-0.775-0.045-1.158-0.136c-1.386-0.33-2.565-1.236-3.242-2.489
						c-0.939-1.741-94.391-174.96-130.54-247.792c-19.737-39.769-43.325-92.017-50.594-143.482
						c-9.008-63.784,9.473-111.158,54.934-140.812c36.117-24.816,75.12-30.827,115.924-17.864
						c34.873,11.08,72.124,36.53,110.718,75.646c109.504,110.984,197.097,266.201,197.969,267.755
						c1.259,2.245,0.608,5.078-1.504,6.549l-289.648,201.729C2401.385,1814.768,2400.386,1815.076,2399.374,1815.076z
						 M2343.171,1265.742c-23.806,0-46.543,7.603-68.783,22.896c-0.034,0.023-0.068,0.046-0.103,0.069
						c-91.869,59.874-44.51,183.627-0.896,271.505c32.635,65.752,112.163,213.664,127.726,242.557l281.293-195.91
						c-14.338-24.812-95.278-161.52-194.113-261.69c-37.441-37.948-73.316-62.556-106.627-73.139
						C2368.489,1267.843,2355.681,1265.742,2343.171,1265.742z"/><path fill="#fff" d="M2179.301,1180.103h-152.333c-36.159,0-68.764,3.429-98.365,9.814
						c-131.934,28.457-224.236,148.06-223.013,283.022l5.453,601.9c0,171.593,769.105,157.804,769.105,0l25.274-572.57
						c6.678-151.296-97.3-287.12-246.134-315.109C2234.637,1182.524,2208.052,1180.103,2179.301,1180.103z"/><path fill="#212121" d="M2083.54,2203.417c-99.413,0-191.118-10.828-258.22-30.489
						c-78.032-22.864-119.277-56.783-119.277-98.089l-5.453-601.854c-0.604-66.681,21.641-132.232,62.636-184.58
						c41.281-52.711,99.639-89.424,164.323-103.376c30.537-6.586,63.986-9.926,99.419-9.926h152.334
						c28.482,0,55.704,2.403,80.909,7.144c72.905,13.711,138.397,53.899,184.41,113.163
						c45.724,58.891,69.091,132.434,65.796,207.082l-25.269,572.462c-0.087,39.845-44.476,73.283-128.382,96.699
						C2284.425,2191.839,2184.838,2203.417,2083.54,2203.417z M2026.967,1185.102c-34.725,0-67.465,3.264-97.312,9.702
						c-128.145,27.64-220.276,144.593-219.066,278.09l5.453,601.9c0,46.04,60.954,73.555,112.089,88.538
						c66.214,19.401,156.92,30.086,255.408,30.086c100.429,0,199.036-11.444,270.539-31.398
						c38.28-10.683,68.162-23.461,88.815-37.979c21.402-15.044,32.254-31.598,32.254-49.201c0-0.074,0.002-0.147,0.005-0.221
						l25.273-572.57c6.6-149.521-97.466-282.782-242.063-309.975c-24.598-4.626-51.197-6.972-79.062-6.972H2026.967z"/><path fill="#fff" d="M2395.445,1235.981c-3.031-2.214-6.093-4.36-9.186-6.443
							c-46.889-31.582-102.176-49.483-168.065-54.429c0,53.552-78.625,56.466-114.754,56.466c-36.129,0-115.796-7.95-117.303-56.366
							c-21.435,1.685-41.424,4.685-60.085,8.803c-132.269,29.182-226.592,146.393-229.878,281.803l-19.037,851.902l830.371,9.337
							l5.135-852.963C2513.253,1380.694,2470.876,1291.057,2395.445,1235.981z"/><path fill="#212121" d="M2507.508,2332.053c-0.019,0-0.037,0-0.057,0l-830.371-9.338
							c-1.335-0.015-2.609-0.563-3.538-1.524c-0.928-0.96-1.434-2.252-1.404-3.587l19.036-851.902
							c1.621-66.787,25.66-132.05,67.689-183.778c20.829-25.636,45.483-47.455,73.277-64.851
							c28.596-17.897,59.829-30.664,92.833-37.945c19.276-4.254,39.723-7.25,60.771-8.905c1.369-0.113,2.71,0.349,3.729,1.261
							c1.018,0.912,1.618,2.202,1.66,3.568c0.584,18.74,14.789,32.784,42.223,41.742c27.033,8.827,58.017,9.78,70.083,9.78
							c18.73,0,46.308-0.822,69.458-7.931c27.115-8.326,40.297-22.566,40.297-43.535c0-1.391,0.58-2.719,1.6-3.666
							c1.019-0.946,2.381-1.427,3.774-1.32c66.967,5.026,122.732,23.105,170.483,55.268c3.137,2.112,6.279,4.316,9.342,6.552v0
							c75.302,54.981,119.882,145.516,119.25,242.18l-5.135,852.96c-0.008,1.331-0.546,2.603-1.495,3.536
							C2510.078,2331.539,2508.819,2332.053,2507.508,2332.053z M1682.249,2312.773l820.29,9.225l5.104-847.937
							c0.61-93.454-42.442-180.95-115.146-234.041l0,0c-2.96-2.161-5.999-4.292-9.031-6.335
							c-45.057-30.348-97.605-47.765-160.519-53.177c-2.124,22.709-17.947,38.739-47.114,47.695
							c-24.437,7.503-53.02,8.371-72.394,8.371c-19.483,0-114.363-2.769-121.855-55.967c-18.843,1.682-37.14,4.465-54.455,8.286
							c-129.776,28.632-222.692,142.556-225.956,277.042L1682.249,2312.773z"/><line x1="2510.975" x2="2512.643" y1="1751.081" y2="1474.09" fill="#fff"/><path fill="#212121" d="M2510.976,1756.081c-0.011,0-0.021,0-0.031,0c-2.761-0.017-4.986-2.269-4.97-5.03l1.668-276.99
							c0.017-2.751,2.252-4.97,4.999-4.97c0.011,0,0.021,0,0.031,0c2.761,0.017,4.986,2.269,4.97,5.03l-1.668,276.99
							C2515.958,1753.862,2513.723,1756.081,2510.976,1756.081z"/><line x1="1696.174" x2="1690.11" y1="1465.814" y2="1737.172" fill="#fff"/><path fill="#212121" d="M1690.112,1742.172c-0.038,0-0.075,0-0.113-0.001c-2.761-0.062-4.949-2.35-4.888-5.11
							l6.063-271.358c0.062-2.761,2.386-4.966,5.11-4.887c2.761,0.062,4.949,2.35,4.888,5.11l-6.063,271.358
							C1695.047,1740.007,1692.822,1742.172,1690.112,1742.172z"/><g><path fill="#fff" d="M2179.509,1189.763c0,44.095-152.14,51.495-152.14,0l0-121.712h152.14L2179.509,1189.763z"/><path fill="#212121" d="M2099.044,1230.662c-19.927,0-38.233-3.229-51.546-9.091
						c-20.771-9.146-25.13-22.346-25.13-31.809l0.001-121.711c0-2.761,2.238-5,5-5h152.14c2.762,0,5,2.239,5,5v121.711
						C2184.509,1216.614,2141.515,1230.662,2099.044,1230.662z M2032.37,1073.051l-0.001,116.711c0,9.436,6.446,17.059,19.16,22.657
						c12.07,5.315,28.945,8.243,47.516,8.243c36.293,0,75.465-11.814,75.465-30.9v-116.711H2032.37z"/><path fill="#fff" d="M2128.84,1041.061h119.945c36.022,0,65.224-29.202,65.224-65.224V810.193H2128.84V1041.061z"/><path fill="#212121" d="M2248.785,1046.061H2128.84c-2.762,0-5-2.239-5-5V810.193c0-2.761,2.238-5,5-5h185.169
							c2.762,0,5,2.239,5,5v165.644C2319.009,1014.558,2287.506,1046.061,2248.785,1046.061z M2133.84,1036.061h114.944
							c33.208,0,60.225-27.017,60.225-60.224V815.193H2133.84V1036.061z"/><path fill="#fff" d="M2083.283,1041.061h-119.945c-36.022,0-65.224-29.202-65.224-65.224V810.193h185.169V1041.061z
							"/><path fill="#212121" d="M2083.283,1046.061h-119.944c-38.722,0-70.224-31.502-70.224-70.224V810.193
							c0-2.761,2.238-5,5-5h185.168c2.762,0,5,2.239,5,5v230.868C2088.283,1043.822,2086.044,1046.061,2083.283,1046.061z
							 M1903.115,815.193v160.644c0,33.208,27.017,60.224,60.224,60.224h114.944V815.193H1903.115z"/><path fill="#fff" d="M2295.365,821.82h-34.34v10.794v98.388v10.794h34.34c33.131,0,59.997-26.866,59.997-59.997
							C2355.362,848.668,2328.496,821.82,2295.365,821.82z"/><path fill="#212121" d="M2295.365,946.796h-34.34c-2.762,0-5-2.239-5-5V821.82c0-2.761,2.238-5,5-5h34.34
							c35.84,0,64.997,29.15,64.997,64.98C2360.362,917.639,2331.205,946.796,2295.365,946.796z M2266.025,936.796h29.34
							c30.325,0,54.997-24.671,54.997-54.997c0-30.316-24.672-54.98-54.997-54.98h-29.34V936.796z"/><path fill="#212121" d="M2300.365,917.814h-5.357c-2.762,0-5-2.239-5-5s2.238-5,5-5h5.357
						c14.345,0,26.015-11.67,26.015-26.015c0-14.335-11.67-25.998-26.015-25.998h-5.357c-2.762,0-5-2.239-5-5s2.238-5,5-5h5.357
						c19.858,0,36.015,16.148,36.015,35.998C2336.379,901.658,2320.223,917.814,2300.365,917.814z"/><path fill="#fff" d="M1917.271,821.82h34.34v10.794v98.388v10.794h-34.34c-33.131,0-59.996-26.866-59.996-59.997
							C1857.274,848.668,1884.14,821.82,1917.271,821.82z"/><path fill="#212121" d="M1951.61,946.796h-34.339c-35.84,0-64.997-29.157-64.997-64.997
							c0-35.83,29.157-64.98,64.997-64.98h34.339c2.762,0,5,2.239,5,5v119.977C1956.61,944.557,1954.372,946.796,1951.61,946.796z
							 M1917.271,826.82c-30.325,0-54.997,24.664-54.997,54.98c0,30.325,24.672,54.997,54.997,54.997h29.339V826.82H1917.271z"/><path fill="#212121" d="M1919.628,917.814h-5.357c-19.858,0-36.015-16.156-36.015-36.015
						c0-19.85,16.156-35.998,36.015-35.998h5.357c2.762,0,5,2.239,5,5s-2.238,5-5,5h-5.357c-14.345,0-26.015,11.663-26.015,25.998
						c0,14.345,11.67,26.015,26.015,26.015h5.357c2.762,0,5,2.239,5,5S1922.39,917.814,1919.628,917.814z"/><path fill="#fff" d="M2181.146,1089.083c-49.594,9.606-101.187,9.475-148.641,0.745
						c-58.429-10.75-100.751-61.858-100.751-121.268l0-171.861c0-68.119,55.222-123.341,123.341-123.341h101.934
						c68.12,0,123.341,55.222,123.341,123.341v171.415C2280.37,1026.936,2238.895,1077.897,2181.146,1089.083z"/><path fill="#212121" d="M2104.75,1101.346c-24.627,0-49.225-2.199-73.149-6.601
						c-60.752-11.177-104.847-64.245-104.847-126.185V796.699c0-70.768,57.573-128.341,128.341-128.341h101.935
						c70.768,0,128.341,57.574,128.341,128.341v171.415c0,61.348-43.433,114.288-103.272,125.878
						C2156.793,1098.893,2130.755,1101.346,2104.75,1101.346z M2055.094,678.358c-65.253,0-118.341,53.088-118.341,118.341V968.56
						c0,57.114,40.649,106.046,96.655,116.35c47.973,8.825,98.735,8.57,146.786-0.735l0,0
						c55.148-10.682,95.175-59.493,95.175-116.061V796.699c0-65.253-53.088-118.341-118.341-118.341H2055.094z M2181.146,1089.083
						h0.01H2181.146z"/><g><path fill="#fff" d="M2106.062,541.929c-119.883,0-215.746,54.334-215.746,135.16l-0.764,151.504h42.325
						c14.347,0,26.018-11.542,26.183-25.886l0.312-27.473c0.483-38.752,33.47-73.276,70.411-84.625
						c6.879-2.053,13.758-3.742,20.277-4.829c16.469-2.8,35.544-4.692,57-4.963c21.456,0.271,40.531,2.163,57,4.963
						c6.519,1.088,13.398,2.776,20.277,4.829c36.941,11.348,69.928,45.873,70.411,84.625l0.312,27.473
						c0.165,14.344,11.836,25.886,26.183,25.886h42.84l-1.279-151.504C2321.807,596.264,2225.945,541.929,2106.062,541.929z"/><path fill="#212121" d="M2323.086,833.594h-42.841c-16.998,0-30.986-13.83-31.183-30.828l-0.312-27.473
						c-0.424-33.966-29.176-68.319-66.88-79.902c-7.057-2.106-13.675-3.684-19.631-4.677c-17.631-2.997-36.527-4.643-56.178-4.895
						c-19.651,0.251-38.548,1.897-56.163,4.892c-5.971,0.996-12.588,2.574-19.685,4.691c-37.666,11.572-66.418,45.924-66.842,79.896
						l-0.312,27.467c-0.196,17-14.185,30.829-31.184,30.829h-42.325c-1.33,0-2.606-0.53-3.544-1.473
						c-0.938-0.943-1.463-2.222-1.456-3.552l0.764-151.504c0-40.24,23.197-76.521,65.318-102.136
						c40.295-24.504,95.493-37.999,155.428-37.999s115.133,13.495,155.427,37.999c42.121,25.615,65.318,61.896,65.318,102.162
						l1.279,151.462c0.011,1.333-0.511,2.616-1.449,3.562C2325.698,833.061,2324.419,833.594,2323.086,833.594z M2106.062,675.818
						c0.021,0,0.042,0,0.063,0c20.191,0.255,39.629,1.949,57.774,5.034c6.351,1.059,13.377,2.731,20.869,4.967
						c19.453,5.976,37.631,17.887,51.224,33.55c14.434,16.633,22.516,36.451,22.758,55.804l0.312,27.478
						c0.133,11.548,9.635,20.943,21.183,20.943h37.799l-1.237-146.462c0-37.212-20.926-69.585-60.515-93.66
						c-38.75-23.565-92.104-36.542-150.23-36.542c-58.128,0-111.481,12.978-150.231,36.542
						c-39.589,24.075-60.515,56.447-60.515,93.618l-0.738,146.504h37.3c11.548,0,21.051-9.395,21.184-20.943l0.312-27.472
						c0.242-19.359,8.324-39.177,22.758-55.81c13.593-15.663,31.771-27.574,51.186-33.539c7.532-2.248,14.559-3.919,20.923-4.981
						c18.13-3.083,37.568-4.776,57.76-5.031C2106.02,675.818,2106.041,675.818,2106.062,675.818z"/></g><g><path fill="#212121" d="M2186.81,949.504c-0.743,0-1.498-0.167-2.21-0.518c-2.476-1.223-3.492-4.221-2.27-6.697
								l11.607-23.505c1.223-2.476,4.22-3.493,6.697-2.269c2.476,1.223,3.492,4.221,2.27,6.697l-11.607,23.505
								C2190.426,948.481,2188.653,949.504,2186.81,949.504z"/><path fill="#212121" d="M2201.331,949.504c-0.743,0-1.498-0.167-2.21-0.518c-2.476-1.223-3.492-4.221-2.27-6.697
								l11.607-23.505c1.223-2.476,4.221-3.493,6.697-2.269c2.476,1.223,3.492,4.221,2.27,6.697l-11.607,23.505
								C2204.947,948.481,2203.173,949.504,2201.331,949.504z"/><path fill="#212121" d="M2215.852,949.504c-0.743,0-1.498-0.167-2.21-0.518c-2.476-1.223-3.492-4.221-2.27-6.697
								l11.607-23.505c1.222-2.476,4.22-3.493,6.697-2.269c2.476,1.223,3.492,4.221,2.27,6.697l-11.607,23.505
								C2219.468,948.481,2217.695,949.504,2215.852,949.504z"/><path fill="#212121" d="M2025.785,949.504c-1.843,0-3.615-1.023-4.487-2.787l-11.608-23.505
								c-1.223-2.476-0.207-5.474,2.27-6.697c2.477-1.224,5.474-0.207,6.697,2.269l11.608,23.505
								c1.223,2.476,0.207,5.474-2.27,6.697C2027.283,949.337,2026.528,949.504,2025.785,949.504z"/><path fill="#212121" d="M2011.263,949.504c-1.843,0-3.616-1.023-4.487-2.787l-11.607-23.505
								c-1.223-2.476-0.206-5.474,2.27-6.697c2.478-1.224,5.476-0.207,6.697,2.269l11.607,23.505
								c1.223,2.476,0.206,5.474-2.27,6.697C2012.761,949.337,2012.006,949.504,2011.263,949.504z"/><path fill="#212121" d="M1996.742,949.504c-1.843,0-3.616-1.023-4.487-2.787l-11.607-23.505
								c-1.223-2.476-0.206-5.474,2.27-6.697c2.478-1.224,5.475-0.207,6.697,2.269l11.607,23.505
								c1.223,2.476,0.206,5.474-2.27,6.697C1998.24,949.337,1997.485,949.504,1996.742,949.504z"/><path fill="#fff" d="M2213.157,837.135h-70.582c-8.698,0-15.748-7.051-15.748-15.748
								c0-8.697,7.051-15.748,15.748-15.748h70.582c8.697,0,15.748,7.051,15.748,15.748
								C2228.905,830.084,2221.854,837.135,2213.157,837.135z"/><path fill="#212121" d="M2213.157,842.135h-70.582c-11.44,0-20.748-9.308-20.748-20.748s9.308-20.748,20.748-20.748
								h70.582c11.44,0,20.748,9.308,20.748,20.748S2224.597,842.135,2213.157,842.135z M2142.575,810.639
								c-5.927,0-10.748,4.822-10.748,10.748s4.821,10.748,10.748,10.748h70.582c5.927,0,10.748-4.822,10.748-10.748
								s-4.821-10.748-10.748-10.748H2142.575z"/><path fill="#fff" d="M2061.179,837.135h-70.582c-8.697,0-15.748-7.051-15.748-15.748
								c0-8.697,7.051-15.748,15.748-15.748h70.582c8.697,0,15.748,7.051,15.748,15.748
								C2076.927,830.084,2069.876,837.135,2061.179,837.135z"/><path fill="#212121" d="M2061.178,842.135h-70.581c-11.44,0-20.748-9.308-20.748-20.748s9.308-20.748,20.748-20.748
								h70.581c11.44,0,20.748,9.308,20.748,20.748S2072.619,842.135,2061.178,842.135z M1990.597,810.639
								c-5.927,0-10.748,4.822-10.748,10.748s4.821,10.748,10.748,10.748h70.581c5.927,0,10.748-4.822,10.748-10.748
								s-4.821-10.748-10.748-10.748H1990.597z"/><path fill="#212121" d="M2111.315,969.408h-29.409c-2.762,0-5-2.239-5-5c0-41.192,13.638-77.79,14.219-79.328
						c0.976-2.583,3.86-3.886,6.441-2.912c2.583,0.975,3.888,3.858,2.915,6.442c-0.13,0.345-12.456,33.477-13.504,70.798h24.338
						c2.762,0,5,2.239,5,5S2114.077,969.408,2111.315,969.408z"/><g><circle cx="2128.84" cy="996.556" r="14.557" fill="#212121"/><path fill="#212121" d="M2128.84,1016.112c-10.783,0-19.557-8.773-19.557-19.557s8.773-19.557,19.557-19.557
							s19.557,8.773,19.557,19.557S2139.624,1016.112,2128.84,1016.112z M2128.84,986.999c-5.27,0-9.557,4.287-9.557,9.557
							s4.287,9.557,9.557,9.557s9.557-4.287,9.557-9.557S2134.11,986.999,2128.84,986.999z"/></g><g><path fill="#212121" d="M2173.676,900.744c-7.425,0-14.424-1.86-19.705-5.237c-6.475-4.139-10.04-10.375-10.04-17.561
							c0-2.761,2.238-5,5-5s5,2.239,5,5c0,8.793,10.235,12.797,19.745,12.797s19.745-4.004,19.745-12.797c0-2.761,2.238-5,5-5
							s5,2.239,5,5C2203.421,892.914,2188.458,900.744,2173.676,900.744z"/><path fill="#212121" d="M2031.106,900.744c-7.426,0-14.424-1.86-19.706-5.237
							c-6.474-4.139-10.039-10.375-10.039-17.561c0-2.761,2.238-5,5-5s5,2.239,5,5c0,8.793,10.235,12.797,19.745,12.797
							c9.509,0,19.744-4.004,19.744-12.797c0-2.761,2.238-5,5-5s5,2.239,5,5C2060.85,892.914,2045.886,900.744,2031.106,900.744z"/></g></g><g><path fill="#212121" d="M1712.993,662.135h182.671v46.734h-182.671c-12.905,0-23.367-10.462-23.367-23.367
							C1689.627,672.597,1700.088,662.135,1712.993,662.135z"/><path fill="#212121" d="M1895.665,713.869h-182.671c-15.642,0-28.367-12.726-28.367-28.367
							s12.726-28.367,28.367-28.367h182.671c2.762,0,5,2.239,5,5v46.734C1900.665,711.631,1898.426,713.869,1895.665,713.869z
							 M1712.994,667.135c-10.128,0-18.367,8.239-18.367,18.367c0,10.128,8.239,18.367,18.367,18.367h177.671v-36.734H1712.994z"/><path fill="#212121" d="M2333.808,699.745c0.248,4.95-3.979,9.175-8.93,9.175h-437.127
							c-4.951,0-9.178-4.225-8.93-9.175c4.828-120.599,104.781-185.787,227.552-185.787c94.041,0,174.802,36.216,209.326,109.131
							c-13.398,1.569-25.346,7.605-34.4,16.78c-10.746,10.623-17.265,25.351-17.265,41.648h68.206
							C2333.088,687.432,2333.572,693.468,2333.808,699.745z"/><path fill="#212121" d="M2324.877,713.92H1887.75c-3.79,0-7.485-1.6-10.139-4.39
							c-2.627-2.761-3.971-6.325-3.785-10.035c2.351-58.73,27.076-107.794,71.5-141.837c41.575-31.86,97.264-48.701,161.046-48.701
							c48.303,0,92.987,9.597,129.223,27.752c38.918,19.5,67.39,47.842,84.624,84.239c0.688,1.456,0.635,3.154-0.146,4.563
							c-0.78,1.409-2.191,2.355-3.791,2.542c-12.057,1.413-22.923,6.712-31.424,15.327c-9.035,8.933-14.463,20.542-15.6,33.136
							h62.981c2.487,0,4.596,1.828,4.949,4.29c0.829,5.779,1.357,11.902,1.613,18.719c0.177,3.699-1.167,7.25-3.786,10.004
							C2332.363,712.32,2328.667,713.92,2324.877,713.92z M2106.373,518.958c-130.797,0-218.155,71.042-222.556,180.988
							c-0.066,1.328,0.623,2.254,1.04,2.692c0.775,0.815,1.83,1.282,2.894,1.282h437.127c1.063,0,2.118-0.467,2.894-1.282
							c0.417-0.438,1.106-1.364,1.042-2.643c-0.001-0.021-0.002-0.042-0.002-0.062c-0.181-4.804-0.501-9.231-0.973-13.416h-63.805
							c-2.762,0-5-2.239-5-5c0-17.197,6.659-33.25,18.75-45.204c8.431-8.543,18.861-14.354,30.446-17.005
							C2274.763,555.434,2201.647,518.958,2106.373,518.958z"/><path fill="#fff" d="M1887.75,713.92c-3.79,0-7.485-1.6-10.139-4.39c-2.627-2.761-3.971-6.325-3.785-10.035
						c0.565-14.112,2.449-27.883,5.6-40.882c0.65-2.684,3.351-4.333,6.037-3.682c2.684,0.65,4.332,3.353,3.682,6.037
						c-2.995,12.359-4.788,25.473-5.328,38.977c-0.066,1.328,0.623,2.254,1.04,2.692c0.775,0.815,1.83,1.282,2.894,1.282
						c2.762,0,5,2.239,5,5S1890.512,713.92,1887.75,713.92z"/></g></g><g><path fill="#212121" d="M1172.146,1100.144h-174.79c-6.99,0-12.65-5.66-12.65-12.64v-35.15
									c0-6.98,5.66-12.64,12.65-12.64h150.99c-0.09,3.97,0.04,8.03,0.45,12.12c1.18,11.7,4.62,23.69,11.78,34.71
									C1163.936,1091.724,1167.836,1096.234,1172.146,1100.144z"/><path fill="#212121" d="M1172.146,1105.144h-174.79c-9.732,0-17.65-7.914-17.65-17.64v-35.15
									c0-9.727,7.917-17.64,17.65-17.64h150.99c1.346,0,2.635,0.542,3.576,1.505c0.94,0.962,1.454,2.263,1.423,3.609
									c-0.089,3.926,0.054,7.797,0.426,11.507c1.232,12.22,4.933,23.15,10.998,32.485c3.014,4.646,6.625,8.891,10.736,12.621
									c1.531,1.389,2.049,3.576,1.305,5.504C1176.066,1103.872,1174.212,1105.144,1172.146,1105.144z M997.356,1044.714
									c-4.218,0-7.65,3.427-7.65,7.64v35.15c0,4.213,3.432,7.64,7.65,7.64h163.262c-1.507-1.889-2.921-3.851-4.237-5.879
									c-6.939-10.68-11.166-23.106-12.56-36.929c-0.25-2.489-0.407-5.038-0.47-7.622H997.356z"/><path fill="#212121" d="M939.228,1100.143H716.999c-6.982,0-12.643-5.66-12.643-12.643v-35.145
									c0-6.982,5.66-12.643,12.643-12.643h222.228c6.982,0,12.643,5.66,12.643,12.643v35.145
									C951.871,1094.483,946.21,1100.143,939.228,1100.143z"/><path fill="#212121" d="M939.228,1105.143H717c-9.729,0-17.643-7.915-17.643-17.643v-35.145
									c0-9.729,7.915-17.643,17.643-17.643h222.228c9.729,0,17.643,7.915,17.643,17.643v35.145
									C956.871,1097.229,948.956,1105.143,939.228,1105.143z M717,1044.713c-4.214,0-7.643,3.429-7.643,7.643v35.145
									c0,4.214,3.429,7.643,7.643,7.643h222.228c4.214,0,7.643-3.429,7.643-7.643v-35.145c0-4.214-3.429-7.643-7.643-7.643H717z"/><path fill="#212121" d="M1079.404,1100.143H857.176c-6.982,0-12.643-5.66-12.643-12.643v-35.145
								c0-6.982,5.66-12.643,12.643-12.643h222.228c6.982,0,12.643,5.66,12.643,12.643v35.145
								C1092.047,1094.483,1086.387,1100.143,1079.404,1100.143z"/><path fill="#fff" d="M1079.404,1105.143H857.176c-9.728,0-17.643-7.915-17.643-17.643v-35.145
								c0-9.729,7.915-17.643,17.643-17.643h222.228c9.728,0,17.643,7.915,17.643,17.643v35.145
								C1097.047,1097.229,1089.132,1105.143,1079.404,1105.143z M857.176,1044.713c-4.214,0-7.643,3.429-7.643,7.643v35.145
								c0,4.214,3.428,7.643,7.643,7.643h222.228c4.214,0,7.643-3.429,7.643-7.643v-35.145c0-4.214-3.428-7.643-7.643-7.643H857.176
								z"/><path fill="#212121" d="M1159.886,988.784c-1.22,2.79-5.27,12.33-8.24,25.26h-430.83c-9.72,0-17.25-8.64-15.79-18.25
								c1.04-6.78,3.08-16.61,7.29-28.06c17.59-47.83,73.07-123.91,251.11-123.91c54.59,0,97.85,4.51,132.22,12.48
								c-20.37,28.7-24.41,63.89-10.83,89.87c3.58,6.84,8.14,12.59,13.24,17.41C1121.886,986.144,1157.526,988.654,1159.886,988.784
								z"/><path fill="#212121" d="M1151.646,1019.044h-430.83c-6.125,0-11.929-2.667-15.926-7.316
								c-3.965-4.613-5.718-10.695-4.808-16.685c1.489-9.709,4.026-19.476,7.541-29.035c8.48-23.06,27.049-56.066,67.347-82.354
								c45.604-29.748,109.01-44.831,188.456-44.831c52.401,0,97.267,4.242,133.35,12.609c1.624,0.376,2.954,1.538,3.545,3.096
								c0.592,1.559,0.368,3.31-0.597,4.669c-19.146,26.976-23.258,60.207-10.476,84.66c3.107,5.936,7.227,11.351,12.244,16.093
								c22.853,21.635,57.218,23.761,58.67,23.841c1.636,0.09,3.124,0.976,3.983,2.372c0.859,1.395,0.98,3.123,0.324,4.624
								c-1.849,4.229-5.339,13.018-7.948,24.376C1155.998,1017.434,1153.976,1019.044,1151.646,1019.044z M963.426,848.823
								c-175.803,0-229.848,75.582-246.417,120.636c-3.285,8.933-5.653,18.048-7.041,27.093c-0.471,3.099,0.442,6.257,2.505,8.657
								c2.095,2.437,5.135,3.834,8.342,3.834h426.902c1.634-6.349,3.469-11.806,5.051-16.004
								c-12.367-1.761-38.829-7.533-58.15-25.825c-5.82-5.501-10.61-11.801-14.232-18.722c-13.522-25.869-10.626-60.05,7.079-88.875
								C1053.368,852.452,1011.689,848.823,963.426,848.823z"/><ellipse cx="912.44" cy="874.882" fill="#fff" rx="6.692" ry="12.167" transform="rotate(-88.51 912.392 874.849)"/><ellipse cx="843.088" cy="886.493" fill="#fff" rx="12.167" ry="6.692" transform="rotate(-12.134 843.214 886.593)"/><ellipse cx="1014.332" cy="881.579" fill="#fff" rx="12.167" ry="6.692" transform="rotate(-5.957 1014.639 882.132)"/><ellipse cx="968.29" cy="902.872" fill="#fff" rx="12.167" ry="6.692" transform="rotate(-5.957 968.573 903.426)"/><ellipse cx="784.602" cy="922.994" fill="#fff" rx="12.167" ry="6.692" transform="rotate(-22.321 784.614 922.995)"/><ellipse cx="848.259" cy="916.911" fill="#fff" rx="12.167" ry="6.692" transform="rotate(-12.134 848.386 917.014)"/><g><path fill="#212121" d="M1165.37,1306.225H771.245c-37.606,0-68.091-30.485-68.091-68.091v-0.533
							c0-7.823,6.342-14.165,14.165-14.165h501.977c7.823,0,14.165,6.342,14.165,14.165v0.533
							C1233.461,1275.74,1202.976,1306.225,1165.37,1306.225z"/><path fill="#212121" d="M1165.37,1311.225H771.245c-40.303,0-73.091-32.789-73.091-73.091v-0.532
							c0-10.568,8.598-19.165,19.165-19.165h501.977c10.567,0,19.165,8.597,19.165,19.165v0.532
							C1238.461,1278.437,1205.672,1311.225,1165.37,1311.225z M717.319,1228.437c-5.054,0-9.165,4.111-9.165,9.165v0.532
							c0,34.789,28.303,63.091,63.091,63.091h394.125c34.789,0,63.091-28.303,63.091-63.091v-0.532c0-5.054-4.111-9.165-9.165-9.165
							H717.319z"/></g><g><path fill="#fff" d="M1222.696,1223.437H713.919c-5.228,0-9.466-4.238-9.466-9.466v-74.147
							c0-5.228,4.238-9.466,9.466-9.466h508.777c5.228,0,9.466,4.238,9.466,9.466v74.147
							C1232.162,1219.199,1227.924,1223.437,1222.696,1223.437z"/><path fill="#212121" d="M1222.696,1228.437H713.919c-7.977,0-14.466-6.489-14.466-14.466v-74.147
							c0-7.977,6.489-14.466,14.466-14.466h508.776c7.977,0,14.466,6.489,14.466,14.466v74.147
							C1237.162,1221.948,1230.672,1228.437,1222.696,1228.437z M713.919,1135.358c-2.462,0-4.466,2.003-4.466,4.466v74.147
							c0,2.462,2.003,4.466,4.466,4.466h508.776c2.463,0,4.466-2.003,4.466-4.466v-74.147c0-2.462-2.003-4.466-4.466-4.466H713.919z
							"/></g><g><path fill="#fff" d="M1236.546,1122.584v2.63c0,2.73-2.21,4.94-4.94,4.94h-24.51l-73.51,73.51
							c-3.19,3.19-8.37,3.19-11.56,0l-73.51-73.51h-343.5c-2.73,0-4.95-2.21-4.95-4.94v-20.12c0-2.74,2.22-4.95,4.95-4.95h467.13
							C1189.226,1115.644,1212.916,1121.714,1236.546,1122.584z"/><path fill="#212121" d="M1127.806,1211.052c-3.374,0-6.748-1.284-9.316-3.853l-72.045-72.046H705.016
							c-5.487,0-9.95-4.459-9.95-9.94v-20.12c0-5.486,4.463-9.95,9.95-9.95h467.13c1.242,0,2.44,0.462,3.36,1.297
							c14.195,12.882,35.366,20.194,61.224,21.146c2.688,0.099,4.816,2.307,4.816,4.997v2.63c0,5.481-4.459,9.94-9.94,9.94h-22.438
							l-72.046,72.046C1134.553,1209.768,1131.18,1211.052,1127.806,1211.052z M1048.516,1125.154c1.326,0,2.598,0.527,3.536,1.464
							l73.51,73.51c1.238,1.239,3.252,1.238,4.489,0l73.511-73.51c0.938-0.938,2.209-1.464,3.535-1.464h7.044
							c-17.647-3.368-32.348-10.063-43.888-20.01H705.016l0.05,20.07L1048.516,1125.154z"/></g><g><path fill="#fff" d="M1148.346,1039.714c-0.09,3.97,0.04,8.03,0.45,12.12c-14.96-6.52-28.82-13.02-48.9,9.07
							c-36.14,26.91-78.23,20.21-115.19,1.43c-3.29-1.67-6.54-3.43-9.74-5.28c-28.75-8.55-59.35,14.95-88.52,7.92
							c-15.75-3.8-28.55-16.07-44.43-19.3c-36.56-6.98-64.57,31.05-99.75,32.87c-17.8,0.93-29.06-5.98-37.6-29.31
							c-8.54-23.33-46.01,5.74-64.67-6.1c-15.69-7.1-15.73-40.14,0.2-60.61c12.66-16.24,38.76-21.86,51.11-19.46
							c7.91,1.53,14.66,3.21,21.01,4.67c15.09,3.48,27.86,5.73,48.26,1.92c22.34-4.35,47.97-21.32,69.74-6.88
							c7.7,5.4,13.25,15.01,22.59,16.16c6.73,0.83,12.96-3.16,18.9-6.42c18.03-9.9,40.88-14.05,59.02-4.35
							c13.36,7.13,25.39,21.58,40.15,18.22c10.91-2.48,17.25-13.9,27.04-19.32c21.67-11.99,47.83,9.17,72.42,6.23
							c12.11-4.47,20.75-7.61,27.62-9.71c23.83,22.56,59.47,25.07,61.83,25.2c-1.22,2.79-5.27,12.33-8.24,25.26
							C1149.906,1021.654,1148.536,1030.444,1148.346,1039.714z"/><path fill="#212121" d="M1045.896,1083.8c-19.81,0.001-41.132-5.666-63.455-17.008
							c-3.193-1.621-6.37-3.336-9.447-5.104c-13.195-3.711-27.131-0.033-41.874,3.859c-14.929,3.942-30.365,8.02-45.846,4.287
							c-8.288-2-15.64-6.058-22.75-9.982c-7.235-3.994-14.07-7.766-21.504-9.278c-18.368-3.507-34.721,5.699-52.034,15.444
							c-14.538,8.184-29.57,16.645-46.461,17.519c-21.062,1.106-33.791-8.645-42.554-32.584c-2.917-7.965-10.464-7.098-26.993-3.217
							c-11.879,2.789-25.327,5.946-35.365-0.196c-6.29-2.986-10.911-9.336-13.034-17.927c-3.883-15.713,0.916-36.34,11.671-50.16
							c14.029-17.996,42.022-24.015,56.01-21.297c6.18,1.195,11.546,2.454,16.735,3.67c1.508,0.354,2.985,0.7,4.441,1.035
							c14.746,3.401,26.689,5.526,46.222,1.878c5.814-1.132,11.957-3.204,18.459-5.396c17.424-5.875,37.172-12.535,54.962-0.735
							c0.036,0.023,0.072,0.048,0.107,0.073c2.969,2.082,5.531,4.597,8.008,7.029c4.215,4.138,7.855,7.712,12.322,8.262
							c4.436,0.546,9.108-2.063,14.057-4.827c0.612-0.342,1.221-0.682,1.827-1.014c22.233-12.208,46.078-13.843,63.784-4.375
							c4.229,2.257,8.249,5.137,12.136,7.922c8.4,6.017,16.336,11.7,24.546,9.832c5.096-1.158,9.342-5.158,13.836-9.393
							c3.597-3.389,7.316-6.893,11.892-9.426c14.257-7.888,29.589-3.439,44.416,0.863c9.813,2.847,19.954,5.788,29.267,4.839
							c11.126-4.106,20.221-7.42,27.316-9.589c1.725-0.523,3.593-0.086,4.899,1.151c22.85,21.632,57.215,23.758,58.667,23.838
							c1.636,0.09,3.124,0.976,3.983,2.371c0.859,1.395,0.98,3.123,0.324,4.624c-1.849,4.228-5.339,13.018-7.948,24.376
							c-1.945,8.505-3.013,16.801-3.174,24.653c0,0.003,0,0.007,0,0.011c-0.089,3.926,0.054,7.797,0.426,11.507
							c0.177,1.766-0.596,3.494-2.03,4.54s-3.315,1.252-4.943,0.543l-0.651-0.284c-14.615-6.376-25.174-10.983-42.552,8.133
							c-0.216,0.238-0.456,0.455-0.713,0.647C1085.978,1077.501,1066.778,1083.799,1045.896,1083.8z M961.255,1050.155
							c5.042,0,10.094,0.607,15.136,2.106c0.376,0.112,0.738,0.268,1.077,0.464c3.086,1.784,6.283,3.517,9.501,5.15
							c29.355,14.916,72.146,26.863,109.562-0.702c18.729-20.383,33.657-18.156,46.807-13.062c-0.028-1.495-0.025-3,0.009-4.511
							c0.175-8.529,1.328-17.502,3.424-26.671c1.842-8.019,4.101-14.857,5.997-19.89c-11.904-1.695-36.869-7.107-55.952-23.824
							c-6.573,2.123-14.811,5.137-24.649,8.769c-0.367,0.136-0.749,0.228-1.138,0.274c-11.493,1.373-22.834-1.919-33.806-5.103
							c-13.458-3.905-26.171-7.593-36.787-1.717c-3.475,1.924-6.585,4.854-9.877,7.955c-5.272,4.967-10.724,10.103-18.476,11.865
							c-12.601,2.866-23.218-4.74-32.588-11.454c-3.792-2.716-7.373-5.282-11.024-7.23c-14.718-7.87-35-6.254-54.259,4.321
							c-0.586,0.321-1.173,0.649-1.764,0.979c-5.848,3.266-12.472,6.97-20.155,6.021c-7.831-0.964-13.289-6.323-18.104-11.051
							c-2.271-2.23-4.418-4.337-6.691-5.941c-13.695-9.042-29.478-3.72-46.185,1.913c-6.527,2.201-13.276,4.477-19.781,5.744
							c-21.429,4.002-34.922,1.6-50.339-1.956c-1.467-0.337-2.958-0.687-4.48-1.044c-5.095-1.195-10.364-2.43-16.355-3.589
							c-11.505-2.239-35.222,3.52-46.217,17.625c-8.997,11.562-13.05,28.676-9.852,41.616c0.997,4.031,3.153,9.275,7.771,11.365
							c0.213,0.096,0.419,0.208,0.617,0.333c6.519,4.137,17.449,1.571,28.018-0.912c14.437-3.39,32.402-7.606,38.669,9.515
							c8.333,22.766,18.266,26.782,32.644,26.036c14.55-0.753,27.92-8.279,42.074-16.247c18.119-10.199,36.854-20.747,58.874-16.542
							c8.993,1.829,16.827,6.153,24.403,10.334c6.832,3.771,13.284,7.333,20.262,9.016c13.024,3.139,26.588-0.443,40.949-4.235
							C939.282,1053.05,950.247,1050.155,961.255,1050.155z M1148.346,1039.714h0.01H1148.346z"/></g><g><path fill="#fff" d="M1618.123,1790.528c0,0-253.515-315.82-334.439-407.811
							c-80.924-91.991-143.127-115.889-212.512-78.784s-76.705,125.595-39.719,183.129s341.038,415.825,389.079,464.141
							c48.041,48.316,132.011,93.629,195.624,34.696C1679.77,1926.967,1671.841,1852.647,1618.123,1790.528z"/><path fill="#212121" d="M1546.598,2018.796c-11.426,0-23.282-1.731-35.468-5.218
							c-31.647-9.057-65.962-30.506-94.144-58.848c-47.026-47.296-352.646-407.262-389.739-464.963
							c-21.374-33.249-28.256-75.729-18.409-113.632c8.792-33.837,29.531-60.329,59.976-76.61
							c36.237-19.379,70.921-22.419,106.037-9.293c34.694,12.968,70.469,41.307,112.586,89.184
							c79.672,90.567,329.53,401.688,334.527,407.912c28.143,32.57,43.418,67.831,44.173,101.972
							c0.81,36.615-15.299,71.287-46.582,100.27C1598.636,2008.948,1573.844,2018.796,1546.598,2018.796z M1132.18,1292.224
							c-19.415,0-38.724,5.463-58.649,16.119c-35.272,18.862-49.385,48.644-55.013,70.306c-9.158,35.25-2.75,74.768,17.142,105.71
							c36.933,57.452,341.528,416.161,388.419,463.319c27.015,27.168,59.746,47.684,89.803,56.285
							c38.235,10.941,71.503,3.63,98.878-21.731c57.2-52.991,57.791-123.434,1.582-188.434c-0.04-0.046-0.079-0.093-0.117-0.141
							c-2.534-3.157-254.37-316.784-334.294-407.638C1223.895,1322.321,1177.748,1292.224,1132.18,1292.224z"/><path fill="#fff" d="M839.865,1426.879l-135.308-37.847c-17.794-4.914-28.236-23.325-23.321-41.119l5.573-20.175
							c11.926-43.173,57.188-62.23,100.36-50.302l80.498,22.241l142.323-22.457l86.373-3.441
							c99.206-11.235,188.141,53.808,199.375,153.014l5.367,47.392l-218.596,29.054
							C1082.51,1503.238,855.696,1431.307,839.865,1426.879z"/><path fill="#212121" d="M1082.511,1508.239c-0.501,0-1.01-0.076-1.513-0.235
							c-2.267-0.719-226.912-71.956-242.479-76.31l-135.309-37.847c-20.408-5.636-32.435-26.841-26.794-47.265l5.573-20.175
							c6.032-21.835,20.639-39.236,41.132-48.997c19.584-9.328,42.804-11.031,65.379-4.793l79.456,21.952l141.255-22.289
							c0.192-0.03,0.386-0.049,0.58-0.057l86.192-3.434c49.608-5.576,97.927,7.242,136.074,36.093
							c38.725,29.289,63.105,72.384,68.649,121.347l1.751,15.463c0.312,2.744-1.661,5.22-4.405,5.531
							c-2.75,0.31-5.221-1.662-5.531-4.406l-1.75-15.463c-10.694-94.429-95.836-159.707-193.845-148.608
							c-0.121,0.014-0.242,0.023-0.363,0.028l-86.081,3.429l-142.035,22.412c-0.705,0.11-1.424,0.07-2.111-0.12l-80.498-22.24
							c-20.256-5.596-41.002-4.111-58.417,4.183c-17.834,8.494-30.546,23.634-35.793,42.631l-5.573,20.175
							c-4.172,15.108,4.725,30.795,19.833,34.968l135.324,37.851c15.732,4.4,233.545,73.47,242.81,76.408
							c2.632,0.835,4.089,3.646,3.254,6.277C1086.601,1506.879,1084.632,1508.239,1082.511,1508.239z"/><path fill="#212121" d="M760.328,1401.892c-0.528,0-1.066-0.084-1.595-0.263c-2.617-0.88-4.025-3.716-3.145-6.333
							c2.188-6.502-1.322-13.571-7.824-15.759l-49.222-16.561c-2.617-0.88-4.025-3.716-3.145-6.333
							c0.88-2.618,3.714-4.026,6.333-3.145l49.223,16.561c11.728,3.946,18.059,16.697,14.114,28.425
							C764.364,1400.573,762.417,1401.892,760.328,1401.892z"/></g></g><g><path fill="#fff" d="M2540.25,1960.264c0,0-299.155-232.11-346.783-286.564
						c-47.629-54.454-115.932-170.859-45.24-237.142c70.691-66.284,135.931-72.762,229.804,13.063
						c93.872,85.825,292.025,265.834,338.689,315.482c46.664,49.648,79.908,138.22,18.858,199.804
						S2600.517,2016.051,2540.25,1960.264z"/><path fill="#212121" d="M2643.959,2011.777c-2.201,0-4.407-0.062-6.619-0.186
						c-34.062-1.907-68.751-18.335-100.325-47.509c-14.481-11.238-300.11-233.125-347.312-287.09
						c-11.405-13.04-50.014-59.933-67.987-115.898c-17.202-53.564-9.218-97.89,23.091-128.184
						c38.598-36.192,73.467-52.684,109.74-51.861c38.552,0.86,80.047,22.083,126.858,64.88
						c10.727,9.807,22.814,20.844,35.883,32.775c104.178,95.117,261.612,238.859,303.075,282.973
						c26.277,27.957,44.901,63.663,51.099,97.961c7.615,42.15-3.565,79.768-32.333,108.787
						C2710.92,1996.88,2678.145,2011.776,2643.959,2011.777z M2252.036,1391.021c-32.688,0-64.657,15.679-100.39,49.184
						c-29.707,27.855-36.574,67.499-20.409,117.831c17.387,54.138,54.907,99.698,65.993,112.372
						c46.771,53.473,343.098,283.587,346.086,285.906c0.114,0.089,0.225,0.183,0.331,0.281
						c63.062,58.375,133.482,60.167,188.38,4.792c61.131-61.666,22.159-149.121-18.951-192.859
						c-41.2-43.835-198.466-187.422-302.53-282.436c-13.07-11.933-25.16-22.972-35.889-32.78
						c-44.946-41.093-84.308-61.459-120.333-62.263C2253.561,1391.03,2252.797,1391.021,2252.036,1391.021z"/><rect width="24.145" height="241.954" x="2116.768" y="996.555" fill="#fff"/><path fill="#212121" d="M2140.912,1243.51h-24.145c-2.762,0-5-2.239-5-5V996.555c0-2.761,2.238-5,5-5h24.145
							c2.762,0,5,2.239,5,5v241.954C2145.912,1241.271,2143.673,1243.51,2140.912,1243.51z M2121.767,1233.51h14.145v-231.954
							h-14.145V1233.51z"/><path fill="#fff" d="M1972.78,1215.003l24.342,408.636c0.76,12.757,11.327,22.713,24.107,22.713h215.23
							c12.78,0,23.347-9.957,24.107-22.714l24.336-408.636H1972.78z"/><path fill="#212121" d="M2236.458,1651.352h-215.229c-15.4,0-28.182-12.042-29.098-27.416l-24.342-408.636
							c-0.082-1.375,0.407-2.724,1.353-3.726c0.944-1.003,2.261-1.571,3.639-1.571h312.121c1.378,0,2.694,0.568,3.639,1.571
							c0.945,1.002,1.435,2.351,1.353,3.726l-24.336,408.636C2264.64,1639.309,2251.859,1651.352,2236.458,1651.352z
							 M1978.086,1220.003l24.026,403.339c0.602,10.1,8.998,18.011,19.115,18.011h215.229c10.118,0,18.515-7.912,19.116-18.011
							l24.021-403.338H1978.086z"/><path fill="#212121" d="M2279.304,1158.931h-300.927c-2.921,0-5.604,1.609-6.979,4.186l-21.482,40.25
							c-2.812,5.269,1.006,11.635,6.979,11.635h343.891c5.973,0,9.791-6.366,6.979-11.635l-21.482-40.25
							C2284.908,1160.541,2282.225,1158.931,2279.304,1158.931z"/><path fill="#212121" d="M2300.786,1220.003h-343.892c-4.578,0-8.717-2.344-11.071-6.27
							c-2.355-3.926-2.474-8.681-0.318-12.72l21.482-40.25c2.249-4.213,6.613-6.831,11.39-6.831h300.928
							c4.776,0,9.141,2.618,11.39,6.831l21.482,40.25c2.155,4.04,2.036,8.794-0.319,12.72
							C2309.502,1217.659,2305.364,1220.003,2300.786,1220.003z M1978.376,1163.931c-1.077,0-2.061,0.59-2.567,1.54l-21.482,40.25
							c-0.7,1.312-0.184,2.442,0.071,2.867s1.009,1.414,2.496,1.414h343.892c1.487,0,2.241-0.989,2.496-1.414
							c0.255-0.425,0.772-1.556,0.072-2.868l-21.482-40.25c-0.507-0.95-1.49-1.54-2.567-1.54H1978.376z"/><g><path fill="#fff" d="M2303.212,1743.029l-126.729-13.71c-65.921-7.132-113.58-66.353-106.448-132.274
							l24.551-226.933c7.132-65.921,66.353-113.579,132.274-106.448l126.729,13.71c45.575,4.931,78.524,45.873,73.594,91.448
							l-32.522,300.612C2389.73,1715.01,2348.787,1747.959,2303.212,1743.029z"/><path fill="#212121" d="M2312.206,1748.515c-3.152,0-6.328-0.169-9.532-0.516l-126.729-13.71
							c-68.557-7.417-118.297-69.226-110.88-137.783l24.55-226.933c7.416-68.557,69.233-118.29,137.783-110.881l126.729,13.71
							c23.37,2.528,44.356,14.006,59.094,32.319c14.737,18.312,21.461,41.269,18.933,64.638l-32.521,300.612
							C2394.759,1715.013,2356.518,1748.512,2312.206,1748.515z M2213.861,1267.961c-57.94,0-107.934,43.799-114.305,102.688
							l-24.55,226.933c-6.823,63.075,38.939,119.941,102.015,126.765l126.729,13.71c42.758,4.625,81.314-26.399,85.94-69.16
							l32.521-300.612c2.241-20.714-3.719-41.062-16.782-57.293c-13.062-16.232-31.664-26.405-52.379-28.646l-126.729-13.71
							C2222.137,1268.182,2217.978,1267.961,2213.861,1267.961z"/><path fill="#fff" d="M2093.982,1419.129c94.475,12.287,296.219,27.75,320.219,30.491"/><path fill="#212121" d="M2414.207,1454.62c-0.189,0-0.381-0.011-0.573-0.033c-6.853-0.783-28.376-2.616-58.166-5.153
								c-72.858-6.205-194.802-16.591-262.13-25.348c-2.738-0.356-4.67-2.865-4.313-5.603c0.355-2.737,2.865-4.673,5.603-4.313
								c67.109,8.728,188.914,19.102,261.689,25.3c29.873,2.544,51.457,4.383,58.452,5.182c2.743,0.313,4.714,2.792,4.4,5.535
								C2418.877,1452.738,2416.714,1454.62,2414.207,1454.62z"/><line x1="2075.487" x2="2396.461" y1="1590.089" y2="1613.603" fill="#fff"/><path fill="#212121" d="M2396.465,1618.603c-0.122,0-0.246-0.004-0.37-0.013l-320.974-23.514
								c-2.754-0.202-4.823-2.598-4.621-5.352c0.201-2.754,2.588-4.815,5.352-4.622l320.974,23.514
								c2.754,0.202,4.823,2.598,4.621,5.352C2401.254,1616.598,2399.061,1618.603,2396.465,1618.603z"/><path fill="#212121" d="M2173.369,1377.067c-1.51,0-3.028-0.096-4.551-0.29l-40.164-4.965
							c-2.741-0.339-4.688-2.835-4.349-5.576c0.338-2.74,2.836-4.682,5.575-4.349l40.183,4.968
							c6.765,0.859,13.44-0.958,18.819-5.121c5.377-4.163,8.812-10.171,9.67-16.917c0.859-6.747-0.96-13.423-5.123-18.8
							c-4.163-5.377-10.171-8.812-16.918-9.671l-17.375-2.212c-2.739-0.349-4.677-2.852-4.328-5.591
							c0.349-2.739,2.843-4.677,5.592-4.329l17.375,2.212c9.396,1.196,17.764,5.979,23.562,13.469s8.332,16.789,7.136,26.185
							c-1.196,9.396-5.979,17.763-13.469,23.561C2188.727,1374.5,2181.179,1377.067,2173.369,1377.067z"/><path fill="#212121" d="M2145.342,1541.157c-1.259,0-2.527-0.067-3.808-0.206l-30.712-2.761
							c-2.751-0.248-4.78-2.677-4.532-5.428c0.247-2.75,2.686-4.784,5.427-4.532l30.804,2.77c0.925,0.1,1.846,0.149,2.755,0.149
							c12.734,0.001,23.654-9.571,25.047-22.44c0.723-6.68-1.199-13.241-5.411-18.475s-10.211-8.515-16.891-9.237l-30.734-3.161
							c-2.747-0.282-4.744-2.738-4.462-5.485c0.282-2.746,2.739-4.744,5.485-4.462l30.761,3.164
							c9.361,1.013,17.744,5.597,23.631,12.912s8.572,16.484,7.562,25.819C2178.318,1527.775,2163.042,1541.156,2145.342,1541.157z"/><path fill="#212121" d="M2153.681,1695.437c-2.701,0-4.926-2.155-4.995-4.872c-0.071-2.76,2.109-5.056,4.869-5.127
							c6.502-0.167,12.549-2.856,17.027-7.572c4.479-4.715,6.854-10.893,6.687-17.395c-0.34-13.208-11.194-23.721-24.331-23.721
							c-0.186,0-0.371,0.002-0.558,0.006l-40.362,2.359c-2.749,0.142-5.122-1.943-5.283-4.7s1.942-5.123,4.699-5.284l40.448-2.364
							c0.055-0.003,0.109-0.005,0.163-0.007c18.935-0.474,34.732,14.52,35.22,33.453c0.487,18.933-14.52,34.733-33.452,35.22
							C2153.769,1695.436,2153.725,1695.437,2153.681,1695.437z"/></g></g><g><path fill="#fff" d="M1647.738,1660.443c-71.294-135.151-351.714-10.064-277.216,167.855l277.025,662.073
						c58.147,138.869,170.813,202.419,301.449,131.542c130.636-70.876,73.862-207.848,59.17-254.157L1647.738,1660.443z"/><path fill="#212121" d="M1843.976,2656.128c-19.995,0-39.483-3.306-58.167-9.885
						c-30.031-10.575-57.662-29.41-82.128-55.981c-24.011-26.079-44.449-59.038-60.747-97.959l-277.025-662.074
						c-18.43-44.015-17.015-88.478,4.093-128.581c18.319-34.804,50.484-64.391,90.571-83.311
						c36.012-16.997,74.432-23.408,108.18-18.054c37.771,5.992,66.612,25.988,83.408,57.827c0.011,0.021,0.021,0.042,0.032,0.063
						l360.427,707.313c0.124,0.244,0.228,0.497,0.311,0.758c0.966,3.045,2.148,6.583,3.4,10.328
						c18.158,54.334,60.682,181.574-64.951,249.736c-29.157,15.818-58.269,25.453-86.528,28.636
						C1857.842,2655.734,1850.877,2656.128,1843.976,2656.128z M1545.623,1608.316c-27.276,0-55.721,7.236-80.781,19.064
						c-71.913,33.941-127.541,108.633-89.708,198.987l277.025,662.074c32.174,76.839,79.538,128.145,136.972,148.369
						c49.062,17.277,102.045,10.786,157.479-19.292c118.258-64.16,77.599-185.824,60.236-237.777
						c-1.212-3.625-2.358-7.057-3.322-10.08l-360.222-706.911C1622.702,1623.722,1585.41,1608.316,1545.623,1608.316z"/><path fill="#212121" d="M2027.363,2380.469c-53.115-102.628-374.035-722.662-373.997-722.995
						c-92.323-148.923-365.777,3.059-288.734,173.219c-0.005,0.004,233.682,614.472,304.346,724.785
						c70.665,110.313,175.567,176.176,301.969,116.576S2080.479,2483.097,2027.363,2380.469z"/><path fill="#212121" d="M1877.204,2699.575c-27.337,0-54.117-5.841-80.188-17.53
						c-48.552-21.771-94.282-64.604-132.247-123.871c-29.477-46.014-89.735-182.138-179.104-404.591
						c-34.76-86.524-67.084-169.214-88.079-223.345c-11.905-30.695-21.495-55.625-27.444-71.135
						c-3.265-8.512-5.81-15.169-7.539-19.698l-1.97-5.166c-0.188-0.495-0.378-0.992-0.54-1.491l-0.015,0.007
						c-19.04-42.053-18.618-86.083,1.223-127.33c17.482-36.347,48.879-67.976,88.405-89.062
						c36.866-19.666,76.954-27.876,112.879-23.121c40.515,5.365,73.376,26.665,95.032,61.597c0.11,0.178,0.209,0.362,0.295,0.551
						c2.791,5.639,124.113,240.174,360.628,697.153l13.264,25.628c22.661,43.786,56.9,128.404,31.601,203.168
						c-14.066,41.566-44.456,73.608-90.323,95.235C1940.569,2691.905,1908.522,2699.575,1877.204,2699.575z M1369.318,1828.948
						c2.626,6.949,233.631,614.181,303.871,723.832c36.305,56.674,105.14,136.889,203.728,136.894
						c28.219,0.001,58.868-6.569,91.898-22.144c43.317-20.424,71.954-50.501,85.116-89.396
						c24.114-71.26-9.077-152.99-31.009-195.366l-13.264-25.628c-39.725-76.752-129.917-251.016-210.174-406.131
						c-40.128-77.558-77.772-150.328-105.383-203.729c-13.806-26.701-25.103-48.56-32.947-63.753
						c-3.923-7.598-6.982-13.53-9.062-17.566c-1.49-2.896-2.407-4.677-2.961-5.86l-0.016,0.009
						c-44.665-72.048-129.974-69.454-194.704-34.922c-68.795,36.699-124.81,116.017-85.226,203.443
						C1369.235,1828.735,1369.279,1828.841,1369.318,1828.948z"/></g><g><path fill="#fff" d="M1381.106,1681.039c-18.163,25.636-25.672,57.405-26.918,88.798l-35.209,830.409
							c-4.444,76.022,170.744,115.36,195.249,33.518l167.568-809.875C1717.859,1585.726,1470.333,1555.099,1381.106,1681.039z"/><path fill="#212121" d="M1436.046,2684.227c-9.078,0-18.486-0.83-27.976-2.504
							c-48.627-8.58-96.558-39.423-94.082-81.769l35.205-830.329c1.454-36.681,10.818-67.462,27.832-91.477l0,0
							c23.078-32.573,58.034-56.727,98.428-68.011c39.338-10.989,80.646-9.119,116.314,5.267
							c34.483,13.907,61.617,38.685,78.467,71.655c19.113,37.398,24.667,83.686,16.506,137.579
							c-0.013,0.088-0.029,0.177-0.047,0.265l-167.568,809.875c-0.029,0.142-0.065,0.282-0.106,0.421
							c-6.03,20.138-20.982,34.937-43.24,42.795C1464.06,2682.13,1450.472,2684.227,1436.046,2684.227z M1385.186,1683.929
							c-15.876,22.408-24.624,51.378-26.001,86.106l-35.21,830.422c-2.139,36.593,41.562,63.605,85.834,71.417
							c22.899,4.042,45.146,2.865,62.641-3.312c13.292-4.693,30.467-14.751,36.928-36.029l167.496-809.525
							c14.703-97.348-17.676-169.629-88.846-198.331C1516.701,1595.914,1429.499,1621.385,1385.186,1683.929L1385.186,1683.929z"/><path fill="#212121" d="M1588.704,2348.742l102.532-523.424c15.602-103.096-20.937-183.15-97.77-214.128
								c-110.312-44.639-249.741,31.553-248.812,158.245c0.842,12.013-14.224,324.374-24.674,566.201
								C1407.356,2344.474,1501.116,2354.119,1588.704,2348.742z"/><path fill="#212121" d="M1535.13,2355.308c-70.378,0-142.515-7.298-212.757-14.405l-2.896-0.293
								c-2.637-0.267-4.606-2.543-4.492-5.19c4.021-93.061,8.762-197.357,12.944-289.376
								c6.564-144.426,12.234-269.156,11.737-276.259c-0.008-0.104-0.012-0.208-0.013-0.313
								c-0.418-57.038,27.438-108.84,76.423-142.124c53.105-36.082,121.793-44.05,179.266-20.793
								c79.112,31.898,116.811,113.959,100.837,219.511c-0.011,0.071-0.022,0.143-0.036,0.213l-102.532,523.424
								c-0.438,2.234-2.329,3.89-4.601,4.03C1571.21,2354.825,1553.225,2355.308,1535.13,2355.308z M1588.704,2348.742h0.01
								H1588.704z M1325.179,2331.136c86.034,8.704,174.887,17.601,259.362,12.843l101.767-519.515
								c15.19-100.605-20.211-178.599-94.712-208.637c-54.419-22.023-119.52-14.438-169.899,19.792
								c-46.144,31.353-72.397,80.061-72.044,133.657c0.432,8.688-3.966,106.319-11.734,277.221
								C1333.807,2136.961,1329.156,2239.288,1325.179,2331.136z"/><path fill="#fff" d="M1588.709,2353.743c-0.319,0-0.643-0.031-0.967-0.094c-2.71-0.531-4.477-3.158-3.946-5.868
								l80.275-409.804c0.531-2.711,3.165-4.475,5.868-3.946c2.71,0.531,4.477,3.158,3.946,5.868l-80.275,409.804
								C1593.143,2352.089,1591.051,2353.743,1588.709,2353.743z"/><path fill="#fff" d="M1305.127,2357.966l1.826-32.245c0.676-11.939,10.903-21.07,22.842-20.394l255.198,14.45
								c11.939,0.676,21.07,10.903,20.394,22.842l-1.826,32.245c-0.676,11.939-10.903,21.07-22.842,20.394l-255.198-14.45
								C1313.582,2380.132,1304.451,2369.905,1305.127,2357.966z"/><path fill="#212121" d="M1581.978,2400.293c-0.513,0-1.025-0.015-1.542-0.043l-255.197-14.45
								c-14.673-0.831-25.934-13.444-25.104-28.117l0,0l1.826-32.246c0.402-7.107,3.549-13.633,8.859-18.375
								c5.311-4.742,12.138-7.129,19.258-6.729l255.196,14.45c7.108,0.402,13.634,3.549,18.375,8.859
								c4.742,5.311,7.132,12.15,6.729,19.258l-1.826,32.245c-0.402,7.108-3.549,13.633-8.859,18.375
								C1594.769,2397.919,1588.528,2400.293,1581.978,2400.293z M1310.12,2358.249L1310.12,2358.249
								c-0.52,9.167,6.517,17.048,15.685,17.567l255.197,14.45c4.438,0.255,8.714-1.241,12.032-4.204
								c3.318-2.962,5.284-7.04,5.535-11.48l1.826-32.245c0.252-4.441-1.241-8.714-4.204-12.032
								c-2.963-3.318-7.04-5.284-11.48-5.535l-255.197-14.45c-4.435-0.256-8.714,1.241-12.032,4.204s-5.284,7.04-5.535,11.48
								L1310.12,2358.249z"/><g><path fill="#fff" d="M1619.883,2826.229l-122.309-316.476c-13.012-33.67-55.201-44.673-83.001-21.648
						l-458.396,379.672c-38.382,31.79-15.458,94.168,34.375,93.539l542.592-6.847
						C1598.853,2953.639,1643.572,2887.523,1619.883,2826.229z"/><path fill="#fff" d="M952.838,2982.885l-0.983-71.738l670.951-9.19l0.983,71.738
									c0.361,26.361-20.716,48.023-47.077,48.385l-575.49,7.882C974.861,3030.323,953.199,3009.246,952.838,2982.885z"/><path fill="#212121" d="M1000.558,3034.966c-28.746,0-52.324-23.181-52.719-52.013l0,0l-0.982-71.738
									c-0.038-2.761,2.17-5.03,4.931-5.068l670.952-9.19c1.341-0.034,2.605,0.492,3.555,1.416
									c0.951,0.925,1.495,2.189,1.513,3.515l0.983,71.738c0.192,14.084-5.111,27.401-14.934,37.497
									c-9.823,10.096-22.99,15.762-37.075,15.955l-575.49,7.882C1001.047,3034.965,1000.8,3034.966,1000.558,3034.966z
									 M957.837,2982.816c0.323,23.562,19.766,42.454,43.316,42.146l575.49-7.882c11.414-0.156,22.084-4.748,30.044-12.93
									c7.961-8.181,12.259-18.973,12.102-30.387l-0.913-66.739l-660.953,9.053L957.837,2982.816z"/><path fill="#fff" d="M990.633,2967.678l540.103-6.816c32.304-0.408,63.339-15.059,82.381-41.158
									c20.608-28.243,25.206-63.393,12.7-95.769l-63.559-175.242l1.674-21.326c0.946-12.046-10.246-21.488-21.94-18.447
									c-9.445,2.456-19.136,4.307-23.78,3.141c-58.565-14.704-142.286-27.53-189.376-65.696l-376.717,316.511
									C908.973,2896.053,936.452,2970.385,990.633,2967.678z"/><path fill="#212121" d="M987.838,2972.748c-25.677,0-48.096-16.327-57.658-42.303
									c-9.921-26.952-2.539-54.99,18.803-71.463l376.636-316.443c1.836-1.542,4.503-1.565,6.365-0.056
									c37.518,30.407,98.775,44.326,152.822,56.605c12.233,2.78,23.788,5.405,34.624,8.125c1.107,0.279,5.909,0.873,21.304-3.13
									c7.143-1.858,14.483-0.2,20.148,4.545c5.687,4.765,8.615,11.738,8.034,19.132l-1.59,20.247l63.173,174.174
									c13.181,34.167,8.318,70.782-13.344,100.471c-19.423,26.62-51.705,42.773-86.356,43.209l-540.011,6.815
									C989.801,2972.724,988.817,2972.748,987.838,2972.748z M1328.941,2552.808l-373.605,313.897
									c-0.055,0.046-0.111,0.092-0.168,0.136c-21.713,16.696-21.976,42.837-15.603,60.15
									c6.375,17.318,23.519,37.049,50.819,35.694c0.062-0.003,0.124-0.005,0.187-0.006l540.102-6.816
									c31.52-0.397,60.829-15.016,78.405-39.105c19.627-26.9,24.028-60.076,12.075-91.02c-0.013-0.032-0.024-0.064-0.036-0.097
									l-63.56-175.242c-0.243-0.671-0.34-1.386-0.284-2.097l1.675-21.326c0.324-4.128-1.312-8.022-4.488-10.683
									c-3.153-2.642-7.239-3.565-11.208-2.533c-17.089,4.444-23.169,3.926-26.257,3.152c-10.726-2.693-22.228-5.307-34.403-8.073
									C1428.976,2596.657,1368.401,2582.893,1328.941,2552.808z"/><path fill="#fff" d="M1149.706,2817.314l224.124-185.576c4.941-4.118,11.029-14.715,11.029-14.715
								s26.786-91.135-36.002-100.632c-39.71-6.006-53.634,32.898-58.514,62.317l-196.979,165.498L1149.706,2817.314z"/><path fill="#212121" d="M1149.706,2822.314c-0.185,0-0.37-0.01-0.555-0.031c-1.348-0.151-2.577-0.843-3.405-1.917
								l-56.343-73.107c-1.636-2.123-1.308-5.157,0.744-6.88l195.576-164.32c8.219-46.674,30.857-69.604,63.882-64.611
								c15.839,2.396,27.824,9.814,35.621,22.048c19.888,31.205,5.069,82.758,4.429,84.938c-0.11,0.377-0.266,0.739-0.461,1.08
								c-0.669,1.165-6.691,11.506-12.163,16.066l-224.136,185.586C1151.994,2821.911,1150.865,2822.314,1149.706,2822.314z
								 M1100.25,2744.951l50.256,65.209l220.136-182.274c3.263-2.719,7.749-9.735,9.574-12.828
								c1.502-5.505,13.013-50.428-3.433-76.205c-6.264-9.817-15.643-15.547-28.674-17.518
								c-34.811-5.275-47.948,28.738-52.834,58.191c-0.195,1.176-0.804,2.243-1.716,3.01L1100.25,2744.951z"/><path fill="#fff" d="M976.506,2969.26l162.636-3.605c38.192-84.474,21.797-159.844-38.697-227.861
								c0,0-124.229,26.97-161.844,97.945S944.582,2971.295,976.506,2969.26z"/><path fill="#212121" d="M975.049,2974.306c-14.004,0-29.304-10.351-40.343-27.439
								c-16.108-24.937-24.705-67.84-0.522-113.469c16.143-30.458,48.928-56.644,97.445-77.829
								c35.802-15.633,66.468-22.381,67.756-22.661c1.765-0.384,3.598,0.214,4.797,1.563
								c31.287,35.178,50.646,72.251,57.539,110.188c7.154,39.379,1.091,80.781-18.022,123.056
								c-0.793,1.753-2.521,2.896-4.445,2.939l-162.538,3.603C976.163,2974.29,975.607,2974.306,975.049,2974.306z
								 M1098.676,2743.348c-18.547,4.539-122.669,32.491-155.657,94.732c-22.158,41.809-14.483,80.806,0.086,103.36
								c9.4,14.55,22.398,23.513,33.083,22.83c0.069-0.004,0.138-0.007,0.207-0.009l159.469-3.536
								C1170.195,2882.459,1158.021,2811.302,1098.676,2743.348z"/><path fill="#fff" d="M1530.736,2960.862c32.304-0.407,63.339-15.059,82.38-41.157
								c20.609-28.244,25.206-63.394,12.701-95.769l-11.328-31.233c-60.379,1.532-113.013,45.763-122.9,107.559
								c-3.393,21.208-1.296,42.005,5.135,61.031L1530.736,2960.862z"/><path fill="#212121" d="M1496.724,2966.292c-2.142,0-4.048-1.365-4.735-3.399
								c-6.974-20.627-8.769-41.965-5.337-63.422c10.103-63.141,63.812-110.146,127.71-111.767c2.147-0.068,4.094,1.271,4.827,3.294
								l11.311,31.185c13.18,34.166,8.317,70.783-13.344,100.469c-19.421,26.618-51.708,42.771-86.356,43.209l-34.011,0.43
								C1496.767,2966.292,1496.746,2966.292,1496.724,2966.292z M1611.035,2797.844c-57.5,3.125-105.356,46.005-114.508,103.208
								c-2.983,18.645-1.695,37.194,3.824,55.194l30.321-0.383l0,0c31.52-0.397,60.829-15.016,78.405-39.105
								c19.628-26.899,24.028-60.075,12.075-91.02c-0.013-0.032-0.024-0.064-0.036-0.097L1611.035,2797.844z"/><g><path fill="#212121" d="M1175.611,2944.719c-2.734,0-4.966-2.2-4.998-4.941c-0.033-2.761,2.18-5.026,4.941-5.058
								l290.645-3.405c0.02,0,0.04,0,0.06,0c2.734,0,4.967,2.2,4.999,4.941c0.032,2.761-2.18,5.026-4.941,5.058l-290.645,3.405
								C1175.651,2944.719,1175.631,2944.719,1175.611,2944.719z"/></g><g><path fill="#212121" d="M1541.322,2657.747c-0.058,0-0.115-0.001-0.173-0.003
								c-0.738-0.025-74.631-2.823-140.343-29.805c-2.555-1.049-3.774-3.97-2.726-6.525c1.048-2.555,3.968-3.773,6.524-2.726
								c64.006,26.282,136.163,29.037,136.885,29.062c2.759,0.095,4.92,2.408,4.826,5.168
								C1546.223,2655.619,1544.004,2657.747,1541.322,2657.747z"/></g></g></g><g><path fill="#fff" d="M3065.39,2639.92l-822.843,220.422c-71.824,25.308-158.104-132.154-86.239-178.349
							l749.381-334.562C3158.42,2231.321,3248.011,2551.643,3065.39,2639.92z"/><path fill="#212121" d="M2226.605,2868.071c-34.46,0.001-68.469-32.905-87.007-70.793
							c-10.966-22.41-16.347-45.883-15.152-66.096c1.392-23.564,11.475-42.027,29.157-53.395c0.213-0.136,0.436-0.257,0.666-0.359
							l749.381-334.562c57.172-26.266,111.222-32.318,156.258-17.481c39.311,12.95,71.18,41.765,89.737,81.136
							c18.942,40.188,22.435,87.95,9.581,131.04c-14.06,47.135-46.611,85.085-91.66,106.861c-0.283,0.137-0.578,0.247-0.882,0.328
							l-822.661,220.374C2238.251,2867.134,2232.422,2868.071,2226.605,2868.071z M2158.699,2686.4
							c-18.549,12.102-23.441,31.332-24.271,45.371c-1.094,18.521,3.932,40.224,14.152,61.111
							c19.757,40.38,57.807,74.9,92.305,62.744c0.121-0.042,0.244-0.081,0.368-0.114l822.384-220.3
							c93.061-45.273,112.237-149.588,76.962-224.429c-29.629-62.86-108.383-115.979-232.824-58.81L2158.699,2686.4z
							 M3065.39,2639.92h0.01H3065.39z"/><path fill="#212121" d="M2432.254,2555.477l487.617-216.138c97.062-38.092,183.229-20.231,230.486,47.81
								c68.008,97.654,24.659,250.516-99.08,277.727c-11.901,1.845-313.129,85.858-546.605,149.714
								C2476.662,2731.355,2446.449,2642.074,2432.254,2555.477z"/><path fill="#212121" d="M2504.669,2819.592c-2.098,0-4.037-1.328-4.737-3.406l-0.933-2.772
								c-28.306-84.113-57.575-171.09-71.681-257.127c-0.368-2.247,0.827-4.458,2.908-5.38l487.617-216.138
								c0.066-0.029,0.133-0.057,0.2-0.083c99.372-39,187.755-20.455,236.419,49.612c35.428,50.871,42.902,119.616,19.506,179.404
								c-21.582,55.151-65.91,93.808-121.618,106.059c-0.103,0.022-0.205,0.042-0.308,0.058
								c-7.037,1.091-127.425,34.308-266.822,72.77c-88.778,24.495-189.402,52.258-279.23,76.827
								C2505.55,2819.534,2505.106,2819.592,2504.669,2819.592z M2437.822,2558.478c14.109,83.427,42.503,168.086,70.083,250.044
								c88.656-24.255,187.379-51.495,274.656-75.576c164.961-45.515,259.204-71.476,267.762-72.98
								c52.338-11.549,94.004-47.958,114.334-99.91c22.196-56.719,15.145-121.879-18.403-170.05
								c-45.826-65.981-129.729-83.19-224.457-46.052L2437.822,2558.478z"/><path fill="#fff" d="M2504.669,2819.592c-2.098,0-4.037-1.328-4.737-3.406l-0.933-2.772
								c-28.306-84.113-57.575-171.09-71.681-257.127c-0.368-2.247,0.827-4.458,2.908-5.38l487.617-216.138
								c0.066-0.029,0.133-0.057,0.2-0.083c99.372-39,187.755-20.455,236.419,49.612c35.428,50.871,42.902,119.616,19.506,179.404
								c-21.582,55.151-65.91,93.808-121.618,106.059c-0.103,0.022-0.205,0.042-0.308,0.058
								c-7.037,1.091-127.425,34.308-266.822,72.77c-88.778,24.495-189.402,52.258-279.23,76.827
								C2505.55,2819.534,2505.106,2819.592,2504.669,2819.592z M2437.822,2558.478c14.109,83.427,42.503,168.086,70.083,250.044
								c88.656-24.255,187.379-51.495,274.656-75.576c164.961-45.515,259.204-71.476,267.762-72.98
								c52.338-11.549,94.004-47.958,114.334-99.91c22.196-56.719,15.145-121.879-18.403-170.05
								c-45.826-65.981-129.729-83.19-224.457-46.052L2437.822,2558.478z"/><path fill="#fff" d="M2432.256,2560.478c-1.918,0-3.747-1.109-4.574-2.975c-1.119-2.525,0.021-5.479,2.545-6.597
								l444.521-197.036c2.527-1.118,5.479,0.021,6.598,2.545c1.119,2.525-0.021,5.479-2.545,6.597l-444.521,197.036
								C2433.621,2560.34,2432.933,2560.478,2432.256,2560.478z"/><path fill="#fff" d="M2496.503,2828.532l31.036-8.937c11.491-3.309,18.125-15.307,14.816-26.798l-70.726-245.627
								c-3.309-11.491-15.307-18.125-26.798-14.816l-31.036,8.936c-11.491,3.309-18.125,15.307-14.816,26.798l70.726,245.627
								C2473.013,2825.208,2485.011,2831.841,2496.503,2828.532z"/><path fill="#212121" d="M2490.522,2834.381c-11.577,0-22.263-7.612-25.622-19.281l-70.726-245.627
								c-1.97-6.841-1.157-14.04,2.287-20.271s9.109-10.746,15.95-12.716l31.035-8.937c14.125-4.068,28.921,4.116,32.987,18.237
								l70.726,245.628c4.066,14.122-4.115,28.919-18.237,32.986l-31.036,8.937l0,0
								C2495.432,2834.044,2492.958,2834.381,2490.522,2834.381z M2496.502,2828.532h0.01H2496.502z M2450.814,2536.507
								c-1.521,0-3.066,0.21-4.6,0.652l-31.035,8.937c-4.275,1.231-7.814,4.052-9.967,7.945c-2.152,3.893-2.659,8.391-1.429,12.666
								l70.726,245.627c2.54,8.822,11.787,13.934,20.609,11.395l31.036-8.937c8.824-2.541,13.936-11.787,11.396-20.61
								l-70.726-245.627C2464.725,2541.264,2458.048,2536.507,2450.814,2536.507z"/><g><path fill="#fff" d="M2057.896,2557.109l318.461,117.045c33.881,12.452,45.582,54.453,23.021,82.631
						l-372.019,464.628c-31.149,38.904-93.899,17.017-94.096-32.82l-2.15-542.631
						C1930.852,2580.249,1996.217,2534.44,2057.896,2557.109z"/><path fill="#fff" d="M1898.849,3219.572l71.711,2.188l20.463-670.702l-71.711-2.188
									c-26.351-0.804-48.365,19.906-49.169,46.257l-17.552,575.276C1851.788,3196.754,1872.498,3218.768,1898.849,3219.572z"/><path fill="#212121" d="M1970.563,3226.76c-0.052,0-0.104-0.001-0.155-0.002l-71.711-2.188l0,0
									c-14.079-0.43-27.149-6.316-36.801-16.576c-9.652-10.26-14.731-23.664-14.302-37.744l17.552-575.276
									c0.43-14.08,6.316-27.149,16.576-36.801c10.258-9.651,23.651-14.733,37.742-14.302l71.712,2.188
									c1.325,0.041,2.581,0.605,3.489,1.572c0.909,0.965,1.396,2.253,1.356,3.578l-20.464,670.702
									C1975.475,3224.62,1973.253,3226.76,1970.563,3226.76z M1899.001,3214.574l66.714,2.035l20.158-660.707l-66.714-2.036
									c-11.42-0.349-22.272,3.769-30.586,11.59c-8.313,7.822-13.084,18.413-13.432,29.822l-17.552,575.276
									c-0.349,11.41,3.767,22.272,11.589,30.586C1877,3209.456,1887.592,3214.226,1899.001,3214.574L1899.001,3214.574z"/><path fill="#fff" d="M1914.689,3182.037l15.891-539.912c0.95-32.293,16.122-63.077,42.536-81.678
									c28.586-20.13,63.808-24.137,95.969-11.089l174.149,66.495l21.351-1.316c12.06-0.743,21.312,10.605,18.075,22.247
									c-2.615,9.402-4.628,19.06-3.54,23.724c13.718,58.804,25.135,142.728,62.505,190.454l-322.797,371.345
									C1984.931,3264.89,1911.072,3236.165,1914.689,3182.037z"/><path fill="#212121" d="M1975.726,3247.865c-8.157,0-16.555-1.555-24.825-4.758
									c-26.796-10.378-42.962-34.437-41.207-61.311l15.888-539.818c1.02-34.64,17.713-66.646,44.655-85.619
									c30.045-21.159,66.736-25.405,100.676-11.656l173.093,66.092l20.271-1.25c7.409-0.456,14.326,2.59,18.994,8.356
									c4.649,5.743,6.183,13.113,4.206,20.221c-4.261,15.324-3.747,20.138-3.488,21.249c2.538,10.88,4.97,22.479,7.543,34.758
									c11.37,54.245,24.257,115.727,54.029,153.749c1.478,1.886,1.409,4.555-0.163,6.363l-322.728,371.266
									C2011.038,3240.067,1993.988,3247.865,1975.726,3247.865z M2030.91,2546.786c-19.259,0-38.219,5.992-54.915,17.75
									c-24.381,17.169-39.49,46.229-40.417,77.737l-15.891,539.912c-0.002,0.062-0.005,0.125-0.009,0.187
									c-1.823,27.283,17.626,44.747,34.835,51.412c17.203,6.664,43.345,6.84,60.402-14.589c0.045-0.057,0.091-0.112,0.139-0.167
									l320.131-368.278c-29.418-39.958-42.161-100.755-53.44-154.566c-2.562-12.222-4.981-23.767-7.494-34.537
									c-0.724-3.101-1.138-9.189,3.592-26.2c1.1-3.952,0.245-8.052-2.344-11.25c-2.607-3.221-6.469-4.928-10.606-4.667
									l-21.352,1.316c-0.711,0.043-1.424-0.065-2.091-0.32l-174.148-66.495c-0.032-0.012-0.064-0.025-0.097-0.038
									C2055.317,2549.169,2043.053,2546.786,2030.91,2546.786z M1914.689,3182.037h0.01H1914.689z"/><path fill="#fff" d="M2069.267,3022.184l187.754-217.644c4.2-4.871,14.898-10.78,14.898-10.78
								s91.572-25.251,100.012,37.688c5.338,39.805-33.794,53.074-63.292,57.458l-168.785,194.171L2069.267,3022.184z"/><path fill="#212121" d="M2139.853,3088.077c-1.157,0-2.319-0.399-3.264-1.214L2066,3025.97
								c-1.005-0.866-1.623-2.096-1.721-3.418s0.334-2.629,1.2-3.634l187.755-217.644c4.65-5.393,15.092-11.241,16.268-11.89
								c0.344-0.19,0.709-0.339,1.088-0.443c2.188-0.604,53.982-14.554,84.851,5.856c12.102,8.001,19.316,20.109,21.446,35.987
								c4.438,33.101-18.869,55.353-65.676,62.787l-167.583,192.787C2142.64,3087.494,2141.25,3088.077,2139.853,3088.077z
								 M2076.318,3021.664l63.031,54.374l165.518-190.411c0.782-0.899,1.859-1.49,3.038-1.666
								c29.531-4.39,63.751-16.948,59.07-51.848c-1.752-13.07-7.329-22.548-17.05-28.975c-25.55-16.893-70.585-6.118-76.118-4.703
								c-3.122,1.773-10.216,6.143-13,9.371L2076.318,3021.664z"/><path fill="#fff" d="M1912.87,3196.136l6.338-162.552c85.104-36.767,160.188-19.108,227.179,42.52
								c0,0-29.054,123.758-100.651,160.175C1974.138,3272.696,1910.299,3228.022,1912.87,3196.136z"/><path fill="#212121" d="M1991.663,3254.812c-23.088,0.001-43.037-7.079-57.104-16.505
								c-17.573-11.775-27.786-28.036-26.681-42.464l6.334-162.454c0.075-1.923,1.247-3.632,3.013-4.395
								c42.592-18.4,84.089-23.767,123.342-15.952c37.816,7.529,74.558,27.508,109.205,59.382c1.329,1.222,1.896,3.065,1.482,4.822
								c-0.301,1.283-7.563,31.832-23.796,67.366c-21.998,48.154-48.73,80.495-79.456,96.123
								C2028.227,3250.794,2009.054,3254.812,1991.663,3254.812z M1924.081,3036.944l-6.215,159.387
								c-0.003,0.069-0.007,0.138-0.013,0.207c-0.861,10.685,7.881,23.819,22.272,33.461c22.306,14.947,61.169,23.274,103.343,1.823
								c62.787-31.937,92.484-135.574,97.335-154.043C2073.857,3017.301,2002.911,3003.931,1924.081,3036.944z M1912.87,3196.136
								h0.01H1912.87z"/><path fill="#fff" d="M1930.58,2642.125c0.95-32.292,16.121-63.077,42.536-81.677
								c28.586-20.131,63.809-24.138,95.969-11.09l31.039,11.851c-2.546,60.344-47.656,112.228-109.609,121.075
								c-21.261,3.036-42.021,0.59-60.936-6.16L1930.58,2642.125z"/><path fill="#212121" d="M1972.292,2688.59c-15.057,0-29.922-2.592-44.394-7.757c-2.041-0.729-3.381-2.689-3.317-4.856
								l1.001-33.999c1.02-34.64,17.713-66.646,44.654-85.618c30.047-21.159,66.74-25.406,100.681-11.654l30.989,11.833
								c2.01,0.767,3.303,2.733,3.212,4.882c-2.694,63.862-50.595,116.775-113.896,125.813
								C1984.889,2688.138,1978.573,2688.59,1972.292,2688.59z M1934.685,2672.583c17.906,5.822,36.433,7.421,55.122,4.751
								c57.349-8.189,101.027-55.317,105.117-112.758l-27.623-10.547c-0.032-0.012-0.064-0.025-0.097-0.038
								c-30.741-12.473-63.985-8.628-91.211,10.544c-24.38,17.168-39.489,46.228-40.416,77.736l0,0L1934.685,2672.583z
								 M1930.58,2642.125h0.01H1930.58z"/><g><path fill="#212121" d="M1945.159,3002.826c-0.049,0-0.097,0-0.146-0.002c-2.761-0.079-4.935-2.38-4.855-5.141
								l8.289-290.546c0.078-2.761,2.381-4.932,5.141-4.855c2.761,0.079,4.935,2.38,4.855,5.141l-8.289,290.546
								C1950.077,3000.68,1947.854,3002.826,1945.159,3002.826z"/></g><g><path fill="#212121" d="M2264.707,2781.315c-1.998,0-3.886-1.207-4.657-3.18
								c-25.892-66.201-26.22-138.372-26.221-141.412c-0.001-2.761,2.236-5,4.997-5.001c0.001,0,0.002,0,0.003,0
								c2.76,0,4.998,2.236,5,4.997c0.001,0.726,0.348,73.377,25.533,137.774c1.006,2.572-0.264,5.472-2.835,6.478
								C2265.928,2781.204,2265.312,2781.315,2264.707,2781.315z"/></g></g></g><g><path fill="#212121" d="M1438.213,3388.533h-276.301l-641.618,897.95h564.876v176.531h353.043v-176.531h168.855v-283.958
				h-168.855V3388.533z M1131.208,3816.779v239.46H942.422L1131.208,3816.779z"/><path fill="#212121" d="M2461.257,3429.203c-71.13-42.453-156.318-63.698-255.562-63.698
				c-94.158,0-177.056,21.245-248.675,63.698c-71.637,42.472-127.415,105.156-167.316,188.036
				c-39.901,82.898-59.851,185.746-59.851,308.526c0,122.817,19.95,225.665,59.851,308.544
				c39.901,82.879,95.679,145.564,167.316,188.036c71.618,42.453,154.516,63.698,248.675,63.698
				c99.245,0,184.432-21.245,255.562-63.698c71.13-42.472,125.614-105.157,163.487-188.036
				c37.855-82.879,56.792-185.727,56.792-308.544c0-122.78-18.937-225.628-56.792-308.526
				C2586.871,3534.359,2532.388,3471.675,2461.257,3429.203z M2347.674,4041.656c-7.676,34.289-18.43,63.454-32.243,87.496
				c-13.813,24.061-29.935,42.228-48.346,54.502c-18.43,12.274-38.887,18.412-61.39,18.412c-22.521,0-42.997-6.137-61.408-18.412
				c-18.43-12.274-34.533-30.441-48.346-54.502c-13.813-24.042-24.567-53.207-32.243-87.496
				c-7.676-34.27-11.505-72.913-11.505-115.892s3.829-81.603,11.505-115.892c7.676-34.27,18.43-63.436,32.243-87.496
				c13.813-24.042,29.916-42.209,48.346-54.483c18.411-12.274,38.887-18.43,61.408-18.43c22.503,0,42.96,6.156,61.39,18.43
				c18.411,12.274,34.533,30.442,48.346,54.483c13.813,24.061,24.567,53.226,32.243,87.496
				c7.676,34.289,11.523,72.913,11.523,115.892S2355.35,4007.385,2347.674,4041.656z"/><path fill="#212121" d="M3829.706,4002.525h-168.855v-613.992H3384.55l-641.618,897.95h564.876v176.531h353.043v-176.531
				h168.855V4002.525z M3353.846,3816.779v239.46H3165.06L3353.846,3816.779z"/></g></svg>