<svg width="22" height="22" viewBox="0 0 22 22" fill="none" xmlns="http://www.w3.org/2000/svg">
<path d="M18.3332 11.0002V5.27008C18.3332 5.19772 18.319 5.12606 18.2913 5.05921C18.2636 4.99236 18.223 4.93163 18.1718 4.8805L15.2862 1.99483C15.1831 1.89166 15.0433 1.83362 14.8975 1.8335H4.2165C4.07063 1.8335 3.93074 1.89144 3.8276 1.99459C3.72445 2.09773 3.6665 2.23763 3.6665 2.3835V19.6168C3.6665 19.7627 3.72445 19.9026 3.8276 20.0057C3.93074 20.1089 4.07063 20.1668 4.2165 20.1668H11.9165M7.33317 9.16683H14.6665M7.33317 5.50016H10.9998M7.33317 12.8335H10.0832" stroke="black" stroke-width="1.5" stroke-linecap="round" stroke-linejoin="round"/>
<path d="M14.6665 1.8335V4.95016C14.6665 5.09603 14.7244 5.23593 14.8276 5.33907C14.9307 5.44222 15.0706 5.50016 15.2165 5.50016H18.3332M18.3258 13.8647L20.6688 14.4597C20.9127 14.522 21.0841 14.7438 21.0768 14.995C20.9191 20.2732 17.8748 21.0835 17.8748 21.0835C17.8748 21.0835 14.8306 20.2732 14.6729 14.995C14.6701 14.8727 14.7089 14.7531 14.7831 14.6558C14.8572 14.5586 14.9622 14.4894 15.0808 14.4597L17.4238 13.8647C17.7199 13.7896 18.0298 13.7896 18.3258 13.8647Z" stroke="black" stroke-width="1.5" stroke-linecap="round" stroke-linejoin="round"/>
</svg>
