<svg width="45" height="62" viewBox="0 0 45 62" fill="none" xmlns="http://www.w3.org/2000/svg">
<path d="M19.7546 27.2722L11.8696 43.5046C11.0057 45.2831 8.86134 46.0236 7.08263 45.1579C5.30755 44.2939 4.56815 42.1568 5.43031 40.3819L13.3153 24.1496C14.1792 22.3711 16.3236 21.6305 18.1023 22.4962C19.8774 23.3602 20.6167 25.4974 19.7546 27.2722Z" fill="white"/>
<path d="M8.64686 45.6296C8.0949 45.6296 7.54586 45.5043 7.03496 45.2556C5.20962 44.3671 4.44585 42.1595 5.3324 40.3344L13.2174 24.1021C13.648 23.2157 14.3983 22.5504 15.3302 22.2285C16.2621 21.9067 17.2635 21.967 18.1499 22.3985C19.9753 23.2869 20.739 25.4945 19.8525 27.3196L11.9675 43.552C11.5369 44.4383 10.7866 45.1036 9.85473 45.4255C9.4599 45.5619 9.05257 45.6296 8.64686 45.6296ZM16.5378 22.2419C16.156 22.2419 15.7728 22.3057 15.4013 22.434C14.5243 22.7369 13.8183 23.363 13.4131 24.197L5.5281 40.4293C4.69385 42.1468 5.41257 44.2241 7.13021 45.0601C7.96436 45.4661 8.90665 45.5229 9.7836 45.22C10.6605 44.9172 11.3666 44.2911 11.7717 43.4571L19.6567 27.2247C20.491 25.5073 19.7722 23.43 18.0546 22.5939C17.5739 22.3599 17.0572 22.2419 16.5378 22.2419Z" fill="#262625"/>
<path d="M20.2782 27.8723L12.6425 43.6014C11.5855 45.7788 8.96062 46.6858 6.78322 45.626C4.61107 44.5687 3.70598 41.9537 4.76041 39.7816L12.396 24.0525C13.453 21.8751 16.078 20.9682 18.2554 22.028C20.4275 23.0852 21.3326 25.7002 20.2782 27.8723Z" fill="#FCC546"/>
<path d="M8.69847 46.1792C8.02651 46.1792 7.35824 46.0266 6.73628 45.7239C5.65962 45.1998 4.85113 44.2884 4.45975 43.1576C4.06834 42.0267 4.14062 40.811 4.66323 39.7344L12.2989 24.0053C12.8228 22.926 13.7361 22.1158 14.8707 21.7238C16.0053 21.3317 17.2245 21.4051 18.3037 21.9304C19.3804 22.4545 20.1889 23.3659 20.5803 24.4967C20.9717 25.6276 20.8994 26.8433 20.3767 27.92L12.7411 43.6491C12.2172 44.7283 11.3039 45.5385 10.1693 45.9306C9.6886 46.0967 9.19249 46.1792 8.69847 46.1792ZM16.3413 21.6926C15.8712 21.6926 15.3993 21.7711 14.9418 21.9292C13.8622 22.3022 12.9931 23.0732 12.4946 24.1001L4.85899 39.8292C3.83289 41.9429 4.71778 44.4996 6.83156 45.5285C7.8585 46.0283 9.01861 46.0981 10.0982 45.7251C11.1778 45.3521 12.0468 44.5811 12.5454 43.5542L20.181 27.8251C21.2071 25.7114 20.3222 23.1547 18.2084 22.1259C17.6167 21.8379 16.9806 21.6926 16.3413 21.6926Z" fill="#262625"/>
<path d="M30.8624 19.6906L28.9185 20.0606C28.0401 20.2278 27.1924 19.6518 27.0251 18.7742L25.6852 11.7468C25.5178 10.8691 26.0942 10.0221 26.9726 9.85494L28.9165 9.48493C29.7949 9.31773 30.6426 9.89367 30.81 10.7713L32.1499 17.7987C32.3172 18.6763 31.7408 19.5234 30.8624 19.6906Z" fill="white"/>
<path d="M28.6146 20.1984C27.8016 20.1985 27.0751 19.6212 26.9175 18.7946L25.5776 11.7672C25.3993 10.8318 26.0158 9.92589 26.9519 9.7477L28.8958 9.37769C29.3493 9.29138 29.8093 9.38664 30.191 9.646C30.5728 9.90536 30.8306 10.2977 30.917 10.7508L32.2569 17.7782C32.4353 18.7136 31.8187 19.6195 30.8826 19.7977L28.9387 20.1677C28.8299 20.1885 28.7215 20.1984 28.6146 20.1984ZM29.2224 9.56502C29.1275 9.56502 29.032 9.57397 28.9367 9.59212L26.9928 9.96213C26.175 10.1178 25.6364 10.9092 25.7922 11.7263L27.1321 18.7537C27.2879 19.5709 28.0799 20.109 28.8978 19.9533L30.8417 19.5833C31.6595 19.4277 32.1981 18.6362 32.0423 17.8191L30.7024 10.7917C30.627 10.3959 30.4017 10.0531 30.0682 9.82654C29.8149 9.65445 29.5221 9.56502 29.2224 9.56502Z" fill="#262625"/>
<path d="M29.9334 11.9421L29.4629 9.47446C29.2862 9.4476 29.1021 9.44941 28.9165 9.48472L26.9726 9.85473C26.0942 10.0219 25.5178 10.869 25.6852 11.7466L26.7714 17.4439C29.1159 16.9976 30.4238 14.5138 29.9334 11.9421Z" fill="#262625"/>
<path d="M16.8311 61.7076L14.481 25.9791C14.2684 22.7471 16.4664 19.8489 19.6388 19.1832C23.2021 18.4355 26.8759 17.979 26.8759 17.979C26.8759 17.979 26.8641 19.0389 28.5335 19.0389C30.8524 19.0389 32.1756 17.979 32.1756 17.979C32.1756 17.979 35.1788 18.4151 38.2705 19.1328C41.3347 19.8442 43.4409 22.6579 43.2485 25.7952L41.0462 61.7076H16.8311Z" fill="white"/>
<path d="M41.0479 61.8165H16.8328C16.7753 61.8165 16.7276 61.7719 16.7238 61.7146L14.3736 25.986C14.2691 24.3964 14.742 22.822 15.7051 21.5526C16.6685 20.283 18.0582 19.4035 19.6181 19.0762C23.145 18.3361 26.8273 17.875 26.8641 17.8705C26.8954 17.8666 26.9269 17.8764 26.9503 17.8974C26.9739 17.9183 26.9871 17.9485 26.9868 17.98C26.9868 18.0182 27.0045 18.9295 28.5352 18.9295C30.7844 18.9295 32.096 17.9039 32.109 17.8935C32.1326 17.8747 32.1632 17.8665 32.1929 17.8707C32.223 17.8751 35.2362 18.3157 38.2968 19.0262C39.8045 19.3763 41.1444 20.2508 42.0699 21.4887C42.9959 22.7273 43.4537 24.259 43.3592 25.8016L41.1569 61.7141C41.1534 61.7716 41.1056 61.8165 41.0479 61.8165ZM16.9351 61.5982H40.9451L43.1411 25.7882C43.3307 22.6956 41.2726 19.9412 38.2474 19.2389C35.4008 18.578 32.5951 18.1513 32.2069 18.0935C31.9676 18.2708 30.6757 19.1478 28.5352 19.1478C27.8807 19.1478 27.393 18.9904 27.0856 18.6799C26.8768 18.4689 26.8054 18.2386 26.781 18.1011C26.1424 18.1836 22.8391 18.6233 19.663 19.2898C16.564 19.9401 14.3839 22.8127 14.5917 25.9717L16.9351 61.5982Z" fill="#262625"/>
<path d="M14.9835 33.6213H42.7683L42.8444 32.3799H14.9238L14.9835 33.6213Z" fill="#262625"/>
<path d="M42.7702 33.7307H14.9853C14.927 33.7307 14.879 33.685 14.8762 33.6268L14.8165 32.3854C14.8151 32.3555 14.826 32.3264 14.8466 32.3048C14.8672 32.2832 14.8958 32.271 14.9256 32.271H42.8463C42.8764 32.271 42.9052 32.2834 42.9259 32.3054C42.9465 32.3273 42.9572 32.3568 42.9553 32.3868L42.8792 33.6282C42.8756 33.6858 42.8279 33.7307 42.7702 33.7307ZM15.0894 33.5124H42.6674L42.7301 32.4893H15.0402L15.0894 33.5124Z" fill="#262625"/>
<path d="M15.4675 40.9519H42.3206L42.3812 39.7104H15.3945L15.4675 40.9519Z" fill="#262625"/>
<path d="M42.3204 41.0613H15.4673C15.4095 41.0613 15.3617 41.0162 15.3583 40.9585L15.2853 39.7171C15.2836 39.6871 15.2943 39.6577 15.3149 39.6358C15.3355 39.614 15.3643 39.6016 15.3944 39.6016H42.381C42.4109 39.6016 42.4395 39.6138 42.4601 39.6354C42.4808 39.6571 42.4916 39.6862 42.4901 39.716L42.4295 40.9574C42.4267 41.0156 42.3787 41.0613 42.3204 41.0613ZM15.5703 40.843H42.2164L42.2664 39.8198H15.5102L15.5703 40.843Z" fill="#262625"/>
<path d="M15.9489 48.2824H41.8702L41.9464 47.041H15.8672L15.9489 48.2824Z" fill="#262625"/>
<path d="M41.8701 48.3918H15.9487C15.8912 48.3918 15.8435 48.3472 15.8397 48.2898L15.758 47.0484C15.7561 47.0183 15.7667 46.9887 15.7873 46.9667C15.808 46.9446 15.8368 46.9321 15.867 46.9321H41.9462C41.9763 46.9321 42.0051 46.9446 42.0258 46.9665C42.0464 46.9884 42.0571 47.0179 42.0553 47.048L41.9791 48.2894C41.9756 48.3469 41.9278 48.3918 41.8701 48.3918ZM16.051 48.1736H41.7674L41.8301 47.1504H15.9837L16.051 48.1736Z" fill="#262625"/>
<path d="M16.4313 55.613H41.4209L41.4911 54.3716H16.3672L16.4313 55.613Z" fill="#262625"/>
<path d="M41.4208 55.7224H16.4311C16.373 55.7224 16.325 55.6769 16.322 55.6189L16.258 54.3774C16.2564 54.3476 16.2672 54.3183 16.2878 54.2967C16.3085 54.275 16.3371 54.2627 16.367 54.2627H41.491C41.521 54.2627 41.5497 54.275 41.5704 54.2969C41.591 54.3187 41.6018 54.348 41.6001 54.378L41.5298 55.6194C41.5266 55.6772 41.4787 55.7224 41.4208 55.7224ZM16.5348 55.5041H41.3175L41.3754 54.481H16.482L16.5348 55.5041Z" fill="#262625"/>
<path d="M14.4827 25.9789L14.5032 26.2907H43.2198L43.2502 25.795C43.2655 25.5437 43.261 25.2956 43.2477 25.0493H14.4882C14.4647 25.3549 14.462 25.6653 14.4827 25.9789Z" fill="#262625"/>
<path d="M43.2195 26.4001H14.503C14.4454 26.4001 14.3977 26.3555 14.394 26.2981L14.3735 25.9863C14.353 25.6748 14.3548 25.3568 14.379 25.0412C14.3834 24.9843 14.4309 24.9404 14.488 24.9404H43.2474C43.3055 24.9404 43.3534 24.9858 43.3565 25.0437C43.3722 25.3323 43.3729 25.5733 43.359 25.8019L43.3286 26.2977C43.325 26.3552 43.2773 26.4001 43.2195 26.4001ZM14.6052 26.1818H43.1168L43.1409 25.7886C43.1527 25.5961 43.1535 25.3938 43.1434 25.1587H14.59C14.5733 25.4308 14.5738 25.7039 14.5915 25.972L14.6052 26.1818Z" fill="#262625"/>
<path d="M31.8242 15.9282V17.9791L32.4128 55.7399L33.124 57.0593C33.1917 57.1847 33.3228 57.263 33.4654 57.263H42.257L44.5973 26.9109C44.8608 23.4944 42.7545 20.3399 39.4961 19.271L35.558 17.9791L31.8242 15.9282Z" fill="#FCC546"/>
<path d="M42.2569 57.3719H33.4653C33.2822 57.3719 33.1145 57.2718 33.0277 57.1108L32.3165 55.7914C32.3082 55.776 32.3037 55.7588 32.3035 55.7413L31.7149 17.9806L31.7148 15.928C31.7148 15.8894 31.7353 15.8537 31.7685 15.834C31.8017 15.8144 31.8429 15.8138 31.8767 15.8323L35.6016 17.8783L39.53 19.167C41.129 19.6916 42.5241 20.7509 43.4581 22.1498C44.3922 23.5486 44.8354 25.2424 44.7061 26.919L42.3658 57.2711C42.3614 57.328 42.3139 57.3719 42.2569 57.3719ZM32.5215 55.7113L33.2201 57.0073C33.2687 57.0975 33.3627 57.1536 33.4653 57.1536H42.1557L44.4883 26.9023C44.7485 23.5263 42.6816 20.4307 39.4619 19.3745L35.5238 18.0826C35.5174 18.0805 35.5111 18.0778 35.5052 18.0745L31.9333 16.1125V17.9789L32.5215 55.7113Z" fill="#262625"/>
<path d="M42.2393 57.2627H33.4531V58.1278H42.2393V57.2627Z" fill="#CC981F"/>
<path d="M42.2392 58.2372H33.453C33.3926 58.2372 33.3438 58.1883 33.3438 58.1281V57.2629C33.3438 57.2027 33.3926 57.1538 33.453 57.1538H42.2392C42.2995 57.1538 42.3484 57.2027 42.3484 57.2629V58.1281C42.3484 58.1883 42.2995 58.2372 42.2392 58.2372ZM33.5622 58.0189H42.1299V57.3721H33.5622V58.0189Z" fill="#262625"/>
<path d="M32.6132 30.0615C32.6015 30.0615 32.5895 30.0596 32.5778 30.0556C32.5207 30.0361 32.4903 29.974 32.5098 29.917L34.9388 22.8302L34.2235 20.7723C34.2108 20.7357 34.2185 20.6951 34.2436 20.6656L36.0041 18.6056C36.0433 18.5598 36.1123 18.5544 36.1581 18.5935C36.204 18.6327 36.2095 18.7015 36.1703 18.7474L34.4504 20.7597L35.1576 22.7941C35.1656 22.8171 35.1657 22.8422 35.1577 22.8653L32.7165 29.9876C32.701 30.033 32.6586 30.0615 32.6132 30.0615Z" fill="#262625"/>
<path d="M34.3514 55.7586C34.2911 55.7586 34.2422 55.7098 34.2422 55.6495V29.2234C34.2422 29.1631 34.2911 29.1143 34.3514 29.1143C34.4117 29.1143 34.4606 29.1631 34.4606 29.2234V55.6495C34.4606 55.7098 34.4117 55.7586 34.3514 55.7586Z" fill="#262625"/>
<path d="M26.5881 16.4746L26.877 17.9791L23.9826 24.3145V55.7399L23.191 57.0558C23.1137 57.1844 22.9746 57.263 22.8245 57.263H15.9573L13.8214 25.8155C13.6163 22.7945 15.5637 20.0452 18.4833 19.2339L22.4375 18.1351L26.5881 16.4746Z" fill="#FCC546"/>
<path d="M22.8241 57.3719H15.9569C15.8994 57.3719 15.8518 57.3274 15.8479 57.2701L13.712 25.8226C13.6111 24.3366 14.0298 22.8486 14.891 21.6327C15.7522 20.4169 17.0174 19.5276 18.4537 19.1285L22.402 18.0313L26.5471 16.3731C26.5774 16.3609 26.6115 16.363 26.6401 16.3786C26.6688 16.3942 26.6889 16.4218 26.695 16.4538L26.9839 17.9583C26.9881 17.9805 26.9854 18.0035 26.976 18.0242L24.0915 24.3379V55.7396C24.0915 55.7594 24.0861 55.7789 24.0759 55.7959L23.2843 57.1118C23.1878 57.2722 23.0115 57.3719 22.8241 57.3719ZM16.059 57.1536H22.8241C22.9352 57.1536 23.0398 57.0945 23.097 56.9994L23.873 55.7093V24.3142C23.873 24.2986 23.8764 24.2831 23.8829 24.2689L26.7628 17.9652L26.5054 16.6249L22.4776 18.2362C22.4739 18.2377 22.4701 18.2389 22.4663 18.24L18.5122 19.3388C15.6564 20.1323 13.7293 22.8529 13.93 25.8078L16.059 57.1536Z" fill="#262625"/>
<path d="M22.6749 57.2627H15.9668V58.1278H22.6749V57.2627Z" fill="#CC981F"/>
<path d="M22.6748 58.2372H15.9666C15.9063 58.2372 15.8574 58.1883 15.8574 58.1281V57.2629C15.8574 57.2027 15.9063 57.1538 15.9666 57.1538H22.6748C22.7351 57.1538 22.784 57.2027 22.784 57.2629V58.1281C22.784 58.1883 22.7351 58.2372 22.6748 58.2372ZM16.0759 58.0189H22.5656V57.3721H16.0759V58.0189Z" fill="#262625"/>
<path d="M23.1655 30.061C23.1154 30.061 23.0702 30.0264 23.059 29.9755L21.4772 22.8532C21.4703 22.8219 21.4774 22.7893 21.4967 22.7638L23.0384 20.7232L22.081 18.7232C22.055 18.6688 22.078 18.6036 22.1324 18.5776C22.1869 18.5516 22.2521 18.5746 22.2781 18.629L23.2641 20.6889C23.2817 20.7257 23.2773 20.7692 23.2528 20.8018L21.7014 22.855L23.2722 29.9282C23.2853 29.9871 23.2481 30.0454 23.1892 30.0584C23.1813 30.0602 23.1733 30.061 23.1655 30.061Z" fill="#262625"/>
<path d="M21.9803 55.7586C21.92 55.7586 21.8711 55.7097 21.8711 55.6495V29.533C21.8711 29.4727 21.92 29.4238 21.9803 29.4238C22.0406 29.4238 22.0895 29.4727 22.0895 29.533V55.6495C22.0896 55.7097 22.0407 55.7586 21.9803 55.7586Z" fill="#262625"/>
<path d="M26.4605 16.604C24.5381 17.0656 22.6051 15.8828 22.1431 13.962L20.5329 7.26846C19.9293 4.7589 21.476 2.23558 23.9877 1.63242C26.4994 1.02927 29.0249 2.57469 29.6285 5.08425L30.7258 9.64566C31.4711 12.744 29.5614 15.8593 26.4605 16.604Z" fill="white"/>
<path d="M25.6157 16.8136C24.9439 16.8136 24.2832 16.629 23.6957 16.2695C22.8554 15.7553 22.2658 14.9449 22.0355 13.9876L20.4254 7.29401C20.1266 6.05194 20.3298 4.76796 20.9976 3.67858C21.6653 2.5892 22.7177 1.82488 23.9608 1.52637C25.2039 1.22782 26.4891 1.43084 27.5793 2.09806C28.6696 2.76523 29.4346 3.81673 29.7334 5.0588L30.8307 9.62024C31.1979 11.1471 30.9481 12.7254 30.1273 14.0645C29.3064 15.4036 28.0128 16.3432 26.4847 16.7102C26.1963 16.7794 25.905 16.8136 25.6157 16.8136ZM25.0878 1.61045C24.7296 1.61045 24.369 1.65281 24.0119 1.73858C22.8255 2.02347 21.8212 2.75294 21.1839 3.79257C20.5466 4.83221 20.3527 6.0576 20.6378 7.24298L22.2479 13.9365C22.4646 14.8372 23.0193 15.5996 23.8098 16.0833C24.6004 16.5671 25.5321 16.7144 26.4336 16.4979C29.471 15.7685 31.3482 12.706 30.6182 9.67118L29.521 5.10975C29.2358 3.92437 28.5058 2.92089 27.4652 2.28414C26.7379 1.83913 25.9196 1.61045 25.0878 1.61045Z" fill="#262625"/>
<path d="M20.8183 8.45676C20.8183 8.45676 19.2165 7.50172 19.1135 5.9289C19.1135 5.9289 17.8831 4.15311 19.6732 3.69666C19.6732 3.69666 19.2229 1.74899 21.2725 1.81589C21.2725 1.81589 21.7111 1.50184 22.0713 1.2775C22.4423 1.04638 26.0316 -0.873702 28.2844 1.54688C28.2844 1.54688 30.7101 1.78839 31.5101 5.11428C32.3102 8.44016 31.892 12.1146 31.2626 13.1414L30.5651 9.85655L29.2824 8.67542C29.2824 8.67542 28.2112 5.12817 27.8443 4.64281C27.8443 4.64281 26.7909 4.52649 24.9923 5.96532C22.4605 7.99058 20.8137 6.49351 20.6595 5.88218C20.6595 5.88218 20.5846 7.48547 20.8183 8.45676Z" fill="#262625"/>
<path d="M25.3319 9.63651C25.3214 9.63651 25.3108 9.63498 25.3003 9.6318C25.2427 9.61438 25.21 9.55392 25.2273 9.49632C25.2314 9.4824 25.3332 9.15202 25.6807 8.87104C25.9956 8.61646 26.5819 8.3544 27.5861 8.55143C27.6453 8.56306 27.6839 8.62042 27.6723 8.67954C27.6607 8.73868 27.6033 8.77725 27.5441 8.7656C25.8064 8.42464 25.4507 9.51271 25.4364 9.55916C25.422 9.60614 25.3787 9.63651 25.3319 9.63651Z" fill="#262625"/>
<path d="M26.7131 8.96763C26.7804 9.24754 26.6224 9.31396 26.4196 9.36266C26.2167 9.41138 26.0458 9.42397 25.9784 9.14405C25.8883 8.76931 26.0527 8.72981 26.2556 8.68108C26.4585 8.63236 26.624 8.59743 26.7131 8.96763Z" fill="#262625"/>
<path d="M21.0761 10.3261C21.0437 10.3261 21.0117 10.3117 20.9901 10.2843C20.9529 10.2369 20.9611 10.1683 21.0086 10.131C21.8136 9.49951 22.455 9.46685 22.8512 9.55061C23.2887 9.64309 23.5296 9.89117 23.5396 9.9017C23.5813 9.94532 23.5796 10.0144 23.536 10.056C23.4924 10.0975 23.4235 10.096 23.3818 10.0527C23.3478 10.0175 22.5361 9.21021 21.1435 10.3027C21.1235 10.3185 21.0997 10.3261 21.0761 10.3261Z" fill="#262625"/>
<path d="M21.9741 10.1059C22.0414 10.3859 22.2124 10.3733 22.4152 10.3245C22.6181 10.2758 22.7761 10.2094 22.7088 9.92952C22.6186 9.55478 22.4542 9.59425 22.2513 9.64298C22.0484 9.6917 21.8851 9.73577 21.9741 10.1059Z" fill="#262625"/>
<path d="M24.013 9.11963C24.013 9.11963 23.9355 11.0418 24.0273 12.1819C24.0389 12.3262 24.1687 12.4321 24.3126 12.4141C24.576 12.3812 25.3602 12.1565 25.3602 12.1565L24.013 9.11963Z" fill="white"/>
<path d="M24.2797 12.5251C24.1966 12.5251 24.1169 12.4968 24.0512 12.4434C23.9733 12.3801 23.926 12.2903 23.918 12.1904C23.8267 11.0568 23.9026 9.13429 23.9034 9.11502C23.9058 9.05477 23.9573 9.00781 24.0169 9.01035C24.0772 9.01278 24.1241 9.06357 24.1217 9.12378C24.1209 9.14295 24.0456 11.0525 24.1357 12.1729C24.1389 12.2128 24.1579 12.2488 24.1891 12.2742C24.2201 12.2994 24.2591 12.3105 24.2986 12.3056C24.5506 12.2742 25.3219 12.0536 25.3296 12.0514C25.3877 12.0347 25.4481 12.0682 25.4648 12.1262C25.4814 12.1841 25.4479 12.2445 25.3899 12.2612C25.3575 12.2704 24.5945 12.4886 24.3257 12.5222C24.3103 12.5241 24.2949 12.5251 24.2797 12.5251Z" fill="#262625"/>
<path d="M24.0664 14.0607C24.0664 14.0607 24.4392 14.2893 25.2524 14.094C26.0655 13.8988 26.2937 13.5259 26.2937 13.5259L24.0664 14.0607Z" fill="white"/>
<path d="M24.6399 14.282C24.2248 14.282 24.021 14.1611 24.0091 14.1539C23.9577 14.1224 23.9416 14.0552 23.9732 14.0038C24.0045 13.9527 24.0713 13.9365 24.1226 13.9673C24.1297 13.9714 24.4811 14.1671 25.2267 13.9881C25.9763 13.8081 26.1987 13.4716 26.2009 13.4682C26.2331 13.4178 26.3003 13.4022 26.3511 13.4339C26.4019 13.4657 26.418 13.5319 26.3867 13.583C26.3764 13.5998 26.1252 13.9968 25.2778 14.2003C25.0268 14.2606 24.8146 14.282 24.6399 14.282Z" fill="#262625"/>
<path d="M26.5939 7.87484L25.5872 8.11659C25.4498 8.14959 25.3117 8.06503 25.2786 7.92779C25.2456 7.79051 25.3302 7.65247 25.4676 7.61949L26.4743 7.37774C26.6117 7.34476 26.7499 7.42929 26.7829 7.56657C26.8159 7.70381 26.7313 7.84183 26.5939 7.87484Z" fill="#262625"/>
<path d="M22.6916 8.81186L21.6848 9.05361C21.5475 9.08662 21.4093 9.00208 21.3763 8.86481C21.3433 8.72754 21.4279 8.58949 21.5653 8.55651L22.572 8.31476C22.7094 8.28175 22.8476 8.36629 22.8806 8.50356C22.9136 8.64086 22.829 8.77888 22.6916 8.81186Z" fill="#262625"/>
<path d="M31.8885 9.68065L31.027 10.3755C30.3257 10.9412 29.2739 10.5837 29.0633 9.70815C28.9526 9.24793 29.117 8.76516 29.4856 8.46781L30.3471 7.77293C31.0483 7.20733 32.1001 7.56481 32.3107 8.44031C32.4214 8.90053 32.257 9.38331 31.8885 9.68065Z" fill="white"/>
<path d="M30.2602 9.97459C30.237 9.97459 30.2135 9.96722 30.1937 9.95195C30.0183 9.81717 29.8933 9.62439 29.8415 9.4091C29.7162 8.88802 30.0385 8.36222 30.56 8.237C30.8898 8.15778 31.2428 8.25878 31.4812 8.50064C31.5235 8.54359 31.523 8.61268 31.48 8.65496C31.437 8.69727 31.3679 8.69671 31.3255 8.65376C31.1378 8.4633 30.8708 8.38681 30.611 8.44921C30.2067 8.54631 29.9568 8.95404 30.0539 9.3581C30.0947 9.52745 30.1891 9.67298 30.3269 9.77895C30.3747 9.8157 30.3837 9.88423 30.3469 9.93202C30.3253 9.95995 30.2929 9.97459 30.2602 9.97459Z" fill="#262625"/>
<path d="M31.0372 9.39167C31.0109 9.39167 30.9845 9.3822 30.9635 9.36307C30.778 9.19359 30.5216 9.12744 30.2776 9.186C30.1635 9.2134 30.0905 9.25907 30.0097 9.32394C29.9626 9.36165 29.8939 9.35414 29.8561 9.30716C29.8183 9.26014 29.8259 9.19145 29.8729 9.15371C29.9607 9.08329 30.0643 9.01273 30.2265 8.97379C30.5412 8.89817 30.8718 8.98354 31.1109 9.20204C31.1554 9.24272 31.1585 9.31175 31.1178 9.35623C31.0963 9.37972 31.0668 9.39167 31.0372 9.39167Z" fill="#262625"/>
<path d="M30.7476 10.6555C30.7056 10.6555 30.6656 10.6312 30.6476 10.5903C30.6232 10.5352 30.6483 10.4708 30.7035 10.4464C30.7939 10.4066 30.8797 10.3542 30.9585 10.2907L31.8199 9.59579C32.1539 9.32638 32.3049 8.88287 32.2046 8.4659C32.1145 8.09134 31.8428 7.79368 31.4778 7.66961C31.1127 7.54557 30.7157 7.61594 30.4158 7.85793L29.5543 8.55284C29.4801 8.61268 29.4138 8.68182 29.3572 8.75832C29.3214 8.8068 29.253 8.81706 29.2045 8.78128C29.156 8.74549 29.1457 8.67715 29.1815 8.62866C29.2491 8.5372 29.3284 8.45454 29.4171 8.38301L30.2785 7.68813C30.6371 7.39889 31.1117 7.31464 31.5481 7.46301C31.9845 7.61132 32.3093 7.96716 32.417 8.41495C32.5369 8.91344 32.3564 9.44363 31.9572 9.7657L31.0957 10.4606C31.0019 10.5362 30.8996 10.5987 30.7916 10.6463C30.7772 10.6525 30.7623 10.6555 30.7476 10.6555Z" fill="#262625"/>
<path d="M1.40625 32.751C4.32649 30.7361 7.93443 29.9778 11.4197 30.6464L12.0494 30.7672L11.6021 34.0523L3.23895 35.7011L1.40625 32.751Z" fill="#262625"/>
<path d="M3.23839 35.8094C3.20127 35.8094 3.16606 35.7904 3.14597 35.7581L1.31325 32.808C1.28265 32.7587 1.2961 32.6942 1.34385 32.6612C2.80911 31.6502 4.43559 30.9519 6.17811 30.5857C7.92064 30.2194 9.69084 30.2038 11.4396 30.5393L12.0693 30.6601C12.1261 30.671 12.1644 30.7243 12.1566 30.7815L11.7093 34.0666C11.7031 34.1126 11.6682 34.1496 11.6226 34.1586L3.25939 35.8074C3.25241 35.8088 3.24535 35.8094 3.23839 35.8094ZM1.55296 32.7816L3.29115 35.5796L11.5043 33.9603L11.9272 30.8542L11.3986 30.7528C7.99853 30.1005 4.41631 30.84 1.55296 32.7816Z" fill="#262625"/>
<path d="M9.19178 26.0726L12.1103 41.2593C12.4834 43.2007 11.209 45.0762 9.26539 45.4462C7.32578 45.8153 5.45336 44.5453 5.08103 42.6078L2.16252 27.4211C1.78944 25.4797 3.06381 23.6042 5.00741 23.2342C6.94705 22.865 8.81947 24.1351 9.19178 26.0726Z" fill="white"/>
<path d="M8.59476 45.6183C6.86219 45.6183 5.3124 44.389 4.97404 42.6282L2.05554 27.4415C1.8696 26.4741 2.0722 25.4923 2.62604 24.6773C3.17987 23.8622 4.01829 23.3118 4.98688 23.1274C6.98142 22.7478 8.9156 24.0597 9.29845 26.052L12.217 41.2387C12.4029 42.2062 12.2003 43.1879 11.6464 44.003C11.0926 44.8181 10.2542 45.3685 9.28561 45.5529C9.05382 45.597 8.82259 45.6183 8.59476 45.6183ZM5.67767 23.2794C5.46319 23.2794 5.24582 23.2994 5.02762 23.3409C4.11617 23.5144 3.32721 24.0324 2.80606 24.7994C2.28492 25.5664 2.09427 26.4901 2.26922 27.4006L5.18772 42.5872C5.54799 44.462 7.36809 45.6965 9.24489 45.3393C10.1563 45.1658 10.9453 44.6479 11.4665 43.8809C11.9876 43.1139 12.1783 42.1901 12.0033 41.2797L9.0848 26.093C8.76639 24.4362 7.30787 23.2794 5.67767 23.2794Z" fill="#262625"/>
<path d="M12.0494 30.7671L11.9366 30.8499C8.90783 33.0725 5.02194 33.774 1.40625 32.7509L4.26703 42.6711C4.86008 44.9523 7.10189 46.4004 9.42721 46.0044C11.8084 45.5988 13.4556 43.4022 13.1761 41.0049L12.0494 30.7671Z" fill="#FCC546"/>
<path d="M8.65954 46.1778C7.76989 46.1778 6.89602 45.9227 6.13763 45.4328C5.15697 44.7993 4.45513 43.8288 4.16123 42.6996L1.30909 32.8092C1.29663 32.766 1.28585 32.7287 1.31851 32.6853C1.34555 32.6494 1.39191 32.6339 1.43506 32.6461C5.04417 33.6673 8.84807 32.9806 11.8714 30.7621L11.9842 30.6793C12.0155 30.6563 12.0568 30.6518 12.0924 30.6674C12.128 30.683 12.1525 30.7164 12.1568 30.755L13.1507 39.7868C13.1573 39.8464 13.1142 39.9001 13.0545 39.9067C12.9948 39.9133 12.941 39.8702 12.9344 39.8105L11.9611 30.9659C10.4703 32.0507 8.72484 32.7967 6.91004 33.1243C5.1433 33.4432 3.29913 33.3677 1.56365 32.9068C1.95425 34.2614 4.34447 42.5499 4.37071 42.6409C4.37098 42.6418 4.37125 42.6427 4.37146 42.6437C4.95496 44.8881 7.12016 46.2867 9.40808 45.897C11.0738 45.6134 12.4537 44.382 12.9236 42.76C12.9334 42.7261 13.1018 42.3844 13.424 41.7443C13.451 41.6907 13.5165 41.6691 13.5701 41.696C13.6238 41.723 13.6454 41.7883 13.6184 41.842C13.4429 42.1907 13.1581 42.7604 13.1315 42.8243C12.8913 43.6508 12.4263 44.3941 11.7868 44.974C11.1309 45.5688 10.321 45.9621 9.44465 46.1113C9.18336 46.1558 8.9207 46.1778 8.65954 46.1778Z" fill="#262625"/>
<path d="M0.818359 35.6062C5.10764 36.8199 9.8513 35.8895 13.4443 33.2529L12.0493 30.7671C9.0205 32.9897 5.02177 33.774 1.40608 32.7509L0.818359 35.6062Z" fill="#CC981F"/>
<path d="M4.65323 36.2389C3.33557 36.2389 2.03047 36.0621 0.788144 35.7106C0.733307 35.6951 0.699736 35.6399 0.711238 35.5841L1.29896 32.7288C1.30506 32.6992 1.3232 32.6735 1.34904 32.6578C1.37488 32.6421 1.40612 32.6379 1.43517 32.6461C4.99127 33.6523 8.93486 32.9171 11.9843 30.6793C12.0094 30.6609 12.0413 30.6541 12.0717 30.6607C12.1022 30.6673 12.1284 30.6866 12.1436 30.7137L13.5387 33.1995C13.5656 33.2474 13.5525 33.3078 13.5082 33.3403C11.7222 34.6509 9.61417 35.5637 7.41214 35.98C6.49798 36.1528 5.57249 36.2389 4.65323 36.2389ZM0.944793 35.5286C5.11357 36.6749 9.71794 35.8155 13.3017 33.2217L12.0136 30.9267C10.5275 31.9943 8.7854 32.739 6.96739 33.0827C5.12927 33.4302 3.2377 33.3622 1.48859 32.8866L0.944793 35.5286Z" fill="#262625"/>
<path d="M2.63477 24.8677L4.63781 25.5296L5.83423 21.4497C6.01717 20.897 5.71706 20.3008 5.16392 20.118C4.61079 19.9353 4.0141 20.2351 3.83119 20.7878L2.63477 24.8677Z" fill="white"/>
<path d="M4.63769 25.6388C4.62613 25.6388 4.61457 25.637 4.60339 25.6333L2.60035 24.9714C2.54447 24.953 2.51328 24.8936 2.52981 24.8371L3.72623 20.7572C3.72658 20.756 3.72695 20.7548 3.72736 20.7536C3.92892 20.1447 4.58879 19.8131 5.1981 20.0145C5.80693 20.2157 6.13871 20.8738 5.9384 21.4822L4.74249 25.5604C4.73415 25.5888 4.71465 25.6126 4.6884 25.6263C4.67262 25.6346 4.65521 25.6388 4.63769 25.6388ZM2.76917 24.7973L4.56466 25.3906L5.7293 21.4191C5.72965 21.4179 5.73002 21.4167 5.73042 21.4155C5.80974 21.1759 5.79091 20.9197 5.67743 20.6943C5.56396 20.4688 5.36935 20.301 5.12954 20.2218C4.63512 20.0584 4.0998 20.3269 3.93536 20.8204L2.76917 24.7973Z" fill="#262625"/>
<path d="M14.4307 31.6793H7.71137C7.57363 31.575 7.47787 31.5024 7.34016 31.3981L3.3191 17.0684C3.25078 16.8249 3.43394 16.5835 3.68705 16.5835H10.4094C10.5807 16.5835 10.7311 16.6974 10.7773 16.8622L14.7986 31.1945C14.8669 31.438 14.6837 31.6793 14.4307 31.6793Z" fill="white"/>
<path d="M14.4296 31.7741H7.71034C7.68972 31.7741 7.66966 31.7673 7.65321 31.7549L7.28197 31.4737C7.26555 31.4612 7.25362 31.4438 7.24805 31.4239L3.22699 17.0941C3.18636 16.9494 3.21522 16.7976 3.30612 16.6778C3.39702 16.558 3.53547 16.4893 3.68597 16.4893H10.4083C10.6211 16.4893 10.8099 16.6322 10.8673 16.837L14.8886 31.1692C14.9292 31.314 14.9004 31.4658 14.8094 31.5855C14.7186 31.7054 14.5801 31.7741 14.4296 31.7741ZM7.74215 31.5851H14.4296C14.5204 31.5851 14.6039 31.5436 14.6587 31.4714C14.7136 31.3991 14.731 31.3076 14.7065 31.2202L10.6852 16.888C10.6505 16.7645 10.5367 16.6782 10.4083 16.6782H3.686C3.59521 16.6782 3.51169 16.7197 3.45686 16.792C3.40202 16.8642 3.38463 16.9558 3.40913 17.0431L7.42161 31.3422L7.74215 31.5851Z" fill="#262625"/>
<path d="M13.6885 31.6793H6.96921C6.79635 31.6793 6.64462 31.5644 6.59797 31.3981L2.57691 17.0684C2.50859 16.8249 2.69175 16.5835 2.94483 16.5835H9.66411C9.83697 16.5835 9.9887 16.6984 10.0353 16.8647L14.0564 31.1945C14.1247 31.438 13.9415 31.6793 13.6885 31.6793Z" fill="#262625"/>
<path d="M13.6894 31.7741H6.97011C6.75579 31.7741 6.56568 31.63 6.50782 31.4238L2.48676 17.0941C2.44613 16.9493 2.47499 16.7976 2.56588 16.6778C2.65678 16.558 2.79527 16.4893 2.94576 16.4893H9.66501C9.87936 16.4893 10.0694 16.6333 10.1273 16.8395L14.1484 31.1692C14.189 31.314 14.1601 31.4658 14.0692 31.5856C13.9783 31.7053 13.8398 31.7741 13.6894 31.7741ZM2.94576 16.6782C2.85497 16.6782 2.77146 16.7197 2.71662 16.7919C2.66178 16.8642 2.64437 16.9558 2.66887 17.0431L6.68993 31.3728C6.725 31.4978 6.84021 31.585 6.97011 31.585H13.6894C13.7802 31.585 13.8637 31.5436 13.9185 31.4713C13.9733 31.399 13.9907 31.3075 13.9662 31.2202L9.94517 16.8905C9.9101 16.7655 9.79491 16.6782 9.66501 16.6782H2.94576Z" fill="#262625"/>
<path d="M2.42569 28.3015L2.64734 28.833C3.51339 30.8174 5.82553 31.7246 7.81161 30.8593L11.3279 29.3274L7.95146 21.6182L4.45369 23.1416C4.42528 23.1539 4.38807 23.172 4.34468 23.1941C3.68058 23.5321 3.12432 24.0502 2.73374 24.6844C2.4997 25.0645 2.27637 25.5014 2.18988 25.8928C2.01753 26.6731 2.08157 27.513 2.42569 28.3015Z" fill="white"/>
<path d="M2.46084 29.078C2.40846 29.078 2.36229 29.0401 2.35359 28.9868C2.30919 28.7147 2.18593 27.9808 2.14912 27.8542C1.96206 27.2111 1.93972 26.5248 2.08452 25.8693C2.17193 25.4736 2.33653 25.0764 2.5738 24.6883L2.89833 23.5815C2.91524 23.5239 2.97575 23.491 3.03331 23.5078C3.09096 23.5247 3.12402 23.5851 3.10712 23.6427L2.77849 24.7633C2.77576 24.7726 2.7718 24.7815 2.76675 24.7897C2.53812 25.161 2.38005 25.54 2.29696 25.9161C2.15998 26.5361 2.18111 27.1853 2.35804 27.7936C2.40605 27.9586 2.56171 28.9113 2.56832 28.9518C2.57797 29.0111 2.53774 29.0669 2.47846 29.0766C2.47255 29.0776 2.46667 29.078 2.46084 29.078Z" fill="#262625"/>
<path d="M6.249 31.2959C6.18442 31.2959 6.11972 31.2944 6.05479 31.2913C5.99479 31.2885 5.94844 31.2375 5.9513 31.1776C5.95413 31.1176 6.00557 31.0714 6.06512 31.0742C6.65233 31.1021 7.22524 30.9963 7.76813 30.7598L11.2844 29.2279C11.3395 29.2038 11.4036 29.229 11.4276 29.284C11.4516 29.3391 11.4265 29.4031 11.3714 29.4271L7.8551 30.959C7.34131 31.1829 6.80192 31.2959 6.249 31.2959Z" fill="#262625"/>
<path d="M4.2612 23.3474C4.21936 23.3474 4.17948 23.3231 4.16156 23.2824C4.1374 23.2274 4.16239 23.1633 4.21738 23.1392L7.90851 21.5185C7.96351 21.4943 8.02768 21.5193 8.05186 21.5743C8.07602 21.6292 8.05103 21.6934 7.99603 21.7175L4.30491 23.3382C4.29068 23.3444 4.27581 23.3474 4.2612 23.3474Z" fill="#262625"/>
<path d="M10.332 27.4614L11.1753 29.3936L13.9724 28.1849C14.5064 27.9522 14.7505 27.3311 14.5177 26.7975C14.2848 26.2639 13.6631 26.02 13.1291 26.2527L10.332 27.4614Z" fill="white"/>
<path d="M11.1768 29.5026C11.1347 29.5026 11.0947 29.4781 11.0769 29.437C11.053 29.3819 11.0784 29.318 11.1336 29.2941L13.9306 28.0854C14.4085 27.8771 14.6279 27.3189 14.4193 26.8412C14.3183 26.6097 14.1332 26.4314 13.8979 26.3391C13.6627 26.2469 13.4056 26.2516 13.174 26.3525L10.3766 27.5614C10.3214 27.5852 10.2574 27.5598 10.2336 27.5047C10.2097 27.4496 10.2351 27.3857 10.2902 27.3618L13.0873 26.1531C13.3719 26.0291 13.6881 26.0233 13.9774 26.1368C14.2667 26.2503 14.4945 26.4696 14.6187 26.7542C14.8752 27.3419 14.6054 28.0285 14.0172 28.2847L11.2199 29.4936C11.2058 29.4997 11.1912 29.5026 11.1768 29.5026Z" fill="#262625"/>
<path d="M9.48828 25.5293L10.3316 27.4615L13.4645 26.1078C13.9986 25.8751 14.2427 25.2539 14.0098 24.7204C13.7769 24.1868 13.1553 23.9429 12.6212 24.1755L9.48828 25.5293Z" fill="white"/>
<path d="M10.333 27.5703C10.291 27.5703 10.2509 27.5458 10.2332 27.5047C10.2093 27.4496 10.2347 27.3856 10.2898 27.3618L13.4228 26.0081C13.9007 25.7999 14.12 25.2417 13.9115 24.7639C13.703 24.2861 13.1442 24.0669 12.6661 24.2752L9.53286 25.6291C9.47773 25.653 9.41366 25.6276 9.38983 25.5725C9.36597 25.5174 9.39135 25.4534 9.44648 25.4296L12.5794 24.0758C13.1674 23.8197 13.8545 24.0893 14.1109 24.677C14.3674 25.2646 14.0975 25.9512 13.5094 26.2075L10.3761 27.5613C10.3621 27.5674 10.3474 27.5703 10.333 27.5703Z" fill="#262625"/>
<path d="M8.64648 23.5974L9.48978 25.5296L12.8229 24.0877C13.357 23.8551 13.6011 23.2339 13.3682 22.7003C13.1353 22.1668 12.5137 21.9228 11.9796 22.1555L8.64648 23.5974Z" fill="white"/>
<path d="M9.48928 25.6383C9.44723 25.6383 9.40718 25.6138 9.38939 25.5728C9.36551 25.5177 9.39086 25.4537 9.446 25.4299L12.7792 23.988C13.0106 23.8872 13.189 23.7022 13.2814 23.4672C13.3737 23.2322 13.369 22.9753 13.268 22.7438C13.0595 22.2661 12.5008 22.0469 12.0226 22.2552L8.68916 23.6972C8.63405 23.7211 8.56999 23.6957 8.5461 23.6406C8.52221 23.5855 8.54757 23.5215 8.6027 23.4977L11.9359 22.0558C12.5237 21.7997 13.2109 22.0693 13.4674 22.6569C13.5916 22.9416 13.5975 23.2576 13.4839 23.5467C13.3702 23.8357 13.1508 24.0633 12.8658 24.1874L9.5324 25.6294C9.51838 25.6355 9.50372 25.6383 9.48928 25.6383Z" fill="#262625"/>
<path d="M7.81055 21.6799L8.65384 23.6121L11.7695 22.266C12.3036 22.0333 12.5477 21.4121 12.3148 20.8786C12.082 20.345 11.4603 20.1011 10.9263 20.3337L7.81055 21.6799Z" fill="white"/>
<path d="M8.65334 23.7209C8.61126 23.7209 8.57119 23.6964 8.55342 23.6553C8.52959 23.6002 8.55495 23.5362 8.61011 23.5124L11.7258 22.1663C12.2037 21.9581 12.4231 21.3999 12.2146 20.9221C12.006 20.4443 11.4473 20.2251 10.9692 20.4334L7.85316 21.7797C7.798 21.8035 7.73396 21.7782 7.71013 21.7231C7.6863 21.668 7.71166 21.604 7.76681 21.5802L10.8825 20.234C11.4704 19.9779 12.1576 20.2475 12.414 20.8352C12.6705 21.4228 12.4006 22.1094 11.8125 22.3657L8.69645 23.7119C8.68238 23.7181 8.66773 23.7209 8.65334 23.7209Z" fill="#262625"/>
<path d="M43.2546 27.4998L35.3696 43.7321C34.5057 45.5106 32.3613 46.2512 30.5826 45.3854C28.8076 44.5214 28.0682 42.3843 28.9303 40.6095L36.8153 24.3771C37.6792 22.5986 39.8236 21.858 41.6023 22.7238C43.3774 23.5878 44.1168 25.7249 43.2546 27.4998Z" fill="white"/>
<path d="M32.1469 45.8572C31.5949 45.8572 31.0459 45.7318 30.535 45.4831C28.7096 44.5947 27.9458 42.387 28.8324 40.5619L36.7174 24.3296C37.148 23.4433 37.8983 22.7779 38.8302 22.4561C39.7621 22.1342 40.7635 22.1946 41.6499 22.626C43.4752 23.5145 44.239 25.7221 43.3524 27.5472L35.4674 43.7795C35.0368 44.6658 34.2865 45.3312 33.3546 45.6531C32.9599 45.7894 32.5526 45.8572 32.1469 45.8572ZM40.0378 22.4695C39.656 22.4695 39.2728 22.5332 38.9013 22.6615C38.0244 22.9644 37.3183 23.5905 36.9132 24.4245L29.0282 40.6569C28.1939 42.3743 28.9126 44.4516 30.6303 45.2877C31.4644 45.6937 32.4067 45.7505 33.2836 45.4476C34.1605 45.1447 34.8666 44.5186 35.2717 43.6846L43.1568 27.4523C43.991 25.7349 43.2723 23.6575 41.5546 22.8215C41.0739 22.5875 40.5572 22.4695 40.0378 22.4695Z" fill="#262625"/>
<path d="M43.8524 28.0999L36.2168 43.829C35.1598 46.0063 32.5348 46.9133 30.3574 45.8535C28.1853 44.7963 27.2802 42.1813 28.3346 40.0091L35.9703 24.28C37.0273 22.1027 39.6522 21.1957 41.8296 22.2555C44.0018 23.3128 44.9068 25.9277 43.8524 28.0999Z" fill="#FCC546"/>
<path d="M32.2712 46.4071C31.5992 46.4071 30.9308 46.2544 30.3088 45.9517C29.2321 45.4276 28.4235 44.5161 28.032 43.3851C27.6406 42.2541 27.7129 41.0383 28.2355 39.9615L35.8712 24.2324C35.8975 24.1782 35.9628 24.1556 36.0171 24.1819C36.0714 24.2082 36.0941 24.2735 36.0677 24.3277L28.4321 40.0568C27.4061 42.1703 28.2909 44.7267 30.4045 45.7554C31.4313 46.2552 32.5913 46.3251 33.6707 45.9521C34.7502 45.5791 35.6192 44.8082 36.1177 43.7814L43.7533 28.0523C43.7796 27.9981 43.8449 27.9754 43.8992 28.0017C43.9535 28.028 43.9762 28.0933 43.9499 28.1476L36.3143 43.8767C35.7903 44.956 34.8768 45.7664 33.7422 46.1584C33.2614 46.3245 32.7653 46.4071 32.2712 46.4071Z" fill="#262625"/>
<path d="M19.3887 36.9417C20.6831 33.6401 23.2506 30.9965 26.5147 29.6046L27.1045 29.353L28.5712 32.3269L22.5587 38.3645L19.3887 36.9417Z" fill="#262625"/>
<path d="M22.5581 38.473C22.543 38.473 22.5279 38.4699 22.5135 38.4635L19.3435 37.0407C19.2906 37.0169 19.2657 36.9559 19.2868 36.9019C19.9363 35.2453 20.8944 33.7579 22.1344 32.4811C23.3745 31.2043 24.8337 30.2028 26.4714 29.5044L27.0612 29.2529C27.1143 29.2302 27.1759 29.253 27.2015 29.3048L28.6682 32.2786C28.6888 32.3203 28.6806 32.3704 28.6478 32.4033L22.6352 38.441C22.6144 38.4619 22.5865 38.473 22.5581 38.473ZM19.5276 36.8849L22.5341 38.2343L28.4387 32.305L27.0519 29.4932L26.5568 29.7043C23.3726 31.0622 20.8157 33.6758 19.5276 36.8849Z" fill="#262625"/>
<path d="M24.1118 28.5265L34.8123 39.6994C36.1802 41.1277 36.1286 43.394 34.6971 44.7587C33.2685 46.1205 31.006 46.0691 29.6409 44.6437L18.9404 33.4708C17.5725 32.0425 17.6241 29.7762 19.0556 28.4115C20.4842 27.0497 22.7467 27.1011 24.1118 28.5265Z" fill="white"/>
<path d="M32.2269 45.854C31.2549 45.854 30.2846 45.4738 29.5617 44.719L18.8612 33.546C18.1795 32.8343 17.8164 31.8998 17.8389 30.9149C17.8613 29.93 18.2665 29.0131 18.9799 28.333C20.449 26.9325 22.7861 26.9857 24.1899 28.4514L34.8904 39.6243C35.572 40.3361 35.9351 41.2705 35.9127 42.2554C35.8903 43.2403 35.485 44.1573 34.7717 44.8374C34.0592 45.5166 33.1422 45.8539 32.2269 45.854ZM21.5247 27.5337C20.6633 27.5337 19.8006 27.8511 19.1301 28.4903C18.4588 29.1302 18.0775 29.9931 18.0564 30.9199C18.0353 31.8467 18.3769 32.726 19.0184 33.3958L29.7189 44.5687C31.0398 45.948 33.2391 45.9979 34.6214 44.6801C35.2927 44.0402 35.6741 43.1773 35.6952 42.2505C35.7162 41.3237 35.3746 40.4444 34.7331 39.7746L24.0326 28.6017C23.3524 27.8915 22.4393 27.5337 21.5247 27.5337Z" fill="#262625"/>
<path d="M27.1045 29.353L27.0572 29.4847C25.789 33.0191 22.9592 35.7709 19.3887 36.9417L28.9603 45.3901C30.7281 46.9505 33.3971 46.8993 35.1038 45.2724C36.8515 43.6063 36.9885 40.8649 35.4157 39.0331L27.1045 29.353Z" fill="#FCC546"/>
<path d="M31.9652 46.6358C30.8296 46.6358 29.7396 46.2242 28.8865 45.4713L19.3424 37.0472C19.305 37.0143 19.2586 36.9732 19.2852 36.903C19.2969 36.8723 19.3218 36.8485 19.353 36.8382C22.9171 35.6695 25.6872 32.9758 26.9531 29.4478L27.0004 29.3161C27.0134 29.2797 27.0449 29.253 27.083 29.246C27.1211 29.2389 27.1601 29.2527 27.1853 29.2821L35.1852 38.5995C35.2243 38.6451 35.2191 38.7137 35.1735 38.7527C35.1279 38.7919 35.0592 38.7866 35.0201 38.741L27.142 29.5654C26.5126 31.298 25.4824 32.8918 24.1605 34.1772C22.8725 35.4297 21.299 36.3977 19.6 36.9845C20.7775 38.0238 28.9419 45.2301 29.0306 45.3084C30.7699 46.8436 33.3479 46.7942 35.027 45.1934C35.373 44.8636 35.6612 44.4841 35.8835 44.0657C35.9409 43.9577 36.9589 42.0476 36.9589 42.0476L37.151 42.1498C37.151 42.1498 36.1331 44.0596 36.0757 44.1676C35.8424 44.6067 35.5402 45.0048 35.1772 45.3508C34.332 46.1565 33.2233 46.6125 32.0554 46.6349C32.0254 46.6355 31.9952 46.6358 31.9652 46.6358Z" fill="#262625"/>
<path d="M20.4986 39.6376C24.7343 38.2487 28.1474 34.8281 29.6518 30.6352L27.1045 29.353C25.8363 32.8874 22.9592 35.7709 19.3887 36.9417L20.4986 39.6376Z" fill="#CC981F"/>
<path d="M20.498 39.7461C20.455 39.7461 20.4146 39.7205 20.3974 39.6787L19.2875 36.9828C19.276 36.9549 19.2766 36.9235 19.2893 36.896C19.3019 36.8686 19.3254 36.8476 19.3541 36.8382C22.8657 35.6867 25.7246 32.8747 27.0015 29.3161C27.012 29.2868 27.0346 29.2634 27.0635 29.2519C27.0924 29.2404 27.125 29.2417 27.1528 29.2558L29.7002 30.5379C29.7492 30.5626 29.7722 30.62 29.7537 30.6717C29.0058 32.7559 27.7685 34.69 26.1754 36.2649C24.5661 37.8558 22.6146 39.0577 20.532 39.7406C20.5207 39.7444 20.5093 39.7461 20.498 39.7461ZM19.533 37.0078L20.56 39.5023C24.6581 38.1248 27.9954 34.8408 29.5161 30.6887L27.1642 29.5049C26.5291 31.2201 25.5011 32.8105 24.1859 34.1108C22.8561 35.4254 21.2495 36.4254 19.533 37.0078Z" fill="#262625"/>
<path d="M17.9471 27.4225L20.1148 27.1561L19.525 22.418C19.4592 21.8396 18.9366 21.424 18.3578 21.4897C17.7789 21.5555 17.363 22.0776 17.4287 22.656L17.9471 27.4225Z" fill="white"/>
<path d="M17.9469 27.5319C17.8919 27.5319 17.8445 27.4905 17.8384 27.4346L17.3201 22.668C17.285 22.3599 17.3723 22.056 17.566 21.8129C17.7596 21.5699 18.0364 21.4167 18.3454 21.3816C18.6542 21.3465 18.9585 21.4338 19.2018 21.6273C19.445 21.8207 19.5983 22.0973 19.6335 22.406L20.2231 27.1429C20.2306 27.2028 20.1881 27.2573 20.1282 27.2647C20.0684 27.2722 20.0138 27.2297 20.0063 27.1699L19.4166 22.4318C19.3879 22.1799 19.2634 21.9552 19.0657 21.798C18.8681 21.6409 18.6211 21.57 18.3701 21.5985C18.1191 21.627 17.8942 21.7514 17.7369 21.9489C17.5797 22.1464 17.5087 22.3932 17.5372 22.644L18.0557 27.411C18.0622 27.4709 18.0189 27.5248 17.9589 27.5313C17.9548 27.5317 17.9508 27.5319 17.9469 27.5319Z" fill="#262625"/>
<path d="M19.2102 23.2943C19.63 22.8896 19.6413 22.2212 19.2354 21.8025L17.3765 19.9017C16.9719 19.4828 16.3041 19.4709 15.8849 19.8751C15.4657 20.2793 15.4537 20.9465 15.8583 21.3654L17.72 23.2692C18.1249 23.6867 18.7915 23.6979 19.2102 23.2943Z" fill="white"/>
<path d="M17.5204 23.6016C17.4654 23.6016 17.4181 23.5601 17.412 23.5042L17.3636 23.059L15.78 21.442C15.5636 21.2179 15.4478 20.9237 15.4533 20.6131C15.4589 20.3024 15.5851 20.0125 15.8089 19.7968C16.0327 19.5811 16.3273 19.4658 16.638 19.4709C16.9489 19.4764 17.239 19.6026 17.4549 19.8261L19.3134 21.7265C19.4996 21.9186 19.6145 22.1703 19.6374 22.4359L19.7323 23.1919C19.7398 23.2517 19.6973 23.3063 19.6375 23.3138C19.5773 23.3211 19.523 23.2789 19.5155 23.2191L19.4204 22.4608C19.4202 22.4594 19.42 22.4579 19.4199 22.4564C19.4017 22.2401 19.3083 22.0349 19.1568 21.8787L17.2982 19.9782C16.9357 19.6028 16.3359 19.5921 15.9607 19.9539C15.7789 20.1291 15.6763 20.3646 15.6718 20.617C15.6673 20.8693 15.7614 21.1083 15.9368 21.2899L17.5462 22.9334C17.5633 22.9508 17.5741 22.9736 17.5767 22.9979L17.6292 23.4806C17.6357 23.5406 17.5924 23.5944 17.5324 23.6009C17.5284 23.6013 17.5244 23.6016 17.5204 23.6016Z" fill="#262625"/>
<path d="M17.4667 23.1189C17.4239 23.1189 17.3832 23.0935 17.3658 23.0515C17.3427 22.9958 17.3691 22.932 17.4249 22.9089L18.3229 22.5371C18.3787 22.5141 18.4426 22.5405 18.4656 22.5962C18.4887 22.6519 18.4623 22.7157 18.4066 22.7388L17.5085 23.1106C17.4948 23.1162 17.4807 23.1189 17.4667 23.1189Z" fill="#262625"/>
<path d="M20.469 33.2803L21.7102 33.1355C23.8631 32.8911 25.41 30.9493 25.1654 28.7983L24.8441 25.9922L15.8066 27.022L16.128 29.8281C16.3726 31.9791 18.3161 33.5247 20.469 33.2803Z" fill="white"/>
<path d="M24.8813 30.8761C24.8671 30.8761 24.8526 30.8733 24.8387 30.8674C24.7832 30.8439 24.7572 30.7798 24.7808 30.7243C25.0352 30.1241 25.1305 29.4625 25.0564 28.8108L24.7351 26.0049C24.7282 25.945 24.7713 25.8909 24.8312 25.884C24.8913 25.8772 24.9453 25.9202 24.9521 25.98L25.2735 28.7861C25.3518 29.4751 25.251 30.1748 24.9819 30.8095C24.9643 30.8511 24.9238 30.8761 24.8813 30.8761Z" fill="#262625"/>
<path d="M20.0218 33.4151C19.8037 33.4151 19.5852 33.3974 19.371 33.3623C18.5218 33.2231 17.7233 32.8039 17.1225 32.1819C16.5019 31.5396 16.1205 30.7299 16.0193 29.8406L15.698 27.0346C15.6911 26.9747 15.7342 26.9206 15.7941 26.9138C15.8543 26.9069 15.9082 26.95 15.915 27.0098L16.2364 29.8159C16.4282 31.5027 17.7317 32.8724 19.4063 33.1469C19.6386 33.185 19.8761 33.2015 20.1126 33.1958C20.173 33.1947 20.223 33.242 20.2244 33.3023C20.2258 33.3625 20.1781 33.4125 20.1178 33.414C20.0859 33.4147 20.0538 33.4151 20.0218 33.4151Z" fill="#262625"/>
<path d="M16.2326 30.4015L18.1819 29.5953L17.0767 26.9416C16.8539 26.4038 16.2368 26.1483 15.6986 26.3709C15.1603 26.5936 14.9045 27.2101 15.1274 27.7479L16.2326 30.4015Z" fill="white"/>
<path d="M16.2328 30.5107C16.19 30.5107 16.1494 30.4854 16.1319 30.4434L15.0267 27.7898C14.9077 27.5026 14.9078 27.1864 15.0268 26.8994C15.1459 26.6124 15.3697 26.3889 15.657 26.2701C16.2501 26.0248 16.9323 26.3073 17.1778 26.8999L18.2829 29.5533C18.3061 29.609 18.2798 29.6729 18.2241 29.696C18.1684 29.7191 18.1044 29.6928 18.0812 29.6372L16.976 26.9836C16.8793 26.7502 16.6976 26.5685 16.4643 26.4719C16.2309 26.3753 15.9739 26.3753 15.7406 26.4718C15.5072 26.5683 15.3254 26.7499 15.2287 26.983C15.132 27.2161 15.1319 27.473 15.2285 27.7061L16.3336 30.3596C16.3568 30.4152 16.3305 30.4791 16.2748 30.5023C16.261 30.508 16.2468 30.5107 16.2328 30.5107Z" fill="#262625"/>
<path d="M15.2101 27.8482C15.5285 28.3366 16.1832 28.4741 16.6714 28.1551L17.7604 27.4407C18.2486 27.123 18.3866 26.47 18.0686 25.9823C17.7507 25.4945 17.0972 25.3567 16.609 25.6743L15.5167 26.3909C15.0298 26.7091 14.8926 27.3611 15.2101 27.8482Z" fill="white"/>
<path d="M15.4228 28.5647C15.3792 28.5647 15.3379 28.5384 15.3211 28.4954C15.3089 28.4645 15.0241 27.738 14.9964 27.6596C14.8176 27.1532 15.0072 26.5941 15.4575 26.2998L16.5497 25.5833C17.0879 25.2331 17.8105 25.3856 18.1608 25.923C18.5111 26.4604 18.3586 27.1824 17.8207 27.5324L16.732 28.2466C16.6815 28.2797 16.6139 28.2656 16.5808 28.2152C16.5476 28.1648 16.5617 28.0972 16.6121 28.0641L17.7011 27.3497C18.1384 27.0652 18.2623 26.4787 17.9777 26.0421C17.6932 25.6056 17.1062 25.4818 16.6692 25.7661L15.5773 26.4824C15.2113 26.7215 15.0572 27.1757 15.2024 27.587C15.2236 27.647 15.4224 28.1553 15.5245 28.4157C15.5465 28.4719 15.5188 28.5352 15.4627 28.5572C15.4495 28.5623 15.4361 28.5647 15.4228 28.5647Z" fill="#262625"/>
<path d="M21.2966 31.9094C21.2637 31.9094 21.2311 31.8945 21.2096 31.8663L20.0683 30.3662L18.1456 29.6981C18.0887 29.6783 18.0586 29.6161 18.0783 29.5592C18.0982 29.5022 18.1604 29.4721 18.2174 29.4919L20.1712 30.1708C20.1915 30.1779 20.2093 30.1908 20.2223 30.2079L21.3835 31.7342C21.42 31.7822 21.4107 31.8507 21.3626 31.8871C21.3429 31.9022 21.3197 31.9094 21.2966 31.9094Z" fill="#262625"/>
<path d="M20.5382 27.1093L21.5839 26.9935L21.328 24.7561C21.2652 24.2038 20.805 23.7523 20.2489 23.7669C19.6217 23.7835 19.1563 24.3304 19.2256 24.9397L19.487 27.2258L20.5382 27.1093Z" fill="white"/>
<path d="M19.4886 27.3347C19.4338 27.3347 19.3865 27.2936 19.3802 27.2379L19.1187 24.9518C19.082 24.6287 19.1834 24.3027 19.397 24.0572C19.6136 23.8083 19.9157 23.6663 20.2477 23.6576C20.8442 23.6424 21.3672 24.1188 21.4382 24.7435L21.6941 26.9808C21.701 27.0407 21.6579 27.0948 21.598 27.1016C21.5381 27.1085 21.4839 27.0655 21.4771 27.0056L21.2212 24.7682C21.1628 24.255 20.737 23.8639 20.2535 23.8758C19.9834 23.8829 19.7378 23.9982 19.5619 24.2004C19.3884 24.3998 19.3059 24.6647 19.3358 24.9271L19.5972 27.2132C19.6041 27.273 19.561 27.3271 19.5011 27.334C19.4969 27.3345 19.4927 27.3347 19.4886 27.3347Z" fill="#262625"/>
<path d="M22.1339 26.9326L23.1796 26.8167L22.9237 24.5793C22.8609 24.027 22.4007 23.5755 21.8446 23.5902C21.2174 23.6067 20.752 24.1537 20.8213 24.763L21.0827 27.049L22.1339 26.9326Z" fill="white"/>
<path d="M21.0823 27.1579C21.0275 27.1579 20.9803 27.1169 20.9739 27.0612L20.7125 24.7751C20.6757 24.452 20.7772 24.1259 20.9908 23.8804C21.2073 23.6315 21.5095 23.4896 21.8415 23.4808C22.4383 23.4659 22.961 23.9421 23.032 24.5667L23.2879 26.804C23.2947 26.8639 23.2517 26.918 23.1917 26.9249C23.1318 26.9318 23.0777 26.8887 23.0708 26.8288L22.8149 24.5915C22.7565 24.0782 22.3312 23.687 21.8472 23.699C21.5772 23.7061 21.3316 23.8214 21.1556 24.0236C20.9821 24.2231 20.8997 24.488 20.9295 24.7504L21.191 27.0364C21.1978 27.0963 21.1548 27.1504 21.0948 27.1572C21.0906 27.1577 21.0865 27.1579 21.0823 27.1579Z" fill="#262625"/>
<path d="M23.8781 26.7392L24.9237 26.6233L24.6679 24.386C24.605 23.8337 24.1449 23.3822 23.5888 23.3968C22.9615 23.4134 22.4961 23.9603 22.5654 24.5696L22.8269 26.8557L23.8781 26.7392Z" fill="white"/>
<path d="M22.8265 26.9646C22.7717 26.9646 22.7244 26.9235 22.7181 26.8678L22.4566 24.5818C22.4199 24.2586 22.5213 23.9325 22.7349 23.687C22.9515 23.4381 23.2536 23.2962 23.5856 23.2875C24.1827 23.2724 24.7051 23.7487 24.7761 24.3734L25.032 26.6779C25.0387 26.7378 24.9955 26.7918 24.9355 26.7985C24.8756 26.8052 24.8216 26.7619 24.8149 26.702L24.559 24.3978C24.5007 23.8849 24.0768 23.4929 23.5914 23.5057C23.3213 23.5128 23.0757 23.6281 22.8998 23.8303C22.7263 24.0297 22.6438 24.2946 22.6737 24.557L22.9351 26.843C22.942 26.9029 22.8989 26.957 22.839 26.9639C22.8348 26.9644 22.8306 26.9646 22.8265 26.9646Z" fill="#262625"/>
<path d="M18.4068 26.8368C18.8328 27.2346 19.501 27.2117 19.8986 26.7856L21.0254 25.5783C21.4053 25.1722 21.4506 24.5294 21.0786 24.116C20.659 23.6499 19.9406 23.6509 19.5215 24.0989L18.3557 25.3479C17.9587 25.7733 17.9815 26.4396 18.4068 26.8368Z" fill="white"/>
<path d="M19.1253 27.2301C18.8293 27.2301 18.5488 27.1197 18.3315 26.9168C17.863 26.4793 17.8377 25.7423 18.275 25.2738L19.4408 24.0247C19.6631 23.7871 19.9776 23.6535 20.3028 23.6558C20.6329 23.659 20.937 23.7966 21.159 24.0433C21.5581 24.4866 21.5341 25.1937 21.1044 25.653L19.9777 26.8603C19.7655 27.0877 19.4773 27.2188 19.1663 27.2294C19.1526 27.2299 19.1389 27.2301 19.1253 27.2301ZM18.4806 26.7573C18.6653 26.9297 18.9061 27.0202 19.1588 27.0113C19.4114 27.0026 19.6455 26.8961 19.8179 26.7114L20.9447 25.504C21.2978 25.1266 21.3205 24.5491 20.9966 24.1892C20.8159 23.9885 20.5688 23.8766 20.3007 23.874C20.0367 23.8704 19.781 23.9807 19.6005 24.1737L18.4348 25.4226C18.0795 25.8032 18.1002 26.4019 18.4806 26.7573Z" fill="#262625"/>
<path d="M19.3788 28.2732C19.9585 28.2074 20.3747 27.6839 20.3076 27.1048L20.1815 26.0168C20.1187 25.4645 19.6586 25.013 19.1024 25.0277C18.4752 25.0442 18.0098 25.5912 18.0791 26.2005L18.2119 27.3471C18.2787 27.9245 18.8008 28.3388 19.3788 28.2732Z" fill="white"/>
<path d="M19.2591 28.3892C18.6766 28.3892 18.1718 27.9512 18.1033 27.3597L17.9706 26.2131C17.929 25.8473 18.0581 25.4925 18.325 25.2387L18.7928 24.7183C18.8331 24.6735 18.9022 24.6698 18.9471 24.7101C18.992 24.7503 18.9957 24.8194 18.9554 24.8642L18.4846 25.3878C18.4826 25.39 18.4805 25.3922 18.4783 25.3942C18.2597 25.6006 18.1537 25.8901 18.1876 26.1882L18.3204 27.3347C18.3802 27.8511 18.8494 28.2235 19.3665 28.1648C19.6178 28.1363 19.8429 28.0116 20.0002 27.8136C20.1576 27.6157 20.2282 27.3685 20.1991 27.1174L20.073 26.0295C20.0661 25.9696 20.1091 25.9154 20.169 25.9085C20.2289 25.9015 20.2831 25.9445 20.29 26.0044L20.4161 27.0923C20.4519 27.4013 20.365 27.7057 20.1713 27.9494C19.9776 28.193 19.7006 28.3466 19.3911 28.3817C19.3468 28.3867 19.3027 28.3892 19.2591 28.3892Z" fill="#262625"/>
<path d="M20.0006 26.66C20.4265 27.0578 21.0947 27.0349 21.4923 26.6088L22.6192 25.4015C22.999 24.9954 23.0443 24.3526 22.6723 23.9393C22.2528 23.4731 21.5343 23.4742 21.1152 23.9222L19.9494 25.1712C19.5524 25.5966 19.5753 26.2629 20.0006 26.66Z" fill="white"/>
<path d="M20.721 27.0534C20.425 27.0534 20.1445 26.943 19.9272 26.74C19.4587 26.3025 19.4334 25.5655 19.8707 25.097L21.0365 23.848C21.2588 23.6104 21.5729 23.4772 21.8985 23.479C22.2286 23.4822 22.5327 23.6198 22.7547 23.8665C23.1538 24.3099 23.1298 25.0169 22.7001 25.4763L21.5734 26.6835C21.3611 26.9109 21.073 27.042 20.762 27.0527C20.7483 27.0531 20.7346 27.0534 20.721 27.0534ZM20.0763 26.5805C20.261 26.753 20.5018 26.8433 20.7545 26.8345C21.0071 26.8258 21.2412 26.7193 21.4136 26.5346L22.5405 25.3273C22.8935 24.9499 22.9163 24.3724 22.5923 24.0125C22.4117 23.8118 22.1645 23.6999 21.8964 23.6973C21.6314 23.694 21.3767 23.804 21.1962 23.9969L20.0305 25.2459C19.6753 25.6264 19.6959 26.2252 20.0763 26.5805Z" fill="#262625"/>
<path d="M20.9745 28.0964C21.5542 28.0306 21.9704 27.5071 21.9033 26.928L21.7772 25.8401C21.7144 25.2878 21.2542 24.8363 20.6981 24.8509C20.0709 24.8675 19.6055 25.4144 19.6748 26.0237L19.8076 27.1703C19.8744 27.7477 20.3965 28.162 20.9745 28.0964Z" fill="white"/>
<path d="M20.8548 28.2125C20.2723 28.2126 19.7675 27.7746 19.699 27.1831L19.5662 26.0365C19.5302 25.7192 19.6225 25.4091 19.8261 25.1633C19.8271 25.1621 19.8282 25.1609 19.8292 25.1598L20.3486 24.5844C20.389 24.5396 20.4581 24.536 20.5029 24.5765C20.5477 24.6168 20.5513 24.6859 20.5108 24.7306L19.993 25.3042C19.8286 25.5037 19.7541 25.7548 19.7833 26.0116L19.9161 27.158C19.9759 27.6745 20.4451 28.047 20.9622 27.9882C21.2135 27.9597 21.4386 27.835 21.5959 27.6371C21.7532 27.4391 21.8238 27.1919 21.7948 26.9408L21.6687 25.8529C21.6618 25.793 21.7047 25.7388 21.7646 25.7319C21.8245 25.725 21.8788 25.7679 21.8857 25.8277L22.0118 26.9157C22.0476 27.2248 21.9606 27.5292 21.767 27.7728C21.5733 28.0164 21.2962 28.17 20.9868 28.2051C20.9425 28.2101 20.8984 28.2125 20.8548 28.2125Z" fill="#262625"/>
<path d="M21.7467 26.4671C22.1726 26.8649 22.8408 26.842 23.2384 26.416L24.3653 25.2086C24.7451 24.8025 24.7904 24.1597 24.4184 23.7464C23.9989 23.2803 23.2804 23.2813 22.8613 23.7293L21.6955 24.9783C21.2985 25.4037 21.3214 26.07 21.7467 26.4671Z" fill="white"/>
<path d="M22.4652 26.8601C22.1691 26.8601 21.8886 26.7496 21.6713 26.5467C21.2029 26.1092 21.1775 25.3722 21.6149 24.9036L22.7806 23.6546C23.0029 23.417 23.3166 23.2822 23.6427 23.2857C23.9727 23.2889 24.2768 23.4265 24.4989 23.6732C24.6826 23.8774 24.7836 24.1455 24.7835 24.429L24.8839 25.307C24.8908 25.3669 24.8477 25.421 24.7878 25.4278C24.7278 25.4347 24.6737 25.3917 24.6669 25.3318L24.5657 24.4474C24.5652 24.4431 24.565 24.4388 24.565 24.4344C24.5664 24.2029 24.4852 23.9845 24.3365 23.8192C24.1559 23.6185 23.9087 23.5066 23.6406 23.504C23.3764 23.5019 23.1209 23.6107 22.9403 23.8036L21.7746 25.0525C21.4194 25.4331 21.44 26.0319 21.8205 26.3872C22.0052 26.5597 22.2458 26.6497 22.4986 26.6412C22.7513 26.6326 22.9854 26.526 23.1578 26.3413L24.107 25.3243C24.1482 25.2802 24.2173 25.2778 24.2614 25.3189C24.3055 25.36 24.3079 25.4291 24.2668 25.4732L23.3175 26.4902C23.1053 26.7176 22.8171 26.8487 22.5061 26.8593C22.4924 26.8598 22.4788 26.8601 22.4652 26.8601Z" fill="#262625"/>
<path d="M22.7186 27.9031C23.2984 27.8373 23.7145 27.3138 23.6474 26.7347L23.5214 25.6467C23.4586 25.0944 22.9984 24.6429 22.4423 24.6576C21.815 24.6741 21.3497 25.221 21.4189 25.8303L21.5517 26.977C21.6186 27.5544 22.1407 27.9687 22.7186 27.9031Z" fill="white"/>
<path d="M22.5988 28.0188C22.0163 28.0188 21.5116 27.5808 21.4431 26.9893L21.3103 25.8427C21.2762 25.543 21.3581 25.2461 21.5409 25.0064C21.5426 25.0041 21.5445 25.0019 21.5464 24.9998L22.0793 24.405C22.1195 24.3601 22.1886 24.3563 22.2335 24.3965C22.2785 24.4367 22.2823 24.5057 22.242 24.5506L21.7121 25.1421C21.5655 25.3361 21.4998 25.576 21.5273 25.8179L21.6601 26.9643C21.7199 27.4807 22.1892 27.853 22.7062 27.7944C22.9575 27.7659 23.1826 27.6412 23.3399 27.4433C23.4972 27.2454 23.5679 26.9981 23.5388 26.747L23.4128 25.6591C23.4058 25.5992 23.4488 25.545 23.5087 25.5381C23.5689 25.5312 23.6228 25.5741 23.6298 25.634L23.7558 26.7219C23.7916 27.031 23.7047 27.3354 23.511 27.579C23.3173 27.8226 23.0403 27.9762 22.7309 28.0113C22.6865 28.0163 22.6424 28.0188 22.5988 28.0188Z" fill="#262625"/>
<path d="M13.5254 5.45503C13.0669 4.99208 12.5209 4.62501 11.9191 4.37521C11.3174 4.12541 10.6719 3.99787 10.0204 4.00003C7.29039 4.00003 5.06539 6.22503 5.06539 8.95503C5.06539 9.83003 5.29539 10.68 5.72539 11.43L5.02539 14L7.65039 13.31C8.37539 13.705 9.19039 13.915 10.0204 13.915C12.7504 13.915 14.9754 11.69 14.9754 8.96003C14.9754 7.63503 14.4604 6.39003 13.5254 5.45503ZM10.0204 13.075C9.28039 13.075 8.55539 12.875 7.92039 12.5L7.77039 12.41L6.21039 12.82L6.62539 11.3L6.52539 11.145C6.11416 10.4886 5.89585 9.72966 5.89539 8.95503C5.89539 6.68503 7.74539 4.83503 10.0154 4.83503C11.1154 4.83503 12.1504 5.26503 12.9254 6.04503C13.3092 6.42696 13.6134 6.8813 13.8202 7.38169C14.0271 7.88208 14.1325 8.41857 14.1304 8.96003C14.1404 11.23 12.2904 13.075 10.0204 13.075ZM12.2804 9.99503C12.1554 9.93503 11.5454 9.63503 11.4354 9.59003C11.3204 9.55003 11.2404 9.53003 11.1554 9.65003C11.0704 9.77503 10.8354 10.055 10.7654 10.135C10.6954 10.22 10.6204 10.23 10.4954 10.165C10.3704 10.105 9.97039 9.97003 9.50039 9.55003C9.13039 9.22003 8.88539 8.81503 8.81039 8.69003C8.74039 8.56503 8.80039 8.50003 8.86539 8.43503C8.92039 8.38003 8.99039 8.29003 9.05039 8.22003C9.11039 8.15003 9.13539 8.09503 9.17539 8.01503C9.21539 7.93003 9.19539 7.86003 9.16539 7.80003C9.13539 7.74003 8.88539 7.13003 8.78539 6.88003C8.68539 6.64003 8.58039 6.67003 8.50539 6.66503H8.26539C8.18039 6.66503 8.05039 6.69503 7.93539 6.82003C7.82539 6.94503 7.50539 7.24503 7.50539 7.85503C7.50539 8.46503 7.95039 9.05503 8.01039 9.13503C8.07039 9.22003 8.88539 10.47 10.1254 11.005C10.4204 11.135 10.6504 11.21 10.8304 11.265C11.1254 11.36 11.3954 11.345 11.6104 11.315C11.8504 11.28 12.3454 11.015 12.4454 10.725C12.5504 10.435 12.5504 10.19 12.5154 10.135C12.4804 10.08 12.4054 10.055 12.2804 9.99503Z" fill="#61D76A"/>
</svg>
