<svg width="44" height="43" viewBox="0 0 44 43" fill="none" xmlns="http://www.w3.org/2000/svg">
<path d="M22 4.2998C19.7191 4.2998 17.5316 5.20587 15.9188 6.81869C14.306 8.4315 13.4 10.6189 13.4 12.8998C13.4 15.1807 14.306 17.3681 15.9188 18.9809C17.5316 20.5937 19.7191 21.4998 22 21.4998C24.2808 21.4998 26.4683 20.5937 28.0811 18.9809C29.6939 17.3681 30.6 15.1807 30.6 12.8998C30.6 10.6189 29.6939 8.4315 28.0811 6.81869C26.4683 5.20587 24.2808 4.2998 22 4.2998ZM15.55 12.8998C15.55 11.1892 16.2295 9.54858 17.4391 8.33897C18.6487 7.12936 20.2893 6.4498 22 6.4498C23.7106 6.4498 25.3512 7.12936 26.5608 8.33897C27.7704 9.54858 28.4499 11.1892 28.4499 12.8998C28.4499 14.6105 27.7704 16.251 26.5608 17.4606C25.3512 18.6703 23.7106 19.3498 22 19.3498C20.2893 19.3498 18.6487 18.6703 17.4391 17.4606C16.2295 16.251 15.55 14.6105 15.55 12.8998ZM11.2693 23.6498C10.7031 23.6475 10.142 23.7571 9.61815 23.9721C9.09435 24.1872 8.61815 24.5035 8.21686 24.903C7.81557 25.3025 7.49709 25.7773 7.27969 26.3001C7.06228 26.823 6.95023 27.3836 6.94995 27.9498C6.94995 31.5855 8.7409 34.3267 11.5402 36.1134C14.2965 37.8699 18.0117 38.6998 22 38.6998C25.9882 38.6998 29.7034 37.8699 32.4597 36.1134C35.259 34.3289 37.05 31.5833 37.05 27.9498C37.05 26.8094 36.5969 25.7157 35.7905 24.9092C34.9841 24.1028 33.8904 23.6498 32.75 23.6498H11.2693ZM9.09995 27.9498C9.09995 26.7609 10.0632 25.7998 11.2693 25.7998H32.75C33.3202 25.7998 33.867 26.0263 34.2702 26.4295C34.6734 26.8327 34.9 27.3796 34.9 27.9498C34.9 30.7642 33.5627 32.8604 31.303 34.2988C29.0025 35.7672 25.7302 36.5498 22 36.5498C18.2697 36.5498 14.9974 35.7672 12.6969 34.2988C10.4394 32.8583 9.09995 30.7663 9.09995 27.9498Z" fill="#D9D9D9"/>
</svg>
