<svg xmlns="http://www.w3.org/2000/svg" viewBox="0 0 1200 1200"><g data-name="5"><path fill="#4f3cc9" d="M506.56 333.79h6v44.28h-6z" transform="rotate(-59.93 509.528 355.928)"/><path fill="#4f3cc9" d="M581.38 274.55h6v57.58h-6z" transform="rotate(-8.36 584.33 303.31)"/><path fill="#4f3cc9" d="M659.1 336.81h37.65v6H659.1z" transform="rotate(-54.57 677.876 339.81)"/><g data-name="Card cut"><path fill="#4f3cc9" d="m526.6 424.92-325 36.85a30.13 30.13 0 0 0-26.7 33.45l45.47 390.27a30.13 30.13 0 0 0 33.75 26.4l339.81-38.63L559.55 752l15.28-99.31-51.57-109.84L553.82 498Z"/><path fill="#77e0b5" d="m513.23 429.69-325 34.95a30.13 30.13 0 0 0-26.71 33.44L207 888.35a30.14 30.14 0 0 0 33.75 26.4l339.81-43.4-34.38-116.51 15.28-99.31-51.57-109.81 30.56-44.89Z"/><path fill="#4f3cc9" d="M236.85 918A33.13 33.13 0 0 1 204 888.7l-45.46-390.27a33.12 33.12 0 0 1 29.36-36.77l327.31-35.2 28.6 74.77L513.33 546l51.23 109.09-.14.91-15.17 98.65 35.18 119.23-343.31 43.85a34.12 34.12 0 0 1-4.27.27Zm274.41-485.08-322.71 34.7a27.14 27.14 0 0 0-24.05 30.12L210 888a27.16 27.16 0 0 0 30.39 23.77l336.32-43-33.6-113.72.1-.66L558.35 656l-51.9-110.54 30.64-45Z"/><rect width="134.76" height="105.87" x="236.51" y="559.07" fill="#f582ae" rx="12.25" transform="rotate(-6.19 304.015 612.214)"/><path fill="#4f3cc9" d="M253.43 673.65a15.25 15.25 0 0 1-15.12-13.6l-8.78-80.91a15.26 15.26 0 0 1 13.47-16.8l109.63-11.89A15.26 15.26 0 0 1 369.47 564l8.78 80.9a15.25 15.25 0 0 1-13.52 16.8l-109.62 11.9a15.76 15.76 0 0 1-1.68.05Zm-9.74-105.34a9.26 9.26 0 0 0-8.2 10.19l8.78 80.9a9.24 9.24 0 0 0 10.19 8.19l109.63-11.89a9.24 9.24 0 0 0 8.19-10.19l-8.78-80.9a9.25 9.25 0 0 0-10.19-8.2Z"/><rect width="126.05" height="36.29" x="250.15" y="705.19" fill="#fff" rx="5.73" transform="rotate(-6.41 313.05 723.086)"/><path fill="#4f3cc9" d="M257.61 750.79A8.72 8.72 0 0 1 249 743l-2.77-24.68a8.74 8.74 0 0 1 7.7-9.65l113.87-12.78a8.72 8.72 0 0 1 9.65 7.7l2.77 24.67a8.73 8.73 0 0 1-7.7 9.65L258.6 750.74c-.33.03-.66.05-.99.05Zm-3.06-36.11a2.73 2.73 0 0 0-2.41 3l2.77 24.68a2.73 2.73 0 0 0 1 1.83 2.69 2.69 0 0 0 2 .57L371.8 732a2.73 2.73 0 0 0 2.41-3l-2.77-24.67a2.73 2.73 0 0 0-3-2.41Z"/><rect width="126.05" height="36.29" x="406.76" y="687.04" fill="#fff" rx="5.73" transform="rotate(-6.52 470.152 705.687)"/><path fill="#4f3cc9" d="M414.25 732.76a8.71 8.71 0 0 1-8.65-7.76l-2.82-24.66a8.73 8.73 0 0 1 7.68-9.67l113.85-13a8.75 8.75 0 0 1 9.66 7.68l2.82 24.65a8.73 8.73 0 0 1-7.68 9.66l-113.85 13c-.34.08-.67.1-1.01.1Zm-3.11-36.11a2.73 2.73 0 0 0-2.4 3l2.82 24.66a2.71 2.71 0 0 0 3 2.4l113.85-13a2.71 2.71 0 0 0 2.4-3L528 686a2.74 2.74 0 0 0-3-2.4Z"/></g><g data-name="Card cut"><path fill="#4f3cc9" d="m685.12 423 13.37 76.86-38.2 35.54 24.83 123L646 746.77l10.5 125.86 314.67 37.21a27.51 27.51 0 0 0 30.4-24.22l46.08-397.47a27.59 27.59 0 0 0-24.28-30.69Z"/><path fill="#77e0b5" d="m669.84 422.05 13.37 76.4L645 533.78 669.84 656l-39.15 87.85L641.19 869l314.67 36a27.47 27.47 0 0 0 30.4-24.07l46.08-391.28a27.46 27.46 0 0 0-24.28-30.51Z"/><path fill="#4f3cc9" d="M959 908.18a31.51 31.51 0 0 1-3.48-.2l-317.11-36.32-10.78-128.31 39.08-87.68-25-122.95L680 497.35l-13.8-78.72 342.19 37.53a30.46 30.46 0 0 1 26.93 33.84l-46.08 391.28a30.53 30.53 0 0 1-30.24 26.9Zm-315-41.92L956.21 902a24.52 24.52 0 0 0 27.07-21.44l46.08-391.28a24.47 24.47 0 0 0-21.62-27.18l-334.26-36.63 13 74.07-38.16 35.3L673 656.35l-39.23 88Z"/><rect width="36.29" height="123.02" x="714.17" y="638.25" fill="#fff" rx="5.73" transform="rotate(-83.3 732.264 699.759)"/><path fill="#4f3cc9" d="M786.28 727.33a9 9 0 0 1-1-.06l-110.8-13a8.75 8.75 0 0 1-7.65-9.69l2.9-24.66a8.73 8.73 0 0 1 9.69-7.65l110.8 13a8.74 8.74 0 0 1 7.65 9.69l-2.9 24.66a8.74 8.74 0 0 1-8.69 7.71Zm-107.92-49.14a2.72 2.72 0 0 0-2.7 2.41l-2.9 24.66a2.73 2.73 0 0 0 2.39 3l110.8 13a2.74 2.74 0 0 0 3-2.39l2.9-24.66a2.74 2.74 0 0 0-2.39-3l-110.81-13a1.67 1.67 0 0 0-.29-.02Z"/><rect width="36.29" height="123.02" x="870.78" y="655.44" fill="#fff" rx="5.73" transform="rotate(-83.3 888.863 716.955)"/><path fill="#4f3cc9" d="M942.88 744.52a8.72 8.72 0 0 1-1-.06l-110.8-13a8.72 8.72 0 0 1-7.65-9.68l2.89-24.66a8.76 8.76 0 0 1 9.69-7.65l110.81 13a8.73 8.73 0 0 1 7.65 9.69l-2.9 24.66a8.75 8.75 0 0 1-8.69 7.7ZM835 695.38a2.74 2.74 0 0 0-2.71 2.41l-2.9 24.66a2.73 2.73 0 0 0 2.4 3l110.8 13a2.74 2.74 0 0 0 3-2.39l2.9-24.66a2.74 2.74 0 0 0-2.39-3l-110.81-13a1.72 1.72 0 0 0-.29-.02Z"/><circle cx="913.35" cy="833.63" r="44.88" fill="#fff"/><path fill="#4f3cc9" d="M913.35 881.51a47.89 47.89 0 1 1 47.88-47.88 47.94 47.94 0 0 1-47.88 47.88Zm0-89.77a41.89 41.89 0 1 0 41.88 41.89 41.94 41.94 0 0 0-41.88-41.89Z"/><circle cx="846.5" cy="825.03" r="44.88" fill="#4f3cc9"/></g></g></svg>