<svg width="40" height="40" viewBox="0 0 40 40" fill="none" xmlns="http://www.w3.org/2000/svg">
<path d="M29.5917 23.3335C30.0839 23.3337 30.5713 23.4309 31.026 23.6194C31.4807 23.808 31.8937 24.0843 32.2417 24.4325C32.5896 24.7807 32.8655 25.1941 33.0537 25.6489C33.2418 26.1038 33.3386 26.5912 33.3383 27.0835V28.6135C33.3383 29.5685 33.04 30.4996 32.485 31.2768C29.9083 34.8835 25.7017 36.6685 20.0017 36.6685C14.2983 36.6685 10.0933 34.8818 7.52334 31.2751C6.97022 30.4985 6.67309 29.5686 6.67334 28.6151V27.0818C6.67334 26.0877 7.06825 25.1343 7.7712 24.4313C8.47415 23.7284 9.42755 23.3335 10.4217 23.3335H29.5917ZM20 3.3418C21.0944 3.3418 22.178 3.55734 23.189 3.97613C24.2001 4.39492 25.1187 5.00875 25.8926 5.78257C26.6664 6.55639 27.2802 7.47505 27.699 8.4861C28.1178 9.49715 28.3333 10.5808 28.3333 11.6751C28.3333 12.7695 28.1178 13.8531 27.699 14.8642C27.2802 15.8752 26.6664 16.7939 25.8926 17.5677C25.1187 18.3415 24.2001 18.9553 23.189 19.3741C22.178 19.7929 21.0944 20.0085 20 20.0085C17.7899 20.0085 15.6703 19.1305 14.1074 17.5677C12.5446 16.0049 11.6667 13.8853 11.6667 11.6751C11.6667 9.46499 12.5446 7.34538 14.1074 5.78257C15.6703 4.21977 17.7899 3.3418 20 3.3418Z" fill="#FCC548"/>
</svg>
