<svg width="174" height="66" viewBox="0 0 174 66" fill="none" xmlns="http://www.w3.org/2000/svg">
<path d="M56.9003 10.7437L101.675 10.7437L101.675 37.6066L82.891 37.6066L101.675 54.7981L85.7179 54.7981L67.2966 37.6066L67.2966 54.7981L56.9004 54.7981L56.9003 27.4895L89.7287 27.4895L89.7287 20.9526L56.9003 20.9526L56.9003 10.7437Z" fill="black"/>
<path d="M106.324 54.7981L117.267 54.7981L117.267 10.6544L106.324 10.6544L106.324 54.7981Z" fill="black"/>
<path d="M18.6936 44.1428L18.6935 10.7437L10.1217 10.7437C8.57158 10.7437 7.38596 11.9086 7.38597 13.3395C7.38598 21.2217 7.2949 44.4116 7.29492 52.1118C7.29492 53.5445 8.48054 54.7981 9.93955 54.7981C15.8667 54.7981 32.9185 54.7981 35.3796 54.7981L35.3795 44.1428L18.6936 44.1428Z" fill="black"/>
<path d="M41.0332 65.8118C42.0375 65.8118 49.6967 65.8118 52.2509 65.8118C52.2509 65.8118 52.2508 44.0533 52.2508 43.6953C48.6025 43.6953 44.7745 43.6953 41.0332 43.6953C41.0332 51.0375 41.0332 58.3797 41.0332 65.8118Z" fill="black"/>
<path d="M24.165 10.7437C24.165 10.9242 24.165 21.7567 24.165 21.7567C29.1806 21.7567 35.5627 21.7567 41.0336 21.7567C41.0336 29.3699 41.0336 38.2334 41.0336 38.2334C43.5877 38.2334 51.247 38.2334 52.2513 38.2334L52.2512 13.4313C52.2512 11.9973 51.064 10.8324 49.6072 10.7437C44.1364 10.7437 31.186 10.7437 24.165 10.7437Z" fill="black"/>
<path d="M24.165 27.1286C24.165 30.8007 24.165 34.4727 24.165 38.322C25.077 38.322 26.08 38.322 26.9919 38.322C29.5464 38.322 32.7358 38.322 35.29 38.322C35.29 38.322 35.29 27.3091 35.29 27.1286C31.6417 27.1286 27.9038 27.1286 24.165 27.1286ZM32.0075 34.9191C30.9133 34.9191 29.6362 34.9191 28.6319 34.9191C28.2687 34.9191 27.9038 34.9191 27.4479 34.9191C27.4479 33.3964 27.4479 31.9656 27.4479 30.443C28.9977 30.443 30.4576 30.443 32.0075 30.443C32.0075 30.5316 32.0075 34.9191 32.0075 34.9191Z" fill="black"/>
<path d="M170.977 43.6953L170.977 60.1707C170.977 61.6031 169.7 62.7674 168.243 62.7674L151.465 62.7674L151.465 65.4534L170.977 65.4534L171.07 65.4534C172.437 65.4534 173.621 64.2894 173.621 62.8567L173.621 62.7674L173.621 43.6953L170.977 43.6953Z" fill="black"/>
<path d="M2.73575 21.6682L2.73572 5.19149C2.73572 3.76066 3.82989 2.68437 5.28889 2.68437L22.0676 2.68438C22.1587 2.68438 22.1587 2.59574 22.1587 2.59574L22.1587 0.0886177C22.1587 0.0886177 22.1587 -1.74752e-05 22.0676 -1.75078e-05L2.73571 -2.4438e-05C1.18558 -2.49937e-05 -4.14035e-05 1.1649 -3.83484e-05 2.68437L-1.78216e-07 21.6682C0 21.7568 0.0911274 21.7568 0.0911274 21.7568L2.64463 21.7568C2.64463 21.7568 2.73575 21.7568 2.73575 21.6682Z" fill="black"/>
<path d="M166.235 21.6683L166.234 10.7439L122.009 10.7439L122.009 27.1288L122.009 38.145L151.465 38.145L151.465 43.6059L122.009 43.6059L122.009 54.6191L166.235 54.6192L166.235 27.2206L136.782 27.2206L136.782 21.6683L166.235 21.6683Z" fill="black"/>
</svg>
