<svg width="804" height="686" viewBox="0 0 804 686" fill="none" xmlns="http://www.w3.org/2000/svg">
<path d="M781.35 245.57L770.72 243.25L768.3 232.64C768.259 232.459 768.158 232.296 768.012 232.18C767.867 232.064 767.686 232 767.5 232C767.313 232.002 767.132 232.065 766.985 232.181C766.838 232.297 766.735 232.459 766.69 232.64L764.27 243.3L753.64 245.82C753.457 245.865 753.294 245.971 753.178 246.119C753.062 246.268 752.999 246.452 753 246.64C753.001 246.827 753.066 247.007 753.185 247.151C753.303 247.295 753.467 247.394 753.65 247.43L764.28 249.75L766.69 260.36C766.735 260.542 766.838 260.704 766.985 260.82C767.132 260.935 767.313 260.999 767.5 261C767.686 261 767.867 260.937 768.012 260.821C768.158 260.704 768.259 260.542 768.3 260.36L770.73 249.7L781.36 247.18C781.547 247.144 781.715 247.044 781.836 246.897C781.958 246.75 782.024 246.566 782.024 246.375C782.024 246.185 781.958 246.001 781.836 245.854C781.715 245.707 781.547 245.607 781.36 245.57H781.35ZM110.35 326.57L99.72 324.25L97.3 313.64C97.2591 313.459 97.1576 313.296 97.0122 313.18C96.8669 313.064 96.6862 313 96.5 313C96.313 313.002 96.1318 313.065 95.9851 313.181C95.8384 313.297 95.7345 313.459 95.69 313.64L93.27 324.3L82.64 326.82C82.4567 326.865 82.2939 326.971 82.1778 327.119C82.0617 327.268 81.9991 327.452 82 327.64C82.0009 327.827 82.0661 328.007 82.1845 328.151C82.3029 328.295 82.4673 328.394 82.65 328.43L93.28 330.75L95.69 341.36C95.7345 341.542 95.8384 341.704 95.9851 341.82C96.1318 341.935 96.313 341.999 96.5 342C96.6862 342 96.8669 341.937 97.0122 341.821C97.1576 341.704 97.2591 341.542 97.3 341.36L99.73 330.7L110.36 328.18C110.547 328.144 110.715 328.044 110.836 327.897C110.958 327.75 111.024 327.566 111.024 327.375C111.024 327.185 110.958 327.001 110.836 326.854C110.715 326.707 110.547 326.607 110.36 326.57H110.35ZM727.66 203L722.16 201.8L720.92 196.31C720.899 196.215 720.846 196.129 720.769 196.068C720.693 196.006 720.598 195.973 720.5 195.973C720.402 195.973 720.307 196.006 720.231 196.068C720.154 196.129 720.101 196.215 720.08 196.31L718.83 201.83L713.33 203.13C713.236 203.153 713.152 203.207 713.092 203.283C713.032 203.359 713 203.453 713 203.55C713.001 203.648 713.035 203.742 713.097 203.816C713.159 203.891 713.245 203.942 713.34 203.96L718.84 205.16L720.08 210.65C720.101 210.746 720.154 210.832 720.231 210.893C720.307 210.955 720.402 210.988 720.5 210.988C720.598 210.988 720.693 210.955 720.769 210.893C720.846 210.832 720.899 210.746 720.92 210.65L722.17 205.13L727.67 203.83C727.763 203.806 727.846 203.752 727.906 203.676C727.966 203.6 727.999 203.507 728 203.41C727.999 203.313 727.965 203.219 727.903 203.145C727.841 203.07 727.755 203.019 727.66 203Z" fill="#3F3D56"/>
<path d="M0 685H138.73C140.49 666.62 126.04 660.27 126.04 660.27C129.54 654.47 127.9 650.75 127.9 650.75C125.71 647.69 123.41 650.75 123.41 650.75C123.52 643.31 119.8 641.99 119.8 641.99C117.18 641.34 116.3 646.48 116.3 646.48C108.42 638.27 100.76 642.76 100.76 642.76C101.424 640.941 101.613 638.983 101.31 637.07C99.89 635.21 98.36 637.62 98.36 637.62C98.79 627.62 95.18 627.22 95.18 627.22C91.57 627.11 92.23 634.77 92.23 634.77C87 627.55 81 627.22 81 627.22C71.59 627.11 66.88 636.96 66.88 636.96C67.54 625.25 63.27 625.25 63.27 625.25C58.45 626.25 61.52 638.93 61.52 638.93C54.73 633.57 48.83 634.93 48.83 634.93C37.44 636.93 34.27 652.93 34.27 652.93C31.1 648.44 28.91 649.54 28.91 649.54C25.85 651.18 27.38 655.88 27.38 655.88C17.31 658.4 25.19 660.37 25.19 660.37C23.8097 661.677 22.6958 663.239 21.91 664.97C3.48 664.65 0 685 0 685ZM606.09 685H802.93C805.42 658.92 784.93 649.92 784.93 649.92C789.93 641.69 787.57 636.41 787.57 636.41C784.46 632.06 781.2 636.41 781.2 636.41C781.36 625.85 776.08 623.99 776.08 623.99C772.35 623.06 771.08 630.36 771.08 630.36C759.9 618.71 749.08 625.08 749.08 625.08C750.63 620.08 749.85 617 749.85 617C747.85 614.37 745.66 617.78 745.66 617.78C746.28 603.65 741.16 603.03 741.16 603.03C736.04 602.88 736.97 613.74 736.97 613.74C729.51 603.5 721 603 721 603C707.65 602.85 701 616.82 701 616.82C701.93 600.21 695.88 600.21 695.88 600.21C689.05 601.61 693.4 619.61 693.4 619.61C683.77 612.01 675.4 613.87 675.4 613.87C659.25 616.66 654.75 639.33 654.75 639.33C650.25 632.96 647.14 634.52 647.14 634.52C642.8 636.85 644.97 643.52 644.97 643.52C630.69 647.09 641.87 649.89 641.87 649.89C639.908 651.74 638.325 653.955 637.21 656.41C611.06 656.13 606.09 685 606.09 685Z" fill="#3F3D56"/>
<path d="M331.65 682.78H34.9998C31.2598 643.48 62.1398 629.9 62.1398 629.9C54.6498 617.5 58.1398 609.55 58.1398 609.55C62.8198 603 67.7398 609.55 67.7398 609.55C67.4998 593.64 75.4598 590.83 75.4598 590.83C81.0698 589.43 82.9498 600.42 82.9498 600.42C99.7898 582.87 116.17 592.47 116.17 592.47C113.81 585 115 580.3 115 580.3C118 576.3 121.32 581.47 121.32 581.47C120.38 560.18 128.1 559.24 128.1 559.24C135.82 559.01 134.42 575.39 134.42 575.39C145.65 559.94 158.52 559.24 158.52 559.24C178.64 559.01 188.7 580.07 188.7 580.07C187.3 555.07 196.43 555.07 196.43 555.07C206.72 557.18 200.17 584.32 200.17 584.32C214.68 572.85 227.31 575.66 227.31 575.66C251.64 579.87 258.43 614.03 258.43 614.03C265.22 604.44 269.89 606.78 269.89 606.78C276.45 610.29 273.17 620.35 273.17 620.35C294.7 625.73 277.85 629.94 277.85 629.94C282.06 633.45 284.85 639.77 284.85 639.77C324.16 639.26 331.65 682.78 331.65 682.78Z" fill="#49B38D"/>
<path d="M335.21 685.78H32.2098L31.9498 683.07C28.7498 649.43 50.0598 633.449 57.9498 628.719C51.7898 616.659 55.1598 608.72 55.3198 608.34L55.4398 608.06L55.6198 607.799C58.0598 604.399 60.7298 603.66 62.5498 603.64C63.3816 603.608 64.2122 603.73 64.9998 604C66.5498 591 74.0998 588.13 74.4598 588L74.7298 587.919C75.6394 587.683 76.5888 587.64 77.5158 587.795C78.4429 587.95 79.3268 588.299 80.1098 588.82C82.1393 590.357 83.6615 592.468 84.4798 594.88C95.3498 585.79 105.83 586.25 112.02 587.78C111.545 585.061 111.568 582.279 112.09 579.57L112.24 578.969L112.62 578.479C113.18 577.635 113.946 576.946 114.845 576.478C115.743 576.009 116.746 575.776 117.76 575.799C117.93 575.79 118.1 575.79 118.27 575.799C118.84 558.269 126.15 556.419 127.74 556.219H128.01C129.084 556.179 130.155 556.371 131.149 556.782C132.143 557.193 133.037 557.813 133.77 558.599C135.83 560.779 136.77 564.21 137.22 567.44C147.64 556.94 157.86 556.249 158.36 556.229H158.86C171.59 556.229 180.49 563.78 185.73 570.14C186.25 563.02 187.96 557.89 190.86 554.83C191.553 554.012 192.403 553.342 193.36 552.859C194.316 552.376 195.36 552.091 196.43 552.02H196.73L197.03 552.08C198.194 552.323 199.296 552.804 200.266 553.492C201.237 554.18 202.055 555.061 202.67 556.08C206.03 561.37 205.43 571.009 204.45 577.729C216.77 570.669 226.76 572.42 227.88 572.65C247.77 576.13 256.65 597.24 259.88 607.65C266.05 601.74 270.66 603.739 271.26 604.039C276.9 607.039 277.53 613.39 276.77 618.15C284.1 620.28 287.14 622.59 287.14 625.87C287.14 628.3 285.25 629.979 283.14 631.099C284.503 632.865 285.711 634.746 286.75 636.719C326.5 637.619 334.56 681.8 334.64 682.26L335.21 685.78ZM37.7398 679.78H327.89C325.26 669.87 315.32 642.78 285.48 642.78H282.89L282.09 640.979C282.09 640.929 279.5 635.25 275.89 632.24L271.35 628.46L277.1 627C278.168 626.725 279.206 626.347 280.2 625.87C277.717 624.693 275.106 623.807 272.42 623.229L269.3 622.45L270.3 619.39C270.3 619.33 272.63 611.91 268.65 609.51C267.73 609.35 264.79 610.17 260.86 615.74L256.86 621.44L255.5 614.59C255.43 614.27 248.8 582.39 226.81 578.59H226.67C226.22 578.5 215.13 576.329 202.04 586.669L195.2 592L197.2 583.57C198.88 576.57 200.46 563.86 197.56 559.31C197.263 558.777 196.804 558.353 196.25 558.099C194.4 558.849 190.74 563.75 191.65 579.89L192.5 595.07L186 581.359C185.91 581.169 176.53 562.06 158.64 562.24C157.74 562.32 146.78 563.49 136.85 577.15L130.51 585.859L131.43 575.13C131.76 571.22 131.35 564.79 129.43 562.75C129.202 562.478 128.881 562.3 128.53 562.25C126.99 562.99 123.73 567.5 124.33 581.34L124.83 592.539L118.83 583.08C118.549 582.671 118.213 582.304 117.83 581.99C117.623 585.234 118.047 588.487 119.08 591.57L121.4 598.979L114.7 595.06C114.13 594.73 100.07 586.97 85.1598 602.5L80.9998 606.789L79.9998 600.93C79.5998 598.65 78.3198 594.819 76.8398 593.849C76.773 593.796 76.6962 593.756 76.6138 593.732C76.5314 593.707 76.4451 593.7 76.3598 593.71C75.5498 594.12 70.5598 597.17 70.7498 609.5L70.8798 618.729L65.3498 611.349C64.9398 610.819 63.6898 609.64 62.7198 609.64C62.0298 609.64 61.2998 610.4 60.8298 611C60.4098 612.3 58.8298 618.659 64.7198 628.349L66.4798 631.28L63.3598 632.65C62.1598 633.16 35.8398 645.29 37.7398 679.78Z" fill="#3F3D56"/>
<path d="M776.79 682.78H480.1C476.36 643.48 507.25 629.9 507.25 629.9C499.76 617.5 503.25 609.55 503.25 609.55C507.93 603 512.84 609.55 512.84 609.55C512.61 593.64 520.56 590.83 520.56 590.83C526.18 589.43 528.05 600.42 528.05 600.42C544.9 582.87 561.28 592.47 561.28 592.47C558.94 584.98 560.11 580.3 560.11 580.3C563.11 576.3 566.42 581.47 566.42 581.47C565.49 560.18 573.21 559.24 573.21 559.24C580.93 559.01 579.53 575.39 579.53 575.39C590.76 559.94 603.63 559.24 603.63 559.24C623.75 559.01 633.81 580.07 633.81 580.07C632.41 555.07 641.53 555.07 641.53 555.07C651.83 557.18 645.27 584.32 645.27 584.32C659.78 572.85 672.42 575.66 672.42 575.66C696.75 579.87 703.54 614.03 703.54 614.03C710.32 604.44 715 606.78 715 606.78C721.55 610.29 718.28 620.35 718.28 620.35C739.8 625.73 722.96 629.94 722.96 629.94C727.17 633.45 729.96 639.77 729.96 639.77C769.3 639.26 776.79 682.78 776.79 682.78Z" fill="#49B38D"/>
<path d="M780.35 685.78H477.35L477.09 683.07C473.89 649.43 495.19 633.449 503.09 628.719C496.94 616.659 500.31 608.72 500.46 608.34L500.59 608.06L500.77 607.799C503.2 604.399 505.88 603.66 507.69 603.64C508.498 603.618 509.304 603.74 510.07 604C511.61 591 519.16 588.13 519.52 588L519.8 587.919C520.708 587.683 521.656 587.642 522.581 587.797C523.506 587.952 524.388 588.3 525.17 588.82C527.2 590.359 528.724 592.469 529.55 594.88C540.42 585.79 550.9 586.25 557.08 587.78C556.599 585.061 556.626 582.278 557.16 579.57L557.31 578.969L557.68 578.479C558.24 577.635 559.006 576.946 559.905 576.478C560.804 576.009 561.806 575.776 562.82 575.799C562.993 575.789 563.167 575.789 563.34 575.799C563.9 558.269 571.22 556.419 572.81 556.219H573.08C574.154 556.181 575.224 556.374 576.218 556.785C577.212 557.195 578.106 557.814 578.84 558.599C580.89 560.779 581.84 564.21 582.28 567.44C592.7 556.94 602.92 556.249 603.42 556.229H604C616.72 556.229 625.62 563.78 630.86 570.14C631.38 563.02 633.1 557.89 635.99 554.83C636.683 554.012 637.533 553.342 638.49 552.859C639.446 552.376 640.491 552.091 641.56 552.02H641.86L642.16 552.08C643.326 552.323 644.429 552.804 645.401 553.492C646.373 554.18 647.193 555.061 647.81 556.08C651.17 561.37 650.57 571.009 649.59 577.729C661.9 570.669 671.89 572.43 673.01 572.65C692.91 576.13 701.79 597.24 705.01 607.65C711.18 601.74 715.79 603.739 716.38 604.039C722.03 607.039 722.66 613.39 721.9 618.15C729.22 620.28 732.27 622.59 732.27 625.87C732.27 628.3 730.38 629.979 728.27 631.099C729.633 632.865 730.841 634.746 731.88 636.719C771.62 637.619 779.69 681.8 779.77 682.26L780.35 685.78ZM482.89 679.78H773C770.37 669.87 760.43 642.78 730.59 642.78H728L727.19 640.979C727.19 640.929 724.6 635.25 720.99 632.24L716.46 628.46L722.19 627.02C723.257 626.742 724.295 626.364 725.29 625.89C722.806 624.716 720.195 623.83 717.51 623.25L714.39 622.469L715.39 619.409C715.39 619.349 717.73 611.93 713.75 609.53C712.81 609.37 709.89 610.2 705.95 615.76L701.95 621.46L700.59 614.609C700.53 614.289 693.9 582.409 671.9 578.609H671.77C671.31 578.519 660.22 576.35 647.13 586.69L640.33 592.07L642.33 583.64C644 576.64 645.58 563.93 642.68 559.38C642.386 558.848 641.931 558.424 641.38 558.169C639.53 558.919 635.87 563.82 636.77 579.96L637.62 595.14L631.07 581.419C630.98 581.229 621.65 562.299 603.92 562.299H603.71C602.81 562.379 591.86 563.55 581.92 577.21L575.59 585.919L576.51 575.19C576.84 571.28 576.43 564.85 574.51 562.81C574.276 562.539 573.953 562.362 573.6 562.31C572.07 563.05 568.8 567.56 569.41 581.4L569.9 592.599L563.9 583.14C563.622 582.729 563.285 582.361 562.9 582.049C562.688 585.294 563.112 588.548 564.15 591.63L566.46 599.039L559.77 595.12C559.19 594.79 545.13 587.03 530.22 602.56L526.1 606.849L525.1 600.99C524.71 598.71 523.43 594.879 521.94 593.909C521.875 593.855 521.8 593.815 521.719 593.791C521.638 593.767 521.554 593.76 521.47 593.77C520.66 594.18 515.67 597.23 515.85 609.56L515.99 618.789L510.45 611.409C510.04 610.879 508.8 609.7 507.83 609.7C507.14 609.7 506.42 610.46 505.95 611.06C505.53 612.36 503.95 618.719 509.83 628.409L511.6 631.34L508.47 632.71C507.31 633.16 481 645.29 482.89 679.78ZM189 667.109C182.33 671.519 179.19 678.55 177.83 682.78H130C126.2 670.78 127.48 664.39 127.48 664.39C130.72 670.01 134.29 671.539 134.29 671.539C138.21 664.389 136.68 645.14 136.68 645.14C143.83 651.78 143.15 666.599 143.15 666.599C148.22 648.519 159.83 643.01 160.01 642.93C152.52 655.19 152.18 673.25 152.18 673.25C161.38 658.6 178.92 660.25 178.92 660.25C166.14 664.51 165.63 677.45 165.63 677.45C174.34 667.8 189 667.109 189 667.109Z" fill="#3F3D56"/>
<path d="M290.55 306.86L318.16 296.78L320.89 218.25C287.13 192.62 306.04 174.25 306.04 174.25L307.48 138.31H442.24C467.32 284.74 403.5 270.74 403.5 270.74L405.11 301.25L437.87 313L437.67 375.27H285.86L290.55 306.86Z" fill="white"/>
<path d="M440.66 378.25H282.66L287.66 304.71L315.2 294.65L317.81 219.65C305.13 209.72 298.39 199.56 297.81 189.44C297.438 183.502 299.32 177.641 303.08 173.03L304.59 135.29H444.77L445.19 137.79C456.3 202.62 451.81 245.15 431.85 264.21C428.54 267.471 424.603 270.026 420.276 271.721C415.95 273.416 411.324 274.215 406.68 274.07L408 299.07L440.88 310.83L440.66 378.25ZM289.08 372.25H434.68L434.86 315.09L402.22 303.41L400.29 267L404.14 267.84C404.64 267.95 416.87 270.36 427.82 259.84C440.28 247.84 452.38 217.51 439.7 141.36H310.36L309 175.58L308.14 176.41C306.589 178.143 305.406 180.173 304.661 182.376C303.917 184.58 303.628 186.911 303.81 189.23C304.38 197.69 310.92 206.9 322.72 215.86L323.96 216.8L321.1 298.9L293.41 309L289.08 372.25Z" fill="#3F3D56"/>
<path d="M365.521 146.2C365.521 146.2 394.361 164.87 443.521 146.2L445.911 163.39C445.911 163.39 467.601 147.95 461.771 119.39C461.771 119.39 458.851 101.31 428.521 97.8096C428.521 97.8096 415.681 71.5596 387.681 82.6396C387.681 82.6396 366.681 69.8096 346.261 89.0596C346.261 89.0596 328.181 88.4696 325.261 103.06C325.261 103.06 306.051 100.8 294.261 114.14C289.471 119.691 286.887 126.808 287.001 134.14C287.001 145.46 288.051 165.01 306.171 175.97C306.171 175.97 327.411 161.59 334.011 189.97L344.511 192.89L346.841 176.56C346.841 176.56 362.611 171.87 365.521 146.2Z" fill="#3F3D56"/>
<path d="M435.24 207.699C431.087 207.699 427.027 206.468 423.573 204.16C420.12 201.853 417.428 198.573 415.839 194.736C414.25 190.898 413.834 186.676 414.644 182.602C415.454 178.529 417.454 174.787 420.391 171.85C423.328 168.913 427.07 166.913 431.144 166.103C435.217 165.292 439.44 165.708 443.277 167.298C447.114 168.887 450.394 171.579 452.701 175.032C455.009 178.486 456.24 182.546 456.24 186.699C456.24 192.269 454.028 197.61 450.09 201.548C446.151 205.487 440.81 207.699 435.24 207.699ZM435.24 169.779C431.878 169.779 428.591 170.776 425.796 172.644C423 174.512 420.821 177.167 419.535 180.274C418.248 183.38 417.911 186.798 418.567 190.096C419.223 193.393 420.842 196.423 423.22 198.8C425.597 201.178 428.626 202.797 431.924 203.453C435.222 204.109 438.64 203.772 441.746 202.485C444.852 201.198 447.508 199.02 449.375 196.224C451.243 193.428 452.24 190.142 452.24 186.779C452.24 182.271 450.449 177.947 447.261 174.758C444.073 171.57 439.749 169.779 435.24 169.779ZM389.73 207.699C385.577 207.699 381.517 206.468 378.064 204.16C374.61 201.853 371.918 198.573 370.329 194.736C368.74 190.898 368.324 186.676 369.134 182.602C369.944 178.529 371.944 174.787 374.881 171.85C377.818 168.913 381.56 166.913 385.634 166.103C389.707 165.292 393.93 165.708 397.767 167.298C401.604 168.887 404.884 171.579 407.191 175.032C409.499 178.486 410.73 182.546 410.73 186.699C410.73 192.269 408.518 197.61 404.58 201.548C400.641 205.487 395.3 207.699 389.73 207.699ZM389.73 169.779C386.368 169.779 383.081 170.776 380.286 172.644C377.49 174.512 375.311 177.167 374.025 180.274C372.738 183.38 372.401 186.798 373.057 190.096C373.713 193.393 375.332 196.423 377.71 198.8C380.087 201.178 383.116 202.797 386.414 203.453C389.712 204.109 393.13 203.772 396.236 202.485C399.342 201.198 401.997 199.02 403.865 196.224C405.733 193.428 406.73 190.142 406.73 186.779C406.73 182.271 404.939 177.947 401.751 174.758C398.563 171.57 394.239 169.779 389.73 169.779Z" fill="#3F3D56"/>
<path d="M434.94 194.619C437.84 194.619 440.19 192.269 440.19 189.369C440.19 186.47 437.84 184.119 434.94 184.119C432.041 184.119 429.69 186.47 429.69 189.369C429.69 192.269 432.041 194.619 434.94 194.619Z" fill="#3F3D56"/>
<path d="M389.73 194.909C392.63 194.909 394.98 192.559 394.98 189.659C394.98 186.76 392.63 184.409 389.73 184.409C386.831 184.409 384.48 186.76 384.48 189.659C384.48 192.559 386.831 194.909 389.73 194.909Z" fill="#3F3D56"/>
<path d="M343.514 183.729L343.903 179.749L370.944 182.395L370.554 186.376L343.514 183.729Z" fill="#3F3D56"/>
<path d="M425.55 220.179L413.74 219.259L414.05 215.279L419.84 215.729L409.44 184.629L413.23 183.359L425.55 220.179ZM417.83 167.599L415.3 164.499C415.72 164.159 425.82 156.109 445.74 158.609L445.24 162.609C427 160.299 417.92 167.529 417.83 167.599ZM404.32 167.139C403.75 166.529 390.05 152.509 371.32 164.289L369.19 160.899C390.75 147.349 407.07 164.219 407.19 164.389L404.32 167.139ZM421.1 241.719C421.578 241.241 421.945 240.663 422.174 240.027C422.403 239.391 422.489 238.712 422.426 238.039C422.363 237.366 422.153 236.715 421.809 236.133C421.466 235.55 420.999 235.051 420.44 234.669C418.719 233.49 416.696 232.831 414.61 232.769C409.18 232.609 401.99 236.109 398.61 237.919C398.387 238.036 398.196 238.206 398.053 238.413C397.911 238.621 397.82 238.86 397.791 239.11C397.761 239.36 397.793 239.614 397.884 239.849C397.974 240.084 398.121 240.294 398.31 240.459C402.09 243.759 413.56 249.569 421.1 241.719Z" fill="#3F3D56"/>
<path d="M506.85 244.05L521.85 271.11L543.93 381.51L488.34 348V466.27L639.34 493.33L558.86 248.33L524.15 149.45C523.204 146.753 521.653 144.308 519.617 142.302C517.58 140.297 515.112 138.784 512.4 137.88L509 136.73C505.428 135.539 501.644 135.121 497.898 135.502C494.152 135.883 490.529 137.055 487.27 138.94L457 156.44V210.57C457 210.57 472 221.26 479.08 231.23C479.08 231.23 491.19 244.76 506.85 244.05Z" fill="white"/>
<path d="M643.75 497.17L485.34 468.78V342.72L539.62 375.43L519 272.16L505.1 247.07C489.1 246.78 477.35 233.8 476.84 233.23L476.64 232.97C469.88 223.52 455.4 213.12 455.25 212.97L454 212.07V154.71L485.72 136.35C489.347 134.249 493.379 132.942 497.55 132.516C501.72 132.091 505.933 132.555 509.91 133.88L513.33 135.02C516.478 136.075 519.344 137.833 521.713 140.16C524.081 142.486 525.889 145.321 527 148.45L561.71 247.33L643.75 497.17ZM491.34 463.76L634.91 489.49L556 249.26L521.31 150.44C520.51 148.177 519.205 146.126 517.495 144.442C515.785 142.758 513.715 141.485 511.44 140.72L508 139.58C504.826 138.529 501.466 138.164 498.14 138.509C494.815 138.854 491.601 139.9 488.71 141.58L460 158.17V209.05C463.8 211.89 475.2 220.72 481.41 229.33C482.52 230.52 493.41 241.66 506.72 241.05L508.58 240.97L524.66 270.07L524.75 270.53L548.17 387.59L491.34 353.35V463.76Z" fill="#3F3D56"/>
<path d="M416.731 311C410.311 328.48 384.461 374.17 302.861 304.68C301.866 303.832 300.662 303.267 299.374 303.044C298.087 302.821 296.763 302.947 295.541 303.41L204.141 338.09C191.535 342.873 181.13 352.127 174.911 364.09L120.471 468.76L209.851 490.48L207.721 682.07L547.451 682.78L515.761 421V339.61L424.761 307.27C423.201 306.71 421.483 306.788 419.98 307.486C418.477 308.185 417.309 309.447 416.731 311Z" fill="#FCC548"/>
<path d="M550.84 685.79L204.68 685.06L206.83 492.83L116 470.77L172.21 362.77C178.767 350.151 189.742 340.39 203.04 335.35L294.44 300.67C296.164 300.017 298.031 299.84 299.846 300.157C301.662 300.473 303.359 301.272 304.76 302.47C338.59 331.28 366.11 343.16 386.53 337.8C403.04 333.46 410.75 318.54 413.87 310.03C414.722 307.738 416.441 305.872 418.655 304.834C420.869 303.796 423.403 303.669 425.71 304.48L518.71 337.48V420.85L550.84 685.79ZM210.75 679.08L544.07 679.78L512.76 421.22V341.72L423.76 310.1C422.936 309.811 422.032 309.859 421.243 310.233C420.455 310.608 419.846 311.279 419.55 312.1C416.03 321.71 407.25 338.57 388.1 343.6C365.67 349.49 336.34 337.19 300.92 307.03C300.333 306.534 299.624 306.202 298.867 306.071C298.109 305.939 297.33 306.011 296.61 306.28L205.22 340.96C193.296 345.473 183.455 354.225 177.58 365.54L124.9 466.75L212.9 488.13L210.75 679.08Z" fill="#3F3D56"/>
<path d="M519.081 316.659L426.73 370.469L429.1 640.799L521.461 589.839L519.081 316.659Z" fill="#3F3D56"/>
<path d="M615.47 372.609L521.46 320.609V589.839L615.47 636.849V372.609Z" fill="white"/>
<path d="M618.47 641.699L518.47 591.699V315.529L618.47 370.839V641.699ZM524.47 587.979L612.47 631.979V374.379L524.47 325.699V587.979Z" fill="#3F3D56"/>
<path d="M713.051 320.609L615.471 372.609L617.851 640.799L713.051 567.759V320.609Z" fill="#3F3D56"/>
<path d="M426.73 370.469V636.849L332 586.279V320.609L426.73 370.469Z" fill="white"/>
<path d="M429.73 641.85L329 588.08V315.64L429.73 368.64V641.85ZM335 584.48L423.73 631.84V372.28L335 325.58V584.48ZM475.16 163.21L451.71 168.21C447.867 169.023 444.421 171.132 441.947 174.183C439.473 177.234 438.122 181.042 438.12 184.97C438.12 188.9 439.469 192.71 441.944 195.763C444.418 198.816 447.866 200.926 451.71 201.74L475.16 206.74V163.21Z" fill="#3F3D56"/>
<path d="M514.69 218.12H500.62C480.86 218.12 464.83 203.12 464.83 183.33C464.83 163.56 480.83 148.54 500.62 148.54H514.69V218.12Z" fill="#49B38D"/>
<path d="M517.69 221.12H500.62C478.87 221.12 461.83 204.52 461.83 183.33C461.83 162.14 478.83 145.54 500.62 145.54H517.69V221.12ZM500.62 151.54C482.24 151.54 467.83 165.54 467.83 183.33C467.83 201.12 482.24 215.12 500.62 215.12H511.69V151.54H500.62Z" fill="#3F3D56"/>
<path d="M515.05 219.12C534.916 219.12 551.02 203.015 551.02 183.15C551.02 163.284 534.916 147.18 515.05 147.18C495.184 147.18 479.08 163.284 479.08 183.15C479.08 203.015 495.184 219.12 515.05 219.12Z" fill="white"/>
<path d="M515 221.119C507.484 221.119 500.137 218.891 493.888 214.715C487.639 210.54 482.769 204.605 479.893 197.661C477.016 190.718 476.264 183.077 477.73 175.706C479.196 168.334 482.816 161.563 488.13 156.249C493.444 150.935 500.215 147.316 507.587 145.849C514.958 144.383 522.598 145.136 529.542 148.012C536.486 150.888 542.42 155.758 546.596 162.007C550.771 168.257 553 175.603 553 183.119C553 193.197 548.996 202.863 541.87 209.989C534.744 217.116 525.078 221.119 515 221.119ZM515 149.189C508.275 149.189 501.702 151.183 496.111 154.919C490.519 158.655 486.161 163.965 483.588 170.178C481.015 176.391 480.341 183.227 481.653 189.822C482.965 196.418 486.203 202.476 490.958 207.231C495.713 211.986 501.772 215.224 508.367 216.536C514.962 217.848 521.799 217.174 528.011 214.601C534.224 212.028 539.534 207.67 543.27 202.079C547.006 196.487 549 189.914 549 183.189C549 174.172 545.418 165.524 539.042 159.148C532.665 152.771 524.017 149.189 515 149.189Z" fill="#3F3D56"/>
<path d="M515 213.29C509.039 213.29 503.212 211.522 498.255 208.21C493.299 204.898 489.436 200.191 487.155 194.684C484.873 189.176 484.277 183.116 485.439 177.27C486.602 171.423 489.473 166.053 493.688 161.838C497.903 157.622 503.274 154.752 509.12 153.589C514.967 152.426 521.027 153.023 526.534 155.304C532.042 157.585 536.749 161.448 540.061 166.405C543.373 171.361 545.14 177.189 545.14 183.15C545.132 191.141 541.954 198.803 536.304 204.453C530.653 210.104 522.992 213.282 515 213.29ZM515 157C509.83 157 504.776 158.533 500.477 161.406C496.178 164.279 492.827 168.362 490.849 173.139C488.871 177.916 488.354 183.172 489.363 188.243C490.373 193.314 492.863 197.972 496.52 201.627C500.177 205.282 504.836 207.771 509.907 208.779C514.978 209.786 520.234 209.267 525.011 207.287C529.787 205.307 533.869 201.955 536.74 197.655C539.611 193.355 541.142 188.3 541.14 183.13C541.132 176.2 538.375 169.557 533.475 164.658C528.574 159.759 521.93 157.005 515 157Z" fill="#3F3D56"/>
<path d="M398.24 163.21L374.79 168.21C370.947 169.023 367.501 171.132 365.027 174.183C362.553 177.234 361.202 181.042 361.2 184.97C361.2 188.9 362.55 192.71 365.024 195.763C367.498 198.816 370.946 200.926 374.79 201.74L398.24 206.74V163.21Z" fill="#49B38D"/>
<path d="M401.24 210.36L374.17 204.63C369.654 203.675 365.603 201.198 362.696 197.612C359.789 194.027 358.202 189.551 358.202 184.935C358.202 180.319 359.789 175.843 362.696 172.257C365.603 168.672 369.654 166.194 374.17 165.24L401.24 159.51V210.36ZM395.24 166.91L375.41 171.11C372.239 171.779 369.395 173.518 367.355 176.035C365.314 178.552 364.2 181.694 364.2 184.935C364.2 188.175 365.314 191.317 367.355 193.834C369.395 196.351 372.239 198.09 375.41 198.76L395.24 202.96V166.91Z" fill="#3F3D56"/>
<path d="M437.77 218.12H423.7C403.94 218.12 387.91 203.12 387.91 183.33C387.91 163.56 403.91 148.54 423.7 148.54H437.77V218.12Z" fill="#49B38D"/>
<path d="M440.77 221.12H423.7C401.95 221.12 384.91 204.52 384.91 183.33C384.91 162.14 401.91 145.54 423.7 145.54H440.77V221.12ZM423.7 151.54C405.31 151.54 390.91 165.54 390.91 183.33C390.91 201.12 405.31 215.12 423.7 215.12H434.77V151.54H423.7Z" fill="#3F3D56"/>
<path d="M438.12 219.12C457.986 219.12 474.09 203.015 474.09 183.15C474.09 163.284 457.986 147.18 438.12 147.18C418.255 147.18 402.15 163.284 402.15 183.15C402.15 203.015 418.255 219.12 438.12 219.12Z" fill="white"/>
<path d="M438.12 221.119C430.604 221.119 423.258 218.891 417.008 214.715C410.759 210.54 405.889 204.605 403.013 197.661C400.137 190.718 399.384 183.077 400.85 175.706C402.317 168.334 405.936 161.563 411.25 156.249C416.564 150.935 423.335 147.316 430.707 145.849C438.078 144.383 445.719 145.136 452.662 148.012C459.606 150.888 465.54 155.758 469.716 162.007C473.891 168.257 476.12 175.603 476.12 183.119C476.12 193.197 472.117 202.863 464.99 209.989C457.864 217.116 448.198 221.119 438.12 221.119ZM438.12 149.189C431.396 149.189 424.822 151.183 419.231 154.919C413.639 158.655 409.282 163.965 406.708 170.178C404.135 176.391 403.462 183.227 404.773 189.822C406.085 196.418 409.324 202.476 414.079 207.231C418.833 211.986 424.892 215.224 431.487 216.536C438.082 217.848 444.919 217.174 451.131 214.601C457.344 212.028 462.654 207.67 466.39 202.079C470.126 196.487 472.12 189.914 472.12 183.189C472.12 174.172 468.538 165.524 462.162 159.148C455.786 152.771 447.137 149.189 438.12 149.189Z" fill="#3F3D56"/>
<path d="M438.12 213.29C432.159 213.29 426.332 211.522 421.376 208.21C416.419 204.898 412.556 200.191 410.275 194.684C407.994 189.176 407.397 183.116 408.56 177.27C409.723 171.423 412.593 166.053 416.808 161.838C421.023 157.622 426.394 154.752 432.24 153.589C438.087 152.426 444.147 153.023 449.655 155.304C455.162 157.585 459.869 161.448 463.181 166.405C466.493 171.361 468.26 177.189 468.26 183.15C468.253 191.141 465.074 198.803 459.424 204.453C453.773 210.104 446.112 213.282 438.12 213.29ZM438.12 157.02C432.95 157.02 427.896 158.553 423.597 161.426C419.298 164.299 415.947 168.382 413.969 173.159C411.991 177.936 411.474 183.192 412.484 188.263C413.493 193.334 415.983 197.992 419.64 201.647C423.297 205.302 427.956 207.791 433.027 208.799C438.098 209.806 443.354 209.287 448.131 207.307C452.907 205.327 456.989 201.975 459.86 197.675C462.731 193.375 464.262 188.32 464.26 183.15C464.258 176.217 461.503 169.569 456.602 164.665C451.701 159.762 445.053 157.005 438.12 157V157.02Z" fill="#3F3D56"/>
<path d="M128.3 470.18L209.5 490.18L188.13 522.94L277.13 511.54L301.43 472.29C303.796 468.469 307.331 465.513 311.51 463.86C326.19 458.07 362.45 453.94 390.59 465.94C393.22 467.07 396.14 475.31 388.95 479.1C388.95 479.1 405.75 485.33 389.66 495.87C389.66 495.87 398.21 506.56 386.1 511.54C386.1 511.54 388.95 520.09 369.01 522.94L334.11 527.94C334.11 527.94 314.88 561.42 262.89 572.81L117.8 599.92C94.3298 604.32 75.7998 580.21 86.0898 558.66L128.3 470.18Z" fill="white"/>
<path d="M112.36 603.43C106.928 603.419 101.587 602.034 96.8335 599.404C92.0804 596.773 88.0701 592.983 85.1757 588.386C82.2814 583.789 80.5971 578.535 80.2796 573.111C79.9622 567.688 81.0219 562.273 83.3602 557.37L126.63 466.69L214.3 488.22L194.17 519.09L275.34 508.7L298.89 470.7C301.598 466.309 305.648 462.908 310.44 461C326.44 454.69 363.39 451 391.8 463.11C394.36 464.21 396.34 467.73 396.49 471.49C396.631 474.01 395.857 476.496 394.31 478.49C396.68 480.11 399.22 482.62 399.61 486.11C400 489.6 398.05 493.23 393.74 496.62C394.97 498.94 396.24 502.49 395.29 506.18C394.52 509.18 392.48 511.58 389.23 513.35C389.099 514.753 388.64 516.106 387.89 517.3C385.22 521.62 379.02 524.5 369.46 525.87L336 530.64C331.82 537.09 311.15 565.25 263.61 575.64L118.4 602.84C116.41 603.227 114.388 603.424 112.36 603.43ZM130 473.68L88.7902 560C86.7137 564.362 85.8845 569.214 86.3943 574.019C86.9041 578.824 88.733 583.394 91.6788 587.224C94.6246 591.053 98.5724 593.993 103.085 595.719C107.598 597.444 112.501 597.888 117.25 597L262.36 569.82C312.22 558.9 331.36 526.73 331.54 526.4L332.27 525.14L333.71 524.93L368.61 519.93C378.45 518.52 381.61 515.81 382.67 514.32C383.099 513.772 383.309 513.084 383.26 512.39L382.05 509.64L384.99 508.73C387.55 507.67 389.06 506.31 389.48 504.68C390.17 502.02 388.12 498.68 387.35 497.68L385.29 495.1L388.05 493.29C391.8 490.83 393.84 488.45 393.65 486.75C393.41 484.57 389.65 482.47 387.94 481.84L381.64 479.5L387.58 476.37C388.378 476.025 389.069 475.472 389.579 474.768C390.089 474.064 390.401 473.236 390.48 472.37C390.607 471.014 390.201 469.662 389.35 468.6C361.53 456.78 325.68 461.45 312.64 466.6C309.056 468.006 306.027 470.54 304.01 473.82L279 514.29L182.11 526.69L204.67 492L130 473.68Z" fill="#3F3D56"/>
<path d="M361.48 476.47C361.48 476.47 378.08 476.57 390.13 479.4Z" fill="white"/>
<path d="M389.44 482.32C377.86 479.6 361.63 479.48 361.44 479.47V473.47C362.13 473.47 378.52 473.61 390.75 476.47L389.44 482.32Z" fill="#3F3D56"/>
<path d="M362.271 491.999C371.457 491.974 380.591 493.388 389.341 496.189Z" fill="white"/>
<path d="M388.38 498.999C379.971 496.333 371.201 494.983 362.38 494.999L362.21 488.999C371.747 488.952 381.231 490.417 390.31 493.339L388.38 498.999Z" fill="#3F3D56"/>
<path d="M361.24 507.569C361.24 507.569 376.52 506.149 386.49 511.849Z" fill="white"/>
<path d="M385 514.45C376 509.3 361.66 510.55 361.52 510.56L360.96 504.56C361.63 504.5 377.3 503.11 387.96 509.21L385 514.45Z" fill="#3F3D56"/>
<path d="M240.481 442.05L209.851 491.19Z" fill="white"/>
<path d="M207.296 489.662L237.932 440.52L243.024 443.694L212.388 492.836L207.296 489.662Z" fill="#3F3D56"/>
<path d="M538.37 61.73C541.501 57.413 545.126 53.4763 549.17 50C552.137 47.4766 554.846 44.6662 557.26 41.61C559.013 39.2803 559.945 36.4354 559.91 33.52C559.95 31.5197 559.503 29.5397 558.608 27.7506C557.712 25.9615 556.395 24.4169 554.77 23.25C551.344 20.63 546.757 19.32 541.01 19.32C532.63 19.32 525.834 21.62 520.62 26.22C519.223 27.4617 517.457 28.2113 515.593 28.354C513.729 28.4967 511.87 28.0246 510.3 27.01C509.161 26.2679 508.216 25.265 507.542 24.0844C506.868 22.9039 506.486 21.5797 506.426 20.2217C506.367 18.8638 506.632 17.5112 507.199 16.2761C507.767 15.041 508.621 13.9591 509.69 13.12C512.406 10.9951 515.359 9.19303 518.49 7.75C525.344 4.58333 533.403 3 542.67 3C553.963 3 562.963 5.44332 569.67 10.33C576.377 15.2167 579.727 21.9433 579.72 30.51C579.812 34.2358 579.131 37.9403 577.72 41.39C576.508 44.2792 574.848 46.9588 572.8 49.33C570.424 51.9611 567.903 54.4583 565.25 56.81C562.087 59.5192 559.224 62.5599 556.71 65.88C554.804 68.6262 553.824 71.9084 553.91 75.25H534.71C534.677 69.81 535.897 65.3033 538.37 61.73ZM535.65 108C534.539 106.909 533.663 105.601 533.076 104.158C532.49 102.715 532.205 101.167 532.24 99.61C532.201 98.0641 532.484 96.527 533.071 95.0964C533.658 93.6658 534.537 92.3729 535.65 91.3C536.8 90.1891 538.163 89.3217 539.656 88.7495C541.149 88.1773 542.742 87.9122 544.34 87.97C545.914 87.9234 547.482 88.1942 548.949 88.7663C550.416 89.3384 551.753 90.2001 552.88 91.3C553.992 92.3734 554.869 93.6666 555.454 95.0973C556.04 96.5279 556.321 98.0648 556.28 99.61C556.317 101.167 556.034 102.714 555.45 104.157C554.865 105.6 553.99 106.908 552.88 108C551.764 109.12 550.431 109.999 548.962 110.584C547.493 111.168 545.92 111.446 544.34 111.4C542.736 111.457 541.138 111.185 539.643 110.6C538.148 110.016 536.789 109.131 535.65 108Z" fill="#FCC548"/>
<path d="M544.34 114.38C542.342 114.44 540.352 114.091 538.493 113.355C536.635 112.619 534.946 111.511 533.53 110.1C532.137 108.733 531.038 107.095 530.3 105.288C529.562 103.481 529.201 101.542 529.24 99.59C529.198 97.6435 529.559 95.7093 530.301 93.9091C531.042 92.109 532.149 90.4818 533.55 89.13C534.983 87.7575 536.675 86.6851 538.528 85.9759C540.381 85.2666 542.357 84.9349 544.34 85C546.303 84.9393 548.258 85.2737 550.089 85.9831C551.92 86.6926 553.59 87.7627 555 89.13C556.401 90.4818 557.507 92.109 558.249 93.9091C558.991 95.7093 559.352 97.6435 559.31 99.59C559.344 101.543 558.979 103.482 558.238 105.289C557.497 107.096 556.395 108.733 555 110.1C553.607 111.5 551.943 112.602 550.111 113.337C548.278 114.073 546.314 114.428 544.34 114.38ZM544.34 90.95C543.13 90.8966 541.922 91.0878 540.788 91.5122C539.654 91.9366 538.617 92.5855 537.74 93.42C536.916 94.2173 536.268 95.178 535.837 96.2406C535.407 97.3032 535.203 98.4441 535.24 99.59C535.207 100.753 535.414 101.91 535.85 102.989C536.285 104.068 536.939 105.046 537.77 105.86C538.632 106.71 539.661 107.373 540.791 107.807C541.922 108.241 543.13 108.436 544.34 108.38C545.526 108.425 546.708 108.224 547.813 107.79C548.918 107.356 549.921 106.699 550.76 105.86C551.588 105.044 552.239 104.066 552.672 102.987C553.106 101.909 553.313 100.752 553.28 99.59C553.317 98.4441 553.113 97.3032 552.682 96.2406C552.252 95.178 551.604 94.2173 550.78 93.42C549.925 92.6034 548.914 91.9681 547.807 91.5522C546.7 91.1363 545.521 90.9485 544.34 91V90.95ZM556.86 78.25H531.66V75.25C531.66 69.25 533.09 64.09 535.9 60.02C539.173 55.5138 542.958 51.4029 547.18 47.77C549.986 45.3731 552.558 42.7144 554.86 39.83C556.209 38.0113 556.913 35.7941 556.86 33.53C556.902 31.986 556.558 30.456 555.859 29.0784C555.161 27.7007 554.13 26.519 552.86 25.64C549.99 23.44 545.97 22.33 540.93 22.33C533.24 22.33 527.22 24.33 522.53 28.48C520.638 30.1485 518.253 31.1547 515.738 31.3459C513.222 31.5372 510.713 30.9032 508.59 29.54C507.05 28.5383 505.771 27.1836 504.86 25.5885C503.948 23.9933 503.43 22.2038 503.349 20.3684C503.268 18.533 503.626 16.7048 504.393 15.0354C505.16 13.3661 506.314 11.9038 507.76 10.77C510.66 8.50649 513.811 6.58389 517.15 5.04004C524.37 1.70004 532.93 0.0400391 542.59 0.0400391C554.47 0.0400391 564.15 2.70004 571.34 7.95004C578.83 13.41 582.63 21.02 582.63 30.55C582.705 34.6913 581.926 38.8037 580.34 42.63C579 45.8052 577.171 48.7509 574.92 51.36C572.464 54.0712 569.863 56.6482 567.13 59.08C564.13 61.644 561.411 64.5203 559.02 67.66C557.476 69.898 556.691 72.5725 556.78 75.29L556.86 78.25ZM537.81 72.25H551.06C551.431 69.3298 552.513 66.5451 554.21 64.14C556.852 60.6348 559.87 57.429 563.21 54.58C565.776 52.3005 568.216 49.8836 570.52 47.34C572.351 45.2028 573.839 42.7941 574.93 40.2C576.184 37.1268 576.794 33.8286 576.72 30.51C576.72 22.89 573.83 17.09 567.9 12.75C561.75 8.27003 553.27 6.00003 542.68 6.00003C533.89 6.00003 526.18 7.51004 519.76 10.48C516.841 11.8216 514.089 13.4996 511.56 15.48C510.859 16.0259 510.299 16.7325 509.929 17.54C509.558 18.3476 509.387 19.2325 509.43 20.12C509.467 20.9963 509.715 21.8507 510.152 22.6113C510.588 23.3718 511.202 24.0162 511.94 24.49C512.963 25.1439 514.171 25.4468 515.382 25.353C516.593 25.2591 517.74 24.7737 518.65 23.97C524.4 18.89 531.93 16.32 541.02 16.32C547.41 16.32 552.65 17.85 556.6 20.86C558.597 22.3038 560.214 24.2093 561.315 26.4138C562.415 28.6184 562.966 31.0565 562.92 33.52C562.957 37.0802 561.818 40.5532 559.68 43.4C557.149 46.6235 554.302 49.585 551.18 52.24C547.317 55.5591 543.848 59.3103 540.84 63.42C539.104 66.062 538.062 69.0988 537.81 72.25Z" fill="#3F3D56"/>
<path d="M198.79 115.55C201.928 111.242 205.556 107.313 209.6 103.84C212.561 101.311 215.27 98.5017 217.69 95.4501C219.436 93.1178 220.364 90.2739 220.329 87.3601C220.372 85.358 219.926 83.3757 219.031 81.5846C218.135 79.7935 216.817 78.2474 215.19 77.0801C211.756 74.4601 207.173 73.1501 201.44 73.1501C193.06 73.1501 186.263 75.4501 181.05 80.0501C179.652 81.2942 177.885 82.046 176.019 82.1905C174.154 82.335 172.292 81.8642 170.72 80.8501C169.581 80.1072 168.637 79.1036 167.964 77.9226C167.291 76.7416 166.909 75.4172 166.851 74.0593C166.792 72.7013 167.058 71.349 167.626 70.1143C168.195 68.8797 169.05 67.7984 170.12 66.9601C172.826 64.8283 175.777 63.0257 178.91 61.5901C185.77 58.4101 193.833 56.8234 203.1 56.8301C214.38 56.8301 223.38 59.2734 230.1 64.1601C236.82 69.0468 240.17 75.7734 240.15 84.3401C240.241 88.0659 239.56 91.7704 238.15 95.2201C236.937 98.1068 235.28 100.786 233.24 103.16C230.854 105.786 228.331 108.283 225.68 110.64C222.517 113.349 219.654 116.39 217.14 119.71C215.24 122.459 214.263 125.74 214.35 129.08H195.15C195.11 123.64 196.323 119.13 198.79 115.55ZM196.07 161.81C194.96 160.718 194.086 159.41 193.501 157.967C192.916 156.524 192.633 154.977 192.67 153.42C192.628 151.873 192.909 150.335 193.494 148.902C194.079 147.47 194.956 146.175 196.07 145.1C197.222 143.993 198.585 143.129 200.078 142.558C201.57 141.988 203.163 141.723 204.76 141.78C206.333 141.732 207.9 142.001 209.367 142.572C210.834 143.142 212.172 144.002 213.299 145.1C214.413 146.175 215.29 147.47 215.875 148.902C216.46 150.335 216.741 151.873 216.7 153.42C216.736 154.977 216.453 156.524 215.868 157.967C215.283 159.41 214.409 160.718 213.299 161.81C212.183 162.929 210.85 163.808 209.381 164.393C207.912 164.978 206.34 165.256 204.76 165.21C203.156 165.265 201.558 164.991 200.064 164.406C198.57 163.822 197.21 162.938 196.07 161.81Z" fill="#49B38D"/>
<path d="M204.76 168.21C202.77 168.261 200.791 167.908 198.941 167.173C197.092 166.437 195.411 165.334 194 163.93C192.61 162.561 191.513 160.923 190.778 159.116C190.042 157.309 189.682 155.371 189.72 153.42C189.679 151.482 190.038 149.557 190.775 147.764C191.511 145.972 192.609 144.35 194 143C195.427 141.617 197.117 140.534 198.971 139.816C200.824 139.098 202.803 138.759 204.79 138.82C206.748 138.773 208.696 139.118 210.518 139.836C212.34 140.554 214 141.63 215.4 143C216.801 144.351 217.907 145.979 218.647 147.779C219.387 149.58 219.746 151.514 219.7 153.46C219.738 155.411 219.378 157.349 218.642 159.156C217.906 160.963 216.81 162.601 215.42 163.97C214.024 165.364 212.359 166.459 210.526 167.188C208.694 167.917 206.731 168.264 204.76 168.21ZM198.19 159.68C199.052 160.53 200.081 161.194 201.211 161.629C202.342 162.064 203.55 162.262 204.76 162.21C205.946 162.253 207.129 162.05 208.234 161.615C209.338 161.179 210.341 160.521 211.18 159.68C212.01 158.868 212.662 157.892 213.096 156.814C213.53 155.737 213.735 154.581 213.7 153.42C213.74 152.274 213.538 151.132 213.108 150.069C212.677 149.005 212.027 148.045 211.2 147.25C210.35 146.424 209.34 145.778 208.233 145.354C207.126 144.929 205.945 144.734 204.76 144.78C203.552 144.728 202.346 144.92 201.213 145.344C200.081 145.769 199.046 146.417 198.17 147.25C197.344 148.046 196.695 149.007 196.265 150.07C195.834 151.133 195.631 152.274 195.67 153.42C195.634 154.581 195.84 155.737 196.273 156.814C196.707 157.892 197.36 158.868 198.19 159.68ZM217.29 132.08H192.09V129.08C192.09 123.08 193.51 117.92 196.32 113.85C199.591 109.342 203.376 105.231 207.6 101.6C210.408 99.2059 212.98 96.547 215.28 93.6601C216.644 91.8464 217.366 89.6296 217.33 87.3601C217.371 85.8147 217.027 84.2833 216.329 82.9041C215.631 81.5249 214.6 80.3413 213.33 79.4601C210.45 77.2701 206.44 76.1501 201.4 76.1501C193.7 76.1501 187.68 78.1501 182.99 82.3001C181.098 83.9701 178.714 84.9773 176.198 85.1686C173.682 85.3599 171.172 84.7249 169.05 83.3601C167.512 82.358 166.235 81.0038 165.324 79.4096C164.414 77.8154 163.897 76.0273 163.816 74.1933C163.735 72.3594 164.092 70.5326 164.858 68.8642C165.624 67.1959 166.776 65.7341 168.22 64.6001C171.115 62.3292 174.266 60.406 177.61 58.8701C184.83 55.5201 193.39 53.8701 203.06 53.8701C214.94 53.8701 224.61 56.5301 231.81 61.7701C239.3 67.2401 243.09 74.8401 243.09 84.3801C243.165 88.5214 242.386 92.6337 240.8 96.4601C239.463 99.6316 237.638 102.574 235.39 105.18C232.932 107.893 230.328 110.471 227.59 112.9C224.591 115.467 221.876 118.346 219.49 121.49C217.944 123.727 217.159 126.402 217.25 129.12L217.29 132.08ZM198.24 126.08H211.48C211.854 123.159 212.939 120.374 214.64 117.97C217.284 114.463 220.302 111.254 223.64 108.4C226.208 106.126 228.648 103.713 230.95 101.17C232.784 99.0315 234.272 96.6189 235.36 94.0201C236.614 90.9504 237.223 87.6554 237.15 84.3401C237.15 76.7201 234.27 70.9101 228.33 66.5801C222.18 62.1001 213.7 59.8301 203.12 59.8301C194.33 59.8301 186.62 61.3301 180.2 64.3101C177.28 65.649 174.527 67.3273 172 69.3101C171.297 69.8549 170.737 70.5612 170.366 71.3691C169.995 72.1769 169.825 73.0624 169.87 73.9501C169.905 74.8283 170.151 75.6851 170.588 76.4476C171.025 77.2102 171.64 77.856 172.38 78.3301C173.402 78.9834 174.609 79.2852 175.819 79.1895C177.028 79.0939 178.173 78.606 179.08 77.8001C184.83 72.7301 192.36 70.1501 201.46 70.1501C207.85 70.1501 213.09 71.6801 217.03 74.7001C219.028 76.1427 220.646 78.0479 221.747 80.2527C222.848 82.4576 223.398 84.8963 223.35 87.3601C223.385 90.9201 222.247 94.3926 220.11 97.2401C217.579 100.464 214.732 103.425 211.61 106.08C207.748 109.393 204.282 113.142 201.28 117.25C199.536 119.889 198.49 122.927 198.24 126.08Z" fill="#3F3D56"/>
</svg>
