<svg width="80" height="80" viewBox="0 0 80 80" fill="none" xmlns="http://www.w3.org/2000/svg">
<circle cx="39" cy="40" r="29" fill="#FCC548"/>
<g clip-path="url(#clip0_2334_1211)">
<path fill-rule="evenodd" clip-rule="evenodd" d="M28.0567 31.7496H32.3181V34.0636C32.3181 34.4669 32.6451 34.7939 33.0484 34.7939C33.4517 34.7939 33.7787 34.4669 33.7787 34.0636V31.7496H41.4273V34.0636C41.4273 34.4669 41.7543 34.7939 42.1576 34.7939C42.5609 34.7939 42.8879 34.4669 42.8879 34.0636V31.7496H47.1492C47.6226 31.7496 48.0148 32.1075 48.0582 32.5789L48.7452 40.053C48.4202 40.0192 48.0904 40.0016 47.7565 40.0016C42.5379 40.0016 38.3074 44.2321 38.3074 49.4507C38.3074 50.7342 38.5639 51.9577 39.0274 53.0734H27.2235C26.7025 53.0734 26.254 52.8755 25.9029 52.4906C25.5518 52.1057 25.3958 51.641 25.4434 51.1221L27.1478 32.5789C27.1911 32.1075 27.5833 31.7496 28.0567 31.7496ZM32.3181 31.6294V29.026C32.3181 27.5719 32.9124 26.2505 33.87 25.293C34.8275 24.3355 36.1489 23.7412 37.6029 23.7412C39.057 23.7412 40.3784 24.3355 41.3359 25.293C42.2934 26.2505 42.8877 27.572 42.8877 29.026V31.6294H41.4272V29.026C41.4272 27.9751 40.9968 27.0191 40.3033 26.3257C39.6098 25.6322 38.6539 25.2017 37.6029 25.2017C36.552 25.2017 35.5961 25.6322 34.9026 26.3257C34.2091 27.0191 33.7786 27.975 33.7786 29.026V31.6294H32.3181Z" fill="white"/>
<path d="M41 49.25C41 50.0708 41.1617 50.8835 41.4758 51.6418C41.7898 52.4001 42.2502 53.0891 42.8306 53.6694C43.4109 54.2498 44.0999 54.7102 44.8582 55.0242C45.6165 55.3383 46.4292 55.5 47.25 55.5C48.0708 55.5 48.8835 55.3383 49.6418 55.0242C50.4001 54.7102 51.0891 54.2498 51.6694 53.6694C52.2498 53.0891 52.7102 52.4001 53.0242 51.6418C53.3383 50.8835 53.5 50.0708 53.5 49.25C53.5 47.5924 52.8415 46.0027 51.6694 44.8306C50.4973 43.6585 48.9076 43 47.25 43C45.5924 43 44.0027 43.6585 42.8306 44.8306C41.6585 46.0027 41 47.5924 41 49.25Z" stroke="white" stroke-width="2" stroke-linecap="round" stroke-linejoin="round"/>
<path d="M47.25 45.7773V49.2496L49.3333 51.3329" stroke="white" stroke-width="2" stroke-linecap="round" stroke-linejoin="round"/>
</g>
<defs>
<clipPath id="clip0_2334_1211">
<rect width="35" height="35" fill="white" transform="translate(23 23)"/>
</clipPath>
</defs>
</svg>
