<svg width="80" height="80" viewBox="0 0 80 80" fill="none" xmlns="http://www.w3.org/2000/svg">
<circle cx="39" cy="40" r="29" fill="#FCC548"/>
<g clip-path="url(#clip0_2334_1211)">
<path fill-rule="evenodd" clip-rule="evenodd" d="M28.0572 31.7495H32.3186V34.0635C32.3186 34.4668 32.6456 34.7938 33.0489 34.7938C33.4522 34.7938 33.7792 34.4668 33.7792 34.0635V31.7495H41.4278V34.0635C41.4278 34.4668 41.7547 34.7938 42.1581 34.7938C42.5614 34.7938 42.8883 34.4668 42.8883 34.0635V31.7495H47.1497C47.6231 31.7495 48.0153 32.1074 48.0586 32.5788L48.7456 40.0529C48.4207 40.0191 48.0909 40.0015 47.757 40.0015C42.5384 40.0015 38.3079 44.232 38.3079 49.4506C38.3079 50.7341 38.5643 51.9576 39.0279 53.0733H27.224C26.703 53.0733 26.2545 52.8754 25.9034 52.4904C25.5523 52.1056 25.3963 51.6409 25.4439 51.122L27.1483 32.5788C27.1916 32.1074 27.5838 31.7495 28.0572 31.7495ZM32.3186 31.6293V29.0259C32.3186 27.5718 32.9129 26.2504 33.8704 25.2929C34.828 24.3354 36.1493 23.7411 37.6034 23.7411C39.0575 23.7411 40.3789 24.3354 41.3364 25.2929C42.2939 26.2504 42.8882 27.5719 42.8882 29.0259V31.6293H41.4277V29.0259C41.4277 27.975 40.9973 27.019 40.3037 26.3256C39.6102 25.632 38.6544 25.2016 37.6034 25.2016C36.5525 25.2016 35.5966 25.632 34.9031 26.3256C34.2096 27.019 33.7791 27.9749 33.7791 29.0259V31.6293H32.3186Z" fill="white"/>
<g clip-path="url(#clip1_2334_1211)">
<path d="M47.75 41.25C43.4688 41.25 40 44.7188 40 49C40 53.2812 43.4688 56.75 47.75 56.75C52.0312 56.75 55.5 53.2812 55.5 49C55.5 44.7188 52.0312 41.25 47.75 41.25ZM50.25 46.5C50.8031 46.5 51.25 46.9469 51.25 47.5C51.25 48.0531 50.8031 48.5 50.25 48.5C49.6969 48.5 49.25 48.0531 49.25 47.5C49.25 46.9469 49.6969 46.5 50.25 46.5ZM45.25 46.5C45.8031 46.5 46.25 46.9469 46.25 47.5C46.25 48.0531 45.8031 48.5 45.25 48.5C44.6969 48.5 44.25 48.0531 44.25 47.5C44.25 46.9469 44.6969 46.5 45.25 46.5ZM51.3375 51.8188C50.4469 52.8875 49.1406 53.5 47.75 53.5C46.3594 53.5 45.0531 52.8875 44.1625 51.8188C43.7375 51.3094 44.5062 50.6719 44.9313 51.1781C45.6312 52.0188 46.6562 52.4969 47.75 52.4969C48.8438 52.4969 49.8688 52.0156 50.5688 51.1781C50.9875 50.6719 51.7594 51.3094 51.3375 51.8188Z" fill="white"/>
</g>
</g>
<defs>
<clipPath id="clip0_2334_1211">
<rect width="35" height="35" fill="white" transform="translate(23 23)"/>
</clipPath>
<clipPath id="clip1_2334_1211">
<rect width="15.5" height="16" fill="white" transform="translate(40 41)"/>
</clipPath>
</defs>
</svg>
