<svg width="242" height="176" viewBox="0 0 242 176" fill="none" xmlns="http://www.w3.org/2000/svg">
<path fill-rule="evenodd" clip-rule="evenodd" d="M69.659 106.62C64.5262 107.618 57.9007 105.884 54.313 102.021C52.6894 100.286 55.3082 97.6319 56.9318 99.3927C59.3411 101.994 63.662 103.23 67.1712 103.151C71.6492 103.046 75.6298 98.9722 73.0896 94.3994C69.5542 88.0658 60.8861 89.8529 56.408 84.8596C52.7941 80.8387 54.5225 74.5314 58.7387 71.7457C63.1645 68.8285 70.7851 68.9337 74.4251 73.1122C75.9964 74.8993 73.3776 77.5536 71.8064 75.7403C68.8734 72.3501 61.9336 72.8232 59.2887 76.2922C55.5177 81.2592 61.148 83.9398 65.1023 85.1224C70.5232 86.7781 76.5202 89.774 77.5153 96.0025C78.3271 101.022 74.4513 105.674 69.659 106.62ZM35.3794 59.5778H96.5013C100.587 59.5778 103.886 62.9154 103.886 66.9889V109.931C103.886 114.031 100.56 117.342 96.5013 117.342H33.5986C29.5133 117.342 26.2137 114.031 26.1875 109.931V56.8972C26.1875 54.9787 27.7849 53.6384 29.6705 53.4019L86.0263 46.1748C87.9642 46.1748 89.5092 47.7516 89.5092 49.6701V55.662H31.844C31.844 58.2112 32.6035 59.5778 35.3794 59.5778Z" fill="#ED4C2F"/>
<path fill-rule="evenodd" clip-rule="evenodd" d="M129 49.5385C126.564 46.8579 121.484 46.7791 118.525 48.645C115.697 50.432 114.544 54.5055 116.954 57.081C119.939 60.2609 125.726 59.1308 128.083 63.2043C129.786 66.1477 127.114 68.7758 124.129 68.8283C121.772 68.8809 118.891 68.0925 117.294 66.4105C116.22 65.2805 114.466 66.9624 115.539 68.0925C117.923 70.5891 122.348 71.6929 125.779 71.0359C128.974 70.4314 131.566 67.4355 131.043 64.2292C130.388 60.2346 126.381 58.2899 122.767 57.2387C120.148 56.4765 116.377 54.742 118.891 51.5621C120.672 49.3283 125.281 49.0392 127.245 51.1942C128.293 52.3768 130.047 50.6948 129 49.5385ZM146.388 61.68V70.0635C146.388 71.6403 143.901 71.6403 143.901 70.0635V61.864C143.822 60.8654 143.246 59.9718 142.382 59.4725C140.627 58.7104 137.406 59.052 135.521 61.4698V70.0635C135.521 71.6403 133.033 71.6403 133.033 70.0635V48.5661C133.033 46.9893 135.521 46.9893 135.521 48.5661V58.2373C138.558 56.2137 142.408 56.424 144.241 57.6854C145.629 58.5001 146.441 60.0507 146.388 61.68ZM187.87 62.7838C187.896 62.6787 187.922 62.5999 187.948 62.521C188.551 60.55 190.567 59.4199 192.61 59.3674C194.967 59.3148 196.276 60.8916 196.695 62.7838H187.87ZM199.288 63.9927C199.235 60.7077 197.507 57.7117 193.919 57.0547C190.829 56.4765 187.215 58.0796 185.906 60.8916C184.544 63.8088 185.12 67.8297 187.817 69.8795C190.724 72.0871 195.281 71.4038 198.266 69.7744C199.654 69.0123 198.397 66.9361 197.009 67.6983C195.124 68.7232 192.636 69.2488 190.515 68.5392C188.917 68.0136 188.027 66.6996 187.765 65.2016H198.057C198.738 65.2016 199.288 64.676 199.288 63.9927ZM204.342 62.7838C204.368 62.705 204.394 62.5999 204.42 62.521C205.023 60.55 207.039 59.4199 209.082 59.3674C211.439 59.3148 212.748 60.8916 213.167 62.7838H204.342ZM215.786 63.9664C215.733 60.6814 214.005 57.6854 210.417 57.0284C207.327 56.4502 203.713 58.0534 202.404 60.8654C201.042 63.7825 201.618 67.8034 204.316 69.8533C207.222 72.0608 211.779 71.3775 214.764 69.7481C216.152 68.986 214.895 66.9099 213.507 67.672C211.622 68.7232 209.134 69.2225 207.013 68.513C205.415 67.9874 204.525 66.6733 204.263 65.1753H214.555C215.21 65.1753 215.76 64.6497 215.786 63.9664ZM156.654 59.5513C154.061 59.5513 151.94 61.6012 151.94 64.1241C151.94 66.6471 154.035 68.6969 156.654 68.6969C159.273 68.6969 161.342 66.6471 161.342 64.1241C161.342 61.6012 159.22 59.5513 156.654 59.5513ZM156.654 71.2724C152.595 71.2724 149.295 68.0662 149.295 64.0978C149.295 60.1295 152.595 56.9233 156.654 56.9233C160.713 56.9233 164.013 60.1295 164.013 64.0978C164.013 68.0662 160.713 71.2724 156.654 71.2724ZM174.907 68.6969C172.314 68.6969 170.219 66.6471 170.219 64.1241C170.245 61.8377 171.921 59.9455 174.174 59.6039H174.226C174.462 59.5776 174.697 59.5513 174.933 59.5513C176.766 59.5513 178.442 60.6026 179.228 62.2845C179.228 62.2845 179.228 62.2845 179.228 62.3108C179.49 62.889 179.621 63.4934 179.621 64.1241C179.594 66.6471 177.499 68.6969 174.907 68.6969ZM174.907 56.9496C172.812 56.9496 170.822 57.8168 169.407 59.3411V57.6329C169.407 56.0823 166.92 56.0823 166.92 57.6329V77.8951C166.92 79.4456 169.407 79.4456 169.407 77.8951V68.8809C170.822 70.4314 172.812 71.2987 174.907 71.2724C178.966 71.2724 182.266 68.0662 182.266 64.0978C182.266 60.1295 178.966 56.9496 174.907 56.9496Z" fill="#ED4C2F"/>
<path fill-rule="evenodd" clip-rule="evenodd" d="M162.468 93.9262C167.182 93.9262 171.031 97.7631 171.031 102.52C171.031 107.277 167.208 111.114 162.468 111.114C157.728 111.114 153.904 107.277 153.904 102.52C153.904 97.7631 157.754 93.9262 162.468 93.9262ZM172.052 87.9342H177.84V117.079H172.052V113.794C165.846 119.103 156.497 118.341 151.207 112.112C145.917 105.884 146.677 96.5016 152.883 91.193C158.409 86.4888 166.501 86.4888 172.026 91.193V87.9342H172.052ZM121.772 98.6304V82.8884H130.676C135.678 82.8884 139.737 86.41 139.737 90.7725C139.737 95.1351 135.678 98.6566 130.676 98.6566L121.772 98.6304ZM115.199 117.342H121.772V105.253H130.676C139.894 105.253 147.357 98.7618 147.357 90.7725C147.357 82.7833 139.868 76.292 130.676 76.292H115.173L115.199 117.342ZM193.552 129.825H185.696L194.102 113.873L180.275 87.6714H188.813L198.371 105.779L207.929 87.6714H215.786L193.552 129.825Z" fill="#ED4C2F"/>
</svg>
