<svg width="22" height="22" viewBox="0 0 22 22" fill="none" xmlns="http://www.w3.org/2000/svg">
<path d="M2.10191 8.12144C2.50803 6.86652 3.17534 5.71185 4.05991 4.73344C4.13306 4.65261 4.22857 4.59533 4.33434 4.56889C4.4401 4.54245 4.55133 4.54804 4.65391 4.58494L6.76371 5.33954C6.91391 5.39317 7.07397 5.4135 7.23281 5.39913C7.39164 5.38475 7.54545 5.336 7.68357 5.25626C7.8217 5.17653 7.94083 5.06771 8.03271 4.93736C8.1246 4.807 8.18704 4.65823 8.21571 4.50134L8.61831 2.29474C8.63776 2.18732 8.68872 2.08812 8.76473 2.00977C8.84073 1.93141 8.93834 1.87745 9.04511 1.85474C10.3338 1.58032 11.6658 1.58032 12.9545 1.85474C13.0613 1.87745 13.1589 1.93141 13.2349 2.00977C13.3109 2.08812 13.3619 2.18732 13.3813 2.29474L13.7839 4.50134C13.8126 4.65823 13.875 4.807 13.9669 4.93736C14.0588 5.06771 14.1779 5.17653 14.316 5.25626C14.4542 5.336 14.608 5.38475 14.7668 5.39913C14.9257 5.4135 15.0857 5.39317 15.2359 5.33954L17.3468 4.58494C17.4495 4.54817 17.5608 4.54276 17.6666 4.56939C17.7723 4.59603 17.8678 4.65352 17.9408 4.73454C18.8252 5.71263 19.4925 6.86691 19.8988 8.12144C19.9322 8.22517 19.9341 8.33649 19.9041 8.44127C19.8741 8.54604 19.8137 8.63956 19.7305 8.70994L18.02 10.1619C17.8985 10.2652 17.8009 10.3937 17.734 10.5384C17.667 10.6831 17.6323 10.8407 17.6323 11.0001C17.6323 11.1596 17.667 11.3172 17.734 11.4619C17.8009 11.6066 17.8985 11.7351 18.02 11.8383L19.7305 13.2903C19.8135 13.3609 19.8737 13.4544 19.9035 13.5592C19.9333 13.664 19.9312 13.7752 19.8977 13.8788C19.4916 15.1338 18.8243 16.2884 17.9397 17.2668C17.8666 17.3477 17.771 17.4049 17.6653 17.4314C17.5595 17.4578 17.4483 17.4522 17.3457 17.4153L15.2359 16.6607C15.0857 16.6071 14.9257 16.5868 14.7668 16.6012C14.608 16.6155 14.4542 16.6643 14.316 16.744C14.1779 16.8237 14.0588 16.9326 13.9669 17.0629C13.875 17.1933 13.8126 17.3421 13.7839 17.4989L13.3813 19.7066C13.3617 19.8139 13.3106 19.9128 13.2346 19.991C13.1586 20.0691 13.0611 20.1229 12.9545 20.1455C11.6658 20.4201 10.3338 20.4201 9.04511 20.1455C8.93834 20.1228 8.84073 20.0689 8.76473 19.9905C8.68872 19.9122 8.63776 19.813 8.61831 19.7055L8.21571 17.4989C8.18704 17.3421 8.1246 17.1933 8.03271 17.0629C7.94083 16.9326 7.8217 16.8237 7.68357 16.744C7.54545 16.6643 7.39164 16.6155 7.23281 16.6012C7.07397 16.5868 6.91391 16.6071 6.76371 16.6607L4.65391 17.4153C4.55122 17.4521 4.43992 17.4575 4.33416 17.4309C4.22839 17.4042 4.13293 17.3468 4.05991 17.2657C3.17545 16.2877 2.50814 15.1334 2.10191 13.8788C2.06838 13.7752 2.06637 13.664 2.09613 13.5592C2.1259 13.4544 2.1861 13.3609 2.26911 13.2903L3.97961 11.8383C4.10112 11.7351 4.19873 11.6066 4.26567 11.4619C4.33261 11.3172 4.36728 11.1596 4.36728 11.0001C4.36728 10.8407 4.33261 10.6831 4.26567 10.5384C4.19873 10.3937 4.10112 10.2652 3.97961 10.1619L2.26911 8.70994C2.1861 8.63943 2.1259 8.54585 2.09613 8.44108C2.06637 8.33631 2.06838 8.22507 2.10191 8.12144ZM3.26791 8.11484L4.69131 9.32264C4.93471 9.52917 5.13025 9.78619 5.26436 10.0759C5.39847 10.3655 5.46794 10.6809 5.46794 11.0001C5.46794 11.3194 5.39847 11.6347 5.26436 11.9244C5.13025 12.2141 4.93471 12.4711 4.69131 12.6776L3.26901 13.8854C3.59021 14.7456 4.05331 15.5464 4.63741 16.2526L6.39301 15.6256C6.69348 15.5184 7.01369 15.4777 7.33142 15.5066C7.64916 15.5354 7.95683 15.633 8.23309 15.7926C8.50935 15.9522 8.7476 16.1699 8.93131 16.4308C9.11503 16.6916 9.23981 16.9893 9.29701 17.3031L9.63251 19.1379C10.5378 19.2889 11.4618 19.2889 12.3671 19.1379L12.7015 17.3009C12.7585 16.9868 12.8832 16.6889 13.0669 16.4279C13.2507 16.1669 13.4891 15.949 13.7656 15.7895C14.042 15.63 14.35 15.5326 14.6679 15.5041C14.9858 15.4756 15.3062 15.5167 15.6066 15.6245L17.3622 16.2526C17.9474 15.5454 18.4102 14.7453 18.7317 13.8854L17.3083 12.6776C17.0646 12.4713 16.8687 12.2144 16.7344 11.9247C16.6001 11.635 16.5305 11.3195 16.5305 11.0001C16.5305 10.6808 16.6001 10.3653 16.7344 10.0756C16.8687 9.78591 17.0646 9.52896 17.3083 9.32264L18.7317 8.11484C18.4103 7.255 17.9474 6.45492 17.3622 5.74764L15.6066 6.37464C15.3062 6.48191 14.9861 6.52257 14.6684 6.49381C14.3507 6.46505 14.0431 6.36756 13.7669 6.20809C13.4906 6.04862 13.2524 5.83099 13.0686 5.57028C12.8848 5.30957 12.7599 5.01201 12.7026 4.69824L12.3671 2.86234C11.4618 2.71134 10.5378 2.71134 9.63251 2.86234L9.29811 4.69824C9.24091 5.01211 9.11613 5.30979 8.93241 5.57063C8.7487 5.83147 8.51045 6.04923 8.23419 6.20881C7.95793 6.36839 7.65026 6.46598 7.33252 6.49481C7.01479 6.52363 6.69458 6.483 6.39411 6.37574L4.63741 5.74764C4.05263 6.45499 3.58903 7.25507 3.26791 8.11484ZM8.25201 11.0001C8.25201 10.2708 8.54174 9.57132 9.05747 9.0556C9.57319 8.53987 10.2727 8.25014 11.002 8.25014C11.7314 8.25014 12.4308 8.53987 12.9466 9.0556C13.4623 9.57132 13.752 10.2708 13.752 11.0001C13.752 11.7295 13.4623 12.429 12.9466 12.9447C12.4308 13.4604 11.7314 13.7501 11.002 13.7501C10.2727 13.7501 9.57319 13.4604 9.05747 12.9447C8.54174 12.429 8.25201 11.7295 8.25201 11.0001ZM9.35201 11.0001C9.35201 11.4377 9.52585 11.8574 9.83528 12.1669C10.1447 12.4763 10.5644 12.6501 11.002 12.6501C11.4396 12.6501 11.8593 12.4763 12.1687 12.1669C12.4782 11.8574 12.652 11.4377 12.652 11.0001C12.652 10.5625 12.4782 10.1428 12.1687 9.83341C11.8593 9.52398 11.4396 9.35014 11.002 9.35014C10.5644 9.35014 10.1447 9.52398 9.83528 9.83341C9.52585 10.1428 9.35201 10.5625 9.35201 11.0001Z" fill="black"/>
</svg>
