<svg width="658" height="735" viewBox="0 0 658 735" fill="none" xmlns="http://www.w3.org/2000/svg">
<path d="M430.751 688.189C430.751 712.389 378.921 731.999 314.981 731.999C253.071 731.999 202.511 713.609 199.361 690.489C198.911 689.062 198.681 687.575 198.681 686.079V519.239C198.681 488.474 210.902 458.969 232.656 437.215C254.41 415.461 283.916 403.239 314.681 403.239C345.446 403.239 374.951 415.461 396.705 437.215C418.459 458.969 430.681 488.474 430.681 519.239V686.189C430.743 686.854 430.767 687.522 430.751 688.189Z" fill="#FFC700"/>
<path d="M315 734.999C251 734.999 200.17 716.159 196.44 691.139C195.951 689.497 195.701 687.793 195.7 686.079V519.239C195.7 487.678 208.238 457.41 230.554 435.094C252.871 412.777 283.139 400.239 314.7 400.239C346.261 400.239 376.529 412.777 398.846 435.094C421.163 457.41 433.7 487.678 433.7 519.239V686.109C433.772 686.8 433.808 687.495 433.81 688.189C433.75 714.439 381.58 734.999 315 734.999ZM314.68 406.249C299.838 406.239 285.139 409.154 271.424 414.829C257.71 420.505 245.249 428.828 234.754 439.323C224.259 449.818 215.935 462.279 210.26 475.994C204.585 489.708 201.67 504.407 201.68 519.249V686.079C201.685 687.27 201.867 688.453 202.22 689.589L202.33 690.079C205.26 711.539 255.79 728.999 315 728.999C376.13 728.999 427.77 710.309 427.77 688.189C427.771 687.644 427.738 687.1 427.67 686.559V519.239C427.67 489.27 415.765 460.528 394.573 439.336C373.382 418.145 344.64 406.239 314.67 406.239L314.68 406.249ZM433.68 686.519V686.569C433.68 686.569 433.61 686.539 433.61 686.519H433.68Z" fill="#3F3D56"/>
<path d="M238.75 527.319H383.81V630.579H238.75V527.319Z" fill="white"/>
<path d="M386.82 633.579H235.75V524.319H386.82V633.579ZM241.75 627.579H380.82V530.319H241.75V627.579Z" fill="#3F3D56"/>
<path d="M24.4912 172.174L43.0166 169.153L61.142 280.326L42.6167 283.346L24.4912 172.174Z" fill="#FFC700"/>
<path d="M40.1508 286.78L21.0508 169.68L45.5108 165.68L64.6008 282.78L40.1508 286.78ZM27.9408 174.64L45.1008 279.89L57.7108 277.89L40.5508 172.58L27.9408 174.64Z" fill="#3F3D56"/>
<path d="M29.6533 262.207L67.7404 255.997L77.6431 316.735L39.556 322.945L29.6533 262.207Z" fill="#FFC700"/>
<path d="M37.0905 326.38L26.2305 259.72L70.2305 252.55L81.1005 319.2L37.0905 326.38ZM33.0905 264.68L42.0305 319.49L74.2005 314.25L65.2605 259.43L33.0905 264.68Z" fill="#3F3D56"/>
<path d="M52.3213 229.447L97.6133 222.063L116.075 335.298L70.783 342.682L52.3213 229.447Z" fill="#3F3D56"/>
<path d="M474.344 98.832L492.869 95.8117L510.995 206.984L492.469 210.004L474.344 98.832Z" fill="#FFC700"/>
<path d="M490 213.42L470.91 96.3301L495.36 92.3301L514.45 209.43L490 213.42ZM477.79 101.28L495 206.54L507.61 204.48L490.4 99.2301L477.79 101.28Z" fill="#3F3D56"/>
<path d="M478.479 189.039L516.566 182.829L526.468 243.567L488.381 249.777L478.479 189.039Z" fill="#FFC700"/>
<path d="M485.921 253.189L475.051 186.529L519.051 179.359L529.931 245.999L485.921 253.189ZM481.921 191.489L490.861 246.299L523.001 241.059L514.061 186.249L481.921 191.489Z" fill="#3F3D56"/>
<path d="M441.18 168.21L486.611 160.868L504.968 274.45L459.536 281.793L441.18 168.21Z" fill="#3F3D56"/>
<path d="M199.918 97.6035L308.011 79.9801L314.557 120.13L206.464 137.753L199.918 97.6035Z" fill="#3F3D56"/>
<path d="M265.86 103.06C265.48 101.28 256.81 59.2296 273.72 39.3096C277.842 34.4082 283.522 31.0719 289.81 29.8596C292.81 23.5596 299.17 16.7396 311.46 10.6296C320.263 6.2732 330.378 5.37406 339.81 8.10962C340.72 7.41962 341.68 6.71962 342.72 6.01962L343.01 5.84963C343.35 5.66963 377.71 -11.9004 399.7 16.6996L395 20.3596C387.07 10.0496 376.43 5.35962 363.39 6.35962C357.631 6.86184 351.996 8.32544 346.72 10.6896C348.024 11.3346 349.286 12.0593 350.5 12.8596C357.08 17.2396 360.64 22.9496 360.28 28.5296C360.06 31.9996 358.2 36.9196 350.59 40.6696C344.29 43.7796 334.49 40.0896 330.42 33.0896C328.53 29.8296 325.89 22.2496 334.42 13.0096C327.511 11.8537 320.413 12.8997 314.13 15.9996C306.36 19.8596 300.66 24.3196 297.2 29.1296H299.44C307.66 29.5196 323.39 40.6596 325 51.3896C325.54 54.9896 324.91 61.5596 314.59 65.2696C306.05 68.3296 293.98 61.0496 289.27 49.9796C287.497 45.7639 286.94 41.1359 287.66 36.6196C284.01 37.9156 280.774 40.1672 278.29 43.1396C263.29 60.8396 271.64 101.35 271.73 101.76L265.86 103.06ZM294.05 35.2796C292.778 39.3651 293.041 43.7745 294.79 47.6796C298.44 56.2596 307.62 61.4396 312.56 59.6796C319.78 57.0896 319.25 53.5196 319.07 52.3496C317.94 44.8196 305.07 35.4596 299.17 35.1896C297.464 35.1028 295.753 35.1329 294.05 35.2796ZM341.05 14.8496C334.97 20.2796 332.95 25.6896 335.53 30.1196C338.11 34.5496 344.7 36.8996 347.86 35.3396C350.64 33.9696 353.99 31.6196 354.21 28.1896C354.43 24.9096 351.7 20.9696 347.09 17.9096C345.211 16.6628 343.194 15.6361 341.08 14.8496H341.05ZM241.56 111.13C240.756 99.2653 237.702 87.6624 232.56 76.9396C221.27 53.5796 201.94 39.2396 175.11 34.3196L176.19 28.4196C212.19 35.0196 229.71 57.1396 238.06 74.5396C243.558 85.9624 246.782 98.3458 247.55 111L241.56 111.13ZM397.12 437.68L209.67 469.91C217.613 453.012 229.518 438.281 244.372 426.969C259.227 415.657 276.593 408.098 294.994 404.934C313.396 401.77 332.289 403.095 350.069 408.796C367.849 414.497 383.99 424.405 397.12 437.68Z" fill="#3F3D56"/>
<path d="M413.318 87.1121L97.172 138.656C80.9993 141.293 70.0262 156.541 72.663 172.714L114.136 427.085C116.772 443.258 132.021 454.231 148.193 451.594L464.339 400.05C480.512 397.413 491.485 382.165 488.848 365.992L447.375 111.621C444.739 95.4484 429.49 84.4753 413.318 87.1121Z" fill="#FFC700"/>
<path d="M143.371 455C135.628 454.982 128.143 452.216 122.249 447.194C116.356 442.172 112.437 435.221 111.191 427.58L69.7106 173.19C68.3278 164.636 70.3937 155.884 75.4553 148.852C80.5169 141.82 88.1609 137.083 96.7106 135.68L412.841 84.1295C421.394 82.7467 430.146 84.8127 437.178 89.8743C444.21 94.9359 448.947 102.58 450.351 111.13L491.831 365.5C493.213 374.053 491.147 382.805 486.086 389.837C481.024 396.869 473.38 401.606 464.831 403.01L148.691 454.549C146.932 454.843 145.153 454.994 143.371 455ZM418.111 89.6995C416.667 89.7026 415.226 89.8196 413.801 90.0495L97.6606 141.6C90.6888 142.755 84.459 146.626 80.3355 152.365C76.212 158.104 74.531 165.244 75.6606 172.22L117.141 426.59C118.286 433.566 122.155 439.803 127.896 443.928C133.638 448.053 140.783 449.73 147.761 448.59L463.891 397.039C470.865 395.889 477.098 392.019 481.222 386.279C485.347 380.538 487.026 373.396 485.891 366.419L444.421 112.09C443.394 105.848 440.186 100.173 435.369 96.0729C430.551 91.9733 424.436 89.715 418.111 89.6995Z" fill="#3F3D56"/>
<path d="M101.35 138L152.35 451L148.18 451.68C140.412 452.944 132.46 451.071 126.073 446.473C119.686 441.874 115.387 434.928 114.12 427.16L72.6704 172.71C71.4034 164.942 73.2737 156.989 77.8701 150.599C82.4665 144.21 89.4125 139.908 97.1804 138.64L101.35 138Z" fill="white"/>
<path d="M143.371 455C135.628 454.982 128.143 452.216 122.249 447.194C116.356 442.173 112.437 435.221 111.191 427.58L69.7106 173.19C68.3278 164.636 70.3937 155.884 75.4553 148.852C80.5169 141.82 88.1609 137.083 96.7106 135.68L103.841 134.52L155.841 453.38L148.711 454.55C146.946 454.844 145.16 454.995 143.371 455ZM98.8706 141.43L97.6606 141.62C90.6888 142.775 84.459 146.646 80.3355 152.385C76.212 158.124 74.531 165.264 75.6606 172.24L117.141 426.61C118.286 433.586 122.155 439.823 127.896 443.948C133.638 448.073 140.783 449.75 147.761 448.61L148.971 448.42L98.8706 141.43Z" fill="#3F3D56"/>
<path d="M447.381 111.599L488.861 365.999C490.107 373.758 488.226 381.695 483.629 388.068C479.033 394.442 472.096 398.733 464.341 399.999L460.181 400.679L409.181 87.7393L413.351 87.0593C421.117 85.8072 429.062 87.6882 435.443 92.2892C441.823 96.8903 446.116 103.835 447.381 111.599Z" fill="white"/>
<path d="M457.7 404.16L405.7 85.29L412.83 84.13C421.384 82.7445 430.137 84.8093 437.17 89.8714C444.202 94.9335 448.939 102.579 450.34 111.13L491.82 365.5C493.203 374.053 491.137 382.805 486.075 389.837C481.014 396.869 473.37 401.606 464.82 403.01L457.7 404.16ZM412.59 90.25L462.65 397.25L463.86 397.05C470.834 395.9 477.068 392.03 481.192 386.289C485.316 380.549 486.995 373.407 485.86 366.43L444.42 112.09C443.267 105.117 439.397 98.8855 433.657 94.7616C427.917 90.6377 420.777 88.9577 413.8 90.09L412.59 90.25Z" fill="#3F3D56"/>
<path d="M90.5007 182.959C94.8195 182.959 98.3207 179.458 98.3207 175.139C98.3207 170.82 94.8195 167.319 90.5007 167.319C86.1818 167.319 82.6807 170.82 82.6807 175.139C82.6807 179.458 86.1818 182.959 90.5007 182.959Z" fill="#3F3D56"/>
<path d="M431.241 127.39C435.56 127.39 439.061 123.889 439.061 119.57C439.061 115.251 435.56 111.75 431.241 111.75C426.922 111.75 423.421 115.251 423.421 119.57C423.421 123.889 426.922 127.39 431.241 127.39Z" fill="#3F3D56"/>
<path d="M130.451 427.959C134.77 427.959 138.271 424.458 138.271 420.139C138.271 415.82 134.77 412.319 130.451 412.319C126.132 412.319 122.631 415.82 122.631 420.139C122.631 424.458 126.132 427.959 130.451 427.959Z" fill="#3F3D56"/>
<path d="M471.19 372.39C475.509 372.39 479.01 368.889 479.01 364.57C479.01 360.251 475.509 356.75 471.19 356.75C466.871 356.75 463.37 360.251 463.37 364.57C463.37 368.889 466.871 372.39 471.19 372.39Z" fill="#3F3D56"/>
<path d="M222.01 201.42L203.2 188.29L180.4 220.94L148.41 197.22L134.74 215.65L167.26 239.76L144.09 272.96L162.9 286.09L185.7 253.44L217.69 277.16L231.36 258.73L198.84 234.61L222.01 201.42Z" fill="white"/>
<path d="M163.651 290.27L139.911 273.7L163.131 240.44L130.551 216.27L147.791 193L179.711 216.67L202.461 184.09L226.191 200.66L203.001 233.94L235.591 258.1L218.351 281.35L186.421 257.68L163.651 290.27ZM148.271 272.21L162.161 281.92L185.001 249.19L217.071 273L227.161 259.39L194.711 235.33L217.841 202.2L203.941 192.5L181.091 225.23L149.001 201.42L138.941 215L171.391 239.06L148.271 272.21Z" fill="#3F3D56"/>
<path d="M413.57 229.009L381.05 204.899L404.22 171.709L385.41 158.569L362.61 191.229L330.62 167.509L316.95 185.939L349.47 210.049L326.29 243.249L345.11 256.379L367.91 223.729L399.9 247.449L413.57 229.009Z" fill="white"/>
<path d="M345.85 260.56L322.12 244L345.34 210.74L312.75 186.57L330 163.31L361.92 187L384.66 154.42L408.4 171L385.18 204.26L417.76 228.42L400.52 251.67L368.6 228L345.85 260.56ZM330.47 242.5L344.37 252.2L367.21 219.48L399.27 243.25L409.37 229.64L376.92 205.58L400 172.45L386.11 162.75L363.3 195.48L331.24 171.7L321.15 185.32L353.6 209.38L330.47 242.5Z" fill="#3F3D56"/>
<path d="M169.194 356.202L416.252 315.922L417.594 324.153L170.536 364.433L169.194 356.202Z" fill="#3F3D56"/>
<path d="M481.36 110.47C498.067 110.47 511.61 96.9263 511.61 80.2197C511.61 63.5131 498.067 49.9697 481.36 49.9697C464.654 49.9697 451.11 63.5131 451.11 80.2197C451.11 96.9263 464.654 110.47 481.36 110.47Z" fill="#3F3D56"/>
<path d="M331.911 362.629L327.351 334.629L390.831 324.279L395.391 352.279C396.761 360.697 394.732 369.315 389.749 376.237C384.767 383.159 377.238 387.818 368.821 389.189C364.653 389.871 360.392 389.724 356.281 388.758C352.17 387.792 348.289 386.025 344.861 383.558C341.434 381.092 338.525 377.974 336.303 374.383C334.081 370.791 332.588 366.798 331.911 362.629Z" fill="#49B38D"/>
<path d="M363.57 392.619C355.239 392.596 347.186 389.617 340.845 384.214C334.504 378.81 330.285 371.331 328.94 363.109L323.94 332.179L393.34 320.869L398.39 351.789C399.888 360.993 397.669 370.415 392.222 377.984C386.774 385.552 378.544 390.648 369.34 392.149C367.433 392.461 365.503 392.618 363.57 392.619ZM334.87 362.139C335.486 365.918 336.84 369.538 338.856 372.794C340.871 376.049 343.507 378.876 346.615 381.112C349.722 383.349 353.24 384.951 356.967 385.829C360.694 386.706 364.557 386.84 368.335 386.224C372.114 385.608 375.735 384.254 378.99 382.239C382.246 380.224 385.072 377.587 387.309 374.48C389.545 371.372 391.148 367.855 392.025 364.128C392.902 360.401 393.036 356.538 392.42 352.759L388.35 327.759L330.79 337.149L334.87 362.139Z" fill="#3F3D56"/>
<path d="M30.4805 184C47.1871 184 60.7305 170.457 60.7305 153.75C60.7305 137.043 47.1871 123.5 30.4805 123.5C13.7739 123.5 0.230469 137.043 0.230469 153.75C0.230469 170.457 13.7739 184 30.4805 184Z" fill="#3F3D56"/>
<path d="M355.188 330.168L361.362 329.139L367.062 363.347L360.887 364.376L355.188 330.168Z" fill="#3F3D56"/>
<path d="M288.47 587.759H282.19V595.849H270.55V587.759H248.23V579.999L267.17 553.629H279.54L262.341 578.309H270.91V571.129H282.19V578.309H288.47V587.759ZM299.87 594.099C296.974 592.278 294.675 589.645 293.26 586.529C291.69 582.795 290.881 578.785 290.881 574.734C290.881 570.684 291.69 566.673 293.26 562.939C294.672 559.819 296.971 557.183 299.87 555.359C302.795 553.663 306.115 552.77 309.495 552.77C312.876 552.77 316.196 553.663 319.12 555.359C322.014 557.186 324.309 559.822 325.72 562.939C327.298 566.672 328.11 570.683 328.11 574.734C328.11 578.786 327.298 582.797 325.72 586.529C324.306 589.643 322.012 592.274 319.12 594.099C316.196 595.796 312.876 596.689 309.495 596.689C306.115 596.689 302.795 595.796 299.87 594.099ZM314.32 583.999C315.507 582.046 316.1 578.959 316.1 574.739C316.1 570.519 315.507 567.433 314.32 565.479C313.861 564.597 313.168 563.857 312.317 563.341C311.467 562.825 310.491 562.552 309.495 562.552C308.5 562.552 307.524 562.825 306.674 563.341C305.823 563.857 305.13 564.597 304.67 565.479C303.484 567.426 302.891 570.513 302.891 574.739C302.891 578.966 303.484 582.053 304.67 583.999C305.13 584.882 305.823 585.622 306.674 586.138C307.524 586.654 308.5 586.927 309.495 586.927C310.491 586.927 311.467 586.654 312.317 586.138C313.168 585.622 313.861 584.882 314.32 583.999ZM372 587.759H365.72V595.849H354.11V587.759H331.79V579.999L350.73 553.629H363.1L345.901 578.309H354.47V571.129H365.75V578.309H372V587.759Z" fill="#49B38D"/>
<path d="M618.91 683C611.3 683 604.52 681.12 600.11 678.51C597.263 676.855 594.583 674.925 592.11 672.75C584.58 677.37 575.95 680.14 568.04 679.24C563.364 678.798 558.85 677.296 554.841 674.85C551.592 676.97 548.018 678.544 544.26 679.51C533.43 682.29 522.881 679.51 516.641 675.33C499.441 682.62 485.43 683.14 474.98 676.85C459.61 667.62 458.05 647.32 457.98 646.46L463.98 646.05C463.98 646.23 465.42 664.13 478.11 671.73C486.29 676.63 497.521 676.36 511.521 670.94C507.926 667.281 505.421 662.694 504.287 657.692C503.153 652.69 503.434 647.471 505.1 642.62C507.76 635.23 513.35 630.62 519.32 630.76C530.68 631.11 533.761 638.18 534.581 642.35C536.581 652.35 530.111 665.61 522.641 671.87C528.94 674.792 536.058 675.439 542.781 673.7C545.291 673.048 547.705 672.069 549.961 670.79C547.121 667.688 545.076 663.945 544 659.88C541 648.8 544.281 635.03 551.211 629.8C554.981 626.96 563.021 626.8 568.531 631.13C572.061 633.92 577.1 640.65 571.11 654.47C568.586 660.651 564.802 666.24 560 670.88C562.761 672.192 565.728 673.015 568.771 673.31C574.831 674 581.701 671.87 587.901 668.31C580.801 659.31 581.38 649.83 585.31 642.79C589.96 634.43 598.67 629.87 604.31 632.79C611.25 636.42 613.89 642.89 611.54 650.53C609.54 656.97 604.18 663.82 597.24 669.23C599.131 670.756 601.137 672.133 603.24 673.35C609.65 677.15 621.94 678.73 633.04 674.42C639.63 671.86 648.301 666.12 652.201 653.3L657.94 655.05C653.34 670.17 643.041 676.97 635.211 680.05C630.008 682.038 624.48 683.038 618.91 683ZM519 636.79C515.77 636.79 512.481 639.93 510.771 644.68C508.501 650.99 509.02 660.74 517.44 668.33C523.77 664.27 530.341 651.78 528.711 643.54C527.851 639.17 524.711 636.96 519.151 636.79H519ZM558.461 633.79C557.209 633.714 555.962 634.002 554.87 634.62C550.46 637.95 547.3 649.03 549.87 658.33C550.758 661.725 552.52 664.828 554.98 667.33C559.659 663.137 563.319 657.931 565.68 652.11C567.99 646.79 569.681 639.66 564.901 635.87C563.043 634.473 560.775 633.731 558.451 633.76L558.461 633.79ZM600.461 637.92C597.931 637.92 593.38 640.67 590.57 645.72C588.65 649.15 586.001 656.72 592.901 665.03C599.171 660.32 604.13 654.31 605.82 648.82C607.32 643.94 605.92 640.44 601.54 638.15C601.191 637.97 600.803 637.881 600.41 637.89L600.461 637.92Z" fill="#3F3D56"/>
<path d="M83.4902 615.739V646.109C83.4902 656.169 99.8102 664.329 119.94 664.329C140.07 664.329 156.38 656.169 156.38 646.109V615.739H83.4902Z" fill="white"/>
<path d="M119.94 667.329C97.8202 667.329 80.4902 658.009 80.4902 646.099V612.739H159.38V646.099C159.38 657.999 142.05 667.329 119.94 667.329ZM86.4902 618.739V646.099C86.4902 653.299 100.23 661.329 119.94 661.329C139.65 661.329 153.38 653.329 153.38 646.099V618.739H86.4902Z" fill="#3F3D56"/>
<path d="M119.941 633.959C141.828 633.959 159.571 625.086 159.571 614.139C159.571 603.193 141.828 594.319 119.941 594.319C98.0535 594.319 80.3105 603.193 80.3105 614.139C80.3105 625.086 98.0535 633.959 119.941 633.959Z" fill="#3F3D56"/>
<path d="M119.941 621.349C129.893 621.349 137.961 617.315 137.961 612.339C137.961 607.363 129.893 603.329 119.941 603.329C109.989 603.329 101.921 607.363 101.921 612.339C101.921 617.315 109.989 621.349 119.941 621.349Z" fill="white"/>
</svg>
