<svg width="22" height="22" viewBox="0 0 22 22" fill="none" xmlns="http://www.w3.org/2000/svg">
<path d="M3.6665 7.3335C3.6665 4.74116 3.6665 3.44408 4.47225 2.63925C5.27709 1.8335 6.57417 1.8335 9.1665 1.8335H12.8332C15.4255 1.8335 16.7226 1.8335 17.5274 2.63925C18.3332 3.44408 18.3332 4.74116 18.3332 7.3335V14.6668C18.3332 17.2592 18.3332 18.5562 17.5274 19.3611C16.7226 20.1668 15.4255 20.1668 12.8332 20.1668H9.1665C6.57417 20.1668 5.27709 20.1668 4.47225 19.3611C3.6665 18.5562 3.6665 17.2592 3.6665 14.6668V7.3335Z" stroke="black" stroke-width="1.5"/>
<path d="M18.2397 14.667H7.23967C6.38717 14.667 5.96092 14.667 5.61075 14.7605C5.14446 14.8855 4.71929 15.1311 4.378 15.4726C4.03671 15.814 3.79132 16.2393 3.6665 16.7057" stroke="black" stroke-width="1.5"/>
<path d="M7.33301 6.41699H14.6663M7.33301 9.62533H11.9163M17.8747 17.417H7.33301" stroke="black" stroke-width="1.5" stroke-linecap="round"/>
</svg>
