<svg width="33" height="32" viewBox="0 0 33 32" fill="none" xmlns="http://www.w3.org/2000/svg">
<path d="M22.5 8V9M22.5 13V14M22.5 18V19M22.5 23V24M10.5 17H17.5M10.5 20H14.5M5 7C4.172 7 3.5 7.672 3.5 8.5V12.5347C4.109 12.8853 4.61483 13.3902 4.96656 13.9986C5.31828 14.607 5.50347 15.2973 5.50347 16C5.50347 16.7027 5.31828 17.393 4.96656 18.0014C4.61483 18.6098 4.109 19.1147 3.5 19.4653V23.5C3.5 24.328 4.172 25 5 25H28C28.828 25 29.5 24.328 29.5 23.5V19.4653C28.891 19.1147 28.3852 18.6098 28.0334 18.0014C27.6817 17.393 27.4965 16.7027 27.4965 16C27.4965 15.2973 27.6817 14.607 28.0334 13.9986C28.3852 13.3902 28.891 12.8853 29.5 12.5347V8.5C29.5 7.672 28.828 7 28 7H5Z" stroke="white" stroke-width="2.5" stroke-linecap="round" stroke-linejoin="round"/>
</svg>
