<svg width="16" height="16" viewBox="0 0 16 16" fill="none" xmlns="http://www.w3.org/2000/svg">
<path d="M12.7005 3.27353C12.0892 2.65627 11.3612 2.16684 10.5589 1.83377C9.75652 1.5007 8.89591 1.33065 8.02719 1.33353C4.38719 1.33353 1.42052 4.3002 1.42052 7.9402C1.42052 9.10687 1.72719 10.2402 2.30052 11.2402L1.36719 14.6669L4.86719 13.7469C5.83385 14.2735 6.92052 14.5535 8.02719 14.5535C11.6672 14.5535 14.6339 11.5869 14.6339 7.94687C14.6339 6.1802 13.9472 4.5202 12.7005 3.27353ZM8.02719 13.4335C7.04052 13.4335 6.07385 13.1669 5.22719 12.6669L5.02719 12.5469L2.94719 13.0935L3.50052 11.0669L3.36719 10.8602C2.81889 9.9849 2.5278 8.97305 2.52719 7.9402C2.52719 4.91353 4.99385 2.44687 8.02052 2.44687C9.48719 2.44687 10.8672 3.0202 11.9005 4.0602C12.4123 4.56944 12.8178 5.17523 13.0936 5.84242C13.3694 6.50961 13.51 7.22492 13.5072 7.94687C13.5205 10.9735 11.0539 13.4335 8.02719 13.4335ZM11.0405 9.32687C10.8739 9.24687 10.0605 8.84687 9.91385 8.78687C9.76052 8.73353 9.65385 8.70687 9.54052 8.86687C9.42719 9.03353 9.11385 9.40687 9.02052 9.51353C8.92719 9.62687 8.82719 9.6402 8.66052 9.55353C8.49385 9.47353 7.96052 9.29353 7.33385 8.73353C6.84052 8.29353 6.51385 7.75353 6.41385 7.58687C6.32052 7.4202 6.40052 7.33353 6.48719 7.24687C6.56052 7.17353 6.65385 7.05353 6.73385 6.9602C6.81385 6.86687 6.84719 6.79353 6.90052 6.68687C6.95385 6.57353 6.92719 6.4802 6.88719 6.4002C6.84719 6.3202 6.51385 5.50687 6.38052 5.17353C6.24719 4.85353 6.10719 4.89353 6.00719 4.88687H5.68719C5.57385 4.88687 5.40052 4.92687 5.24719 5.09353C5.10052 5.2602 4.67385 5.6602 4.67385 6.47353C4.67385 7.28687 5.26719 8.07353 5.34719 8.1802C5.42719 8.29353 6.51385 9.9602 8.16719 10.6735C8.56052 10.8469 8.86719 10.9469 9.10719 11.0202C9.50052 11.1469 9.86052 11.1269 10.1472 11.0869C10.4672 11.0402 11.1272 10.6869 11.2605 10.3002C11.4005 9.91353 11.4005 9.58687 11.3539 9.51353C11.3072 9.4402 11.2072 9.40687 11.0405 9.32687Z" fill="black"/>
</svg>
