<svg width="430" height="129" viewBox="0 0 430 129" fill="none" xmlns="http://www.w3.org/2000/svg">
<path fill-rule="evenodd" clip-rule="evenodd" d="M619 14.8471L601.521 34.6433C584.042 54.4395 549.083 94.0319 514.125 98.9809C479.167 103.93 444.208 74.2357 409.25 54.4395C374.292 34.6433 339.333 24.7452 304.375 39.5924C269.417 54.4395 234.458 94.0319 199.5 113.828C164.542 133.624 129.583 133.624 94.625 116.303C62.9167 100.591 31.2083 70.6293 -0.5 52.2683C-3.75 50.3864 -7 48.6263 -10.25 47.0159C-45.2083 29.6943 -80.1667 29.6943 -115.125 24.7452C-150.083 19.7962 -185.042 9.8981 -202.521 4.94906L-220 0H-202.521C-185.042 0 -150.083 0 -115.125 0C-80.1667 0 -45.2083 0 -10.25 0C-7 0 -3.75 0 -0.5 0C31.2083 0 62.9167 0 94.625 0C129.583 0 164.542 0 199.5 0C234.458 0 269.417 0 304.375 0C339.333 0 374.292 0 409.25 0C444.208 0 479.167 0 514.125 0C549.083 0 584.042 0 601.521 0H619V14.8471Z" fill="#FCC548" fill-opacity="0.25"/>
</svg>
