<svg width="252" height="238" viewBox="0 0 252 238" fill="none" xmlns="http://www.w3.org/2000/svg">
<g clip-path="url(#clip0_13_295)">
<path d="M232.95 182.077L244.254 183.861C248.081 179.182 250.719 173.631 251.939 167.69C243.673 174.522 231.102 170.891 221.078 174.622C217.961 175.809 215.148 177.69 212.848 180.125C210.549 182.559 208.821 185.485 207.793 188.686L202.269 194.688C207.27 196.687 212.641 197.568 218.011 197.27C223.382 196.971 228.624 195.5 233.378 192.959C236.031 191.506 238.492 189.722 240.703 187.649C236.747 185.134 232.95 182.077 232.95 182.077Z" fill="#F2F2F2"/>
<path d="M228.936 163.82L239.843 160.325C241.201 154.415 241.111 148.258 239.579 142.391C235.198 152.229 222.342 154.64 215.019 162.493C212.753 164.96 211.066 167.91 210.083 171.125C209.1 174.34 208.846 177.737 209.339 181.064L207.045 188.924C212.405 188.462 217.601 186.831 222.276 184.145C226.951 181.459 230.994 177.782 234.126 173.366C235.859 170.872 237.273 168.167 238.337 165.315C233.686 164.845 228.936 163.82 228.936 163.82Z" fill="#F2F2F2"/>
<path d="M252 198.324C252 198.383 251.989 198.441 251.967 198.496C251.944 198.55 251.912 198.6 251.87 198.642C251.829 198.683 251.78 198.716 251.726 198.739C251.672 198.761 251.614 198.773 251.556 198.772H0.443827C0.326117 198.772 0.213227 198.725 0.129993 198.641C0.0467595 198.557 0 198.443 0 198.324C0 198.205 0.0467595 198.091 0.129993 198.007C0.213227 197.923 0.326117 197.876 0.443827 197.876H251.556C251.614 197.876 251.672 197.887 251.726 197.91C251.78 197.932 251.829 197.965 251.87 198.007C251.912 198.049 251.944 198.098 251.967 198.153C251.989 198.207 252 198.265 252 198.324Z" fill="#CCCCCC"/>
<path d="M104.056 179.218C148.342 179.218 184.243 142.965 184.243 98.2457C184.243 53.5261 148.342 17.2737 104.056 17.2737C59.7696 17.2737 23.8687 53.5261 23.8687 98.2457C23.8687 142.965 59.7696 179.218 104.056 179.218Z" fill="#E6E6E6"/>
<path d="M173.054 98.2457C173.062 109.117 170.547 119.84 165.711 129.553C160.874 139.266 153.851 147.699 145.205 154.177C144.627 154.614 144.037 155.039 143.444 155.453C131.882 163.569 118.137 167.919 104.056 167.919C89.9742 167.919 76.2297 163.569 64.6671 155.453C64.0741 155.039 63.4848 154.614 62.9068 154.177C54.2661 147.693 47.2474 139.259 42.4118 129.547C37.5761 119.835 35.0576 109.116 35.0576 98.2457C35.0576 87.3755 37.5761 76.6561 42.4118 66.9443C47.2474 57.2326 54.2661 48.798 62.9068 42.3148C63.4848 41.8779 64.0741 41.4523 64.6671 41.0381C76.2297 32.9221 89.9742 28.5721 104.056 28.5721C118.137 28.5721 131.882 32.9221 143.444 41.0381C144.037 41.4523 144.627 41.8779 145.205 42.3148C153.851 48.7923 160.874 57.2258 165.711 66.9388C170.547 76.6518 173.062 87.3741 173.054 98.2457Z" fill="white"/>
<path d="M104.056 161.893C138.867 161.893 167.086 133.397 167.086 98.2457C167.086 63.094 138.867 34.598 104.056 34.598C69.2447 34.598 41.0249 63.094 41.0249 98.2457C41.0249 133.397 69.2447 161.893 104.056 161.893Z" fill="#E4A923"/>
<path opacity="0.2" d="M104.221 34.7759C103.265 34.7759 102.315 34.8011 101.37 34.8436C117.301 36.2572 132.104 43.7328 142.78 55.756C153.456 67.7791 159.207 83.4507 158.868 99.5956C158.528 115.741 152.124 131.152 140.952 142.706C129.781 154.261 114.677 161.096 98.7012 161.826C100.52 161.985 102.36 162.071 104.221 162.071C120.937 162.071 136.969 155.366 148.79 143.429C160.611 131.493 167.251 115.304 167.251 98.4236C167.251 81.5432 160.611 65.3542 148.79 53.4179C136.969 41.4816 120.937 34.7759 104.221 34.7759Z" fill="#3F3D56"/>
<path d="M104.242 30.0786C103.698 30.0796 103.177 30.2981 102.793 30.6864C102.408 31.0746 102.192 31.6009 102.191 32.15V41.1887C102.191 41.7381 102.407 42.2649 102.792 42.6534C103.176 43.0419 103.698 43.2601 104.242 43.2601C104.786 43.2601 105.308 43.0419 105.693 42.6534C106.077 42.2649 106.294 41.7381 106.294 41.1887V32.15C106.293 31.6009 106.076 31.0746 105.692 30.6864C105.307 30.2981 104.786 30.0796 104.242 30.0786Z" fill="white"/>
<path d="M145.205 42.3148C144.627 41.8779 144.038 41.4524 143.445 41.0381C143.089 41.0147 142.733 41.0854 142.413 41.2432C142.092 41.4011 141.818 41.6406 141.617 41.9382L136.578 49.4064C136.272 49.8604 136.157 50.4186 136.259 50.9582C136.36 51.4978 136.67 51.9746 137.119 52.2838C137.569 52.5929 138.122 52.709 138.656 52.6066C139.19 52.5042 139.662 52.1917 139.969 51.7377L145.007 44.2694C145.199 43.9861 145.318 43.6589 145.352 43.3175C145.387 42.9761 145.336 42.6314 145.205 42.3148Z" fill="white"/>
<path d="M168.097 76.3682C167.996 76.1164 167.847 75.8873 167.658 75.6938C167.469 75.5004 167.244 75.3464 166.996 75.2408C166.748 75.1352 166.481 75.0799 166.212 75.0782C165.943 75.0765 165.676 75.1284 165.427 75.2309L157.132 78.6317C156.629 78.8388 156.227 79.2393 156.016 79.7451C155.805 80.251 155.801 80.8208 156.006 81.3294C156.21 81.838 156.607 82.2438 157.107 82.4575C157.608 82.6713 158.173 82.6755 158.676 82.4694L166.971 79.0686C167.474 78.8604 167.875 78.4594 168.086 77.9533C168.298 77.4472 168.302 76.8773 168.097 76.3682Z" fill="white"/>
<path d="M71.5333 49.4064L66.4946 41.9382C66.2938 41.6406 66.0196 41.4011 65.6991 41.2432C65.3786 41.0854 65.0229 41.0147 64.667 41.0381C64.074 41.4524 63.4847 41.8779 62.9067 42.3148C62.7756 42.6314 62.725 42.9761 62.7596 43.3175C62.7941 43.6589 62.9126 43.9861 63.1043 44.2694L68.143 51.7377C68.4492 52.1916 68.9214 52.5042 69.4558 52.6066C69.9901 52.7091 70.5429 52.5929 70.9925 52.2838C71.4421 51.9746 71.7516 51.4978 71.853 50.9582C71.9544 50.4186 71.8394 49.8604 71.5333 49.4064Z" fill="white"/>
<path d="M50.9793 78.6317L42.6846 75.2309C42.1806 75.0242 41.616 75.0282 41.115 75.2418C40.6139 75.4555 40.2174 75.8614 40.0127 76.3702C39.8079 76.8791 39.8117 77.4492 40.0232 77.9552C40.2348 78.4612 40.6366 78.8617 41.1405 79.0685L49.4352 82.4693C49.9391 82.6755 50.5034 82.6713 51.0041 82.4575C51.5049 82.2437 51.9011 81.838 52.1058 81.3294C52.3104 80.8208 52.3067 80.2509 52.0955 79.7451C51.8842 79.2392 51.4828 78.8388 50.9793 78.6317Z" fill="white"/>
<path d="M104.242 153.231C103.698 153.232 103.177 153.451 102.793 153.839C102.408 154.227 102.192 154.754 102.191 155.303V164.341C102.191 164.891 102.407 165.418 102.792 165.806C103.176 166.195 103.698 166.413 104.242 166.413C104.786 166.413 105.308 166.195 105.693 165.806C106.077 165.418 106.294 164.891 106.294 164.341V155.303C106.293 154.754 106.076 154.227 105.692 153.839C105.307 153.451 104.786 153.232 104.242 153.231Z" fill="white"/>
<path d="M145.007 152.222L139.969 144.754C139.817 144.529 139.623 144.337 139.398 144.187C139.173 144.038 138.92 143.936 138.656 143.885C138.391 143.834 138.119 143.837 137.856 143.892C137.592 143.947 137.342 144.055 137.119 144.208C136.897 144.361 136.706 144.557 136.558 144.784C136.411 145.012 136.309 145.266 136.259 145.533C136.208 145.8 136.211 146.075 136.266 146.341C136.321 146.608 136.427 146.86 136.578 147.085L141.617 154.553C141.818 154.851 142.092 155.09 142.413 155.248C142.733 155.406 143.089 155.477 143.445 155.453C144.038 155.039 144.627 154.614 145.205 154.177C145.336 153.86 145.387 153.515 145.352 153.174C145.318 152.833 145.199 152.505 145.007 152.222Z" fill="white"/>
<path d="M166.971 117.423L158.676 114.022C158.172 113.815 157.608 113.819 157.107 114.033C156.606 114.247 156.209 114.653 156.004 115.161C155.8 115.67 155.803 116.24 156.015 116.746C156.226 117.252 156.628 117.653 157.132 117.86L165.427 121.261C165.931 121.467 166.495 121.463 166.996 121.249C167.497 121.035 167.893 120.629 168.097 120.121C168.302 119.612 168.298 119.042 168.087 118.536C167.876 118.03 167.474 117.63 166.971 117.423Z" fill="white"/>
<path d="M70.9925 144.208C70.5429 143.899 69.9901 143.783 69.4558 143.885C68.9215 143.987 68.4493 144.3 68.1431 144.754L63.1043 152.222C62.9126 152.505 62.7941 152.833 62.7596 153.174C62.725 153.515 62.7756 153.86 62.9067 154.177C63.4847 154.614 64.074 155.039 64.667 155.453C65.0229 155.477 65.3786 155.406 65.6991 155.248C66.0196 155.09 66.2938 154.851 66.4946 154.553L71.5333 147.085C71.6849 146.86 71.7912 146.608 71.846 146.341C71.9009 146.075 71.9033 145.8 71.8531 145.533C71.8029 145.266 71.701 145.011 71.5533 144.784C71.4057 144.557 71.2151 144.361 70.9925 144.208Z" fill="white"/>
<path d="M52.1057 115.159C52.0044 114.908 51.855 114.678 51.6659 114.485C51.4768 114.292 51.2519 114.138 51.0039 114.032C50.7559 113.926 50.4897 113.871 50.2206 113.869C49.9514 113.868 49.6846 113.92 49.4353 114.022L41.1406 117.423C40.6371 117.63 40.2356 118.03 40.0244 118.536C39.8132 119.042 39.8095 119.612 40.0141 120.121C40.2188 120.629 40.615 121.035 41.1157 121.249C41.6165 121.462 42.1808 121.467 42.6847 121.261L50.9794 117.86C51.4826 117.652 51.8837 117.251 52.0948 116.744C52.3059 116.238 52.3098 115.668 52.1057 115.159Z" fill="white"/>
<path d="M106.904 97.218C107.093 98.3502 106.83 99.512 106.172 100.449C105.514 101.385 104.515 102.02 103.395 102.214L66.9941 108.466C66.4389 108.562 65.8704 108.546 65.3213 108.419C64.7721 108.293 64.253 108.058 63.7936 107.729C63.3342 107.4 62.9434 106.983 62.6437 106.501C62.3439 106.02 62.141 105.483 62.0466 104.923C61.9521 104.362 61.968 103.788 62.0932 103.234C62.2184 102.679 62.4506 102.155 62.7764 101.691C63.1023 101.227 63.5155 100.832 63.9923 100.53C64.4692 100.227 65.0004 100.022 65.5557 99.9268L101.956 93.6745C103.077 93.4832 104.228 93.7489 105.156 94.4132C106.083 95.0775 106.712 96.0862 106.904 97.218Z" fill="#3F3D56"/>
<path d="M145.214 137.942C144.691 138.473 143.981 138.772 143.24 138.775C142.498 138.778 141.785 138.484 141.258 137.957L102.074 98.6994C101.548 98.1716 101.251 97.4546 101.249 96.706C101.246 95.9573 101.538 95.2382 102.06 94.7067C102.582 94.1752 103.292 93.8748 104.033 93.8715C104.775 93.8683 105.487 94.1623 106.014 94.6892L145.199 133.947C145.725 134.475 146.022 135.192 146.025 135.941C146.027 136.69 145.736 137.409 145.214 137.942Z" fill="#3F3D56"/>
<path d="M104.056 103.142C106.734 103.142 108.905 100.95 108.905 98.2457C108.905 95.5417 106.734 93.3497 104.056 93.3497C101.378 93.3497 99.2075 95.5417 99.2075 98.2457C99.2075 100.95 101.378 103.142 104.056 103.142Z" fill="#CCCCCC"/>
<path d="M70.6594 13.349C63.217 25.1643 51.8615 33.0055 37.8574 38.1567C37.5806 38.366 37.2658 38.5182 36.9308 38.6046C36.5959 38.691 36.2473 38.7099 35.9051 38.6603C35.5629 38.6107 35.2337 38.4936 34.9363 38.3155C34.6389 38.1374 34.3792 37.9019 34.1719 37.6225C26.565 27.3664 28.2826 12.7083 38.3222 4.87144C40.7494 2.98004 43.5245 1.59435 46.4864 0.794807C49.4482 -0.00473522 52.5379 -0.202204 55.576 0.213871C58.6141 0.629945 61.54 1.65127 64.184 3.21856C66.828 4.78584 69.1374 6.86787 70.978 9.34376L71.1884 9.62744C71.3957 9.90687 71.5464 10.2248 71.632 10.563C71.7175 10.9013 71.7363 11.2533 71.6872 11.5988C71.6381 11.9444 71.522 12.2768 71.3457 12.5771C71.1693 12.8774 70.9361 13.1397 70.6594 13.349Z" fill="#E6E6E6"/>
<path d="M137.134 9.34376C138.974 6.86787 141.284 4.78584 143.928 3.21855C146.572 1.65127 149.498 0.629947 152.536 0.213872C155.574 -0.202203 158.664 -0.00473936 161.625 0.794803C164.587 1.59435 167.362 2.98004 169.79 4.87144C179.829 12.7083 181.547 27.3664 173.94 37.6225C173.733 37.9019 173.473 38.1374 173.176 38.3155C172.878 38.4936 172.549 38.6107 172.207 38.6603C171.865 38.7099 171.516 38.691 171.181 38.6046C170.846 38.5182 170.531 38.366 170.254 38.1567C157.254 33.1306 146.593 24.4331 137.452 13.349C136.894 12.9263 136.524 12.2967 136.425 11.5988C136.325 10.9009 136.505 10.1918 136.923 9.62742L137.134 9.34376Z" fill="#E6E6E6"/>
<path d="M133.872 168.397C133.397 168.666 133.048 169.114 132.901 169.642C132.753 170.17 132.818 170.736 133.083 171.216L144.922 192.579C145.187 193.058 145.631 193.411 146.154 193.56C146.678 193.709 147.239 193.642 147.713 193.374C148.188 193.106 148.538 192.658 148.686 192.13C148.833 191.601 148.767 191.035 148.502 190.556L136.663 169.193C136.397 168.714 135.954 168.362 135.43 168.213C134.907 168.063 134.346 168.13 133.872 168.397Z" fill="#E6E6E6"/>
<path d="M71.4482 169.193L59.6096 190.556C59.3441 191.035 59.278 191.601 59.4259 192.13C59.5738 192.658 59.9235 193.106 60.3982 193.374C60.8729 193.642 61.4337 193.709 61.9572 193.56C62.4807 193.411 62.924 193.058 63.1898 192.579L75.0283 171.216C75.16 170.979 75.244 170.717 75.2756 170.447C75.3072 170.177 75.2858 169.903 75.2126 169.641C75.1395 169.38 75.0159 169.135 74.8491 168.921C74.6822 168.708 74.4753 168.529 74.2402 168.397C74.0051 168.264 73.7464 168.179 73.4788 168.147C73.2112 168.115 72.9401 168.137 72.6808 168.211C72.4215 168.285 72.1792 168.41 71.9677 168.578C71.7562 168.747 71.5797 168.956 71.4482 169.193Z" fill="#E6E6E6"/>
<path d="M147.319 198.048C150.821 198.048 153.66 195.182 153.66 191.646C153.66 188.11 150.821 185.244 147.319 185.244C143.818 185.244 140.979 188.11 140.979 191.646C140.979 195.182 143.818 198.048 147.319 198.048Z" fill="#E6E6E6"/>
<path d="M151.795 34.2214C155.297 34.2214 158.135 31.3549 158.135 27.8189C158.135 24.283 155.297 21.4165 151.795 21.4165C148.293 21.4165 145.455 24.283 145.455 27.8189C145.455 31.3549 148.293 34.2214 151.795 34.2214Z" fill="#E6E6E6"/>
<path d="M103.683 19.1568C107.185 19.1568 110.024 16.2903 110.024 12.7544C110.024 9.2184 107.185 6.35193 103.683 6.35193C100.181 6.35193 97.3428 9.2184 97.3428 12.7544C97.3428 16.2903 100.181 19.1568 103.683 19.1568Z" fill="#E6E6E6"/>
<path d="M57.8086 33.4681C61.3103 33.4681 64.149 30.6017 64.149 27.0657C64.149 23.5297 61.3103 20.6633 57.8086 20.6633C54.3069 20.6633 51.4683 23.5297 51.4683 27.0657C51.4683 30.6017 54.3069 33.4681 57.8086 33.4681Z" fill="#E6E6E6"/>
<path d="M61.9112 198.048C65.4129 198.048 68.2515 195.182 68.2515 191.646C68.2515 188.11 65.4129 185.244 61.9112 185.244C58.4095 185.244 55.5708 188.11 55.5708 191.646C55.5708 195.182 58.4095 198.048 61.9112 198.048Z" fill="#E6E6E6"/>
<path d="M142.346 134.341C142.596 134.736 142.929 135.071 143.321 135.322C143.713 135.573 144.155 135.735 144.615 135.795C145.076 135.855 145.544 135.813 145.986 135.671C146.429 135.529 146.835 135.29 147.176 134.972L157.125 140.355L156.592 134.457L147.226 130.249C146.659 129.706 145.914 129.391 145.133 129.365C144.352 129.338 143.588 129.602 142.986 130.107C142.385 130.611 141.988 131.32 141.87 132.101C141.752 132.881 141.921 133.678 142.346 134.341Z" fill="#FFB7B7"/>
<path d="M149.595 136.399L153.494 130.965L172.276 139.931L195.649 135.502C196.804 135.283 197.993 135.324 199.131 135.621C200.269 135.919 201.328 136.465 202.233 137.222C203.139 137.979 203.868 138.929 204.369 140.002C204.87 141.076 205.131 142.248 205.133 143.435C205.135 145.579 204.294 147.636 202.796 149.154C201.297 150.673 199.263 151.53 197.14 151.536L170.356 151.586L149.595 136.399Z" fill="#3F3D56"/>
<path d="M143.59 230.261L139.646 228.357L145.064 211.707L150.886 214.519L143.59 230.261Z" fill="#FFB7B7"/>
<path d="M170.036 227.577C169.749 227.759 169.462 227.937 169.172 228.116C168.596 228.473 168.013 228.824 167.431 229.169C167.138 229.342 166.843 229.514 166.55 229.684V229.693L166.533 229.696L166.527 229.699L166.081 229.81L165.44 228.101L165.145 227.314L164.727 226.199L163.963 224.16L159.935 213.422L166.196 211.863L166.431 212.831H166.434L166.55 213.311L168.738 222.27L169.184 224.102L169.198 224.157L169.468 225.251L169.699 226.199L169.957 227.258L170.036 227.577Z" fill="#FFB7B7"/>
<path d="M207.388 189.869C206.991 190.513 206.585 191.153 206.176 191.788C205.417 192.97 204.638 194.135 203.838 195.282C203.838 195.285 203.835 195.285 203.832 195.287C203.366 195.724 202.85 196.104 202.297 196.42C202.274 196.437 202.247 196.449 202.224 196.464C201.816 196.691 201.382 196.867 200.932 196.987C200.77 197.028 200.605 197.069 200.442 197.11C199.857 197.251 199.278 197.371 198.701 197.476C197.675 197.66 196.661 197.792 195.653 197.874C195.572 197.883 195.491 197.888 195.409 197.894C191.263 198.202 187.227 197.707 183.014 196.897C180.934 196.499 178.81 196.022 176.611 195.527C175.892 195.364 175.171 195.203 174.441 195.042C174.386 195.03 174.328 195.015 174.27 195.004C173.227 194.773 172.166 194.544 171.08 194.319C169.712 194.035 168.301 193.76 166.835 193.5L166.939 195.586C167.026 197.191 167.356 198.772 167.918 200.276C168.544 202.125 169.04 203.588 167.994 206.634L167.49 208.108C167.751 208.841 167.841 209.624 167.752 210.397C167.663 211.17 167.397 211.912 166.977 212.564L166.875 212.719L171.08 223.46L171.352 224.156H169.199L166.551 224.159H162.063L155.587 211.04L155.277 210.414V210.382L155.946 185.17C155.955 184.948 155.972 184.722 156.001 184.5C156.119 183.489 156.435 182.512 156.931 181.626C157.427 180.74 158.093 179.962 158.89 179.339C159.653 178.736 160.528 178.293 161.463 178.035C162.397 177.777 163.373 177.709 164.334 177.835L166.551 178.125L171.08 178.716L174.27 179.134L174.333 179.143L183.741 180.372L184.417 177.592L184.541 177.545L188.502 176.079L202.201 171.009L202.236 170.997L203.137 170.664L203.244 170.839C203.276 170.892 203.308 170.945 203.337 170.997C204.227 172.61 204.953 174.31 205.501 176.071C206.424 178.948 207.183 181.875 207.776 184.839C207.802 184.968 207.825 185.085 207.845 185.191L207.854 185.223C207.863 185.272 207.868 185.305 207.871 185.313C208.187 186.642 207.967 188.263 207.388 189.869Z" fill="#2F2E41"/>
<path d="M207.966 180.578C207.922 180.39 207.867 180.2 207.809 180.016C207.349 178.62 206.813 177.25 206.204 175.914C205.52 174.392 204.7 172.763 203.724 170.998C203.251 170.144 202.743 169.256 202.2 168.333C201.927 167.871 201.644 167.4 201.351 166.92C201.339 166.898 201.327 166.876 201.313 166.856L201.229 166.715L187.675 168.547L182.627 169.228L182.326 171.768L182.254 172.397C182.251 172.397 182.251 172.397 182.254 172.4L182.051 174.114V174.117L181.781 176.382L181.758 176.379L174.268 175.399L166.549 174.39L162.403 173.848C161.442 173.722 160.466 173.79 159.531 174.048C158.597 174.306 157.722 174.749 156.959 175.352C156.162 175.976 155.497 176.753 155.001 177.639C154.505 178.525 154.188 179.502 154.07 180.513C154.044 180.718 154.027 180.929 154.018 181.136L150.106 190.496C147.766 196.094 146.275 202.016 145.685 208.063L142.816 217.323L143.225 217.361L149.304 217.931L150.909 218.084L154.444 212.873C154.847 212.279 155.229 211.667 155.585 211.041C156.172 210.019 156.694 208.959 157.147 207.87L164.794 189.495C165.385 189.598 165.97 189.695 166.549 189.788C169.23 190.227 171.803 190.585 174.268 190.862C182.285 191.766 189.228 191.836 195.408 191.07C197.144 190.856 198.821 190.575 200.441 190.227C201.035 190.101 201.621 189.966 202.2 189.82C202.336 189.788 202.469 189.756 202.602 189.721C203.8 189.409 204.901 188.799 205.804 187.946C206.708 187.094 207.385 186.026 207.774 184.841C208.239 183.467 208.305 181.988 207.966 180.578Z" fill="#2F2E41"/>
<path d="M144.85 227.543L140.582 225.477L139.913 225.152L138.844 227.803L131.38 229.462C131.011 229.544 130.678 229.743 130.428 230.029C130.179 230.316 130.027 230.676 129.995 231.056C129.962 231.436 130.051 231.816 130.248 232.142C130.445 232.467 130.741 232.721 131.09 232.865L138.383 235.87L140.698 233.766L140.13 236.589L142.877 237.722L145.888 228.046L144.85 227.543Z" fill="#2F2E41"/>
<path d="M171.079 223.46L171.352 224.156H171.079V223.46Z" fill="#2F2E41"/>
<path d="M169.593 224.305L165.121 225.87L164.419 226.115L165.506 228.758L161.359 235.24C161.153 235.56 161.055 235.938 161.077 236.319C161.1 236.7 161.243 237.063 161.485 237.357C161.727 237.65 162.055 237.857 162.422 237.948C162.789 238.039 163.175 238.01 163.524 237.864L170.8 234.817L170.979 231.677L172.543 234.087L175.283 232.94L170.681 223.926L169.593 224.305Z" fill="#2F2E41"/>
<path d="M206.85 184.817C206.585 184.816 206.323 184.751 206.088 184.626L182.489 172.174L182.217 171.047L181.703 167.479L181.71 167.446L183.954 156.997C183.913 156.908 183.827 156.761 183.73 156.594C182.728 154.88 179.679 149.663 185.498 142.479L195.716 130.45L204.485 130.069L204.585 130.196C206.93 133.168 208.511 136.679 209.188 140.417C209.866 144.154 209.618 148.003 208.467 151.621L207.554 168.274L208.534 171.637C209.106 173.613 209.012 175.726 208.265 177.642L208.489 183.087C208.498 183.31 208.462 183.533 208.384 183.742C208.305 183.951 208.186 184.142 208.033 184.303C207.88 184.465 207.697 184.593 207.493 184.681C207.29 184.77 207.071 184.816 206.85 184.817Z" fill="#3F3D56"/>
<path d="M186.38 198.55C186.78 198.312 187.123 197.987 187.385 197.601C187.647 197.214 187.823 196.773 187.898 196.311C187.974 195.848 187.948 195.374 187.823 194.923C187.697 194.471 187.476 194.053 187.173 193.698L192.847 183.845L186.991 184.178L182.5 193.483C181.943 194.037 181.605 194.777 181.552 195.565C181.499 196.352 181.733 197.132 182.212 197.757C182.69 198.381 183.378 198.807 184.146 198.953C184.915 199.099 185.709 198.956 186.38 198.55Z" fill="#FFB7B7"/>
<path d="M188.669 191.306L183.426 187.183L192.953 168.54L189.383 144.799C189.207 143.625 189.289 142.427 189.622 141.289C189.956 140.151 190.534 139.101 191.315 138.213C192.096 137.326 193.06 136.623 194.14 136.155C195.22 135.686 196.389 135.464 197.564 135.503C199.686 135.576 201.693 136.496 203.144 138.061C204.595 139.626 205.371 141.708 205.304 143.851L204.422 170.883L188.669 191.306Z" fill="#3F3D56"/>
<path d="M190.091 125.452V116.689C190.089 113.575 191.312 110.588 193.491 108.384C195.671 106.181 198.627 104.942 201.711 104.94C204.795 104.938 207.754 106.173 209.936 108.374C212.118 110.574 213.345 113.56 213.347 116.674V116.689C215.396 121.002 214.114 123.052 213.347 125.452C213.346 125.87 213.181 126.27 212.889 126.566C212.596 126.861 212.199 127.028 211.785 127.028H191.653C191.239 127.028 190.842 126.861 190.549 126.566C190.256 126.27 190.092 125.87 190.091 125.452Z" fill="#2F2E41"/>
<path d="M197.906 126.459C202.713 126.459 206.61 122.524 206.61 117.67C206.61 112.816 202.713 108.881 197.906 108.881C193.099 108.881 189.202 112.816 189.202 117.67C189.202 122.524 193.099 126.459 197.906 126.459Z" fill="#FFB7B7"/>
<path d="M207.015 119.974C206.936 119.961 206.858 119.944 206.779 119.932C205.421 119.689 204.063 119.45 202.71 119.202L202.585 116.104L200.945 118.88C197.204 120.133 193.704 119.425 190.412 117.861C189.326 117.34 188.272 116.754 187.256 116.104C187.533 114.391 188.185 112.761 189.166 111.335C190.147 109.909 191.43 108.722 192.924 107.862C193.048 107.79 193.169 107.727 193.293 107.664L193.295 107.664L193.296 107.663L193.297 107.662L193.297 107.66C193.509 107.56 193.725 107.463 193.941 107.375C195.631 106.708 197.474 106.539 199.256 106.888C201.037 107.237 202.684 108.089 204.005 109.346C206.662 111.907 207.858 116.138 207.015 119.974Z" fill="#2F2E41"/>
</g>
<defs>
<clipPath id="clip0_13_295">
<rect width="252" height="238" fill="white"/>
</clipPath>
</defs>
</svg>
