<svg width="252" height="238" viewBox="0 0 252 238" fill="none" xmlns="http://www.w3.org/2000/svg">
<path d="M82.7534 29.3698C88.0063 29.3698 92.2646 23.8112 92.2646 16.9544C92.2646 10.0977 88.0063 4.53912 82.7534 4.53912C77.5005 4.53912 73.2422 10.0977 73.2422 16.9544C73.2422 23.8112 77.5005 29.3698 82.7534 29.3698Z" fill="#FFB6B6"/>
<path d="M87.7936 31.9894L75.2743 36.6585L73.4859 41.9113L69.4618 67.0077V106.695C69.4618 106.695 64.5435 120.702 67.2262 132.959C70.0938 146.06 80.1926 130.597 87.7936 132.361C95.3946 134.126 107.467 135.877 107.467 135.877L100.313 93.2715L98.5244 41.3277L87.7936 31.9894Z" fill="#E6E6E6"/>
<path d="M85.431 21.0201L83.4973 19.7581C83.4973 19.7581 83.0139 14.0787 82.047 12.8166C81.0802 11.5546 81.0802 10.9235 81.0802 10.9235L82.5305 8.39937C82.5305 8.39937 75.279 13.4477 73.8287 10.2925C72.3785 7.13729 74.3122 5.87522 74.3122 5.87522L71.895 3.35106C71.895 3.35106 74.7956 5.87522 75.279 3.9821C75.7625 2.08898 78.663 0.804545 78.663 0.804545C78.663 0.804545 84.9971 2.6753 84.4889 0.804545C83.9808 -1.06621 85.9145 0.826907 86.3979 1.45794C86.8813 2.08898 91.2322 8.39937 91.7156 7.76833C92.1991 7.13729 94.6162 9.03041 94.1328 9.66145C93.6493 10.2925 93.6493 10.9235 94.1328 11.5546C94.6162 12.1856 97.5168 19.127 95.0996 21.6512C92.6825 24.1753 89.2985 27.3305 89.7819 29.8547C90.2653 32.3788 89.7819 21.6512 85.431 21.0201Z" fill="#2F2E41"/>
<path d="M38.5453 52.2786C36.1041 49.5317 35.2111 45.6609 36.5506 43.6332C37.8902 41.6055 40.9545 42.189 43.3962 44.9373C44.3832 46.0177 45.1575 47.3909 45.6545 48.9421L55.8853 60.7515L51.5375 66.9003L41.9133 54.6055C40.6644 54.1921 39.5095 53.3942 38.5453 52.2786Z" fill="#FFB6B6"/>
<path d="M73.5931 42.112L80.3323 41.3123L86.2423 78.1051C87.3684 85.1158 83.8478 91.9604 78.4504 93.2537L73.5931 94.4175L42.6348 58.8368L47.1578 48.9945L69.9882 67.6885L73.5931 42.112Z" fill="#E6E6E6"/>
<path d="M58.5478 205.734C58.5478 205.734 53.2027 218.692 53.5845 218.193C53.9663 217.695 60.4568 220.685 60.4568 220.685L64.2747 207.727L58.5478 205.734Z" fill="#FFB6B6"/>
<path d="M50.6584 115.032C50.6584 115.032 47.9222 129.309 48.1983 128.703C48.4743 128.098 55.329 128.91 55.329 128.91L56.585 115.124L50.6584 115.032Z" fill="#FFB6B6"/>
<path d="M98.2544 112.632C86.175 114.847 75.2645 112.916 66.3745 103.817C66.3745 103.817 59.884 132.224 71.7196 135.214C83.5553 138.205 96.7272 133.065 98.2544 128.081C99.7816 123.098 98.2544 112.632 98.2544 112.632Z" fill="#2F2E41"/>
<path d="M75.7286 121.603L62.5567 162.126L56.448 208.973L64.4657 211.465L78.8071 168.356L98.2546 127.085L75.7286 121.603Z" fill="#2F2E41"/>
<path d="M74.0105 110.047C74.0105 110.047 70.9562 79.1476 65.2292 77.1541C62.4373 76.1823 59.8269 76.2764 57.8845 76.6282C55.9268 76.9827 54.3662 78.9351 54.0239 81.4761L48.8196 120.107H56.1789L58.5478 109.642L64.8475 124.001L74.0105 110.047Z" fill="#2F2E41"/>
<path d="M55.3025 124.998L48.0259 124.001L46.9031 129.483C46.9031 129.483 35.0674 143.437 41.1761 144.434C47.2849 145.431 53.0118 139.949 53.0118 139.949L61.415 133.656C61.415 133.656 58.166 122.35 55.8752 122.35C53.5845 122.35 55.3025 124.998 55.3025 124.998Z" fill="#2F2E41"/>
<path d="M59.1204 218.442L51.8438 217.446L50.7209 222.928C50.7209 222.928 38.8853 236.882 44.994 237.879C51.1027 238.876 56.8296 233.393 56.8296 233.393L65.2329 227.101C65.2329 227.101 64.6564 215.296 62.3657 215.296C60.0749 215.296 59.1204 218.442 59.1204 218.442Z" fill="#2F2E41"/>
<path d="M95.9647 142.997C95.0873 146.925 92.8235 149.518 90.9086 148.788C88.9937 148.059 88.1531 144.284 89.0312 140.355C89.3654 138.779 89.9839 137.331 90.8349 136.131L94.7134 119.55L100.636 122.092L96.1834 138.168C96.4069 139.777 96.332 141.433 95.9647 142.997Z" fill="#FFB6B6"/>
<path d="M100.064 41.3999L96.9757 40.263C94.0639 47.8255 92.8118 56.2921 93.358 64.726L94.8821 88.2592L89.8533 129.623L99.7097 132.952L107.477 81.0419L100.064 41.3999Z" fill="#E6E6E6"/>
<path d="M170.56 19.209C170.56 19.209 174.201 21.9963 173.007 24.7528C171.813 27.5092 170.148 31.2639 171.278 32.4464C172.407 33.6289 174.272 38.8425 174.272 38.8425C174.272 38.8425 182.23 37.3915 181.483 45.4614C180.736 53.5313 176.997 54.6315 180.202 58.1816C183.407 61.7318 176.871 65.9777 176.871 65.9777C176.871 65.9777 172.36 64.1425 171.33 58.4989C170.301 52.8553 172.248 62.8141 171.595 63.5282C170.942 64.2422 168.407 68.949 166.613 62.6911C164.819 56.4333 166.595 54.007 164.225 50.3136C161.854 46.6203 160.243 40.6465 160.313 39.6023C160.384 38.558 157.602 29.0292 161.884 25.313C166.166 21.5968 170.56 19.209 170.56 19.209Z" fill="#2F2E41"/>
<path d="M206.425 106.768C208.539 109.051 211.155 109.479 212.268 107.722C213.382 105.966 212.57 102.691 210.455 100.407C209.62 99.4796 208.627 98.8266 207.558 98.5029L198.508 88.974L195.173 94.6134L204.449 103.408C204.893 104.718 205.57 105.87 206.425 106.768Z" fill="#FFB6B6"/>
<path d="M179.299 54.7998C179.299 54.7998 172.197 48.5994 169.871 51.6397C167.545 54.6801 168.1 62.274 168.1 62.274L186.726 90.6094L201.496 102.864L205.456 94.7692L193.039 80.3061L179.299 54.7998Z" fill="#3F3D56"/>
<path d="M168.888 41.3687L171.465 53.3257H157.321L161.978 38.5929L168.888 41.3687Z" fill="#FFB6B6"/>
<path opacity="0.1" d="M168.888 41.3687L171.465 53.3257H157.321L161.978 38.5929L168.888 41.3687Z" fill="#3F3D56"/>
<path d="M138.042 129.651C137.859 133.225 139.124 136.245 140.867 136.396C142.609 136.548 144.169 133.773 144.351 130.198C144.439 128.771 144.264 127.337 143.84 126.017L144.468 110.861L139.013 110.628L138.974 125.594C138.419 126.83 138.1 128.221 138.042 129.651Z" fill="#FFB6B6"/>
<path d="M154.467 70.5351C154.467 70.5351 154.166 59.3885 150.916 58.7042C147.666 58.02 143.273 63.0498 143.273 63.0498L136.56 99.344L137.584 122.149L144.931 121.608L146.655 100.001L154.467 70.5351Z" fill="#3F3D56"/>
<path d="M185.974 203.74C185.974 203.74 191.319 216.698 190.937 216.2C190.555 215.701 184.065 218.692 184.065 218.692L180.247 205.734L185.974 203.74Z" fill="#FFB6B6"/>
<path d="M193.863 113.039C193.863 113.039 196.599 127.316 196.323 126.71C196.047 126.104 189.192 126.916 189.192 126.916L187.936 113.13L193.863 113.039Z" fill="#FFB6B6"/>
<path d="M172.611 49.3387H159.266L144.74 62.2964L140.54 107.648L142.831 116.619L147.03 127.085C147.03 127.085 142.831 104.16 153.139 113.13C163.447 122.101 164.211 123.596 164.211 123.596L177.956 114.625L183.11 77.4967L179.292 57.0635L172.611 49.3387Z" fill="#3F3D56"/>
<path d="M146.267 110.638C158.346 112.853 169.257 110.922 178.147 101.823C178.147 101.823 184.637 130.231 172.801 133.221C160.966 136.211 147.794 131.072 146.267 126.088C144.739 121.104 146.267 110.638 146.267 110.638Z" fill="#2F2E41"/>
<path d="M168.793 119.609L181.964 160.133L188.073 206.98L180.055 209.472L165.714 166.363L146.267 125.091L168.793 119.609Z" fill="#2F2E41"/>
<path d="M170.511 108.053C170.511 108.053 173.565 77.1541 179.292 75.1606C182.084 74.1888 184.694 74.2829 186.637 74.6347C188.594 74.9892 190.155 76.9417 190.497 79.4826L195.702 118.114H188.342L185.973 107.648L179.674 122.008L170.511 108.053Z" fill="#2F2E41"/>
<path d="M189.219 123.004L196.495 122.008L197.618 127.49C197.618 127.49 209.454 141.444 203.345 142.441C197.236 143.438 191.509 137.955 191.509 137.955L183.106 131.663C183.106 131.663 186.355 120.357 188.646 120.357C190.937 120.357 189.219 123.004 189.219 123.004Z" fill="#2F2E41"/>
<path d="M185.401 216.449L192.677 215.452L193.8 220.934C193.8 220.934 205.636 234.889 199.527 235.885C193.419 236.882 187.692 231.4 187.692 231.4L179.288 225.108C179.288 225.108 179.865 213.303 182.156 213.303C184.446 213.303 185.401 216.449 185.401 216.449Z" fill="#2F2E41"/>
<path d="M165.528 43.9671C170.232 43.9671 174.046 38.9889 174.046 32.8481C174.046 26.7073 170.232 21.7291 165.528 21.7291C160.823 21.7291 157.01 26.7073 157.01 32.8481C157.01 38.9889 160.823 43.9671 165.528 43.9671Z" fill="#FFB6B6"/>
<path d="M168.793 20.4319C168.793 20.4319 170.212 25.6208 167.941 26.7327C165.669 27.8446 162.546 29.3271 162.83 31.1802C163.114 33.0334 161.978 38.5929 161.978 38.5929C161.978 38.5929 168.793 44.1524 164.25 49.7119C159.707 55.2714 156.3 52.9804 157.009 58.3882C157.719 63.7959 150.621 61.5721 150.621 61.5721C150.621 61.5721 148.065 56.3833 150.053 51.1944C152.04 46.0056 148.633 55.2714 147.781 55.2714C146.93 55.2714 142.671 56.7539 144.374 50.4531C146.078 44.1524 148.633 43.7818 148.633 38.9635C148.633 34.1453 150.337 28.2152 150.905 27.4739C151.473 26.7327 154.028 17.0962 159.139 17.8375C164.25 18.5787 168.793 20.4319 168.793 20.4319Z" fill="#2F2E41"/>
<path d="M94.3425 203.74C94.3425 203.74 88.9973 216.698 89.3791 216.2C89.7609 215.701 96.2515 218.692 96.2515 218.692L100.069 205.734L94.3425 203.74Z" fill="#A0616A"/>
<path d="M134.049 110.638C121.97 112.853 111.059 110.922 102.169 101.823C102.169 101.823 95.6789 130.231 107.515 133.221C119.35 136.211 132.522 131.072 134.049 126.088C135.576 121.104 134.049 110.638 134.049 110.638Z" fill="#2F2E41"/>
<path d="M111.523 119.609L98.3514 160.133L92.2427 206.98L100.26 209.472L114.602 166.363L134.049 125.091L111.523 119.609Z" fill="#2F2E41"/>
<path d="M94.9153 216.449L87.6387 215.452L86.5159 220.934C86.5159 220.934 74.6802 234.889 80.7889 235.885C86.8976 236.882 92.6246 231.4 92.6246 231.4L101.028 225.108C101.028 225.108 100.451 213.303 98.1606 213.303C95.8698 213.303 94.9153 216.449 94.9153 216.449Z" fill="#2F2E41"/>
<path d="M106.412 196.923C106.412 196.923 104.39 211.401 104.635 210.773C104.881 210.146 111.761 210.376 111.761 210.376L112.33 196.513L106.412 196.923Z" fill="#A0616A"/>
<path d="M102.871 109.977L99.9189 153.828L105.18 200.85L113.396 199.992L116.849 153.21L125.594 106.12L102.871 109.977Z" fill="#2F2E41"/>
<path d="M109.96 208.781L102.803 210.763L103.03 216.43C103.03 216.43 95.0701 234.47 101.116 232.958C107.163 231.446 111.315 223.925 111.315 223.925L117.821 214.556C117.821 214.556 114.483 203.559 112.304 204.482C110.125 205.404 109.96 208.781 109.96 208.781Z" fill="#2F2E41"/>
<path d="M109.756 19.209C109.756 19.209 106.115 21.9963 107.309 24.7528C108.503 27.5092 110.168 31.2639 109.038 32.4464C107.909 33.6289 106.044 38.8425 106.044 38.8425C106.044 38.8425 98.0855 37.3915 98.8327 45.4614C99.5799 53.5313 103.319 54.6315 100.114 58.1816C96.9095 61.7318 103.445 65.9777 103.445 65.9777C103.445 65.9777 107.956 64.1425 108.986 58.4989C110.015 52.8553 108.068 62.8141 108.721 63.5282C109.374 64.2422 111.909 68.949 113.703 62.6911C115.497 56.4333 113.721 54.007 116.091 50.3136C118.462 46.6203 120.073 40.6465 120.003 39.6023C119.932 38.558 122.714 29.0292 118.432 25.313C114.15 21.5968 109.756 19.209 109.756 19.209Z" fill="#2F2E41"/>
<path d="M111.428 41.3687L108.851 53.3257H122.995L118.338 38.5929L111.428 41.3687Z" fill="#A0616A"/>
<path opacity="0.1" d="M111.428 41.3687L108.851 53.3257H122.995L118.338 38.5929L111.428 41.3687Z" fill="#3F3D56"/>
<path d="M142.274 129.651C142.457 133.225 141.192 136.245 139.45 136.396C137.707 136.548 136.147 133.773 135.965 130.198C135.877 128.771 136.052 127.337 136.476 126.017L135.849 110.861L141.304 110.628L141.343 125.594C141.897 126.83 142.216 128.221 142.274 129.651Z" fill="#A0616A"/>
<path d="M125.849 70.5351C125.849 70.5351 126.151 59.3885 129.4 58.7042C132.65 58.02 137.044 63.0498 137.044 63.0498L143.756 99.344L142.732 122.149L135.385 121.608L133.661 100.001L125.849 70.5351Z" fill="#E4A923"/>
<path d="M107.705 49.3387H121.05L135.576 62.2964L139.776 107.648L137.485 116.619L133.286 127.085C133.286 127.085 137.485 104.16 127.177 113.13C127.074 113.22 126.972 113.309 126.87 113.397C120.235 119.183 111.479 118.589 105.336 111.939L100.451 106.651L103.124 89.2084L101.024 57.0635L107.705 49.3387Z" fill="#E4A923"/>
<path d="M74.3133 106.118C72.1729 108.36 69.552 108.735 68.4593 106.957C67.3667 105.178 68.2161 101.92 70.3575 99.6784C71.2034 98.7675 72.2042 98.1343 73.2761 97.8317L82.4367 88.4835L85.7057 94.1884L76.328 102.798C75.8691 104.099 75.1783 105.237 74.3133 106.118Z" fill="#A0616A"/>
<path d="M102.041 54.6943C102.041 54.6943 109.215 48.6356 111.505 51.7217C113.795 54.8078 113.152 62.3899 113.152 62.3899L94.1976 90.3525L79.2871 102.313L75.4214 94.1403L88.0054 79.9251L102.041 54.6943Z" fill="#E4A923"/>
<path d="M114.788 43.9671C119.493 43.9671 123.306 38.9889 123.306 32.8481C123.306 26.7073 119.493 21.7291 114.788 21.7291C110.084 21.7291 106.27 26.7073 106.27 32.8481C106.27 38.9889 110.084 43.9671 114.788 43.9671Z" fill="#A0616A"/>
<path d="M110.548 25.3952C110.548 25.3952 109.293 19.9348 111.384 19.9348C113.476 19.9348 121.842 20.4809 122.679 21.5729C123.515 22.665 133.415 33.6251 127.559 42.3616C121.702 51.098 127.559 55.3192 127.559 55.3192C127.559 55.3192 131.881 68.5314 127.698 69.6235C123.515 70.7155 106.357 64.4711 110.548 54.3346C115.096 43.3344 117.212 25.9724 110.548 25.3952Z" fill="#2F2E41"/>
<path d="M63.8206 102.013L63.3898 84.2744C63.3828 83.9865 63.4695 83.7061 63.6277 83.5053C63.786 83.3044 64.0032 83.199 64.2237 83.2162L75.0071 84.0605C75.225 84.0774 75.4294 84.2134 75.568 84.4334C75.7066 84.6533 75.7693 84.9413 75.7401 85.2235L73.9159 102.854C73.8607 103.387 73.4952 103.777 73.0838 103.742L64.5554 103.006C64.4689 102.998 64.3865 102.973 64.3102 102.933C64.0285 102.784 63.8307 102.431 63.8206 102.013Z" fill="#E4A923"/>
<path d="M63.4032 82.615C63.5541 82.5943 63.7562 82.5688 63.9988 82.5422C63.9339 82.3845 63.9074 82.1981 63.9351 82.0067L64.1277 80.678C64.1777 80.3332 64.3905 80.0688 64.657 80.0223C66.2448 79.7452 71.706 78.9933 75.1448 81.0297C75.3599 81.1572 75.4983 81.437 75.5052 81.7452L75.5366 83.1627C75.5405 83.338 75.5015 83.5004 75.4331 83.6351C75.719 83.7354 76.004 83.8416 76.2866 83.9572C76.4638 84.0298 76.5905 84.2338 76.6118 84.4745L76.6653 85.0783C76.6992 85.4615 76.4585 85.7909 76.1638 85.7649L63.2719 84.6284C62.9786 84.6025 62.7742 84.2371 62.8448 83.8645L62.9934 83.0806C63.0412 82.8281 63.205 82.6422 63.4032 82.615Z" fill="#3F3D56"/>
<path d="M31.3682 51.6773L30.9374 33.9389C30.9304 33.651 31.0171 33.3706 31.1753 33.1698C31.3336 32.9689 31.5508 32.8635 31.7713 32.8807L42.5548 33.725C42.7726 33.7419 42.977 33.8779 43.1156 34.0979C43.2542 34.3178 43.3169 34.6058 43.2877 34.888L41.4635 52.5185C41.4083 53.052 41.0428 53.4419 40.6315 53.4062L32.103 52.6701C32.0165 52.6626 31.9341 52.6374 31.8578 52.5971C31.5761 52.4484 31.3783 52.095 31.3682 51.6773Z" fill="#E4A923"/>
<path d="M30.9508 32.2795C31.1017 32.2587 31.3038 32.2332 31.5464 32.2066C31.4815 32.049 31.455 31.8626 31.4827 31.6712L31.6753 30.3425C31.7253 29.9977 31.9381 29.7333 32.2046 29.6868C33.7924 29.4097 39.2536 28.6578 42.6924 30.6942C42.9075 30.8217 43.0459 31.1014 43.0528 31.4097L43.0843 32.8272C43.0881 33.0025 43.0491 33.1649 42.9807 33.2996C43.2666 33.3999 43.5516 33.506 43.8342 33.6217C44.0114 33.6942 44.1382 33.8983 44.1595 34.139L44.2129 34.7428C44.2468 35.1259 44.0061 35.4553 43.7114 35.4293L30.8195 34.2929C30.5262 34.267 30.3218 33.9016 30.3924 33.529L30.541 32.7451C30.5888 32.4926 30.7526 32.3067 30.9508 32.2795Z" fill="#3F3D56"/>
<path d="M200.503 106.498L200.072 88.7597C200.065 88.4718 200.152 88.1915 200.31 87.9907C200.469 87.7897 200.686 87.6844 200.906 87.7016L211.69 88.5458C211.908 88.5627 212.112 88.6987 212.251 88.9188C212.389 89.1387 212.452 89.4267 212.423 89.7089L210.599 107.339C210.543 107.873 210.178 108.263 209.766 108.227L201.238 107.491C201.151 107.483 201.069 107.458 200.993 107.418C200.711 107.269 200.513 106.916 200.503 106.498Z" fill="#E4A923"/>
<path d="M200.086 87.1003C200.237 87.0796 200.439 87.0541 200.681 87.0275C200.617 86.8699 200.59 86.6834 200.618 86.4921L200.81 85.1634C200.86 84.8185 201.073 84.5542 201.34 84.5077C202.927 84.2305 208.389 83.4786 211.827 85.5151C212.043 85.6425 212.181 85.9223 212.188 86.2306L212.219 87.6481C212.223 87.8233 212.184 87.9858 212.116 88.1204C212.402 88.2208 212.687 88.3269 212.969 88.4426C213.146 88.5151 213.273 88.7192 213.294 88.9599L213.348 89.5637C213.382 89.9468 213.141 90.2762 212.846 90.2502L199.955 89.1137C199.661 89.0879 199.457 88.7224 199.527 88.3498L199.676 87.566C199.724 87.3134 199.888 87.1276 200.086 87.1003Z" fill="#3F3D56"/>
</svg>
