<svg width="252" height="238" viewBox="0 0 252 238" fill="none" xmlns="http://www.w3.org/2000/svg">
<g clip-path="url(#clip0_13_223)">
<path d="M252 236.745H81.9463V237.478H252V236.745Z" fill="#3F3D56"/>
<path d="M220.264 112.13C220.591 112.514 220.834 112.963 220.977 113.447C221.12 113.931 221.159 114.44 221.093 114.94C221.026 115.44 220.855 115.921 220.591 116.351C220.327 116.781 219.975 117.151 219.559 117.437L201.959 129.509L194.21 134.671C193.77 134.964 193.236 135.083 192.713 135.005C192.189 134.927 191.714 134.657 191.379 134.248C191.184 134.009 191.043 133.731 190.965 133.433C190.888 133.135 190.877 132.823 190.932 132.52C190.987 132.217 191.107 131.929 191.284 131.677C191.462 131.425 191.691 131.214 191.958 131.059L199.464 126.704L212.564 114.239L204.143 105.202L210.381 100.527L220.264 112.13Z" fill="#A0616A"/>
<path d="M178.879 225.803H174.574L172.017 190.277L182.933 189.966L178.879 225.803Z" fill="#A0616A"/>
<path d="M179.191 237.334C178.043 237.857 177.081 233.616 176.113 234.567C173.405 237.226 169.257 237.805 165.642 236.644L166.908 236.63C166.689 236.56 166.488 236.447 166.315 236.296C166.142 236.146 166.001 235.962 165.902 235.756C165.802 235.55 165.745 235.326 165.734 235.097C165.724 234.869 165.76 234.64 165.84 234.426C165.937 234.169 166.094 233.94 166.299 233.758C166.503 233.575 166.749 233.445 167.015 233.379L169.895 232.659L174.418 224.713L179.035 224.401C180.064 225.712 180.782 227.239 181.136 228.868C181.489 230.496 181.468 232.183 181.075 233.803C180.656 235.511 180.009 236.961 179.191 237.334Z" fill="#2F2E41"/>
<path d="M207.543 225.803H203.238L200.681 190.277L211.909 188.096L207.543 225.803Z" fill="#A0616A"/>
<path d="M207.855 237.334C206.707 237.857 205.745 233.616 204.777 234.567C202.069 237.226 197.921 237.805 194.306 236.644L195.572 236.63C195.353 236.56 195.152 236.446 194.979 236.296C194.806 236.146 194.665 235.962 194.566 235.756C194.466 235.55 194.409 235.326 194.398 235.097C194.388 234.869 194.424 234.64 194.504 234.426C194.601 234.169 194.758 233.94 194.963 233.758C195.167 233.575 195.413 233.445 195.679 233.379L198.559 232.659L203.082 224.713L208.011 224.089L208.135 224.293C209.088 225.827 209.702 227.547 209.937 229.337C210.172 231.128 210.022 232.947 209.497 234.675C209.087 235.988 208.529 237.026 207.855 237.334Z" fill="#2F2E41"/>
<path d="M212.424 101.331C208.465 101.881 205.724 104.048 204.608 108.369L197.331 94.9446C196.9 94.0915 196.79 93.1115 197.023 92.1844C197.256 91.2573 197.815 90.445 198.599 89.8965C199.431 89.3143 200.453 89.0718 201.458 89.2187C202.463 89.3657 203.373 89.8909 204.003 90.6868L212.424 101.331Z" fill="#E4A923"/>
<path d="M220.05 186.538C202.356 194.36 184.249 195.322 165.779 190.277C172.524 164.141 180.487 140.508 180.438 121.095L198.529 119.537L201.314 123.949C207.922 134.417 212.484 146.042 214.757 158.208L220.05 186.538Z" fill="#2F2E41"/>
<path d="M190.419 80.8946C195.587 80.8946 199.776 76.7089 199.776 71.5457C199.776 66.3824 195.587 62.1967 190.419 62.1967C185.251 62.1967 181.062 66.3824 181.062 71.5457C181.062 76.7089 185.251 80.8946 190.419 80.8946Z" fill="#A0616A"/>
<path d="M200.712 88.062L189.172 88.6853L187.3 78.4014L196.657 76.8435L200.712 88.062Z" fill="#A0616A"/>
<path d="M199.464 121.095L186.821 121.451L180.438 122.342C177.305 112.001 174.667 101.684 181.062 93.0483L188.548 85.5691L199.776 85.2575L199.925 85.3424C201.708 86.3632 203.09 87.9604 203.843 89.8709C204.596 91.7815 204.675 93.8913 204.068 95.8528C201.281 104.9 199.491 113.443 199.464 121.095Z" fill="#E4A923"/>
<path d="M180.126 150.077L179.342 160.786C179.3 161.359 179.052 161.898 178.644 162.304C178.235 162.709 177.694 162.953 177.12 162.992C176.789 163.014 176.457 162.967 176.145 162.853C175.834 162.74 175.549 162.563 175.309 162.334C175.07 162.105 174.881 161.828 174.754 161.522C174.628 161.215 174.567 160.886 174.574 160.555L174.824 150.077L182.622 120.472L182.934 102.397L191.667 102.086L191.043 122.965L180.126 150.077Z" fill="#A0616A"/>
<path d="M192.603 103.644C188.9 102.139 185.442 102.643 182.31 105.825L182.739 90.5644C182.793 89.61 183.189 88.7071 183.856 88.0211C184.522 87.335 185.413 86.9118 186.366 86.829C187.378 86.7412 188.385 87.0431 189.181 87.6729C189.977 88.3028 190.502 89.2129 190.648 90.2169L192.603 103.644Z" fill="#E4A923"/>
<path d="M210.225 113.149H181.53C188.224 95.438 190.383 78.962 181.53 64.8456C181.682 60.6057 187.125 56.9301 191.352 57.3362C196.344 57.8157 203.052 61.481 203.987 66.4038L210.225 113.149Z" fill="#2F2E41"/>
<path d="M118.776 56.5577H117.467V20.7339C117.467 18.0111 116.93 15.3149 115.887 12.7994C114.844 10.2838 113.316 7.99814 111.389 6.07282C109.462 4.1475 107.174 2.62025 104.656 1.57828C102.139 0.536313 99.4401 2.23581e-05 96.7149 3.05177e-05H20.7518C18.0266 2.45053e-05 15.3282 0.536319 12.8104 1.57829C10.2927 2.62026 8.00504 4.14751 6.07806 6.07283C4.15108 7.99815 2.62251 10.2838 1.57963 12.7994C0.536756 15.3149 -3.00876e-06 18.0111 0 20.7339V217.266C-2.14911e-06 219.989 0.536756 222.685 1.57963 225.201C2.62251 227.716 4.15108 230.002 6.07806 231.927C8.00504 233.853 10.2927 235.38 12.8104 236.422C15.3282 237.464 18.0266 238 20.7518 238H96.7149C99.4401 238 102.139 237.464 104.656 236.422C107.174 235.38 109.462 233.853 111.389 231.927C113.316 230.002 114.844 227.716 115.887 225.201C116.93 222.685 117.467 219.989 117.467 217.266V82.0577H118.776V56.5577Z" fill="#3F3D56"/>
<path d="M97.5523 5.39426H87.6365C88.0925 6.51125 88.2666 7.72315 88.1434 8.92319C88.0202 10.1232 87.6035 11.2746 86.93 12.2758C86.2566 13.2771 85.347 14.0975 84.2815 14.6647C83.2159 15.232 82.0271 15.5288 80.8197 15.5289H37.3014C36.094 15.5288 34.9052 15.232 33.8396 14.6647C32.7741 14.0975 31.8645 13.2771 31.1911 12.2758C30.5176 11.2746 30.1009 10.1232 29.9777 8.92319C29.8545 7.72315 30.0286 6.51125 30.4846 5.39426H21.2233C19.1882 5.39425 17.173 5.79475 15.2928 6.57288C13.4126 7.35101 11.7042 8.49154 10.2651 9.92935C8.82606 11.3671 7.68454 13.0741 6.90573 14.9526C6.12692 16.8312 5.72608 18.8447 5.72607 20.878V217.122C5.72607 219.155 6.12692 221.169 6.90573 223.047C7.68454 224.926 8.82605 226.633 10.2651 228.071C11.7041 229.508 13.4126 230.649 15.2928 231.427C17.173 232.205 19.1882 232.606 21.2233 232.606H97.5523C99.5874 232.606 101.603 232.205 103.483 231.427C105.363 230.649 107.071 229.508 108.51 228.071C109.949 226.633 111.091 224.926 111.87 223.047C112.649 221.169 113.049 219.155 113.049 217.122V20.878C113.049 16.7715 111.417 12.8331 108.51 9.92934C105.604 7.02557 101.662 5.39425 97.5523 5.39426Z" fill="white"/>
<path d="M99.6462 36.049H19.1292V105.051H99.6462V36.049Z" fill="#E6E6E6"/>
<path d="M43.0226 119.44C46.2764 119.44 48.9141 116.804 48.9141 113.553C48.9141 110.302 46.2764 107.667 43.0226 107.667C39.7688 107.667 37.1311 110.302 37.1311 113.553C37.1311 116.804 39.7688 119.44 43.0226 119.44Z" fill="#E4A923"/>
<path d="M45.9684 113.063H43.5136V110.61H42.5317V113.063H40.0769V114.044H42.5317V116.497H43.5136V114.044H45.9684V113.063Z" fill="white"/>
<path d="M74.1166 119.44C77.3704 119.44 80.0081 116.804 80.0081 113.553C80.0081 110.302 77.3704 107.667 74.1166 107.667C70.8628 107.667 68.2251 110.302 68.2251 113.553C68.2251 116.804 70.8628 119.44 74.1166 119.44Z" fill="#E4A923"/>
<path d="M77.0623 114.044V113.063H71.1708V114.044H77.0623Z" fill="white"/>
<path d="M99.6462 133.175H19.1292V202.176H99.6462V133.175Z" fill="#E6E6E6"/>
<path d="M43.0226 216.566C46.2764 216.566 48.9141 213.93 48.9141 210.679C48.9141 207.428 46.2764 204.793 43.0226 204.793C39.7688 204.793 37.1311 207.428 37.1311 210.679C37.1311 213.93 39.7688 216.566 43.0226 216.566Z" fill="#E4A923"/>
<path d="M45.9684 210.189H43.5136V207.736H42.5317V210.189H40.0769V211.17H42.5317V213.622H43.5136V211.17H45.9684V210.189Z" fill="white"/>
<path d="M74.1166 216.566C77.3704 216.566 80.0081 213.93 80.0081 210.679C80.0081 207.428 77.3704 204.793 74.1166 204.793C70.8628 204.793 68.2251 207.428 68.2251 210.679C68.2251 213.93 70.8628 216.566 74.1166 216.566Z" fill="#E4A923"/>
<path d="M77.0623 211.17V210.189H71.1708V211.17H77.0623Z" fill="white"/>
<path d="M57.4792 44.4026C58.4504 44.5005 59.4277 44.5232 60.4025 44.4708C60.5686 44.4526 60.7353 44.5004 60.8665 44.6039C60.9978 44.7074 61.0831 44.8583 61.1042 45.0242L62.9689 59.0112C63.1123 60.0265 63.528 60.9841 64.1719 61.7821C64.7027 62.4173 65.0973 63.1547 65.3311 63.9487C65.565 64.7427 65.6331 65.5763 65.5313 66.3977V90.1572C65.5313 90.1572 65.6516 93.3251 63.2175 93.3251C60.3043 93.6912 57.3567 93.6912 54.4435 93.3251C54.4435 93.3251 52.4946 92.9562 52.4946 90.0329V66.6383C52.346 65.8221 52.3766 64.9833 52.5843 64.1801C52.792 63.3769 53.1719 62.6284 53.6977 61.9866C54.3199 61.1857 54.7222 60.236 54.8646 59.2318L56.8014 44.952C56.8234 44.7914 56.9057 44.6453 57.0316 44.5432C57.1575 44.4412 57.3175 44.3909 57.4792 44.4026Z" fill="white"/>
<path d="M58.8391 94C60.3115 94.0001 61.7824 93.9086 63.2434 93.7261C63.5699 93.7338 63.8944 93.6739 64.1966 93.5502C64.4988 93.4265 64.7721 93.2417 64.9995 93.0073C65.9901 91.9785 65.9349 90.2165 65.9321 90.1419L65.9324 66.4221C66.0357 65.55 65.9603 64.666 65.7105 63.824C65.4607 62.982 65.0419 62.1998 64.4797 61.5251C63.8837 60.7845 63.4989 59.8966 63.3661 58.9552L61.5018 44.9712C61.4655 44.7022 61.3259 44.4579 61.1125 44.2901C60.8992 44.1223 60.6289 44.0442 60.359 44.0722C59.4121 44.1222 58.4628 44.0993 57.5194 44.0037L57.5082 44.0027C57.2449 43.9836 56.9842 44.0655 56.7792 44.2317C56.5741 44.3979 56.4401 44.636 56.4043 44.8976L54.4673 59.178C54.3341 60.1121 53.9598 60.9953 53.3811 61.7405C52.8238 62.4216 52.4202 63.215 52.198 64.0665C51.9758 64.918 51.9402 65.8074 52.0937 66.674V90.0328C52.0937 93.2511 54.3463 93.7149 54.3691 93.7192C55.8518 93.9061 57.3447 93.9999 58.8391 94ZM60.4571 44.8695C60.5167 44.8667 60.5753 44.8861 60.6214 44.924C60.6675 44.962 60.6978 45.0157 60.7065 45.0747L62.5715 59.0643C62.7249 60.1524 63.1701 61.1786 63.8599 62.034C64.3557 62.628 64.7245 63.3172 64.9436 64.0593C65.1626 64.8013 65.2272 65.5803 65.1334 66.3483L65.1304 66.3977V90.1572C65.1312 90.1867 65.1737 91.6725 64.4199 92.4529C64.2639 92.6117 64.0762 92.7357 63.869 92.8169C63.6618 92.8981 63.4399 92.9347 63.2176 92.9243L63.1675 92.9274C60.2875 93.2888 57.3736 93.2888 54.4936 92.9274C54.4556 92.918 52.8957 92.5622 52.8957 90.0328L52.8893 66.5665C52.7504 65.8075 52.7786 65.0273 52.9718 64.2803C53.165 63.5333 53.5186 62.8373 54.008 62.2408C54.676 61.3826 55.1082 60.3647 55.2616 59.2881L57.1988 45.0058C57.2074 44.9472 57.2374 44.8939 57.2831 44.8563C57.3288 44.8187 57.3869 44.7995 57.446 44.8024C58.4355 44.9014 59.431 44.9244 60.424 44.8713C60.435 44.8701 60.446 44.8696 60.4571 44.8695Z" fill="#3F3D56"/>
<path d="M60.4227 66.8229H57.4673C56.8854 66.8229 56.3092 66.9375 55.7716 67.1602C55.234 67.3829 54.7455 67.7093 54.334 68.1207C53.9225 68.5322 53.5962 69.0207 53.3735 69.5583C53.1508 70.0959 53.0362 70.6721 53.0362 71.254V82.3738C53.0362 83.549 53.503 84.6761 54.334 85.5071C55.165 86.3381 56.2921 86.8049 57.4673 86.8049H60.4227C61.0046 86.8049 61.5808 86.6903 62.1184 86.4676C62.656 86.2449 63.1445 85.9186 63.556 85.5071C63.9674 85.0956 64.2938 84.6071 64.5165 84.0695C64.7392 83.5319 64.8538 82.9557 64.8538 82.3738V71.254C64.8538 70.0788 64.3869 68.9517 63.5559 68.1207C62.7249 67.2897 61.5979 66.8229 60.4227 66.8229Z" fill="#E4A923"/>
<path d="M49.3225 153.012C49.0229 153.012 48.7266 153.074 48.4523 153.195C48.1779 153.315 47.9315 153.491 47.7285 153.711C47.5255 153.931 47.3705 154.191 47.2731 154.475C47.1756 154.758 47.138 155.058 47.1626 155.357C50.4713 163.909 50.0232 173.809 49.5998 185.01C49.6471 185.552 49.8948 186.056 50.2944 186.424C50.6939 186.792 51.2165 186.997 51.7597 187H65.7419C66.2851 186.997 66.8077 186.792 67.2073 186.424C67.6068 186.056 67.8545 185.552 67.9019 185.01C66.7661 174.128 67.3789 164.142 70.3391 155.357C70.3636 155.058 70.326 154.758 70.2286 154.475C70.1312 154.191 69.9761 153.931 69.7731 153.711C69.5702 153.491 69.3237 153.315 69.0494 153.195C68.775 153.074 68.4787 153.012 68.1792 153.012H49.3225Z" fill="#E4A923"/>
<path d="M71.4587 156.965L70.4156 152.01C70.3207 151.559 70.0738 151.155 69.7162 150.865C69.3586 150.574 68.9122 150.416 68.4517 150.416H61.9396C61.9141 150.33 61.8726 150.249 61.8172 150.178L61.0936 149.273C61.0254 149.188 60.939 149.119 60.8406 149.072C60.7422 149.025 60.6344 149 60.5253 149H56.5044C56.3953 149 56.2875 149.025 56.1891 149.072C56.0908 149.119 56.0043 149.188 55.9361 149.273L55.2125 150.178C55.1571 150.249 55.1156 150.33 55.0901 150.416H49.0501C48.5896 150.416 48.1431 150.574 47.7856 150.865C47.428 151.155 47.1811 151.559 47.0862 152.01L46.0431 156.965C45.9815 157.257 45.986 157.559 46.0561 157.85C46.1263 158.14 46.2603 158.411 46.4485 158.643C46.6366 158.875 46.8742 159.062 47.1438 159.19C47.4134 159.318 47.7083 159.385 48.0069 159.385C54.6695 162.803 61.8199 162.887 69.4949 159.385C69.7935 159.385 70.0884 159.318 70.358 159.19C70.6276 159.062 70.8651 158.875 71.0533 158.643C71.2415 158.411 71.3755 158.14 71.4456 157.85C71.5158 157.559 71.5203 157.257 71.4587 156.965Z" fill="#3F3D56"/>
</g>
<defs>
<clipPath id="clip0_13_223">
<rect width="252" height="238" fill="white"/>
</clipPath>
</defs>
</svg>
