<svg width="241" height="237" viewBox="0 0 241 237" fill="none" xmlns="http://www.w3.org/2000/svg">
<path opacity="0.16" d="M122.224 236.786C165.8 236.786 201.126 232.469 201.126 227.145C201.126 221.82 165.8 217.503 122.224 217.503C78.6482 217.503 43.3228 221.82 43.3228 227.145C43.3228 232.469 78.6482 236.786 122.224 236.786Z" fill="black"/>
<path opacity="0.07" d="M201.373 25.818C195.982 20.9839 190.133 16.6882 183.909 12.9919L132.563 90.2885L202.335 26.7043C202.021 26.4055 201.702 26.122 201.373 25.818ZM155.423 1.80454C147.416 0.134272 139.187 -0.180991 131.077 0.871832L132.563 90.2833L155.423 1.80454ZM101.608 12.4457C96.7036 15.8959 92.2156 19.9043 88.2336 24.3906C86.8414 25.9537 85.4097 27.5203 83.9385 29.0902L132.569 90.2936L101.608 12.4457ZM59.4846 51.7227C56.1501 54.3111 52.6873 56.7293 49.1095 58.9679C41.4091 63.7397 33.1018 67.2799 25.3088 73.3657L132.563 90.2936L59.4846 51.7227ZM0.638916 122.902C-0.302409 136.852 2.33639 151.951 7.44424 165.606L132.563 90.2936L0.638916 122.902ZM132.563 90.2936L43.2403 208.727C56.2337 214.396 71.8556 215.426 88.0433 214.179L132.563 90.2936ZM132.563 90.2936L136.812 206.383C145.994 205.399 157.208 205.703 168.822 205.203L132.563 90.2936ZM232.838 170.734L132.563 90.2936L210.637 195.731C219.726 190.635 227.54 182.807 232.838 170.734ZM237.081 101.357L132.563 90.2936L240.137 129.318C239.708 119.943 238.687 110.604 237.081 101.357ZM220.153 49.9912L132.563 90.2936L229.345 70.8767C226.871 63.669 223.796 56.6825 220.153 49.9912Z" fill="black"/>
<path d="M223.219 163.339C223.219 163.339 217.669 161.458 216.018 160.309C214.367 159.16 210.143 154.914 209.161 151.641C208.313 148.621 207.75 145.528 207.479 142.402C207.232 139.867 206.172 139.212 204.619 141.175C203.065 143.139 202.561 146.329 202.988 148.39C203.415 150.451 204.701 152.806 204.531 153.218C204.362 153.631 204.12 154.445 204.12 154.445C204.12 154.445 199.141 153.873 196.368 153.218C193.596 152.564 191.389 152.317 191.224 153.625C191.06 154.934 191.631 156.98 191.795 158.371C191.96 159.763 194.079 165.895 195.144 167.281C195.898 168.36 196.773 169.349 197.752 170.229C198.405 170.718 198.405 171.125 199.959 171.29C201.275 171.408 202.583 171.599 203.878 171.862C204.449 172.027 205.02 172.599 207.715 172.517C209.409 172.458 211.098 172.295 212.772 172.027L220.853 175.047L223.219 163.339Z" fill="white" stroke="#263238" stroke-width="0.258086" stroke-miterlimit="10"/>
<path d="M220.606 161.783L217.257 176.34L222.73 178.546L225.503 163.421L220.606 161.783Z" fill="white" stroke="#263238" stroke-width="0.258086" stroke-miterlimit="10"/>
<path d="M234.391 164.565L223.708 161.948L219.788 179.283L234.33 186.08L234.391 184.765V164.565Z" fill="#263238" stroke="#263238" stroke-width="0.258086" stroke-miterlimit="10"/>
<path d="M203.791 155.161C203.791 155.161 203.056 159.588 203.056 160.618C203.056 161.649 205.34 164.545 206.142 164.705" stroke="#263238" stroke-width="0.258086" stroke-miterlimit="10"/>
<path d="M202.155 166.287C202.155 166.287 203.302 166.694 202.973 167.678C202.643 168.662 200.195 170.048 199.053 170.703C197.911 171.357 197.51 171.275 196.198 170.538C195.428 170.111 194.844 169.411 194.562 168.575C195.385 168.554 196.205 168.473 197.016 168.332L202.155 166.287Z" fill="white" stroke="#263238" stroke-width="0.258086" stroke-miterlimit="10"/>
<path d="M192.768 164.153C192.768 164.153 192.768 167.915 193.668 168.245C194.527 168.577 195.442 168.743 196.363 168.734C196.934 168.652 200.771 167.343 201.507 166.853C202.243 166.364 202.978 165.307 202.572 164.318L202.16 163.339C200.92 163.552 199.664 163.66 198.405 163.664C196.348 163.664 192.937 163.009 192.69 163.257C192.444 163.504 192.768 164.153 192.768 164.153Z" fill="white" stroke="#263238" stroke-width="0.258086" stroke-miterlimit="10"/>
<path d="M191.533 159.072C191.37 159.176 191.238 159.323 191.152 159.496C191.066 159.67 191.029 159.863 191.044 160.057C191.044 160.793 190.067 162.999 191.209 163.736C192.351 164.473 195.941 165.045 196.677 165.045C197.412 165.045 201.738 163.499 202.145 163.329C202.551 163.159 202.556 161.69 202.392 161.118C202.227 160.546 200.761 160.381 200.761 160.381C200.761 160.381 194.485 160.232 191.533 159.072Z" fill="white" stroke="#263238" stroke-width="0.258086" stroke-miterlimit="10"/>
<path d="M193.667 154.094C193.667 154.094 196.281 156.058 196.754 156.223L200.756 157.614C200.756 157.614 201.27 157.856 201.27 158.84C201.261 159.264 201.1 159.671 200.817 159.986C200.534 160.301 200.147 160.503 199.727 160.556C198.914 160.721 195.972 161.211 194.912 160.804C193.468 160.088 192.077 159.268 190.751 158.351C190.015 157.836 189.933 157.202 190.339 156.29C190.693 155.408 190.993 154.507 191.24 153.589" fill="white"/>
<path d="M193.667 154.094C193.667 154.094 196.281 156.058 196.754 156.223L200.756 157.614C200.756 157.614 201.27 157.856 201.27 158.84C201.261 159.264 201.1 159.671 200.817 159.986C200.534 160.301 200.147 160.503 199.727 160.556C198.914 160.721 195.972 161.211 194.912 160.804C193.468 160.088 192.077 159.268 190.751 158.351C190.015 157.836 189.933 157.202 190.339 156.29C190.693 155.408 190.993 154.507 191.24 153.589" stroke="#263238" stroke-width="0.258086" stroke-miterlimit="10"/>
<path d="M206.965 36.8816C206.965 36.8816 201.353 38.5873 199.362 38.6079C197.371 38.6285 191.446 37.6443 188.75 35.5521C186.298 33.5988 184.035 31.418 181.991 29.0386C180.319 27.1165 179.075 27.2041 178.951 29.7033C178.828 32.2026 180.283 35.0832 181.806 36.5106C183.329 37.938 185.762 39.0871 185.87 39.5303C185.978 39.9735 186.25 40.7671 186.25 40.7671C186.25 40.7671 181.868 43.2045 179.229 44.2866C176.59 45.3688 174.656 46.4612 175.284 47.6207C175.911 48.7801 177.562 50.1096 178.504 51.1454C179.445 52.1812 184.733 55.9275 186.405 56.4428C187.645 56.8768 188.931 57.169 190.237 57.3137C191.055 57.3137 191.265 57.6641 192.649 56.8963C193.786 56.222 194.96 55.6146 196.168 55.0772C196.728 54.8763 197.526 55.0102 199.665 53.3716C201.011 52.3357 202.291 51.217 203.498 50.022L211.831 47.7701L206.965 36.8816Z" fill="white" stroke="#263238" stroke-width="0.258086" stroke-miterlimit="10"/>
<path d="M203.93 37.1393L209.665 50.929L215.395 49.5377L208.863 35.614L203.93 37.1393Z" fill="white" stroke="#263238" stroke-width="0.258086" stroke-miterlimit="10"/>
<path d="M216.758 31.3679L206.548 35.4646L213.43 51.8464L229.201 48.8988L228.492 47.796L216.758 31.3679Z" fill="#263238" stroke="#263238" stroke-width="0.258086" stroke-miterlimit="10"/>
<path d="M186.389 41.5813C186.389 41.5813 188.359 45.6007 188.961 46.4664C189.563 47.3322 193.076 48.3267 193.858 47.9815" stroke="#263238" stroke-width="0.258086" stroke-miterlimit="10"/>
<path d="M191.533 51.5524C191.533 51.5524 192.701 51.2174 193.004 52.2068C193.308 53.1962 192.125 55.7522 191.574 56.9529C191.024 58.1535 190.648 58.3236 189.157 58.4988C188.282 58.6026 187.4 58.3727 186.688 57.8546C187.345 57.3594 187.964 56.8151 188.539 56.2263L191.533 51.5524Z" fill="white" stroke="#263238" stroke-width="0.258086" stroke-miterlimit="10"/>
<path d="M182.67 55.2936C182.67 55.2936 184.851 58.3545 185.756 58.0969C186.648 57.8654 187.489 57.4687 188.236 56.9271C188.652 56.5252 191.013 53.2272 191.322 52.3976C191.631 51.5679 191.615 50.2796 190.715 49.7179L189.815 49.1562C188.929 50.0536 187.971 50.8758 186.95 51.6143C185.288 52.7995 182.12 54.2681 182.063 54.6082C182.006 54.9483 182.67 55.2936 182.67 55.2936Z" fill="white" stroke="#263238" stroke-width="0.258086" stroke-miterlimit="10"/>
<path d="M178.725 51.8875C178.654 52.0677 178.632 52.2638 178.663 52.4552C178.694 52.6466 178.776 52.8261 178.9 52.9748C179.327 53.5725 179.81 55.9378 181.168 55.8708C182.526 55.8038 185.798 54.1754 186.379 53.7477C186.96 53.32 189.589 49.5325 189.83 49.1615C190.072 48.7904 189.208 47.6155 188.745 47.2239C188.282 46.8323 186.991 47.5795 186.991 47.5795C186.991 47.5795 181.76 51.1042 178.725 51.8875Z" fill="white" stroke="#263238" stroke-width="0.258086" stroke-miterlimit="10"/>
<path d="M177.557 46.5901C177.557 46.5901 180.818 46.6623 181.312 46.5128C181.806 46.3634 185.376 45.3122 185.376 45.3122C185.376 45.3122 185.916 45.2246 186.487 46.0233C186.727 46.3739 186.833 46.8001 186.784 47.2228C186.735 47.6454 186.534 48.0359 186.219 48.3216C185.653 48.9348 183.549 51.0424 182.449 51.331C180.856 51.5909 179.247 51.7355 177.634 51.7639C176.754 51.7639 176.307 51.3052 176.091 50.3364C175.865 49.4155 175.585 48.5087 175.252 47.6208" fill="white"/>
<path d="M177.557 46.5901C177.557 46.5901 180.818 46.6623 181.312 46.5128C181.806 46.3634 185.376 45.3122 185.376 45.3122C185.376 45.3122 185.916 45.2246 186.487 46.0233C186.727 46.3739 186.833 46.8001 186.784 47.2228C186.735 47.6454 186.534 48.0359 186.219 48.3216C185.653 48.9348 183.549 51.0424 182.449 51.331C180.856 51.5909 179.247 51.7355 177.634 51.7639C176.754 51.7639 176.307 51.3052 176.091 50.3364C175.865 49.4155 175.585 48.5087 175.252 47.6208" stroke="#263238" stroke-width="0.258086" stroke-miterlimit="10"/>
<path d="M27.3613 161.489C27.3613 161.489 32.9115 159.608 34.5627 158.464C36.2139 157.32 40.4216 153.064 41.3989 149.796C42.2614 146.778 42.8366 143.684 43.117 140.557C43.3587 138.022 44.4235 137.367 45.9718 139.331C47.5201 141.294 48.0293 144.484 47.6024 146.545C47.1755 148.606 45.8895 150.961 46.0592 151.368C46.229 151.775 46.4656 152.595 46.4656 152.595C46.4656 152.595 51.4449 152.023 54.2225 151.368C57.0002 150.714 59.2018 150.466 59.3664 151.775C59.531 153.084 58.9549 155.13 58.7954 156.521C58.636 157.913 56.5064 164.045 55.4468 165.436C54.691 166.514 53.8143 167.501 52.8337 168.379C52.1804 168.894 52.1804 169.28 50.6321 169.44C49.3163 169.561 48.0079 169.752 46.7125 170.012C46.1415 170.177 45.5706 170.749 42.8752 170.667C41.1795 170.608 39.4891 170.445 37.8136 170.177L29.7326 173.202L27.3613 161.489Z" fill="white" stroke="#263238" stroke-width="0.258086" stroke-miterlimit="10"/>
<path d="M29.9744 159.933L33.3179 174.49L27.8499 176.701L25.0723 161.571L29.9744 159.933Z" fill="white" stroke="#263238" stroke-width="0.258086" stroke-miterlimit="10"/>
<path d="M16.1836 162.715L26.8674 160.097L30.787 177.432L16.2505 184.229L16.1836 182.915V162.715Z" fill="#263238" stroke="#263238" stroke-width="0.258086" stroke-miterlimit="10"/>
<path d="M46.7897 153.311C46.7897 153.311 47.5253 157.727 47.5253 158.789C47.5253 159.85 45.2363 162.715 44.439 162.88" stroke="#263238" stroke-width="0.258086" stroke-miterlimit="10"/>
<path d="M48.4202 164.431C48.4202 164.431 47.2783 164.844 47.6023 165.823C47.9264 166.802 50.38 168.193 51.5219 168.848C52.6639 169.502 53.0651 169.42 54.3819 168.683C55.1523 168.259 55.7347 167.56 56.0125 166.725C55.1913 166.705 54.3728 166.622 53.5641 166.477L48.4202 164.431Z" fill="white" stroke="#263238" stroke-width="0.258086" stroke-miterlimit="10"/>
<path d="M57.7927 162.308C57.7927 162.308 57.7927 166.07 56.8977 166.395C56.0405 166.738 55.1254 166.913 54.2023 166.91C53.6313 166.827 49.794 165.524 49.0584 165.029C48.3229 164.534 47.5873 163.483 47.9988 162.494L48.4052 161.515C49.6456 161.727 50.9017 161.836 52.1602 161.839C54.2177 161.839 57.6281 161.185 57.875 161.432C58.1219 161.679 57.7927 162.308 57.7927 162.308Z" fill="white" stroke="#263238" stroke-width="0.258086" stroke-miterlimit="10"/>
<path d="M59.0324 157.238C59.2021 157.335 59.3407 157.479 59.4318 157.652C59.5229 157.825 59.5628 158.021 59.5467 158.217C59.5467 158.954 60.5292 161.159 59.3873 161.896C58.2453 162.633 54.6241 163.195 53.8885 163.195C53.1529 163.195 48.8269 161.649 48.4206 161.479C48.0142 161.309 48.0142 159.84 48.1788 159.268C48.3434 158.696 49.8094 158.536 49.8094 158.536C49.8094 158.536 56.0952 158.382 59.0324 157.238Z" fill="white" stroke="#263238" stroke-width="0.258086" stroke-miterlimit="10"/>
<path d="M56.9127 152.249C56.9127 152.249 54.2996 154.208 53.8264 154.373C53.3531 154.537 49.8244 155.764 49.8244 155.764C49.8244 155.764 49.3101 156.011 49.3101 156.99C49.318 157.414 49.4785 157.822 49.7619 158.137C50.0454 158.452 50.4329 158.654 50.8532 158.706C51.6711 158.871 54.6082 159.361 55.673 158.954C57.1235 158.238 58.5195 157.416 59.8498 156.496C60.5854 156.006 60.6677 155.352 60.2562 154.434C59.9054 153.553 59.6066 152.651 59.3611 151.734" fill="white"/>
<path d="M56.9127 152.249C56.9127 152.249 54.2996 154.208 53.8264 154.373C53.3531 154.537 49.8244 155.764 49.8244 155.764C49.8244 155.764 49.3101 156.011 49.3101 156.99C49.318 157.414 49.4785 157.822 49.7619 158.137C50.0454 158.452 50.4329 158.654 50.8532 158.706C51.6711 158.871 54.6082 159.361 55.673 158.954C57.1235 158.238 58.5195 157.416 59.8498 156.496C60.5854 156.006 60.6677 155.352 60.2562 154.434C59.9054 153.553 59.6066 152.651 59.3611 151.734" stroke="#263238" stroke-width="0.258086" stroke-miterlimit="10"/>
<path d="M33.3954 41.7771C33.3954 41.7771 39.0022 43.4828 40.998 43.5034C42.9938 43.524 48.9093 42.5398 51.6098 40.4476C54.0623 38.4943 56.3253 36.3135 58.3688 33.9341C60.0406 32.012 61.2854 32.0996 61.4037 34.5989C61.522 37.0981 60.0714 39.9787 58.554 41.4061C57.0365 42.8335 54.5932 43.9827 54.4903 44.4258C54.3875 44.869 54.1097 45.6626 54.1097 45.6626C54.1097 45.6626 58.4923 48.0948 61.1311 49.1821C63.7698 50.2694 65.7039 51.3516 65.0764 52.511C64.4488 53.6705 62.7977 55 61.8563 56.0358C60.915 57.0715 55.6271 60.823 53.9554 61.3383C52.7148 61.7723 51.4293 62.0645 50.1232 62.2092C49.3053 62.2092 49.0944 62.5596 47.7107 61.7866C46.5713 61.1175 45.3968 60.5103 44.1923 59.9676C43.6317 59.7718 42.8344 59.9006 40.6894 58.2671C39.3462 57.2304 38.0681 56.1118 36.8623 54.9175L28.5293 52.6656L33.3954 41.7771Z" fill="white" stroke="#263238" stroke-width="0.258086" stroke-miterlimit="10"/>
<path d="M36.4251 42.0348L30.6897 55.8245L24.9595 54.4332L31.4922 40.5095L36.4251 42.0348Z" fill="white" stroke="#263238" stroke-width="0.258086" stroke-miterlimit="10"/>
<path d="M23.5963 36.2634L33.8069 40.3601L26.9244 56.7419L11.1533 53.7943L11.8632 52.6864L23.5963 36.2634Z" fill="#263238" stroke="#263238" stroke-width="0.258086" stroke-miterlimit="10"/>
<path d="M53.9498 46.4509C53.9498 46.4509 51.9797 50.4703 51.3779 51.3309C50.7761 52.1915 47.2628 53.1912 46.481 52.8768" stroke="#263238" stroke-width="0.258086" stroke-miterlimit="10"/>
<path d="M48.8165 56.4479C48.8165 56.4479 47.6489 56.113 47.3454 57.1023C47.0419 58.0917 48.225 60.6477 48.7754 61.8432C49.3258 63.0387 49.7013 63.2139 51.193 63.3891C52.0674 63.4899 52.9478 63.2603 53.6621 62.745C53.0047 62.2498 52.3856 61.7054 51.8103 61.1166L48.8165 56.4479Z" fill="white" stroke="#263238" stroke-width="0.258086" stroke-miterlimit="10"/>
<path d="M57.6846 60.1891C57.6846 60.1891 55.4985 63.2501 54.5983 62.9924C53.7046 62.7628 52.8631 62.364 52.119 61.8175C51.7023 61.4207 49.3413 58.1176 49.0327 57.2931C48.724 56.4686 48.7446 55.17 49.6448 54.6134L50.545 54.0518C51.4284 54.9498 52.3869 55.7704 53.4101 56.5046C55.0716 57.695 58.2402 59.1636 58.2968 59.5037C58.3533 59.8438 57.6846 60.1891 57.6846 60.1891Z" fill="white" stroke="#263238" stroke-width="0.258086" stroke-miterlimit="10"/>
<path d="M61.6245 56.7779C61.6975 56.9575 61.7203 57.1536 61.6904 57.3452C61.6605 57.5368 61.579 57.7166 61.4547 57.8652C61.0278 58.463 60.5391 60.8283 59.1863 60.7613C57.8334 60.6943 54.5568 59.0659 53.9756 58.6382C53.3943 58.2105 50.7607 54.423 50.524 54.0519C50.2874 53.6809 51.1413 52.506 51.6094 52.1144C52.0775 51.7227 53.3634 52.4648 53.3634 52.4648C53.3634 52.4648 58.569 56.0101 61.6245 56.7779Z" fill="white" stroke="#263238" stroke-width="0.258086" stroke-miterlimit="10"/>
<path d="M62.7976 51.4857C62.7976 51.4857 59.5313 51.5579 59.0375 51.4084C58.5437 51.259 54.979 50.2026 54.979 50.2026C54.979 50.2026 54.4646 50.1202 53.8679 50.9189C53.6276 51.2693 53.5218 51.6948 53.57 52.1172C53.6182 52.5395 53.8172 52.9302 54.1302 53.2172C54.7012 53.8252 56.805 55.938 57.9058 56.2266C59.498 56.4874 61.1073 56.6304 62.7205 56.6543C63.6001 56.6852 64.0476 56.2008 64.2379 55.232C64.4642 54.3095 64.7442 53.401 65.0764 52.5112" fill="white"/>
<path d="M62.7976 51.4857C62.7976 51.4857 59.5313 51.5579 59.0375 51.4084C58.5437 51.259 54.979 50.2026 54.979 50.2026C54.979 50.2026 54.4646 50.1202 53.8679 50.9189C53.6276 51.2693 53.5218 51.6948 53.57 52.1172C53.6182 52.5395 53.8172 52.9302 54.1302 53.2172C54.7012 53.8252 56.805 55.938 57.9058 56.2266C59.498 56.4874 61.1073 56.6304 62.7205 56.6543C63.6001 56.6852 64.0476 56.2008 64.2379 55.232C64.4642 54.3095 64.7442 53.401 65.0764 52.5112" stroke="#263238" stroke-width="0.258086" stroke-miterlimit="10"/>
<path d="M108.716 116.482C108.716 116.482 105.116 132.281 104.972 139.712C104.828 147.143 105.239 173.923 105.378 179.669C105.517 185.415 108.037 204.064 108.037 205.744C108.037 207.424 108.459 210.649 108.459 210.649L107.338 216.679C106.24 217.528 105.07 218.278 103.84 218.92C101.319 220.322 98.3823 222.146 97.5438 223.125C97.4417 223.243 97.3693 223.384 97.3328 223.535C97.2962 223.687 97.2966 223.845 97.334 223.997C97.3713 224.148 97.4444 224.289 97.5472 224.406C97.6499 224.523 97.7793 224.614 97.9245 224.671C98.922 225.062 99.973 225.301 101.042 225.377C103.418 225.516 107.338 225.516 109.436 224.954C111.535 224.393 113.217 222.574 114.194 221.863L115.177 221.162L115.316 222.708C115.787 222.638 116.254 222.544 116.715 222.424C117.742 222.128 118.728 221.706 119.652 221.167C119.652 221.167 119.791 218.781 119.791 217.379C119.791 215.978 119.091 213.453 118.953 212.896C118.814 212.34 118.953 207.284 118.536 205.605C118.119 203.925 117.836 204.342 117.553 201.26C117.271 198.179 119.791 169.012 119.652 168.172C119.513 167.332 123.212 142.067 123.212 142.067C123.212 142.067 130.284 175.047 132.522 181.359C134.76 187.672 135.881 199.864 135.881 200.709C135.881 201.554 137.141 211.5 137.702 212.906C138.263 214.313 139.801 218.652 139.801 218.652C139.801 218.652 142.038 222.017 143.015 223.697C143.993 225.377 147.357 226.789 149.872 227.201C152.388 227.613 154.353 227.763 154.502 224.398C154.651 221.033 153.386 218.791 151.282 217.251C149.178 215.71 148.766 214.308 148.766 214.308C148.919 212.25 148.919 210.183 148.766 208.124C148.483 205.739 146.945 203.914 146.807 199.009C146.668 194.103 145.685 168.306 144.847 164.241C144.008 160.175 142.902 132.977 143.041 129.199C143.18 125.422 142.686 114.869 142.686 114.869L108.613 114.482L108.716 116.482Z" fill="#263238" stroke="#263238" stroke-width="0.258086" stroke-miterlimit="10"/>
<path d="M122.09 59.9984C122.09 59.9984 116.89 63.0903 113.207 64.9145C109.524 66.7387 105.028 67.8002 104.57 68.836C104.113 69.8718 96.1653 86.8358 94.6684 89.1392C93.1715 91.4426 89.6017 95.9465 90.291 98.4818C90.9803 101.017 93.8608 104.48 95.7023 104.253C97.5438 104.027 101.232 102.98 102.729 100.332C104.226 97.6831 107.796 89.1392 107.796 89.1392C107.796 89.1392 108.372 97.1008 108.253 101.022C108.135 104.944 108.14 108.175 107.909 110.133C107.677 112.091 106.643 114.518 107.101 115.209C107.559 115.899 108.13 116.595 108.716 116.482C109.303 116.368 117.929 116.25 120.547 116.363C123.165 116.476 135.171 116.363 137.707 116.482C140.243 116.6 142.429 115.327 142.655 114.864C142.882 114.4 143.35 113.709 143.118 111.174C142.887 108.639 143.35 100.909 144.039 97.9098C144.728 94.9107 148.874 83.3729 148.874 83.3729C148.874 83.3729 159.815 92.025 162.12 92.7155C164.424 93.406 170.638 92.3702 172.711 89.8349C174.784 87.2996 175.473 85.3311 174.208 83.6048C172.942 81.8785 168.334 80.2604 163.498 75.0661C158.663 69.8718 156.811 67.455 153.483 65.8369C150.155 64.2188 143.35 62.0339 141.735 61.3382C140.119 60.6425 139.677 60.3076 138.648 59.8387C137.62 59.3697 135.192 58.4576 130.701 58.3391C127.752 58.3396 124.829 58.9027 122.09 59.9984Z" fill="#FCC548" stroke="#263238" stroke-width="0.258086" stroke-miterlimit="10"/>
<path d="M105.471 80.9663C105.63 81.5228 107.791 89.1391 107.791 89.1391L104.602 82.806" stroke="#263238" stroke-width="0.258086" stroke-miterlimit="10"/>
<path d="M148.895 83.3729C148.417 83.3729 143.89 80.7964 143.89 80.7964" stroke="#263238" stroke-width="0.258086" stroke-miterlimit="10"/>
<path d="M141.585 80.4924C141.585 80.4924 143.412 82.8783 145.001 83.3524" stroke="#263238" stroke-width="0.258086" stroke-miterlimit="10"/>
<path d="M121.443 67.0736L122.888 72.5411C122.888 72.5411 118.31 95.4673 117.59 99.3372C117.151 101.675 116.856 104.038 116.705 106.412L120.717 114.374L125.779 105.768C125.779 105.768 125.295 94.9107 125.136 86.2277C124.976 77.5448 125.295 73.345 125.213 73.1182C125.131 72.8915 130.275 69.0937 130.275 69.0937C130.275 69.0937 133.243 65.7957 133.402 65.234C133.561 64.6723 131.319 65.3937 130.83 65.8781C130.283 66.3418 129.635 66.6705 128.938 66.8378C128.242 67.0052 127.515 67.0065 126.818 66.8418C124.729 66.4398 121.998 64.1106 121.597 65.234C121.357 65.8164 121.303 66.4592 121.443 67.0736Z" fill="#263238" stroke="#263238" stroke-width="0.258086" stroke-miterlimit="10"/>
<path d="M124.894 57.7466C124.652 57.9064 122.728 58.3908 122.085 59.9985C121.442 61.6063 118.15 69.0061 117.188 70.212C116.226 71.4178 117.749 70.9334 119.035 70.1295C120.321 69.3256 121.442 66.1925 122.162 67.553C122.883 68.9134 124.976 69.4802 124.976 69.4802C124.976 69.4802 129.307 68.6763 130.274 68.0322C130.933 67.5714 131.551 67.0541 132.121 66.4863C132.121 66.4863 135.814 72.0362 136.853 72.5154C137.892 72.9946 138.062 72.1959 138.139 71.3096C138.52 68.0788 139.137 64.8804 139.986 61.7403C141.015 58.2825 139.024 57.154 137.738 55.7111C136.452 54.2683 135.007 55.2267 133.566 55.3865C132.126 55.5462 124.894 57.7466 124.894 57.7466Z" fill="#FCC548" stroke="#263238" stroke-width="0.258086" stroke-miterlimit="10"/>
<path d="M122.692 32.9807C122.692 32.9807 120.182 36.7991 120.634 37.7267C121.087 38.6543 121.097 39.8704 120.634 40.5197C120.285 40.9465 120.029 41.4428 119.885 41.9757C119.74 42.5086 119.71 43.0661 119.796 43.6115C119.981 45.1935 119.055 53.1963 120.449 54.129C121.346 54.7132 122.312 55.1824 123.325 55.5255C123.325 55.5255 124.904 68.9236 125.464 68.5526C126.025 68.1815 134.024 59.9727 134.95 58.2C135.876 56.4273 137.007 53.9229 137.007 53.9229C137.007 53.9229 140.166 47.8732 142.023 45.3584C143.88 42.8437 146.019 38.1956 145.371 35.7737C144.723 33.3517 141.374 31.5842 139.795 30.2805C138.216 28.9767 139.24 26.0034 137.007 24.5141C134.775 23.0249 132.085 22.6539 130.32 23.3032C128.556 23.9525 128.463 25.3644 126.324 23.9525C124.184 22.5405 122.147 21.1646 118.896 22.7466C115.645 24.3286 114.992 29.9094 116.941 31.3987C118.891 32.8879 122.692 32.9807 122.692 32.9807Z" fill="white" stroke="#263238" stroke-width="0.258086" stroke-miterlimit="10"/>
<path d="M139.785 30.2805C138.206 28.9819 139.229 26.0034 136.997 24.5141C134.765 23.0249 132.074 22.6539 130.31 23.3032C128.546 23.9525 128.453 25.3644 126.313 23.9525C124.173 22.5405 122.136 21.1646 118.886 22.7466C115.635 24.3286 114.981 29.9094 116.931 31.3987C118.88 32.8879 122.692 32.9807 122.692 32.9807C122.692 32.9807 125.48 31.677 127.321 30.6566C129.163 29.6363 133.36 31.3059 134.101 31.9604C134.842 32.6148 133.731 32.1459 133.546 33.3517C133.36 34.5575 135.68 36.5209 136.704 37.4742C137.727 38.4275 136.519 39.0562 136.241 40.2672C135.963 41.4782 137.074 41.9419 137.727 41.4782C138.381 41.0144 140.418 38.3863 141.164 39.8962C141.909 41.406 143.021 43.6167 140.978 45.1987C138.936 46.7807 137.445 46.4097 137.445 46.4097C137.445 46.4097 136.781 50.4394 138.71 50.7538C139.711 48.9077 140.808 47.1154 141.997 45.3842C143.859 42.8747 145.994 38.2214 145.346 35.7994C144.697 33.3775 141.364 31.5842 139.785 30.2805Z" fill="#263238" stroke="#263238" stroke-width="0.258086" stroke-miterlimit="10"/>
<path d="M127.708 37.9122C128.3 37.6906 128.933 37.5958 129.564 37.634" stroke="#263238" stroke-width="0.172057" stroke-miterlimit="10"/>
<path d="M122.955 38.8296C122.496 38.9268 122.053 39.0863 121.638 39.3037" stroke="#263238" stroke-width="0.172057" stroke-miterlimit="10"/>
<path d="M122.985 36.2891C123.316 36.9226 123.412 37.6525 123.258 38.3503C122.954 39.3809 120.079 41.6328 120.115 42.0708C120.151 42.5089 121.802 43.4261 121.771 43.7971C121.741 44.1682 121.638 44.7814 121.638 44.7814" stroke="#263238" stroke-width="0.258086" stroke-miterlimit="10"/>
<path d="M129.271 39.2005C129.606 39.2005 129.878 38.8659 129.878 38.4533C129.878 38.0406 129.606 37.7061 129.271 37.7061C128.936 37.7061 128.664 38.0406 128.664 38.4533C128.664 38.8659 128.936 39.2005 129.271 39.2005Z" fill="#263238" stroke="#263238" stroke-width="0.172057" stroke-miterlimit="10"/>
<path d="M128.088 39.6746C128.905 39.332 129.775 39.1366 130.66 39.0974" stroke="#263238" stroke-width="0.258086" stroke-miterlimit="10"/>
<path d="M125.943 35.1914C125.943 35.1914 127.934 33.3415 129.477 33.7125C131.02 34.0835 131.607 35.5728 131.36 35.5779C131.113 35.5831 130.331 34.4339 129.487 34.3463C128.644 34.2587 128.042 34.6607 127.312 35.0317C126.581 35.4027 126.134 35.6604 125.943 35.1914Z" fill="#263238" stroke="#263238" stroke-width="0.172057" stroke-miterlimit="10"/>
<path d="M123.119 36.66C123.096 36.5342 123.047 36.4147 122.975 36.3092C122.903 36.2036 122.81 36.1145 122.701 36.0474C122.592 35.9804 122.471 35.9369 122.344 35.9199C122.218 35.903 122.089 35.9128 121.967 35.9488C121.056 36.088 120.367 37.7473 120.645 37.7267C120.923 37.706 121.226 36.66 121.936 36.5621C122.646 36.4642 123.119 37.5772 123.119 36.66Z" fill="#263238" stroke="#263238" stroke-width="0.172057" stroke-miterlimit="10"/>
<path d="M121.576 46.8838C121.576 46.8838 123.032 46.7138 124.925 46.4767C126.818 46.2397 129.482 45.8687 129.925 44.5134C130.177 43.8568 130.291 43.155 130.259 42.4521" stroke="#263238" stroke-width="0.258086" stroke-miterlimit="10"/>
<path d="M129.235 42.349C129.79 42.3039 130.347 42.3384 130.892 42.4514" stroke="#263238" stroke-width="0.258086" stroke-miterlimit="10"/>
<path d="M137.033 49.0378C136.767 50.294 136.031 51.4004 134.976 52.1297C133.288 53.2067 120.897 54.4383 121.308 54.5929C121.72 54.7475 123.33 55.5204 123.33 55.5204L123.813 59.9264C125.765 58.1956 127.935 56.7298 130.269 55.5668C134.374 53.4334 136.935 52.7275 137.033 49.0378Z" fill="#263238" stroke="#263238" stroke-width="0.172057" stroke-miterlimit="10"/>
<path d="M143.946 109.211C143.946 109.211 141.642 109.097 141.066 108.984C140.49 108.87 138.648 107.134 137.841 107.252C137.033 107.371 135.541 108.984 134.965 110.344C134.389 111.705 134.158 112.405 134.158 112.405C134.158 112.405 132.1 114.25 133.129 115.497C134.158 116.744 135.32 116.306 135.32 116.306C135.32 116.306 136.009 117.461 136.93 117.574C137.613 117.65 138.3 117.69 138.988 117.693C139.584 117.876 140.207 117.954 140.829 117.924C141.321 117.816 141.79 117.621 142.213 117.347C142.701 117.404 143.194 117.28 143.597 116.997C144.018 116.662 146.061 114.57 147.115 113.493L147.737 112.849L143.946 109.211Z" fill="white" stroke="#263238" stroke-width="0.258086" stroke-miterlimit="10"/>
<path d="M163.174 85.4496C163.174 85.4496 158.915 90.1801 157.516 92.4836C155.286 95.9983 152.865 99.3873 150.263 102.635C148.653 104.48 143.01 108.984 143.01 108.984C143.01 108.984 144.733 112.673 146.004 113.251C146.743 113.591 147.513 113.86 148.303 114.054L152.933 110.597C152.933 110.597 161.677 103.898 166.307 100.1C170.936 96.302 177.361 91.2159 177.824 89.0258C178.287 86.8358 177.937 85.6815 175.638 83.95C174.207 82.8889 172.612 82.0707 170.916 81.5281" fill="#FCC548"/>
<path d="M163.174 85.4496C163.174 85.4496 158.915 90.1801 157.516 92.4836C155.286 95.9983 152.865 99.3873 150.263 102.635C148.653 104.48 143.01 108.984 143.01 108.984C143.01 108.984 144.733 112.673 146.004 113.251C146.743 113.591 147.513 113.86 148.303 114.054L152.933 110.597C152.933 110.597 161.677 103.898 166.307 100.1C170.936 96.302 177.361 91.2159 177.824 89.0258C178.287 86.8358 177.937 85.6815 175.638 83.95C174.207 82.8889 172.612 82.0707 170.916 81.5281" stroke="#263238" stroke-width="0.258086" stroke-miterlimit="10"/>
<path d="M146.596 106.098C146.596 106.098 147.624 111.174 151.199 111.174" stroke="#263238" stroke-width="0.258086" stroke-miterlimit="10"/>
<path d="M96.4229 68.7227C96.4229 68.7227 96.8961 72.7782 97.1379 74.6076C97.2068 75.5295 97.4773 76.4249 97.93 77.2305C97.93 77.2305 94.2007 85.5785 94.0412 85.8207C93.8818 86.0629 89.993 93.3752 89.3552 94.2461C88.7174 95.1169 87.2154 97.9048 88.167 99.6568C89.1186 101.409 90.6257 104.985 92.6113 105.062C94.5968 105.14 97.3745 103.949 99.2983 102.836C101.222 101.723 101.839 101.007 101.999 97.8275C102.158 94.648 102.076 88.9229 102.637 85.898C103.197 82.8732 103.588 79.7143 103.984 78.5033C104.38 77.2923 106.685 77.7097 107.477 77.2305C108.269 76.7513 108.984 75.7206 110.414 75.0817C111.654 74.6093 113.003 74.5003 114.303 74.7673C114.781 74.9271 115.651 74.2108 115.414 73.3348C115.177 72.4587 113.588 71.9846 111.998 72.1392C110.409 72.2938 108.984 72.7782 108.588 72.5412C108.192 72.3041 107.796 68.0837 107.796 68.0837C107.796 68.0837 102.138 68.563 100.173 68.6403C98.2078 68.7176 96.4229 68.7227 96.4229 68.7227Z" fill="white" stroke="#263238" stroke-width="0.258086" stroke-miterlimit="10"/>
<path d="M105.151 65.6206C105.151 65.6206 105.234 70.8716 105.234 71.3457C105.235 71.4562 105.258 71.5654 105.304 71.6664C105.349 71.7673 105.414 71.8579 105.496 71.9323C105.577 72.0068 105.673 72.0636 105.778 72.0992C105.882 72.1348 105.993 72.1485 106.103 72.1392C106.504 72.0619 107.533 72.4587 107.775 71.2684C108.016 70.078 108.485 66.7336 108.248 65.9401C108.011 65.1465 105.866 64.827 105.151 65.6206Z" fill="white" stroke="#263238" stroke-width="0.258086" stroke-miterlimit="10"/>
<path d="M105.152 65.6206C105.152 65.6206 102.616 64.9868 101.901 65.3835C101.186 65.7803 102.297 71.4281 102.374 71.9022C102.451 72.3763 103.568 72.6185 104.041 72.4588C104.514 72.299 105.234 71.9847 105.234 71.3457C105.234 70.7067 105.152 65.6206 105.152 65.6206Z" fill="white" stroke="#263238" stroke-width="0.258086" stroke-miterlimit="10"/>
<path d="M101.346 65.5433C101.346 65.5433 99.6789 65.2238 99.2006 65.7803C98.7222 66.3368 98.5679 67.1304 98.7222 68.563C98.932 69.9729 99.3607 71.3413 99.9927 72.6185C100.312 73.0977 101.346 73.175 101.978 72.938C102.611 72.7009 102.374 71.9074 102.374 71.9074C102.374 71.9074 102.055 71.5879 101.978 69.1247C101.901 66.6615 101.901 65.3887 101.901 65.3887L101.346 65.5433Z" fill="white" stroke="#263238" stroke-width="0.258086" stroke-miterlimit="10"/>
<path d="M98.5676 66.4966C98.2487 66.5739 96.2632 66.6563 96.186 67.4499C96.1088 68.2435 96.8187 71.9846 97.1376 72.3814C97.4565 72.7782 98.3258 72.6185 98.6448 72.4587C98.9637 72.299 99.5192 72.0619 99.4369 71.5827C99.3546 71.1035 98.5676 66.4966 98.5676 66.4966Z" fill="white" stroke="#263238" stroke-width="0.258086" stroke-miterlimit="10"/>
<path d="M99.2002 82.2392C98.6301 82.1482 98.0932 81.9104 97.6424 81.5491C97.1915 81.1878 96.8421 80.7153 96.6283 80.178C95.5378 82.6102 94.149 85.6866 94.0564 85.8464C93.8969 86.0834 90.0082 93.4008 89.3703 94.2717C88.7325 95.1426 87.2305 97.9304 88.1821 99.6825C89.1337 101.435 90.6409 105.011 92.6264 105.088C94.6119 105.165 97.3896 103.975 99.3134 102.862C101.237 101.749 101.854 101.033 102.014 97.8531C102.173 94.6737 102.091 88.9486 102.652 85.9237C102.919 84.4396 103.166 82.9246 103.372 81.6157C102.032 82.0828 100.617 82.2943 99.2002 82.2392Z" fill="#FCC548" stroke="#263238" stroke-width="0.258086" stroke-miterlimit="10"/>
<path d="M102.852 73.4944C102.852 73.4944 101.499 74.6848 101.345 75.7205C101.265 76.3824 101.404 77.0523 101.741 77.6272" fill="white"/>
<path d="M102.852 73.4944C102.852 73.4944 101.499 74.6848 101.345 75.7205C101.265 76.3824 101.404 77.0523 101.741 77.6272" stroke="#263238" stroke-width="0.258086" stroke-miterlimit="10"/>
</svg>
