<svg width="202" height="202" viewBox="0 0 202 202" fill="none" xmlns="http://www.w3.org/2000/svg">
<path d="M101 202C156.781 202 202 156.781 202 101C202 45.2192 156.781 0 101 0C45.2192 0 0 45.2192 0 101C0 156.781 45.2192 202 101 202Z" fill="#FCC548"/>
<path d="M40.17 133V128.94H38.49V128.1H42.795V128.94H41.08V133H40.17ZM45.2162 133V128.1H48.9682V128.926H46.1122V132.174H48.9962V133H45.2162ZM45.6782 130.9V130.088H48.6112V130.9H45.6782ZM55.4351 133V128.1H56.3451V133H55.4351ZM51.7461 133V128.1H52.6561V133H51.7461ZM52.1241 130.998L52.1311 130.144H55.8761V130.998H52.1241ZM66.8354 133L66.2964 132.419L66.0164 132.16L64.7564 130.935C64.6164 130.8 64.4764 130.662 64.3364 130.522C64.2011 130.382 64.0774 130.242 63.9654 130.102C63.8534 129.957 63.7624 129.815 63.6924 129.675C63.6271 129.535 63.5944 129.395 63.5944 129.255C63.5944 129.045 63.6597 128.844 63.7904 128.653C63.9257 128.462 64.1147 128.305 64.3574 128.184C64.6047 128.063 64.8964 128.002 65.2324 128.002C65.5171 128.002 65.7761 128.044 66.0094 128.128C66.2427 128.212 66.4411 128.326 66.6044 128.471C66.7724 128.616 66.9007 128.781 66.9894 128.968L66.3454 129.465C66.2101 129.222 66.0467 129.05 65.8554 128.947C65.6641 128.84 65.4657 128.786 65.2604 128.786C65.1297 128.786 65.0131 128.802 64.9104 128.835C64.8077 128.868 64.7261 128.919 64.6654 128.989C64.6047 129.059 64.5744 129.145 64.5744 129.248C64.5744 129.332 64.6024 129.425 64.6584 129.528C64.7144 129.626 64.7844 129.726 64.8684 129.829C64.9524 129.932 65.0411 130.03 65.1344 130.123C65.2324 130.216 65.3187 130.298 65.3934 130.368L66.6884 131.6L66.9474 131.88L67.9974 133H66.8354ZM64.8544 133.091C64.4157 133.091 64.0401 133.019 63.7274 132.874C63.4194 132.729 63.1837 132.538 63.0204 132.3C62.8617 132.062 62.7824 131.805 62.7824 131.53C62.7824 131.199 62.8874 130.898 63.0974 130.627C63.3121 130.352 63.6364 130.132 64.0704 129.969L64.6234 130.536C64.3061 130.62 64.0774 130.737 63.9374 130.886C63.8021 131.035 63.7344 131.213 63.7344 131.418C63.7344 131.577 63.7764 131.721 63.8604 131.852C63.9444 131.983 64.0751 132.088 64.2524 132.167C64.4297 132.242 64.6584 132.279 64.9384 132.279C65.1251 132.279 65.3141 132.249 65.5054 132.188C65.6967 132.123 65.8717 132.025 66.0304 131.894C66.1937 131.759 66.3267 131.588 66.4294 131.383C66.5367 131.178 66.5951 130.935 66.6044 130.655H67.4724C67.4584 130.972 67.3954 131.262 67.2834 131.523C67.1761 131.78 67.0361 132.006 66.8634 132.202C66.6954 132.398 66.5017 132.561 66.2824 132.692C66.0631 132.823 65.8321 132.923 65.5894 132.993C65.3514 133.058 65.1064 133.091 64.8544 133.091ZM74.2088 133V128.1H75.0698L77.1068 130.928L76.6518 130.921L78.6958 128.1H79.5428V133H78.6398V131.117C78.6398 130.716 78.6491 130.347 78.6678 130.011C78.6864 129.67 78.7238 129.327 78.7798 128.982L78.8778 129.304L77.0928 131.67H76.6308L74.8738 129.304L74.9718 128.982C75.0278 129.318 75.0651 129.654 75.0838 129.99C75.1024 130.326 75.1118 130.702 75.1118 131.117V133H74.2088ZM82.4474 133V132.167H83.5254V128.933H82.4474V128.1H85.5134V128.933H84.4354V132.167H85.5134V133H82.4474ZM88.4171 133V128.1H89.2781L92.6661 131.929L92.5541 131.957C92.5308 131.812 92.5121 131.665 92.4981 131.516C92.4841 131.367 92.4701 131.213 92.4561 131.054C92.4468 130.895 92.4375 130.734 92.4281 130.571C92.4235 130.408 92.4188 130.244 92.4141 130.081C92.4141 129.913 92.4141 129.743 92.4141 129.57V128.1H93.3171V133H92.4421L89.0401 129.227L89.1801 129.178C89.1941 129.341 89.2081 129.493 89.2221 129.633C89.2361 129.768 89.2478 129.901 89.2571 130.032C89.2711 130.163 89.2828 130.289 89.2921 130.41C89.3015 130.527 89.3085 130.643 89.3131 130.76C89.3178 130.877 89.3201 130.991 89.3201 131.103V133H88.4171ZM98.4651 133.042C98.0171 133.042 97.6204 132.949 97.2751 132.762C96.9297 132.571 96.6591 132.309 96.4631 131.978C96.2717 131.647 96.1761 131.273 96.1761 130.858V128.093H97.0931V130.816C97.0931 131.082 97.1537 131.32 97.2751 131.53C97.3964 131.735 97.5621 131.899 97.7721 132.02C97.9821 132.137 98.2131 132.195 98.4651 132.195C98.7357 132.195 98.9784 132.137 99.1931 132.02C99.4077 131.899 99.5757 131.735 99.6971 131.53C99.8184 131.32 99.8791 131.082 99.8791 130.816V128.093H100.761V130.858C100.761 131.273 100.663 131.647 100.467 131.978C100.276 132.309 100.007 132.571 99.6621 132.762C99.3214 132.949 98.9224 133.042 98.4651 133.042ZM103.617 133V128.1H104.478L106.515 130.928L106.06 130.921L108.104 128.1H108.951V133H108.048V131.117C108.048 130.716 108.057 130.347 108.076 130.011C108.094 129.67 108.132 129.327 108.188 128.982L108.286 129.304L106.501 131.67H106.039L104.282 129.304L104.38 128.982C104.436 129.318 104.473 129.654 104.492 129.99C104.51 130.326 104.52 130.702 104.52 131.117V133H103.617ZM111.26 133L113.444 128.1H114.361L116.538 133H115.579L114.235 129.976C114.198 129.901 114.158 129.813 114.116 129.71C114.079 129.607 114.039 129.502 113.997 129.395C113.955 129.283 113.916 129.176 113.878 129.073C113.841 128.966 113.808 128.87 113.78 128.786L113.99 128.779C113.958 128.877 113.923 128.98 113.885 129.087C113.848 129.19 113.808 129.295 113.766 129.402C113.724 129.509 113.682 129.612 113.64 129.71C113.598 129.808 113.559 129.904 113.521 129.997L112.184 133H111.26ZM112.24 131.922L112.562 131.131H115.18L115.404 131.922H112.24ZM118.85 133V128.1H119.711L123.099 131.929L122.987 131.957C122.964 131.812 122.945 131.665 122.931 131.516C122.917 131.367 122.903 131.213 122.889 131.054C122.88 130.895 122.871 130.734 122.861 130.571C122.857 130.408 122.852 130.244 122.847 130.081C122.847 129.913 122.847 129.743 122.847 129.57V128.1H123.75V133H122.875L119.473 129.227L119.613 129.178C119.627 129.341 119.641 129.493 119.655 129.633C119.669 129.768 119.681 129.901 119.69 130.032C119.704 130.163 119.716 130.289 119.725 130.41C119.735 130.527 119.742 130.643 119.746 130.76C119.751 130.877 119.753 130.991 119.753 131.103V133H118.85ZM132.358 133.07C132.026 133.07 131.721 133.035 131.441 132.965C131.165 132.89 130.913 132.785 130.685 132.65C130.461 132.515 130.258 132.344 130.076 132.139L130.615 131.425C130.899 131.738 131.184 131.959 131.469 132.09C131.758 132.216 132.068 132.279 132.4 132.279C132.591 132.279 132.771 132.256 132.939 132.209C133.111 132.158 133.251 132.085 133.359 131.992C133.471 131.894 133.527 131.775 133.527 131.635C133.527 131.542 133.499 131.462 133.443 131.397C133.391 131.327 133.319 131.269 133.226 131.222C133.137 131.171 133.034 131.129 132.918 131.096C132.801 131.063 132.68 131.035 132.554 131.012C132.428 130.989 132.302 130.968 132.176 130.949C131.882 130.902 131.62 130.842 131.392 130.767C131.163 130.688 130.969 130.587 130.811 130.466C130.652 130.345 130.531 130.202 130.447 130.039C130.367 129.876 130.328 129.687 130.328 129.472C130.328 129.248 130.379 129.047 130.482 128.87C130.584 128.688 130.729 128.534 130.916 128.408C131.102 128.282 131.317 128.186 131.56 128.121C131.807 128.051 132.075 128.016 132.365 128.016C132.673 128.016 132.95 128.049 133.198 128.114C133.45 128.179 133.671 128.275 133.863 128.401C134.054 128.522 134.215 128.669 134.346 128.842L133.779 129.465C133.662 129.325 133.527 129.206 133.373 129.108C133.223 129.01 133.062 128.938 132.89 128.891C132.717 128.84 132.535 128.814 132.344 128.814C132.138 128.814 131.956 128.837 131.798 128.884C131.639 128.931 131.513 128.998 131.42 129.087C131.326 129.176 131.28 129.283 131.28 129.409C131.28 129.512 131.31 129.603 131.371 129.682C131.431 129.757 131.515 129.822 131.623 129.878C131.735 129.929 131.865 129.974 132.015 130.011C132.164 130.044 132.327 130.074 132.505 130.102C132.775 130.144 133.03 130.198 133.268 130.263C133.506 130.328 133.716 130.415 133.898 130.522C134.08 130.625 134.22 130.755 134.318 130.914C134.42 131.068 134.472 131.262 134.472 131.495C134.472 131.817 134.383 132.097 134.206 132.335C134.028 132.568 133.781 132.75 133.464 132.881C133.151 133.007 132.782 133.07 132.358 133.07ZM137.039 133V128.1H140.791V128.926H137.935V132.174H140.819V133H137.039ZM137.501 130.9V130.088H140.434V130.9H137.501ZM145.984 133.07C145.601 133.07 145.242 133.012 144.906 132.895C144.57 132.778 144.276 132.613 144.024 132.398C143.772 132.179 143.574 131.913 143.429 131.6C143.289 131.287 143.219 130.935 143.219 130.543C143.219 130.188 143.291 129.859 143.436 129.556C143.581 129.248 143.781 128.982 144.038 128.758C144.295 128.529 144.596 128.352 144.941 128.226C145.291 128.1 145.667 128.037 146.068 128.037C146.381 128.037 146.675 128.074 146.95 128.149C147.23 128.224 147.475 128.324 147.685 128.45C147.9 128.576 148.072 128.714 148.203 128.863L147.629 129.486C147.484 129.365 147.33 129.26 147.167 129.171C147.004 129.082 146.829 129.012 146.642 128.961C146.46 128.91 146.266 128.884 146.061 128.884C145.795 128.884 145.545 128.926 145.312 129.01C145.083 129.094 144.883 129.211 144.71 129.36C144.542 129.509 144.409 129.684 144.311 129.885C144.218 130.086 144.171 130.305 144.171 130.543C144.171 130.814 144.22 131.054 144.318 131.264C144.421 131.469 144.558 131.644 144.731 131.789C144.908 131.934 145.111 132.043 145.34 132.118C145.569 132.188 145.807 132.223 146.054 132.223C146.283 132.223 146.495 132.197 146.691 132.146C146.892 132.095 147.064 132.022 147.209 131.929C147.358 131.836 147.475 131.728 147.559 131.607C147.643 131.481 147.683 131.343 147.678 131.194L147.671 131.068L147.804 131.243H146.019V130.445H148.588C148.597 130.506 148.604 130.566 148.609 130.627C148.614 130.683 148.616 130.734 148.616 130.781C148.621 130.828 148.623 130.865 148.623 130.893C148.623 131.238 148.558 131.546 148.427 131.817C148.301 132.088 148.119 132.316 147.881 132.503C147.643 132.685 147.363 132.825 147.041 132.923C146.724 133.021 146.371 133.07 145.984 133.07ZM150.474 133L152.658 128.1H153.575L155.752 133H154.793L153.449 129.976C153.412 129.901 153.372 129.813 153.33 129.71C153.293 129.607 153.253 129.502 153.211 129.395C153.169 129.283 153.13 129.176 153.092 129.073C153.055 128.966 153.022 128.87 152.994 128.786L153.204 128.779C153.172 128.877 153.137 128.98 153.099 129.087C153.062 129.19 153.022 129.295 152.98 129.402C152.938 129.509 152.896 129.612 152.854 129.71C152.812 129.808 152.773 129.904 152.735 129.997L151.398 133H150.474ZM151.454 131.922L151.776 131.131H154.394L154.618 131.922H151.454ZM158.064 133V128.1H160.598C160.911 128.1 161.191 128.168 161.438 128.303C161.686 128.434 161.882 128.616 162.026 128.849C162.176 129.082 162.25 129.348 162.25 129.647C162.25 129.936 162.173 130.202 162.019 130.445C161.865 130.683 161.66 130.872 161.403 131.012C161.147 131.152 160.862 131.222 160.549 131.222H158.953V133H158.064ZM161.403 133L159.919 130.788L160.871 130.613L162.495 133.007L161.403 133ZM158.953 130.431H160.507C160.657 130.431 160.792 130.398 160.913 130.333C161.035 130.263 161.13 130.17 161.2 130.053C161.275 129.936 161.312 129.806 161.312 129.661C161.312 129.516 161.273 129.39 161.193 129.283C161.114 129.171 161.007 129.082 160.871 129.017C160.741 128.952 160.591 128.919 160.423 128.919H158.953V130.431Z" fill="black"/>
<path d="M110 83.9614H117V116.961H110V83.9614Z" fill="black"/>
<path d="M123.5 83.9614H130L123.194 104.02L117.108 103.099L123.5 83.9614Z" fill="black"/>
<path d="M119 101.95L124.5 99.4614L131 116.961H124L119 101.95Z" fill="black"/>
<path d="M124 97.9614H117V103.961H124V97.9614Z" fill="black"/>
<g clip-path="url(#clip0_714_2484)">
<path d="M96.3272 75.3148C96.309 75.236 96.2908 75.1571 96.2847 75.0627C96.3129 74.9921 96.3348 74.9377 96.3441 74.8817C96.5229 73.8026 96.6638 72.7168 96.8882 71.646C97.1107 70.5843 97.4726 69.5544 97.8951 68.5448C98.2772 67.6317 98.7253 66.7501 99.2501 65.9048C99.4766 65.5402 99.7178 65.1816 99.9807 64.8404C100.413 64.2785 100.848 63.7153 101.32 63.1845C102.209 62.1853 103.198 61.2817 104.299 60.5025C105.118 59.9228 105.949 59.3569 106.802 58.8253C107.574 58.3436 108.375 57.9031 109.177 57.4689C110.234 56.8966 111.31 56.3579 112.368 55.7868C113.467 55.1932 114.565 54.5957 115.644 53.9678C116.829 53.2781 117.93 52.4754 118.898 51.5129C119.095 51.3174 119.274 51.1053 119.461 50.9008C119.397 50.8877 119.362 50.9033 119.335 50.9272C119.149 51.092 118.967 51.2622 118.778 51.424C117.267 52.7163 115.53 53.6685 113.76 54.5692C112.833 55.0408 111.893 55.4873 110.959 55.9456C110.013 56.4099 109.053 56.8507 108.125 57.3455C107.022 57.9329 105.935 58.5498 104.86 59.1852C103.522 59.9768 102.277 60.8967 101.173 61.977C100.551 62.5862 99.9613 63.232 99.4084 63.9005C99.0158 64.3752 98.6914 64.9056 98.3695 65.4295C98.105 65.86 97.8828 66.3147 97.6538 66.7642C97.5209 67.025 97.4115 67.2967 97.2685 67.6149C97.0961 67.0788 96.9135 66.6022 96.7926 66.1105C96.6675 65.602 96.5945 65.0801 96.5128 64.5618C96.3891 63.7776 96.4142 62.9905 96.5135 62.2006C96.6673 60.9782 97.0827 59.836 97.7035 58.7612C98.1493 57.9895 98.7089 57.2901 99.3353 56.6453C100.275 55.6775 101.35 54.8649 102.511 54.1605C103.795 53.3813 105.143 52.724 106.559 52.2052C107.291 51.937 108.022 51.6628 108.763 51.4193C109.417 51.2043 110.082 51.0246 110.745 50.8358C111.343 50.6654 111.944 50.5066 112.542 50.3375C113.264 50.1334 113.987 49.9316 114.706 49.7143C115.278 49.541 115.851 49.3624 116.412 49.1564C117.079 48.9114 117.749 48.6645 118.392 48.3656C120.02 47.6089 121.503 46.6401 122.791 45.4042C122.9 45.2998 122.986 45.1734 123.083 45.0572C123.122 45.0482 123.161 45.0392 123.203 45.0294C123.242 45.1974 123.281 45.3654 123.307 45.5521C123.284 45.5871 123.265 45.6032 123.264 45.6198C123.23 46.3029 123.232 46.9892 123.155 47.6685C123.046 48.6346 122.809 49.5836 122.471 50.5027C122.139 51.4056 121.801 52.3109 121.388 53.1821C120.917 54.1779 120.373 55.1437 119.835 56.1096C119.581 56.5645 119.281 56.9973 118.979 57.4255C118.387 58.2647 117.805 59.1116 117.172 59.9215C116.609 60.6414 116 61.3309 115.38 62.0064C114.37 63.1062 113.235 64.08 112.029 64.9756C111.161 65.6197 110.25 66.1977 109.302 66.7242C108.011 67.4403 106.655 68.003 105.236 68.4102C104.302 68.678 103.346 68.8667 102.377 68.9495C101.322 69.0395 100.268 69.0366 99.2199 68.9026C99.1717 68.8965 99.0988 68.9221 99.0676 68.9575C98.97 69.0684 98.8697 69.1827 98.8012 69.3106C98.4995 69.8734 98.1673 70.426 97.9238 71.0112C97.5916 71.8096 97.3249 72.6328 97.0406 73.4486C96.9406 73.7358 96.8717 74.0327 96.7931 74.3093C97.2301 73.8957 97.6434 73.4637 98.1003 73.0804C99.1675 72.185 100.354 71.4647 101.623 70.8649C102.452 70.4726 103.303 70.1345 104.185 69.8914C104.829 69.7141 105.495 69.5942 106.158 69.515C106.916 69.4245 107.685 69.3493 108.445 69.3699C110.207 69.4177 111.965 69.5327 113.726 69.6088C114.407 69.6381 115.09 69.6558 115.771 69.6413C116.311 69.6299 116.854 69.5861 117.39 69.5105C117.826 69.4489 118.253 69.3191 118.685 69.2195C118.579 69.2419 118.474 69.265 118.368 69.2908C117.77 69.4378 117.158 69.4933 116.549 69.471C115.429 69.4299 114.308 69.378 113.192 69.2845C111.282 69.1244 109.379 68.8747 107.454 68.9038C106.711 68.915 105.967 68.9819 105.225 69.0317C104.939 69.0508 104.654 69.0928 104.372 69.124C104.63 69.0447 104.891 68.9655 105.151 68.8847C105.644 68.731 106.146 68.5972 106.63 68.4169C107.264 68.1806 107.898 67.9355 108.506 67.6438C109.649 67.0961 110.734 66.4503 111.765 65.7189C111.853 65.656 111.991 65.6146 112.097 65.6268C112.526 65.6761 112.962 65.7159 113.376 65.8223C114.367 66.0765 115.353 66.3534 116.332 66.6455C117.375 66.9566 118.394 67.3459 119.48 67.5181C120.265 67.6425 121.056 67.6832 121.841 67.5071C122.289 67.4067 122.726 67.254 123.17 67.1239C123.166 67.1382 123.164 67.1715 123.148 67.1959C122.812 67.6965 122.5 68.2138 122.132 68.6921C121.337 69.7277 120.325 70.5532 119.222 71.2594C118.423 71.7704 117.582 72.2226 116.735 72.6558C116.159 72.9504 115.545 73.1747 114.941 73.4149C114.589 73.5553 114.222 73.6634 113.864 73.7916C113.829 73.8044 113.807 73.8557 113.779 73.8891C112.626 74.1553 111.473 74.4215 110.299 74.6752C110.249 74.6546 110.217 74.6367 110.188 74.6398C109.844 74.676 109.501 74.715 109.157 74.7539C108.185 74.8639 107.213 74.8517 106.245 74.7675C105.021 74.6611 103.835 74.3976 102.706 73.928C101.939 73.6088 101.215 73.2197 100.573 72.7051C100.36 72.5342 100.163 72.4963 99.9179 72.6449C99.7574 72.7423 99.575 72.8048 99.4101 72.8963C98.7047 73.2876 98.0323 73.726 97.4372 74.2658C97.0599 74.608 96.6967 74.9647 96.3272 75.3148ZM119.458 50.8353C119.488 50.8241 119.517 50.8128 119.547 50.8015C119.543 50.7913 119.539 50.781 119.535 50.7708C119.51 50.7821 119.485 50.7934 119.458 50.8353ZM119.565 50.7061C119.578 50.705 119.592 50.7038 119.605 50.7027C119.594 50.6961 119.582 50.6896 119.565 50.7061Z" fill="#5A953B"/>
</g>
<path d="M35 83.9614H17V89.9614H35V83.9614Z" fill="black"/>
<path d="M22.7 89.961V116.961H29.7V89.961H22.7Z" fill="black"/>
<path d="M49.5 83.9614H42V116.961H49.5V83.9614Z" fill="black"/>
<path d="M57.5 83.9614H49.5V89.9614H57.5V83.9614Z" fill="black"/>
<path d="M57.5 96.9614H49.5V102.961H57.5V96.9614Z" fill="black"/>
<path d="M57.5 110.961H49.5V116.961H57.5V110.961Z" fill="black"/>
<path d="M93 83.9614H100.5V116.961H93V83.9614Z" fill="black"/>
<path d="M72 83.9614H65V116.961H72V83.9614Z" fill="black"/>
<path d="M78 83.9614C81.4794 83.9614 84.3 86.782 84.3 90.2614V110.661C84.3 114.141 81.4794 116.961 78 116.961V83.9614Z" fill="black"/>
<path d="M72 83.9614H77.3C79.8957 83.9614 82 86.0656 82 88.6614H72V83.9614Z" fill="black"/>
<path d="M72 111.961H83C83 114.723 80.7614 116.961 78 116.961H72V111.961Z" fill="black"/>
<path d="M137.5 87.9614H144.5V116.961H137.5V87.9614Z" fill="black"/>
<path d="M150 87.9614C150 87.9614 156.5 87.9614 157 87.9614C157.5 87.9614 157 116.961 157 116.961H150V87.9614Z" fill="black"/>
<path d="M144.5 100.461H150.3V105.961H144.5V100.461Z" fill="black"/>
<path d="M138.644 86.1301C139.496 84.7682 140.949 83.898 142.552 83.7912L143.75 83.7113L147.317 83.7114L151.312 83.8504C153.305 83.9197 155.134 84.9752 156.191 86.6667L157 87.9613H152H147.317H137.5L138.644 86.1301Z" fill="black"/>
<path d="M166 88.9614C166 88.9614 172.515 88.9614 173 88.9614C173.485 88.9614 173 116.961 173 116.961H166V88.9614Z" fill="black"/>
<path d="M178 83.9614H166V88.9614H178V83.9614Z" fill="black"/>
<path d="M178 98.9614H166V103.961H178V98.9614Z" fill="black"/>
<path d="M178 83.9614C181.59 83.9614 184.5 86.8715 184.5 90.4614V97.4614C184.5 101.051 181.59 103.961 178 103.961V83.9614Z" fill="black"/>
<defs>
<clipPath id="clip0_714_2484">
<rect width="33" height="26" fill="white" transform="translate(91 52.4234) rotate(-13)"/>
</clipPath>
</defs>
</svg>
